%TF.GenerationSoftware,KiCad,Pcbnew,8.0.6*%
%TF.CreationDate,2024-11-06T21:47:20-05:00*%
%TF.ProjectId,VGA Input Board,56474120-496e-4707-9574-20426f617264,rev?*%
%TF.SameCoordinates,Original*%
%TF.FileFunction,Legend,Top*%
%TF.FilePolarity,Positive*%
%FSLAX46Y46*%
G04 Gerber Fmt 4.6, Leading zero omitted, Abs format (unit mm)*
G04 Created by KiCad (PCBNEW 8.0.6) date 2024-11-06 21:47:20*
%MOMM*%
%LPD*%
G01*
G04 APERTURE LIST*
%ADD10C,0.000000*%
%ADD11C,0.150000*%
%ADD12C,0.152000*%
G04 APERTURE END LIST*
D10*
G36*
X156035725Y-110207387D02*
G01*
X156043663Y-110207387D01*
X156302954Y-108289158D01*
X156705121Y-108289158D01*
X156295017Y-111022304D01*
X155723517Y-111022304D01*
X155316059Y-108289158D01*
X155802892Y-108289158D01*
X156035725Y-110207387D01*
G37*
G36*
X159727851Y-102976577D02*
G01*
X159838993Y-102986765D01*
X159950005Y-103002581D01*
X160060218Y-103024207D01*
X160168966Y-103051822D01*
X160275581Y-103085605D01*
X160379395Y-103125737D01*
X160430043Y-103148240D01*
X160479741Y-103172397D01*
X160528405Y-103198231D01*
X160575952Y-103225765D01*
X160622297Y-103255021D01*
X160667359Y-103286022D01*
X160711052Y-103318789D01*
X160753295Y-103353346D01*
X160794003Y-103389715D01*
X160833093Y-103427918D01*
X160870482Y-103467978D01*
X160906086Y-103509917D01*
X160939821Y-103553759D01*
X160971605Y-103599524D01*
X161001354Y-103647236D01*
X161028984Y-103696918D01*
X161063817Y-103767408D01*
X161095336Y-103839403D01*
X161148718Y-103987548D01*
X161189692Y-104140629D01*
X161218823Y-104297920D01*
X161236676Y-104458697D01*
X161243815Y-104622235D01*
X161240803Y-104787809D01*
X161228204Y-104954694D01*
X161206583Y-105122165D01*
X161176504Y-105289498D01*
X161138531Y-105455968D01*
X161093229Y-105620850D01*
X161041160Y-105783419D01*
X160982889Y-105942950D01*
X160918981Y-106098719D01*
X160850000Y-106250000D01*
X160147144Y-107716155D01*
X159539386Y-107716155D01*
X160049018Y-106701446D01*
X160320540Y-106155065D01*
X160483619Y-105818507D01*
X160530047Y-105709219D01*
X160571979Y-105594425D01*
X160609121Y-105474941D01*
X160641179Y-105351580D01*
X160667860Y-105225159D01*
X160688870Y-105096492D01*
X160703917Y-104966393D01*
X160712705Y-104835677D01*
X160714943Y-104705160D01*
X160710336Y-104575656D01*
X160698592Y-104447980D01*
X160679416Y-104322947D01*
X160652515Y-104201372D01*
X160617596Y-104084069D01*
X160574365Y-103971853D01*
X160522528Y-103865539D01*
X160495459Y-103818348D01*
X160466806Y-103773051D01*
X160436629Y-103729625D01*
X160404985Y-103688051D01*
X160371934Y-103648305D01*
X160337533Y-103610368D01*
X160264916Y-103539833D01*
X160187603Y-103476274D01*
X160106061Y-103419519D01*
X160020758Y-103369398D01*
X159932161Y-103325740D01*
X159840738Y-103288373D01*
X159746956Y-103257127D01*
X159651282Y-103231831D01*
X159554185Y-103212314D01*
X159456131Y-103198404D01*
X159357589Y-103189931D01*
X159259026Y-103186723D01*
X159160908Y-103188610D01*
X159033953Y-103196858D01*
X158907409Y-103210100D01*
X158781322Y-103228156D01*
X158655735Y-103250848D01*
X158406245Y-103309431D01*
X158159297Y-103384422D01*
X157915252Y-103474397D01*
X157674468Y-103577930D01*
X157437305Y-103693596D01*
X157204121Y-103819971D01*
X156975276Y-103955628D01*
X156751129Y-104099143D01*
X156532039Y-104249091D01*
X156318365Y-104404046D01*
X156110466Y-104562584D01*
X155908702Y-104723278D01*
X155525015Y-105045437D01*
X155522391Y-105047556D01*
X155519835Y-105049327D01*
X155517355Y-105050763D01*
X155514958Y-105051876D01*
X155512653Y-105052680D01*
X155510445Y-105053188D01*
X155508342Y-105053413D01*
X155506353Y-105053368D01*
X155504484Y-105053065D01*
X155502742Y-105052519D01*
X155501136Y-105051741D01*
X155499672Y-105050746D01*
X155498358Y-105049545D01*
X155497201Y-105048152D01*
X155496209Y-105046581D01*
X155495389Y-105044843D01*
X155494749Y-105042953D01*
X155494295Y-105040923D01*
X155494036Y-105038766D01*
X155493979Y-105036495D01*
X155494130Y-105034123D01*
X155494498Y-105031664D01*
X155495090Y-105029130D01*
X155495914Y-105026534D01*
X155496976Y-105023890D01*
X155498284Y-105021209D01*
X155499846Y-105018507D01*
X155501669Y-105015794D01*
X155503760Y-105013085D01*
X155506126Y-105010393D01*
X155508776Y-105007729D01*
X155511717Y-105005109D01*
X155929004Y-104660214D01*
X156373590Y-104312589D01*
X156605526Y-104142232D01*
X156843574Y-103976570D01*
X157087495Y-103817393D01*
X157337051Y-103666494D01*
X157592006Y-103525666D01*
X157852120Y-103396700D01*
X158117156Y-103281388D01*
X158386877Y-103181523D01*
X158661044Y-103098896D01*
X158939419Y-103035301D01*
X159221765Y-102992528D01*
X159364353Y-102979511D01*
X159507844Y-102972371D01*
X159617245Y-102971839D01*
X159727851Y-102976577D01*
G37*
G36*
X161579019Y-109062523D02*
G01*
X161610572Y-109064891D01*
X161641619Y-109068883D01*
X161672125Y-109074536D01*
X161702053Y-109081887D01*
X161731368Y-109090972D01*
X161760034Y-109101828D01*
X161788015Y-109114493D01*
X161815275Y-109129002D01*
X161841778Y-109145393D01*
X161867488Y-109163702D01*
X161892370Y-109183966D01*
X161916388Y-109206223D01*
X161939505Y-109230509D01*
X161961687Y-109256860D01*
X161982897Y-109285314D01*
X162003099Y-109315908D01*
X162022258Y-109348677D01*
X162040337Y-109383660D01*
X162057301Y-109420893D01*
X162073113Y-109460412D01*
X162087739Y-109502255D01*
X162101142Y-109546458D01*
X162113287Y-109593058D01*
X162124137Y-109642092D01*
X162133656Y-109693597D01*
X162141810Y-109747609D01*
X162148561Y-109804166D01*
X162153875Y-109863305D01*
X162157714Y-109925061D01*
X162160044Y-109989472D01*
X162160829Y-110056575D01*
X162157743Y-110188089D01*
X162148670Y-110308983D01*
X162133883Y-110419552D01*
X162113659Y-110520092D01*
X162088272Y-110610895D01*
X162057998Y-110692257D01*
X162023112Y-110764472D01*
X162004026Y-110797242D01*
X161983889Y-110827835D01*
X161962737Y-110856289D01*
X161940604Y-110882640D01*
X161917525Y-110906926D01*
X161893533Y-110929183D01*
X161868663Y-110949447D01*
X161842950Y-110967757D01*
X161816428Y-110984147D01*
X161789131Y-110998657D01*
X161732351Y-111022177D01*
X161672885Y-111038613D01*
X161611008Y-111048258D01*
X161546995Y-111051408D01*
X161514740Y-111050627D01*
X161482983Y-111048258D01*
X161451761Y-111044266D01*
X161421107Y-111038613D01*
X161391055Y-111031262D01*
X161361641Y-111022177D01*
X161332898Y-111011321D01*
X161304861Y-110998657D01*
X161277564Y-110984147D01*
X161251042Y-110967757D01*
X161225328Y-110949447D01*
X161200459Y-110929183D01*
X161176467Y-110906926D01*
X161153387Y-110882640D01*
X161131254Y-110856289D01*
X161110103Y-110827835D01*
X161089966Y-110797242D01*
X161070880Y-110764472D01*
X161052877Y-110729489D01*
X161035993Y-110692257D01*
X161020263Y-110652737D01*
X161005720Y-110610895D01*
X160992398Y-110566692D01*
X160980333Y-110520092D01*
X160969558Y-110471057D01*
X160960109Y-110419552D01*
X160952018Y-110365540D01*
X160945322Y-110308983D01*
X160940054Y-110249845D01*
X160936248Y-110188089D01*
X160933940Y-110123677D01*
X160933193Y-110059220D01*
X161409412Y-110059220D01*
X161411092Y-110256738D01*
X161416399Y-110412026D01*
X161420539Y-110475364D01*
X161425737Y-110529982D01*
X161432043Y-110576492D01*
X161439509Y-110615507D01*
X161448183Y-110647638D01*
X161458118Y-110673498D01*
X161469362Y-110693700D01*
X161481966Y-110708855D01*
X161495981Y-110719577D01*
X161511458Y-110726477D01*
X161528446Y-110730168D01*
X161546995Y-110731262D01*
X161556469Y-110731001D01*
X161565545Y-110730168D01*
X161574231Y-110728685D01*
X161582533Y-110726477D01*
X161590457Y-110723466D01*
X161598010Y-110719577D01*
X161605197Y-110714732D01*
X161612025Y-110708855D01*
X161618501Y-110701870D01*
X161624630Y-110693700D01*
X161630419Y-110684268D01*
X161635874Y-110673498D01*
X161641002Y-110661314D01*
X161645808Y-110647638D01*
X161650300Y-110632395D01*
X161654483Y-110615507D01*
X161658363Y-110596898D01*
X161661948Y-110576492D01*
X161665243Y-110554213D01*
X161668255Y-110529982D01*
X161670989Y-110503725D01*
X161673453Y-110475364D01*
X161675652Y-110444823D01*
X161677593Y-110412026D01*
X161679282Y-110376895D01*
X161680725Y-110339354D01*
X161681929Y-110299328D01*
X161682900Y-110256738D01*
X161684168Y-110163564D01*
X161684579Y-110059220D01*
X161682900Y-109861703D01*
X161677593Y-109706415D01*
X161673453Y-109643077D01*
X161668255Y-109588458D01*
X161661948Y-109541948D01*
X161654483Y-109502934D01*
X161645808Y-109470803D01*
X161635874Y-109444943D01*
X161624630Y-109424741D01*
X161612025Y-109409586D01*
X161598010Y-109398864D01*
X161582533Y-109391964D01*
X161565545Y-109388273D01*
X161546995Y-109387179D01*
X161537522Y-109387440D01*
X161528446Y-109388273D01*
X161519760Y-109389756D01*
X161511458Y-109391964D01*
X161503534Y-109394975D01*
X161495981Y-109398864D01*
X161488794Y-109403709D01*
X161481966Y-109409586D01*
X161475491Y-109416571D01*
X161469362Y-109424741D01*
X161463573Y-109434173D01*
X161458118Y-109444943D01*
X161452990Y-109457127D01*
X161448183Y-109470803D01*
X161443692Y-109486046D01*
X161439509Y-109502934D01*
X161435628Y-109521542D01*
X161432043Y-109541948D01*
X161428749Y-109564228D01*
X161425737Y-109588458D01*
X161423003Y-109614716D01*
X161420539Y-109643077D01*
X161418340Y-109673617D01*
X161416399Y-109706415D01*
X161414710Y-109741546D01*
X161413267Y-109779086D01*
X161412063Y-109819113D01*
X161411092Y-109861703D01*
X161409824Y-109954877D01*
X161409412Y-110059220D01*
X160933193Y-110059220D01*
X160933163Y-110056575D01*
X160936277Y-109925061D01*
X160945431Y-109804166D01*
X160960335Y-109693597D01*
X160980705Y-109593058D01*
X161006252Y-109502255D01*
X161036691Y-109420893D01*
X161071734Y-109348677D01*
X161090893Y-109315908D01*
X161111095Y-109285314D01*
X161132305Y-109256860D01*
X161154486Y-109230509D01*
X161177604Y-109206223D01*
X161201622Y-109183966D01*
X161226504Y-109163702D01*
X161252214Y-109145393D01*
X161278717Y-109129002D01*
X161305977Y-109114493D01*
X161362623Y-109090972D01*
X161421866Y-109074536D01*
X161483419Y-109064891D01*
X161546995Y-109061741D01*
X161579019Y-109062523D01*
G37*
D11*
X156740000Y-91029999D02*
X160270000Y-91029999D01*
X160270000Y-100790001D01*
X156740000Y-100790001D01*
X156740000Y-91029999D01*
D10*
G36*
X164425533Y-108260969D02*
G01*
X164461354Y-108263685D01*
X164496079Y-108268159D01*
X164529703Y-108274347D01*
X164562221Y-108282206D01*
X164593626Y-108291691D01*
X164623915Y-108302760D01*
X164653081Y-108315368D01*
X164681119Y-108329472D01*
X164708024Y-108345029D01*
X164733790Y-108361995D01*
X164758413Y-108380325D01*
X164781886Y-108399978D01*
X164804205Y-108420908D01*
X164825365Y-108443073D01*
X164845359Y-108466429D01*
X164864182Y-108490932D01*
X164881830Y-108516538D01*
X164898297Y-108543205D01*
X164913577Y-108570887D01*
X164927665Y-108599543D01*
X164940556Y-108629128D01*
X164952245Y-108659599D01*
X164962726Y-108690911D01*
X164971994Y-108723022D01*
X164980044Y-108755888D01*
X164986869Y-108789465D01*
X164992466Y-108823709D01*
X164996828Y-108858578D01*
X164999951Y-108894027D01*
X165001828Y-108930012D01*
X165002455Y-108966491D01*
X165000852Y-109022514D01*
X164996142Y-109078448D01*
X164988474Y-109134264D01*
X164977997Y-109189935D01*
X164964858Y-109245434D01*
X164949208Y-109300732D01*
X164910967Y-109410619D01*
X164864463Y-109519374D01*
X164810885Y-109626776D01*
X164751425Y-109732605D01*
X164687270Y-109836640D01*
X164619612Y-109938659D01*
X164549640Y-110038441D01*
X164407515Y-110230414D01*
X164270412Y-110410791D01*
X164147851Y-110577804D01*
X164938955Y-110577804D01*
X164938955Y-111022304D01*
X163703350Y-111022304D01*
X163703350Y-110667762D01*
X163837957Y-110446571D01*
X163975540Y-110226280D01*
X164109651Y-110008035D01*
X164173389Y-109900038D01*
X164233840Y-109792983D01*
X164290198Y-109687014D01*
X164341657Y-109582273D01*
X164387412Y-109478904D01*
X164426655Y-109377050D01*
X164458580Y-109276855D01*
X164482383Y-109178463D01*
X164497255Y-109082016D01*
X164501091Y-109034567D01*
X164502392Y-108987658D01*
X164501761Y-108930416D01*
X164500683Y-108900413D01*
X164498836Y-108870042D01*
X164496029Y-108839718D01*
X164492067Y-108809855D01*
X164486756Y-108780868D01*
X164479902Y-108753171D01*
X164471312Y-108727180D01*
X164460792Y-108703308D01*
X164454748Y-108692297D01*
X164448149Y-108681972D01*
X164440970Y-108672384D01*
X164433187Y-108663585D01*
X164424776Y-108655627D01*
X164415714Y-108648562D01*
X164405975Y-108642441D01*
X164395535Y-108637318D01*
X164384371Y-108633242D01*
X164372458Y-108630267D01*
X164359771Y-108628444D01*
X164346287Y-108627825D01*
X164336933Y-108628185D01*
X164327727Y-108629280D01*
X164318680Y-108631132D01*
X164309799Y-108633762D01*
X164301095Y-108637193D01*
X164292576Y-108641446D01*
X164284252Y-108646543D01*
X164276132Y-108652505D01*
X164268225Y-108659355D01*
X164260541Y-108667115D01*
X164253088Y-108675805D01*
X164245875Y-108685449D01*
X164238913Y-108696067D01*
X164232210Y-108707682D01*
X164225776Y-108720315D01*
X164219619Y-108733989D01*
X164213749Y-108748724D01*
X164208174Y-108764543D01*
X164202905Y-108781468D01*
X164197951Y-108799520D01*
X164193320Y-108818721D01*
X164189022Y-108839093D01*
X164185066Y-108860658D01*
X164181461Y-108883437D01*
X164178217Y-108907453D01*
X164175342Y-108932727D01*
X164172846Y-108959280D01*
X164170738Y-108987136D01*
X164169028Y-109016315D01*
X164167724Y-109046840D01*
X164166835Y-109078731D01*
X164166372Y-109112012D01*
X163743038Y-109072325D01*
X163745550Y-108991259D01*
X163753089Y-108912081D01*
X163765659Y-108835252D01*
X163783263Y-108761232D01*
X163805906Y-108690484D01*
X163833591Y-108623468D01*
X163849325Y-108591504D01*
X163866322Y-108560646D01*
X163884581Y-108530951D01*
X163904103Y-108502478D01*
X163924889Y-108475284D01*
X163946939Y-108449427D01*
X163970253Y-108424963D01*
X163994832Y-108401952D01*
X164020676Y-108380450D01*
X164047786Y-108360516D01*
X164076163Y-108342206D01*
X164105807Y-108325579D01*
X164136718Y-108310693D01*
X164168897Y-108297604D01*
X164202344Y-108286370D01*
X164237060Y-108277050D01*
X164273045Y-108269701D01*
X164310300Y-108264380D01*
X164348825Y-108261145D01*
X164388621Y-108260054D01*
X164425533Y-108260969D01*
G37*
G36*
X157321873Y-109062523D02*
G01*
X157353426Y-109064891D01*
X157384474Y-109068883D01*
X157414979Y-109074536D01*
X157444907Y-109081887D01*
X157474222Y-109090972D01*
X157502888Y-109101828D01*
X157530869Y-109114493D01*
X157558129Y-109129002D01*
X157584632Y-109145393D01*
X157610342Y-109163702D01*
X157635224Y-109183966D01*
X157659242Y-109206223D01*
X157682360Y-109230509D01*
X157704541Y-109256860D01*
X157725751Y-109285314D01*
X157745953Y-109315908D01*
X157765112Y-109348677D01*
X157783191Y-109383660D01*
X157800155Y-109420893D01*
X157815967Y-109460412D01*
X157830593Y-109502255D01*
X157843996Y-109546458D01*
X157856141Y-109593058D01*
X157866991Y-109642092D01*
X157876510Y-109693597D01*
X157884664Y-109747609D01*
X157891415Y-109804166D01*
X157896729Y-109863305D01*
X157900568Y-109925061D01*
X157902899Y-109989472D01*
X157903683Y-110056575D01*
X157900568Y-110188089D01*
X157891415Y-110308983D01*
X157876511Y-110419552D01*
X157856141Y-110520092D01*
X157830594Y-110610895D01*
X157800155Y-110692257D01*
X157765112Y-110764472D01*
X157745953Y-110797242D01*
X157725751Y-110827835D01*
X157704541Y-110856289D01*
X157682360Y-110882640D01*
X157659242Y-110906926D01*
X157635224Y-110929183D01*
X157610342Y-110949447D01*
X157584632Y-110967757D01*
X157558129Y-110984147D01*
X157530869Y-110998657D01*
X157474223Y-111022177D01*
X157414979Y-111038613D01*
X157353426Y-111048258D01*
X157289850Y-111051408D01*
X157257594Y-111050627D01*
X157225838Y-111048258D01*
X157194615Y-111044266D01*
X157163961Y-111038613D01*
X157133910Y-111031262D01*
X157104495Y-111022177D01*
X157075752Y-111011321D01*
X157047715Y-110998657D01*
X157020418Y-110984147D01*
X156993896Y-110967757D01*
X156968183Y-110949447D01*
X156943313Y-110929183D01*
X156919321Y-110906926D01*
X156896242Y-110882640D01*
X156874109Y-110856289D01*
X156852957Y-110827835D01*
X156832820Y-110797242D01*
X156813734Y-110764472D01*
X156795731Y-110729489D01*
X156778848Y-110692257D01*
X156763117Y-110652737D01*
X156748574Y-110610895D01*
X156735252Y-110566692D01*
X156723187Y-110520092D01*
X156712412Y-110471057D01*
X156702963Y-110419552D01*
X156694873Y-110365540D01*
X156688176Y-110308983D01*
X156682908Y-110249845D01*
X156679102Y-110188089D01*
X156676794Y-110123677D01*
X156676047Y-110059220D01*
X157152267Y-110059220D01*
X157153946Y-110256738D01*
X157159254Y-110412026D01*
X157163394Y-110475364D01*
X157168592Y-110529982D01*
X157174898Y-110576492D01*
X157182363Y-110615507D01*
X157191038Y-110647638D01*
X157200972Y-110673498D01*
X157212216Y-110693700D01*
X157224821Y-110708855D01*
X157238836Y-110719577D01*
X157254312Y-110726477D01*
X157271300Y-110730168D01*
X157289850Y-110731262D01*
X157299323Y-110731001D01*
X157308400Y-110730168D01*
X157317086Y-110728685D01*
X157325388Y-110726477D01*
X157333312Y-110723466D01*
X157340864Y-110719577D01*
X157348052Y-110714732D01*
X157354880Y-110708855D01*
X157361355Y-110701870D01*
X157367484Y-110693700D01*
X157373273Y-110684268D01*
X157378728Y-110673498D01*
X157383856Y-110661314D01*
X157388663Y-110647638D01*
X157393154Y-110632395D01*
X157397337Y-110615507D01*
X157401218Y-110596898D01*
X157404802Y-110576492D01*
X157408097Y-110554213D01*
X157411109Y-110529982D01*
X157413843Y-110503725D01*
X157416307Y-110475364D01*
X157418506Y-110444823D01*
X157420447Y-110412026D01*
X157422136Y-110376895D01*
X157423579Y-110339354D01*
X157424783Y-110299328D01*
X157425754Y-110256738D01*
X157427022Y-110163564D01*
X157427433Y-110059220D01*
X157425754Y-109861703D01*
X157420447Y-109706415D01*
X157416307Y-109643077D01*
X157411109Y-109588458D01*
X157404803Y-109541948D01*
X157397337Y-109502934D01*
X157388663Y-109470803D01*
X157378729Y-109444943D01*
X157367484Y-109424741D01*
X157354880Y-109409586D01*
X157340865Y-109398864D01*
X157325388Y-109391964D01*
X157308400Y-109388273D01*
X157289850Y-109387179D01*
X157280377Y-109387440D01*
X157271300Y-109388273D01*
X157262614Y-109389756D01*
X157254312Y-109391964D01*
X157246388Y-109394975D01*
X157238836Y-109398864D01*
X157231649Y-109403709D01*
X157224821Y-109409586D01*
X157218345Y-109416571D01*
X157212216Y-109424741D01*
X157206427Y-109434173D01*
X157200972Y-109444943D01*
X157195844Y-109457127D01*
X157191038Y-109470803D01*
X157186546Y-109486046D01*
X157182363Y-109502934D01*
X157178483Y-109521542D01*
X157174898Y-109541948D01*
X157171603Y-109564228D01*
X157168591Y-109588458D01*
X157165857Y-109614716D01*
X157163394Y-109643077D01*
X157161194Y-109673617D01*
X157159254Y-109706415D01*
X157157565Y-109741546D01*
X157156121Y-109779086D01*
X157154917Y-109819113D01*
X157153946Y-109861703D01*
X157152678Y-109954877D01*
X157152267Y-110059220D01*
X156676047Y-110059220D01*
X156676017Y-110056575D01*
X156679132Y-109925061D01*
X156688285Y-109804166D01*
X156703189Y-109693597D01*
X156723559Y-109593058D01*
X156749107Y-109502255D01*
X156779545Y-109420893D01*
X156814588Y-109348677D01*
X156833747Y-109315908D01*
X156853949Y-109285314D01*
X156875159Y-109256860D01*
X156897340Y-109230509D01*
X156920458Y-109206223D01*
X156944476Y-109183966D01*
X156969358Y-109163702D01*
X156995068Y-109145393D01*
X157021571Y-109129002D01*
X157048831Y-109114493D01*
X157105478Y-109090972D01*
X157164721Y-109074536D01*
X157226274Y-109064891D01*
X157289850Y-109061741D01*
X157321873Y-109062523D01*
G37*
G36*
X162999832Y-109062523D02*
G01*
X163031385Y-109064891D01*
X163062432Y-109068883D01*
X163092938Y-109074536D01*
X163122866Y-109081887D01*
X163152181Y-109090972D01*
X163180847Y-109101828D01*
X163208827Y-109114493D01*
X163236087Y-109129002D01*
X163262590Y-109145393D01*
X163288301Y-109163702D01*
X163313183Y-109183966D01*
X163337201Y-109206223D01*
X163360318Y-109230509D01*
X163382500Y-109256860D01*
X163403710Y-109285314D01*
X163423912Y-109315908D01*
X163443070Y-109348677D01*
X163461149Y-109383660D01*
X163478113Y-109420893D01*
X163493926Y-109460412D01*
X163508552Y-109502255D01*
X163521955Y-109546458D01*
X163534100Y-109593058D01*
X163544950Y-109642092D01*
X163554469Y-109693597D01*
X163562623Y-109747609D01*
X163569374Y-109804166D01*
X163574688Y-109863305D01*
X163578527Y-109925061D01*
X163580857Y-109989472D01*
X163581642Y-110056575D01*
X163578527Y-110188089D01*
X163569374Y-110308983D01*
X163554469Y-110419552D01*
X163534099Y-110520092D01*
X163508552Y-110610895D01*
X163478113Y-110692257D01*
X163443070Y-110764472D01*
X163423911Y-110797242D01*
X163403709Y-110827835D01*
X163382500Y-110856289D01*
X163360318Y-110882640D01*
X163337200Y-110906926D01*
X163313183Y-110929183D01*
X163288301Y-110949447D01*
X163262590Y-110967757D01*
X163236087Y-110984147D01*
X163208827Y-110998657D01*
X163152181Y-111022177D01*
X163092938Y-111038613D01*
X163031385Y-111048258D01*
X162967808Y-111051408D01*
X162935553Y-111050627D01*
X162903796Y-111048258D01*
X162872574Y-111044266D01*
X162841919Y-111038613D01*
X162811868Y-111031262D01*
X162782453Y-111022177D01*
X162753710Y-111011321D01*
X162725673Y-110998657D01*
X162698376Y-110984147D01*
X162671854Y-110967757D01*
X162646141Y-110949447D01*
X162621271Y-110929183D01*
X162597280Y-110906926D01*
X162574200Y-110882640D01*
X162552067Y-110856289D01*
X162530915Y-110827835D01*
X162510779Y-110797242D01*
X162491692Y-110764472D01*
X162473690Y-110729489D01*
X162456806Y-110692257D01*
X162441075Y-110652737D01*
X162426532Y-110610895D01*
X162413210Y-110566692D01*
X162401145Y-110520092D01*
X162390370Y-110471057D01*
X162380921Y-110419552D01*
X162372831Y-110365540D01*
X162366134Y-110308983D01*
X162360866Y-110249845D01*
X162357061Y-110188089D01*
X162354752Y-110123677D01*
X162354005Y-110059220D01*
X162830225Y-110059220D01*
X162831905Y-110256738D01*
X162837212Y-110412026D01*
X162841352Y-110475364D01*
X162846550Y-110529982D01*
X162852856Y-110576492D01*
X162860321Y-110615507D01*
X162868996Y-110647638D01*
X162878930Y-110673498D01*
X162890174Y-110693700D01*
X162902779Y-110708855D01*
X162916794Y-110719577D01*
X162932270Y-110726477D01*
X162949258Y-110730168D01*
X162967808Y-110731262D01*
X162977282Y-110731001D01*
X162986358Y-110730168D01*
X162995045Y-110728685D01*
X163003347Y-110726477D01*
X163011271Y-110723466D01*
X163018823Y-110719577D01*
X163026010Y-110714732D01*
X163032839Y-110708855D01*
X163039314Y-110701870D01*
X163045443Y-110693700D01*
X163051232Y-110684268D01*
X163056687Y-110673498D01*
X163061815Y-110661314D01*
X163066621Y-110647638D01*
X163071113Y-110632395D01*
X163075296Y-110615507D01*
X163079177Y-110596898D01*
X163082761Y-110576492D01*
X163086056Y-110554213D01*
X163089068Y-110529982D01*
X163091802Y-110503725D01*
X163094266Y-110475364D01*
X163096465Y-110444823D01*
X163098406Y-110412026D01*
X163100095Y-110376895D01*
X163101538Y-110339354D01*
X163102742Y-110299328D01*
X163103713Y-110256738D01*
X163104981Y-110163564D01*
X163105392Y-110059220D01*
X163103713Y-109861703D01*
X163098405Y-109706415D01*
X163094265Y-109643077D01*
X163089067Y-109588458D01*
X163082761Y-109541948D01*
X163075295Y-109502934D01*
X163066621Y-109470803D01*
X163056687Y-109444943D01*
X163045443Y-109424741D01*
X163032838Y-109409586D01*
X163018823Y-109398864D01*
X163003346Y-109391964D01*
X162986358Y-109388273D01*
X162967808Y-109387179D01*
X162958335Y-109387440D01*
X162949259Y-109388273D01*
X162940572Y-109389756D01*
X162932271Y-109391964D01*
X162924347Y-109394975D01*
X162916794Y-109398864D01*
X162909607Y-109403709D01*
X162902779Y-109409586D01*
X162896303Y-109416571D01*
X162890174Y-109424741D01*
X162884385Y-109434173D01*
X162878930Y-109444943D01*
X162873803Y-109457127D01*
X162868996Y-109470803D01*
X162864504Y-109486046D01*
X162860322Y-109502934D01*
X162856441Y-109521542D01*
X162852856Y-109541948D01*
X162849561Y-109564228D01*
X162846550Y-109588458D01*
X162843815Y-109614716D01*
X162841352Y-109643077D01*
X162839153Y-109673617D01*
X162837212Y-109706415D01*
X162835523Y-109741546D01*
X162834080Y-109779086D01*
X162832876Y-109819113D01*
X162831905Y-109861703D01*
X162830637Y-109954877D01*
X162830225Y-110059220D01*
X162354005Y-110059220D01*
X162353975Y-110056575D01*
X162357090Y-109925061D01*
X162366243Y-109804166D01*
X162381148Y-109693597D01*
X162401517Y-109593058D01*
X162427065Y-109502255D01*
X162457503Y-109420893D01*
X162492547Y-109348677D01*
X162511705Y-109315908D01*
X162531907Y-109285314D01*
X162553117Y-109256860D01*
X162575299Y-109230509D01*
X162598416Y-109206223D01*
X162622434Y-109183966D01*
X162647316Y-109163702D01*
X162673027Y-109145393D01*
X162699530Y-109129002D01*
X162726790Y-109114493D01*
X162783436Y-109090972D01*
X162842679Y-109074536D01*
X162904232Y-109064891D01*
X162967808Y-109061741D01*
X162999832Y-109062523D01*
G37*
G36*
X158740040Y-109062523D02*
G01*
X158771593Y-109064891D01*
X158802640Y-109068883D01*
X158833146Y-109074536D01*
X158863074Y-109081887D01*
X158892389Y-109090972D01*
X158921055Y-109101828D01*
X158949036Y-109114493D01*
X158976296Y-109129002D01*
X159002799Y-109145393D01*
X159028509Y-109163702D01*
X159053391Y-109183966D01*
X159077409Y-109206223D01*
X159100526Y-109230509D01*
X159122708Y-109256860D01*
X159143918Y-109285314D01*
X159164120Y-109315908D01*
X159183278Y-109348677D01*
X159201358Y-109383660D01*
X159218322Y-109420893D01*
X159234134Y-109460412D01*
X159248760Y-109502255D01*
X159262163Y-109546458D01*
X159274308Y-109593058D01*
X159285158Y-109642092D01*
X159294677Y-109693597D01*
X159302831Y-109747609D01*
X159309582Y-109804166D01*
X159314896Y-109863305D01*
X159318735Y-109925061D01*
X159321065Y-109989472D01*
X159321850Y-110056575D01*
X159318764Y-110188089D01*
X159309691Y-110308983D01*
X159294904Y-110419552D01*
X159274680Y-110520092D01*
X159249293Y-110610895D01*
X159219019Y-110692257D01*
X159184133Y-110764472D01*
X159165046Y-110797242D01*
X159144910Y-110827835D01*
X159123758Y-110856289D01*
X159101625Y-110882640D01*
X159078546Y-110906926D01*
X159054554Y-110929183D01*
X159029684Y-110949447D01*
X159003971Y-110967757D01*
X158977449Y-110984147D01*
X158950152Y-110998657D01*
X158893372Y-111022177D01*
X158833906Y-111038613D01*
X158772029Y-111048258D01*
X158708017Y-111051408D01*
X158675761Y-111050627D01*
X158644005Y-111048258D01*
X158612782Y-111044266D01*
X158582128Y-111038613D01*
X158552076Y-111031262D01*
X158522662Y-111022177D01*
X158493919Y-111011321D01*
X158465882Y-110998657D01*
X158438585Y-110984147D01*
X158412063Y-110967757D01*
X158386349Y-110949447D01*
X158361480Y-110929183D01*
X158337488Y-110906926D01*
X158314408Y-110882640D01*
X158292275Y-110856289D01*
X158271123Y-110827835D01*
X158250987Y-110797242D01*
X158231900Y-110764472D01*
X158213898Y-110729489D01*
X158197014Y-110692257D01*
X158181284Y-110652737D01*
X158166740Y-110610895D01*
X158153419Y-110566692D01*
X158141354Y-110520092D01*
X158130579Y-110471057D01*
X158121129Y-110419552D01*
X158113039Y-110365540D01*
X158106343Y-110308983D01*
X158101075Y-110249845D01*
X158097269Y-110188089D01*
X158094961Y-110123677D01*
X158094214Y-110059220D01*
X158570433Y-110059220D01*
X158572113Y-110256738D01*
X158577420Y-110412026D01*
X158581560Y-110475364D01*
X158586758Y-110529982D01*
X158593064Y-110576492D01*
X158600530Y-110615507D01*
X158609204Y-110647638D01*
X158619138Y-110673498D01*
X158630383Y-110693700D01*
X158642987Y-110708855D01*
X158657003Y-110719577D01*
X158672479Y-110726477D01*
X158689467Y-110730168D01*
X158708017Y-110731262D01*
X158717490Y-110731001D01*
X158726567Y-110730168D01*
X158735253Y-110728685D01*
X158743555Y-110726477D01*
X158751479Y-110723466D01*
X158759031Y-110719577D01*
X158766218Y-110714732D01*
X158773046Y-110708855D01*
X158779522Y-110701870D01*
X158785651Y-110693700D01*
X158791440Y-110684268D01*
X158796895Y-110673498D01*
X158802023Y-110661314D01*
X158806829Y-110647638D01*
X158811321Y-110632395D01*
X158815504Y-110615507D01*
X158819384Y-110596898D01*
X158822969Y-110576492D01*
X158826264Y-110554213D01*
X158829275Y-110529982D01*
X158832010Y-110503725D01*
X158834473Y-110475364D01*
X158836673Y-110444823D01*
X158838613Y-110412026D01*
X158840302Y-110376895D01*
X158841746Y-110339354D01*
X158842950Y-110299328D01*
X158843921Y-110256738D01*
X158845189Y-110163564D01*
X158845600Y-110059220D01*
X158843921Y-109861703D01*
X158838613Y-109706415D01*
X158834474Y-109643077D01*
X158829276Y-109588458D01*
X158822969Y-109541948D01*
X158815504Y-109502934D01*
X158806829Y-109470803D01*
X158796895Y-109444943D01*
X158785651Y-109424741D01*
X158773046Y-109409586D01*
X158759031Y-109398864D01*
X158743555Y-109391964D01*
X158726567Y-109388273D01*
X158708017Y-109387179D01*
X158698544Y-109387440D01*
X158689467Y-109388273D01*
X158680781Y-109389756D01*
X158672479Y-109391964D01*
X158664555Y-109394975D01*
X158657003Y-109398864D01*
X158649815Y-109403709D01*
X158642987Y-109409586D01*
X158636512Y-109416571D01*
X158630383Y-109424741D01*
X158624594Y-109434173D01*
X158619138Y-109444943D01*
X158614011Y-109457127D01*
X158609204Y-109470803D01*
X158604713Y-109486046D01*
X158600530Y-109502934D01*
X158596649Y-109521542D01*
X158593064Y-109541948D01*
X158589770Y-109564228D01*
X158586758Y-109588458D01*
X158584024Y-109614716D01*
X158581560Y-109643077D01*
X158579361Y-109673617D01*
X158577420Y-109706415D01*
X158575731Y-109741546D01*
X158574288Y-109779086D01*
X158573084Y-109819113D01*
X158572113Y-109861703D01*
X158570845Y-109954877D01*
X158570433Y-110059220D01*
X158094214Y-110059220D01*
X158094183Y-110056575D01*
X158097298Y-109925061D01*
X158106451Y-109804166D01*
X158121356Y-109693597D01*
X158141726Y-109593058D01*
X158167273Y-109502255D01*
X158197712Y-109420893D01*
X158232755Y-109348677D01*
X158251914Y-109315908D01*
X158272116Y-109285314D01*
X158293326Y-109256860D01*
X158315507Y-109230509D01*
X158338625Y-109206223D01*
X158362643Y-109183966D01*
X158387525Y-109163702D01*
X158413235Y-109145393D01*
X158439738Y-109129002D01*
X158466998Y-109114493D01*
X158523644Y-109090972D01*
X158582888Y-109074536D01*
X158644441Y-109064891D01*
X158708017Y-109061741D01*
X158740040Y-109062523D01*
G37*
G36*
X156050478Y-105282125D02*
G01*
X156081764Y-105284347D01*
X156112715Y-105288032D01*
X156143287Y-105293167D01*
X156173431Y-105299735D01*
X156203101Y-105307724D01*
X156232249Y-105317119D01*
X156260829Y-105327905D01*
X156288795Y-105340068D01*
X156316098Y-105353594D01*
X156342692Y-105368467D01*
X156368530Y-105384674D01*
X156393565Y-105402200D01*
X156417751Y-105421030D01*
X156441039Y-105441151D01*
X156463385Y-105462548D01*
X156484739Y-105485205D01*
X156505056Y-105509110D01*
X156524288Y-105534247D01*
X156542389Y-105560602D01*
X156559312Y-105588161D01*
X156575009Y-105616909D01*
X156589434Y-105646831D01*
X156602540Y-105677914D01*
X156614280Y-105710142D01*
X156624607Y-105743502D01*
X156633474Y-105777979D01*
X156640834Y-105813558D01*
X156646640Y-105850225D01*
X156650845Y-105887965D01*
X156653403Y-105926765D01*
X156654266Y-105966610D01*
X156653687Y-105993593D01*
X156651972Y-106019879D01*
X156649152Y-106045469D01*
X156645261Y-106070362D01*
X156640329Y-106094559D01*
X156634390Y-106118060D01*
X156627474Y-106140864D01*
X156619615Y-106162972D01*
X156610844Y-106184384D01*
X156601194Y-106205101D01*
X156590696Y-106225121D01*
X156579383Y-106244446D01*
X156567286Y-106263075D01*
X156554439Y-106281008D01*
X156540872Y-106298246D01*
X156526618Y-106314789D01*
X156511709Y-106330637D01*
X156496177Y-106345789D01*
X156480055Y-106360247D01*
X156463374Y-106374009D01*
X156446166Y-106387077D01*
X156428464Y-106399450D01*
X156391705Y-106422113D01*
X156353353Y-106441997D01*
X156313665Y-106459105D01*
X156272898Y-106473437D01*
X156231308Y-106484994D01*
X156231308Y-106491766D01*
X156281178Y-106500732D01*
X156329028Y-106512465D01*
X156374692Y-106527102D01*
X156418005Y-106544784D01*
X156458802Y-106565646D01*
X156478205Y-106577314D01*
X156496918Y-106589829D01*
X156514919Y-106603208D01*
X156532188Y-106617469D01*
X156548704Y-106632629D01*
X156564446Y-106648705D01*
X156579395Y-106665715D01*
X156593528Y-106683676D01*
X156606826Y-106702604D01*
X156619268Y-106722518D01*
X156630834Y-106743435D01*
X156641501Y-106765371D01*
X156651251Y-106788345D01*
X156660063Y-106812373D01*
X156667915Y-106837473D01*
X156674787Y-106863661D01*
X156680658Y-106890956D01*
X156685508Y-106919375D01*
X156689317Y-106948934D01*
X156692062Y-106979651D01*
X156693725Y-107011543D01*
X156694284Y-107044628D01*
X156693202Y-107089940D01*
X156690004Y-107133711D01*
X156684763Y-107175948D01*
X156677553Y-107216658D01*
X156668445Y-107255849D01*
X156657513Y-107293525D01*
X156644829Y-107329694D01*
X156630466Y-107364363D01*
X156614498Y-107397539D01*
X156596997Y-107429228D01*
X156578035Y-107459436D01*
X156557686Y-107488171D01*
X156536022Y-107515439D01*
X156513117Y-107541247D01*
X156489043Y-107565601D01*
X156463872Y-107588509D01*
X156437679Y-107609976D01*
X156410534Y-107630010D01*
X156382513Y-107648617D01*
X156353686Y-107665804D01*
X156324127Y-107681578D01*
X156293910Y-107695945D01*
X156263106Y-107708912D01*
X156231788Y-107720486D01*
X156167904Y-107739480D01*
X156102839Y-107752981D01*
X156037177Y-107761042D01*
X155971500Y-107763718D01*
X155916811Y-107761501D01*
X155862549Y-107754750D01*
X155809047Y-107743313D01*
X155756636Y-107727039D01*
X155705649Y-107705777D01*
X155680793Y-107693228D01*
X155656417Y-107679375D01*
X155632563Y-107664200D01*
X155609273Y-107647683D01*
X155586587Y-107629806D01*
X155564547Y-107610549D01*
X155543196Y-107589894D01*
X155522574Y-107567822D01*
X155502722Y-107544314D01*
X155483683Y-107519351D01*
X155465498Y-107492914D01*
X155448208Y-107464984D01*
X155431854Y-107435542D01*
X155416479Y-107404570D01*
X155402124Y-107372048D01*
X155388830Y-107337958D01*
X155376639Y-107302281D01*
X155365592Y-107264997D01*
X155355731Y-107226088D01*
X155347098Y-107185535D01*
X155339733Y-107143319D01*
X155333678Y-107099422D01*
X155740628Y-107088956D01*
X155742915Y-107114049D01*
X155746032Y-107138998D01*
X155750112Y-107163601D01*
X155755289Y-107187654D01*
X155761697Y-107210952D01*
X155765405Y-107222255D01*
X155769471Y-107233292D01*
X155773912Y-107244040D01*
X155778745Y-107254472D01*
X155783986Y-107264562D01*
X155789652Y-107274286D01*
X155795760Y-107283618D01*
X155802327Y-107292532D01*
X155809369Y-107301003D01*
X155816903Y-107309006D01*
X155824946Y-107316514D01*
X155833515Y-107323503D01*
X155842626Y-107329948D01*
X155852296Y-107335822D01*
X155862542Y-107341100D01*
X155873381Y-107345757D01*
X155884830Y-107349768D01*
X155896904Y-107353106D01*
X155909622Y-107355747D01*
X155922999Y-107357665D01*
X155937052Y-107358834D01*
X155951799Y-107359230D01*
X155965959Y-107358856D01*
X155979626Y-107357745D01*
X155992804Y-107355909D01*
X156005495Y-107353360D01*
X156017703Y-107350111D01*
X156029430Y-107346176D01*
X156040678Y-107341566D01*
X156051451Y-107336296D01*
X156061752Y-107330376D01*
X156071583Y-107323821D01*
X156080947Y-107316643D01*
X156089846Y-107308855D01*
X156098285Y-107300469D01*
X156106264Y-107291499D01*
X156113788Y-107281957D01*
X156120859Y-107271855D01*
X156127480Y-107261208D01*
X156133653Y-107250027D01*
X156144669Y-107226115D01*
X156153928Y-107200223D01*
X156161454Y-107172452D01*
X156167269Y-107142905D01*
X156171394Y-107111684D01*
X156173853Y-107078891D01*
X156174668Y-107044628D01*
X156174241Y-107017428D01*
X156172976Y-106991734D01*
X156170893Y-106967503D01*
X156168017Y-106944694D01*
X156164368Y-106923265D01*
X156159968Y-106903172D01*
X156154840Y-106884375D01*
X156149006Y-106866831D01*
X156142488Y-106850498D01*
X156135308Y-106835333D01*
X156127487Y-106821295D01*
X156119049Y-106808342D01*
X156110015Y-106796431D01*
X156100407Y-106785521D01*
X156090247Y-106775569D01*
X156079558Y-106766533D01*
X156068362Y-106758370D01*
X156056680Y-106751040D01*
X156044534Y-106744499D01*
X156031947Y-106738706D01*
X156018942Y-106733619D01*
X156005539Y-106729195D01*
X155991761Y-106725392D01*
X155977630Y-106722168D01*
X155948397Y-106717290D01*
X155918018Y-106714222D01*
X155886668Y-106712629D01*
X155854525Y-106712172D01*
X155728315Y-106712172D01*
X155728315Y-106305222D01*
X155840365Y-106305222D01*
X155873787Y-106304368D01*
X155905870Y-106301708D01*
X155936501Y-106297098D01*
X155965567Y-106290393D01*
X155979478Y-106286210D01*
X155992955Y-106281448D01*
X156005985Y-106276089D01*
X156018554Y-106270117D01*
X156030646Y-106263511D01*
X156042249Y-106256255D01*
X156053347Y-106248330D01*
X156063928Y-106239718D01*
X156073977Y-106230401D01*
X156083479Y-106220361D01*
X156092421Y-106209579D01*
X156100789Y-106198038D01*
X156108568Y-106185719D01*
X156115745Y-106172604D01*
X156122305Y-106158675D01*
X156128234Y-106143915D01*
X156133519Y-106128304D01*
X156138145Y-106111824D01*
X156142097Y-106094459D01*
X156145363Y-106076188D01*
X156147927Y-106056995D01*
X156149776Y-106036861D01*
X156150896Y-106015769D01*
X156151273Y-105993699D01*
X156151091Y-105978863D01*
X156150546Y-105964242D01*
X156149639Y-105949851D01*
X156148371Y-105935707D01*
X156146741Y-105921828D01*
X156144752Y-105908230D01*
X156142403Y-105894930D01*
X156139696Y-105881945D01*
X156136630Y-105869292D01*
X156133208Y-105856988D01*
X156129429Y-105845049D01*
X156125294Y-105833492D01*
X156120805Y-105822335D01*
X156115961Y-105811594D01*
X156110764Y-105801286D01*
X156105214Y-105791428D01*
X156099312Y-105782036D01*
X156093059Y-105773129D01*
X156086455Y-105764721D01*
X156079501Y-105756831D01*
X156072199Y-105749476D01*
X156064547Y-105742671D01*
X156056549Y-105736435D01*
X156048203Y-105730783D01*
X156039511Y-105725733D01*
X156030474Y-105721302D01*
X156021092Y-105717506D01*
X156011366Y-105714362D01*
X156001297Y-105711888D01*
X155990886Y-105710100D01*
X155980132Y-105709014D01*
X155969038Y-105708649D01*
X155957753Y-105708911D01*
X155946845Y-105709695D01*
X155936310Y-105710994D01*
X155926142Y-105712801D01*
X155916336Y-105715112D01*
X155906887Y-105717920D01*
X155897789Y-105721219D01*
X155889038Y-105725003D01*
X155880628Y-105729266D01*
X155872554Y-105734002D01*
X155864812Y-105739204D01*
X155857395Y-105744868D01*
X155850299Y-105750987D01*
X155843519Y-105757554D01*
X155837049Y-105764565D01*
X155830884Y-105772012D01*
X155825019Y-105779891D01*
X155819450Y-105788194D01*
X155809175Y-105806050D01*
X155800018Y-105825534D01*
X155791939Y-105846597D01*
X155784894Y-105869191D01*
X155778845Y-105893268D01*
X155773749Y-105918779D01*
X155769564Y-105945677D01*
X155340450Y-105903812D01*
X155349552Y-105862448D01*
X155359796Y-105822689D01*
X155371146Y-105784516D01*
X155383567Y-105747910D01*
X155397021Y-105712852D01*
X155411473Y-105679323D01*
X155426887Y-105647304D01*
X155443226Y-105616775D01*
X155460454Y-105587718D01*
X155478535Y-105560112D01*
X155497433Y-105533940D01*
X155517112Y-105509181D01*
X155537536Y-105485817D01*
X155558667Y-105463829D01*
X155580471Y-105443197D01*
X155602910Y-105423902D01*
X155625950Y-105405924D01*
X155649553Y-105389246D01*
X155673683Y-105373847D01*
X155698305Y-105359709D01*
X155723381Y-105346811D01*
X155748876Y-105335136D01*
X155774754Y-105324664D01*
X155800979Y-105315376D01*
X155827514Y-105307252D01*
X155854323Y-105300273D01*
X155908618Y-105289675D01*
X155963576Y-105283429D01*
X156018906Y-105281381D01*
X156050478Y-105282125D01*
G37*
G36*
X160724142Y-111019658D02*
G01*
X160298163Y-111019658D01*
X160298163Y-110868845D01*
X160290225Y-110868845D01*
X160257876Y-110905670D01*
X160241740Y-110923272D01*
X160225402Y-110940200D01*
X160208693Y-110956353D01*
X160191440Y-110971630D01*
X160173475Y-110985930D01*
X160154626Y-110999153D01*
X160144817Y-111005329D01*
X160134723Y-111011197D01*
X160124323Y-111016746D01*
X160113595Y-111021963D01*
X160102518Y-111026834D01*
X160091072Y-111031348D01*
X160079234Y-111035492D01*
X160066983Y-111039254D01*
X160054298Y-111042620D01*
X160041157Y-111045578D01*
X160027540Y-111048115D01*
X160013425Y-111050219D01*
X159998791Y-111051878D01*
X159983616Y-111053078D01*
X159967879Y-111053808D01*
X159951558Y-111054054D01*
X159921906Y-111052980D01*
X159893461Y-111049770D01*
X159866206Y-111044444D01*
X159840123Y-111037021D01*
X159815196Y-111027521D01*
X159791405Y-111015963D01*
X159768735Y-111002366D01*
X159747168Y-110986750D01*
X159726686Y-110969134D01*
X159707271Y-110949538D01*
X159688907Y-110927981D01*
X159671576Y-110904481D01*
X159655260Y-110879060D01*
X159639942Y-110851735D01*
X159625604Y-110822527D01*
X159612230Y-110791455D01*
X159599802Y-110758538D01*
X159588302Y-110723795D01*
X159577712Y-110687246D01*
X159568016Y-110648910D01*
X159559196Y-110608808D01*
X159551234Y-110566957D01*
X159544113Y-110523377D01*
X159537816Y-110478089D01*
X159532325Y-110431111D01*
X159527623Y-110382462D01*
X159520515Y-110280230D01*
X159516352Y-110171550D01*
X159514996Y-110056575D01*
X159515077Y-110051283D01*
X159991246Y-110051283D01*
X159992522Y-110249901D01*
X159996992Y-110406445D01*
X160000725Y-110470440D01*
X160005617Y-110525719D01*
X160011788Y-110572882D01*
X160019358Y-110612530D01*
X160028447Y-110645264D01*
X160039176Y-110671684D01*
X160051664Y-110692392D01*
X160066032Y-110707987D01*
X160082400Y-110719071D01*
X160100888Y-110726244D01*
X160121616Y-110730108D01*
X160144704Y-110731262D01*
X160156859Y-110730957D01*
X160168517Y-110730058D01*
X160179679Y-110728594D01*
X160190345Y-110726591D01*
X160200515Y-110724076D01*
X160210189Y-110721077D01*
X160219366Y-110717620D01*
X160228048Y-110713733D01*
X160236234Y-110709444D01*
X160243923Y-110704778D01*
X160251116Y-110699763D01*
X160257814Y-110694427D01*
X160264015Y-110688796D01*
X160269720Y-110682898D01*
X160274929Y-110676760D01*
X160279642Y-110670408D01*
X160279642Y-109424220D01*
X160276996Y-109424220D01*
X160275175Y-109421020D01*
X160273187Y-109417869D01*
X160271037Y-109414771D01*
X160268728Y-109411730D01*
X160266263Y-109408749D01*
X160263648Y-109405832D01*
X160260885Y-109402982D01*
X160257979Y-109400201D01*
X160254933Y-109397495D01*
X160251752Y-109394865D01*
X160248439Y-109392316D01*
X160244998Y-109389850D01*
X160241433Y-109387472D01*
X160237748Y-109385185D01*
X160233946Y-109382991D01*
X160230032Y-109380895D01*
X160226010Y-109378899D01*
X160221883Y-109377008D01*
X160217655Y-109375224D01*
X160213330Y-109373552D01*
X160208913Y-109371993D01*
X160204406Y-109370553D01*
X160199814Y-109369233D01*
X160195140Y-109368038D01*
X160190389Y-109366971D01*
X160185565Y-109366035D01*
X160180670Y-109365233D01*
X160175710Y-109364570D01*
X160170688Y-109364049D01*
X160165607Y-109363672D01*
X160160473Y-109363443D01*
X160155287Y-109363366D01*
X160143410Y-109363613D01*
X160132080Y-109364406D01*
X160121286Y-109365830D01*
X160111016Y-109367965D01*
X160101260Y-109370896D01*
X160092006Y-109374703D01*
X160083244Y-109379469D01*
X160074962Y-109385277D01*
X160067148Y-109392209D01*
X160059793Y-109400347D01*
X160052884Y-109409774D01*
X160046410Y-109420572D01*
X160040361Y-109432823D01*
X160034726Y-109446611D01*
X160029492Y-109462016D01*
X160024649Y-109479122D01*
X160020187Y-109498010D01*
X160016093Y-109518764D01*
X160012356Y-109541465D01*
X160008966Y-109566196D01*
X160005911Y-109593040D01*
X160003180Y-109622078D01*
X160000762Y-109653393D01*
X159998646Y-109687068D01*
X159996821Y-109723184D01*
X159995275Y-109761824D01*
X159993997Y-109803071D01*
X159992977Y-109847006D01*
X159991664Y-109943273D01*
X159991246Y-110051283D01*
X159515077Y-110051283D01*
X159516769Y-109940381D01*
X159522112Y-109830981D01*
X159531059Y-109728473D01*
X159543645Y-109632952D01*
X159559906Y-109544516D01*
X159579876Y-109463262D01*
X159603589Y-109389287D01*
X159631082Y-109322687D01*
X159662388Y-109263559D01*
X159697543Y-109212001D01*
X159716574Y-109189091D01*
X159736581Y-109168109D01*
X159757568Y-109149068D01*
X159779538Y-109131980D01*
X159802497Y-109116857D01*
X159826448Y-109103711D01*
X159851396Y-109092554D01*
X159877346Y-109083399D01*
X159904301Y-109076257D01*
X159932267Y-109071141D01*
X159961247Y-109068062D01*
X159991246Y-109067033D01*
X160015179Y-109067793D01*
X160038349Y-109070015D01*
X160060736Y-109073608D01*
X160082320Y-109078484D01*
X160103083Y-109084555D01*
X160123005Y-109091729D01*
X160142067Y-109099919D01*
X160160248Y-109109036D01*
X160177531Y-109118989D01*
X160193895Y-109129691D01*
X160209321Y-109141051D01*
X160223790Y-109152981D01*
X160237282Y-109165392D01*
X160249778Y-109178194D01*
X160261259Y-109191299D01*
X160271704Y-109204616D01*
X160279642Y-109204616D01*
X160279642Y-108289158D01*
X160724142Y-108289158D01*
X160724142Y-111019658D01*
G37*
G36*
X158341171Y-107715081D02*
G01*
X157810473Y-107715081D01*
X157810473Y-107481746D01*
X157803701Y-107481746D01*
X157773285Y-107520897D01*
X157744353Y-107556225D01*
X157716694Y-107587913D01*
X157690095Y-107616146D01*
X157664344Y-107641109D01*
X157639229Y-107662986D01*
X157614538Y-107681962D01*
X157602286Y-107690420D01*
X157590060Y-107698221D01*
X157577834Y-107705390D01*
X157565582Y-107711948D01*
X157553277Y-107717920D01*
X157540892Y-107723328D01*
X157528401Y-107728195D01*
X157515778Y-107732544D01*
X157490029Y-107739781D01*
X157463432Y-107745225D01*
X157435775Y-107749059D01*
X157406846Y-107751467D01*
X157376434Y-107752636D01*
X157339742Y-107751759D01*
X157304449Y-107747730D01*
X157270538Y-107740640D01*
X157237995Y-107730578D01*
X157206804Y-107717635D01*
X157176950Y-107701901D01*
X157148417Y-107683467D01*
X157121191Y-107662423D01*
X157095256Y-107638860D01*
X157070596Y-107612867D01*
X157047197Y-107584536D01*
X157025043Y-107553956D01*
X156984410Y-107486413D01*
X156948573Y-107410960D01*
X156917411Y-107328321D01*
X156890800Y-107239218D01*
X156868620Y-107144375D01*
X156850746Y-107044515D01*
X156837058Y-106940360D01*
X156827432Y-106832633D01*
X156821746Y-106722058D01*
X156819878Y-106609358D01*
X156821681Y-106482111D01*
X156821935Y-106476375D01*
X157418298Y-106476375D01*
X157418898Y-106671886D01*
X157419945Y-106761924D01*
X157421752Y-106846549D01*
X157424517Y-106925560D01*
X157428438Y-106998755D01*
X157433713Y-107065934D01*
X157440539Y-107126895D01*
X157444595Y-107154981D01*
X157449112Y-107181438D01*
X157454117Y-107206239D01*
X157459632Y-107229360D01*
X157465684Y-107250776D01*
X157472296Y-107270462D01*
X157479493Y-107288392D01*
X157487300Y-107304542D01*
X157495741Y-107318885D01*
X157504842Y-107331398D01*
X157514627Y-107342055D01*
X157525121Y-107350831D01*
X157536348Y-107357700D01*
X157548333Y-107362637D01*
X157561101Y-107365618D01*
X157574676Y-107366618D01*
X157582471Y-107366387D01*
X157590237Y-107365701D01*
X157597969Y-107364565D01*
X157605661Y-107362987D01*
X157613305Y-107360973D01*
X157620895Y-107358530D01*
X157628426Y-107355665D01*
X157635891Y-107352384D01*
X157650599Y-107344602D01*
X157664969Y-107335240D01*
X157678950Y-107324350D01*
X157692493Y-107311987D01*
X157705548Y-107298204D01*
X157718065Y-107283057D01*
X157729995Y-107266598D01*
X157741286Y-107248883D01*
X157751890Y-107229964D01*
X157761755Y-107209896D01*
X157770834Y-107188733D01*
X157779075Y-107166529D01*
X157779075Y-105791763D01*
X157772859Y-105779112D01*
X157765932Y-105766884D01*
X157758309Y-105755133D01*
X157750003Y-105743913D01*
X157741030Y-105733279D01*
X157731403Y-105723285D01*
X157721137Y-105713984D01*
X157710246Y-105705433D01*
X157698746Y-105697683D01*
X157686650Y-105690791D01*
X157673973Y-105684811D01*
X157660730Y-105679796D01*
X157646934Y-105675801D01*
X157639834Y-105674202D01*
X157632601Y-105672880D01*
X157625238Y-105671839D01*
X157617745Y-105671087D01*
X157610126Y-105670631D01*
X157602380Y-105670478D01*
X157587199Y-105671504D01*
X157572866Y-105674553D01*
X157559358Y-105679577D01*
X157546652Y-105686531D01*
X157534722Y-105695367D01*
X157523545Y-105706041D01*
X157513097Y-105718504D01*
X157503353Y-105732712D01*
X157485883Y-105766173D01*
X157470943Y-105806055D01*
X157458341Y-105851985D01*
X157447882Y-105903593D01*
X157439375Y-105960509D01*
X157432628Y-106022361D01*
X157427447Y-106088779D01*
X157423640Y-106159391D01*
X157419377Y-106311718D01*
X157418298Y-106476375D01*
X156821935Y-106476375D01*
X156827227Y-106356631D01*
X156836717Y-106233806D01*
X156850356Y-106114526D01*
X156868346Y-105999678D01*
X156879037Y-105944195D01*
X156890891Y-105890154D01*
X156903935Y-105837665D01*
X156918194Y-105786840D01*
X156933692Y-105737790D01*
X156950457Y-105690627D01*
X156968512Y-105645461D01*
X156987884Y-105602404D01*
X157008598Y-105561566D01*
X157030678Y-105523059D01*
X157054151Y-105486994D01*
X157079043Y-105453482D01*
X157105377Y-105422634D01*
X157133180Y-105394561D01*
X157162478Y-105369375D01*
X157193294Y-105347187D01*
X157225656Y-105328107D01*
X157259588Y-105312247D01*
X157295115Y-105299718D01*
X157332264Y-105290631D01*
X157371059Y-105285098D01*
X157411526Y-105283229D01*
X157426337Y-105283437D01*
X157440850Y-105284061D01*
X157455073Y-105285100D01*
X157469015Y-105286553D01*
X157482684Y-105288420D01*
X157496088Y-105290700D01*
X157509237Y-105293392D01*
X157522137Y-105296495D01*
X157534798Y-105300009D01*
X157547228Y-105303934D01*
X157559435Y-105308267D01*
X157571428Y-105313009D01*
X157583214Y-105318159D01*
X157594803Y-105323717D01*
X157606202Y-105329680D01*
X157617420Y-105336050D01*
X157628465Y-105342824D01*
X157639345Y-105350003D01*
X157660647Y-105365570D01*
X157681390Y-105382746D01*
X157701642Y-105401525D01*
X157721470Y-105421900D01*
X157740940Y-105443867D01*
X157760120Y-105467420D01*
X157779075Y-105492552D01*
X157779075Y-104320954D01*
X158341171Y-104320954D01*
X158341171Y-107715081D01*
G37*
G36*
X161204600Y-107715696D02*
G01*
X160606795Y-107715696D01*
X159664838Y-105322015D01*
X160265720Y-105322015D01*
X161204600Y-107715696D01*
G37*
G36*
X159593421Y-104756840D02*
G01*
X159564149Y-104754652D01*
X159535290Y-104754409D01*
X159521080Y-104755036D01*
X159507049Y-104756171D01*
X159493223Y-104757824D01*
X159479628Y-104760001D01*
X159466289Y-104762711D01*
X159453232Y-104765960D01*
X159440481Y-104769757D01*
X159428063Y-104774109D01*
X159416003Y-104779024D01*
X159404326Y-104784509D01*
X159393057Y-104790573D01*
X159382223Y-104797223D01*
X159371848Y-104804466D01*
X159361958Y-104812310D01*
X159352579Y-104820763D01*
X159343736Y-104829833D01*
X159335453Y-104839528D01*
X159327758Y-104849854D01*
X159320675Y-104860819D01*
X159314229Y-104872432D01*
X159308446Y-104884700D01*
X159303352Y-104897631D01*
X159298972Y-104911232D01*
X159295331Y-104925511D01*
X159292455Y-104940475D01*
X159290369Y-104956133D01*
X159289099Y-104972492D01*
X159288670Y-104989559D01*
X159288670Y-105322015D01*
X159593421Y-105322015D01*
X159593421Y-105768983D01*
X159288670Y-105768983D01*
X159288670Y-107715696D01*
X158726573Y-107715696D01*
X158726573Y-105768983D01*
X158469844Y-105768983D01*
X158469844Y-105322015D01*
X158726573Y-105322015D01*
X158726573Y-105054819D01*
X158728778Y-104945434D01*
X158731539Y-104894546D01*
X158735411Y-104846124D01*
X158740397Y-104800116D01*
X158746501Y-104756468D01*
X158753725Y-104715128D01*
X158762075Y-104676043D01*
X158771552Y-104639161D01*
X158782161Y-104604428D01*
X158793906Y-104571791D01*
X158806789Y-104541198D01*
X158820814Y-104512597D01*
X158835985Y-104485933D01*
X158852305Y-104461155D01*
X158869778Y-104438210D01*
X158888407Y-104417044D01*
X158908196Y-104397606D01*
X158929149Y-104379841D01*
X158951268Y-104363699D01*
X158974557Y-104349125D01*
X158999020Y-104336066D01*
X159024661Y-104324471D01*
X159051482Y-104314286D01*
X159079488Y-104305459D01*
X159108682Y-104297936D01*
X159139067Y-104291666D01*
X159170647Y-104286594D01*
X159203425Y-104282668D01*
X159237406Y-104279837D01*
X159308987Y-104277242D01*
X159593421Y-104274779D01*
X159593421Y-104756840D01*
G37*
D12*
G36*
X157449162Y-99025045D02*
G01*
X159450000Y-99433419D01*
X159450000Y-99685477D01*
X157449162Y-100091409D01*
X157449162Y-99789036D01*
X158845743Y-99562379D01*
X158845743Y-99557006D01*
X157449162Y-99327417D01*
X157449162Y-99025045D01*
G37*
G36*
X157930809Y-98863845D02*
G01*
X157830992Y-98855710D01*
X157735873Y-98828941D01*
X157718318Y-98821346D01*
X157633810Y-98771765D01*
X157564933Y-98708018D01*
X157507557Y-98625517D01*
X157475540Y-98553656D01*
X157450656Y-98455923D01*
X157444766Y-98379267D01*
X157454503Y-98280967D01*
X157475540Y-98205366D01*
X157518972Y-98112887D01*
X157564933Y-98047585D01*
X157639015Y-97982611D01*
X157718806Y-97937187D01*
X157818213Y-97905313D01*
X157916815Y-97894855D01*
X157931786Y-97894689D01*
X158031926Y-97894689D01*
X158031926Y-98180453D01*
X157931786Y-98180453D01*
X157832593Y-98199155D01*
X157779378Y-98239560D01*
X157735300Y-98330760D01*
X157730530Y-98378778D01*
X157751567Y-98475740D01*
X157779378Y-98518974D01*
X157867054Y-98571096D01*
X157931786Y-98578080D01*
X158979099Y-98578080D01*
X159077897Y-98559379D01*
X159131018Y-98518974D01*
X159175097Y-98427312D01*
X159179867Y-98378778D01*
X159158830Y-98282678D01*
X159131018Y-98239560D01*
X159043553Y-98187437D01*
X158979099Y-98180453D01*
X158605896Y-98180453D01*
X158605896Y-98413461D01*
X158355792Y-98413461D01*
X158355792Y-97894689D01*
X158980565Y-97894689D01*
X159083494Y-97902823D01*
X159178420Y-97929592D01*
X159195498Y-97937187D01*
X159281412Y-97989510D01*
X159343021Y-98047585D01*
X159399732Y-98127635D01*
X159435345Y-98205366D01*
X159459834Y-98302704D01*
X159465631Y-98379267D01*
X159456048Y-98477721D01*
X159435345Y-98553656D01*
X159390986Y-98644812D01*
X159343021Y-98708018D01*
X159272054Y-98775279D01*
X159195010Y-98821346D01*
X159096580Y-98853220D01*
X158995628Y-98863679D01*
X158980076Y-98863845D01*
X157930809Y-98863845D01*
G37*
G36*
X159450000Y-96948492D02*
G01*
X159012316Y-97032512D01*
X159012316Y-97421835D01*
X159450000Y-97505854D01*
X159450000Y-97791618D01*
X157449162Y-97346119D01*
X157449162Y-97225952D01*
X158014829Y-97225952D01*
X158014829Y-97231325D01*
X158726552Y-97371521D01*
X158726552Y-97085757D01*
X158014829Y-97225952D01*
X157449162Y-97225952D01*
X157449162Y-97108227D01*
X159450000Y-96663216D01*
X159450000Y-96948492D01*
G37*
G36*
X159450000Y-95981779D02*
G01*
X157449162Y-95981779D01*
X157449162Y-95696015D01*
X159450000Y-95696015D01*
X159450000Y-95981779D01*
G37*
G36*
X159450000Y-95442491D02*
G01*
X158043161Y-95442491D01*
X158043161Y-95156727D01*
X158180914Y-95156727D01*
X158180914Y-95150865D01*
X158103386Y-95084948D01*
X158071004Y-95044375D01*
X158033643Y-94952860D01*
X158027529Y-94885129D01*
X158043414Y-94786210D01*
X158045603Y-94779616D01*
X158097619Y-94693222D01*
X158105198Y-94685338D01*
X158188472Y-94628830D01*
X158212177Y-94618904D01*
X158310070Y-94596935D01*
X158371423Y-94593991D01*
X159450000Y-94593991D01*
X159450000Y-94879755D01*
X158478890Y-94879755D01*
X158381803Y-94899814D01*
X158357745Y-94915415D01*
X158313684Y-95004520D01*
X158313293Y-95016531D01*
X158343704Y-95110829D01*
X158363119Y-95126440D01*
X158457257Y-95154331D01*
X158506734Y-95156727D01*
X159450000Y-95156727D01*
X159450000Y-95442491D01*
G37*
G36*
X159101778Y-93506813D02*
G01*
X159203200Y-93512003D01*
X159221877Y-93513949D01*
X159322911Y-93543481D01*
X159401372Y-93604292D01*
X159429972Y-93642909D01*
X159461417Y-93738098D01*
X159465631Y-93805087D01*
X159450938Y-93903051D01*
X159428018Y-93955052D01*
X159364555Y-94033611D01*
X159320062Y-94068380D01*
X160012735Y-94068380D01*
X160012735Y-94354145D01*
X158043161Y-94354145D01*
X158043161Y-94068380D01*
X158172609Y-94068380D01*
X158100672Y-93997875D01*
X158069539Y-93959937D01*
X158057042Y-93928185D01*
X158313293Y-93928185D01*
X158350319Y-94019761D01*
X158361653Y-94029790D01*
X158454043Y-94066534D01*
X158486217Y-94068380D01*
X159028925Y-94068380D01*
X159123387Y-94039864D01*
X159137369Y-94028325D01*
X159179493Y-93939275D01*
X159179867Y-93928185D01*
X159147297Y-93832806D01*
X159130530Y-93820230D01*
X159035102Y-93792113D01*
X159014759Y-93791409D01*
X158503314Y-93791409D01*
X158405421Y-93805504D01*
X158365561Y-93824138D01*
X158314110Y-93910958D01*
X158313293Y-93928185D01*
X158057042Y-93928185D01*
X158032493Y-93865810D01*
X158027529Y-93799713D01*
X158040552Y-93700223D01*
X158090561Y-93607532D01*
X158160886Y-93552540D01*
X158256017Y-93520713D01*
X158277145Y-93516880D01*
X158375813Y-93507499D01*
X158462770Y-93505645D01*
X158997662Y-93505645D01*
X159101778Y-93506813D01*
G37*
G36*
X158043161Y-92417299D02*
G01*
X159450000Y-92417299D01*
X159450000Y-92703063D01*
X159312247Y-92703063D01*
X159312247Y-92708436D01*
X159390205Y-92774564D01*
X159422644Y-92815415D01*
X159459586Y-92906929D01*
X159465631Y-92974661D01*
X159450175Y-93073579D01*
X159448046Y-93080174D01*
X159396029Y-93166568D01*
X159388450Y-93174452D01*
X159305177Y-93230960D01*
X159281472Y-93240886D01*
X159183147Y-93262855D01*
X159121737Y-93265798D01*
X158043161Y-93265798D01*
X158043161Y-92980034D01*
X159014270Y-92980034D01*
X159111632Y-92959976D01*
X159135903Y-92944375D01*
X159179481Y-92854868D01*
X159179867Y-92842770D01*
X159149754Y-92748770D01*
X159130530Y-92733349D01*
X159035942Y-92705459D01*
X158986427Y-92703063D01*
X158043161Y-92703063D01*
X158043161Y-92417299D01*
G37*
G36*
X158043161Y-92181849D02*
G01*
X157589846Y-92181849D01*
X157589846Y-91896085D01*
X158043161Y-91896085D01*
X158043161Y-91739769D01*
X158262002Y-91739769D01*
X158262002Y-91896085D01*
X159027948Y-91896085D01*
X159104640Y-91887292D01*
X159145184Y-91858960D01*
X159161793Y-91810600D01*
X159164235Y-91739769D01*
X159450000Y-91739769D01*
X159450000Y-91852609D01*
X159439322Y-91953135D01*
X159419713Y-92009413D01*
X159361491Y-92091905D01*
X159341556Y-92109553D01*
X159252903Y-92158767D01*
X159234577Y-92164752D01*
X159136316Y-92181431D01*
X159118806Y-92181849D01*
X158262002Y-92181849D01*
X158262002Y-92333768D01*
X158043161Y-92333768D01*
X158043161Y-92181849D01*
G37*
G36*
X155925994Y-86100629D02*
G01*
X156020495Y-86126926D01*
X156136093Y-86180914D01*
X156217721Y-86238667D01*
X156298939Y-86330792D01*
X156355719Y-86430397D01*
X156395561Y-86554503D01*
X156408634Y-86677371D01*
X156408841Y-86696011D01*
X156408841Y-88007595D01*
X156398673Y-88136257D01*
X156365212Y-88254914D01*
X156355719Y-88276263D01*
X156290314Y-88384131D01*
X156217721Y-88461277D01*
X156117659Y-88532165D01*
X156020495Y-88576681D01*
X155898822Y-88607293D01*
X155803119Y-88614539D01*
X155680051Y-88602561D01*
X155585132Y-88576681D01*
X155471187Y-88521233D01*
X155392181Y-88461277D01*
X155308104Y-88372567D01*
X155250520Y-88276263D01*
X155210678Y-88153225D01*
X155197604Y-88027035D01*
X155197397Y-88007595D01*
X155197397Y-86697233D01*
X155554602Y-86697233D01*
X155554602Y-88006374D01*
X155577979Y-88129872D01*
X155628486Y-88196273D01*
X155743063Y-88251371D01*
X155803730Y-88257334D01*
X155923855Y-88231037D01*
X155977753Y-88196273D01*
X156042906Y-88086942D01*
X156051636Y-88006374D01*
X156051636Y-86697233D01*
X156028259Y-86573241D01*
X155977753Y-86506723D01*
X155863753Y-86451625D01*
X155803730Y-86445662D01*
X155682527Y-86471959D01*
X155628486Y-86506723D01*
X155563332Y-86616318D01*
X155554602Y-86697233D01*
X155197397Y-86697233D01*
X155197397Y-86696011D01*
X155207565Y-86571240D01*
X155241026Y-86452342D01*
X155250520Y-86430397D01*
X155312496Y-86324762D01*
X155392181Y-86238667D01*
X155495306Y-86166947D01*
X155585132Y-86126926D01*
X155707299Y-86095820D01*
X155803119Y-86088457D01*
X155925994Y-86100629D01*
G37*
G36*
X157044483Y-86998872D02*
G01*
X157051811Y-86998872D01*
X157133909Y-86904944D01*
X157191640Y-86863928D01*
X157308497Y-86822467D01*
X157377264Y-86816912D01*
X157503359Y-86831208D01*
X157576322Y-86862096D01*
X157668371Y-86943269D01*
X157692338Y-86976280D01*
X157733682Y-87094390D01*
X157737523Y-87121605D01*
X157745622Y-87246189D01*
X157747862Y-87379133D01*
X157747903Y-87402484D01*
X157747903Y-88071099D01*
X157744817Y-88194764D01*
X157733859Y-88303129D01*
X157701853Y-88421256D01*
X157689285Y-88448454D01*
X157603761Y-88549662D01*
X157481831Y-88604159D01*
X157380317Y-88614539D01*
X157258714Y-88599891D01*
X157180038Y-88562637D01*
X157086057Y-88478889D01*
X157044483Y-88433189D01*
X157044483Y-88595000D01*
X156687278Y-88595000D01*
X156687278Y-87362794D01*
X157044483Y-87362794D01*
X157044483Y-88041179D01*
X157071617Y-88165056D01*
X157092721Y-88197494D01*
X157200513Y-88256399D01*
X157219728Y-88257334D01*
X157335825Y-88210821D01*
X157349787Y-88191999D01*
X157388141Y-88070641D01*
X157390698Y-88019808D01*
X157390698Y-87380502D01*
X157366915Y-87259666D01*
X157354672Y-87235788D01*
X157243475Y-87175080D01*
X157219728Y-87174117D01*
X157104161Y-87218247D01*
X157094553Y-87227850D01*
X157045266Y-87342787D01*
X157044483Y-87362794D01*
X156687278Y-87362794D01*
X156687278Y-86093953D01*
X157044483Y-86093953D01*
X157044483Y-86998872D01*
G37*
G36*
X158667477Y-87346919D02*
G01*
X158631947Y-87228976D01*
X158621071Y-87217470D01*
X158515436Y-87174117D01*
X158404916Y-87227240D01*
X158365875Y-87343881D01*
X158365837Y-87348140D01*
X158390262Y-87441563D01*
X158490506Y-87515160D01*
X158514215Y-87524605D01*
X158719989Y-87607037D01*
X158830567Y-87658963D01*
X158931775Y-87735441D01*
X158989878Y-87810980D01*
X159040384Y-87928923D01*
X159062607Y-88056215D01*
X159063761Y-88094302D01*
X159049339Y-88217693D01*
X159022851Y-88296413D01*
X158960263Y-88404891D01*
X158911720Y-88461277D01*
X158811447Y-88539177D01*
X158740750Y-88574239D01*
X158616827Y-88607888D01*
X158524595Y-88614539D01*
X158394185Y-88601003D01*
X158277729Y-88560395D01*
X158175225Y-88492716D01*
X158156399Y-88475931D01*
X158073729Y-88377852D01*
X158034888Y-88306182D01*
X157999155Y-88188360D01*
X157989093Y-88068656D01*
X158347519Y-88068656D01*
X158387292Y-88186194D01*
X158393925Y-88197494D01*
X158501516Y-88256399D01*
X158523985Y-88257334D01*
X158639724Y-88216713D01*
X158650380Y-88207875D01*
X158705185Y-88096591D01*
X158706556Y-88069877D01*
X158671028Y-87950371D01*
X158668698Y-87947145D01*
X158566064Y-87873069D01*
X158530701Y-87858607D01*
X158362784Y-87797547D01*
X158248639Y-87743336D01*
X158147462Y-87665616D01*
X158102666Y-87615586D01*
X158041783Y-87508688D01*
X158011938Y-87384457D01*
X158008632Y-87321273D01*
X158023270Y-87197078D01*
X158050153Y-87118551D01*
X158114219Y-87011266D01*
X158164337Y-86956741D01*
X158265153Y-86881457D01*
X158326148Y-86852937D01*
X158448412Y-86821978D01*
X158527038Y-86816912D01*
X158649058Y-86830904D01*
X158726095Y-86856601D01*
X158835001Y-86922105D01*
X158883021Y-86967121D01*
X158954482Y-87067442D01*
X158986825Y-87137480D01*
X159018434Y-87258741D01*
X159024682Y-87346919D01*
X158667477Y-87346919D01*
G37*
G36*
X159278695Y-88595000D02*
G01*
X159278695Y-86836451D01*
X159635900Y-86836451D01*
X159635900Y-88595000D01*
X159278695Y-88595000D01*
G37*
G36*
X159278695Y-86451158D02*
G01*
X159278695Y-86093953D01*
X159635900Y-86093953D01*
X159635900Y-86451158D01*
X159278695Y-86451158D01*
G37*
G36*
X160989005Y-88595000D02*
G01*
X160631800Y-88595000D01*
X160631800Y-88435631D01*
X160566465Y-88506461D01*
X160496856Y-88562637D01*
X160410150Y-88601106D01*
X160295356Y-88614539D01*
X160170002Y-88598320D01*
X160054369Y-88536038D01*
X159986999Y-88448454D01*
X159947216Y-88329378D01*
X159942425Y-88303129D01*
X159930699Y-88179795D01*
X159928381Y-88071099D01*
X159928381Y-87402484D01*
X159928624Y-87381113D01*
X160285586Y-87381113D01*
X160285586Y-88024082D01*
X160303205Y-88147250D01*
X160326497Y-88197494D01*
X160435624Y-88261808D01*
X160457167Y-88262829D01*
X160571169Y-88216547D01*
X160583562Y-88202379D01*
X160629492Y-88085937D01*
X160631800Y-88045453D01*
X160631800Y-87364016D01*
X160596155Y-87245343D01*
X160581730Y-87227850D01*
X160471023Y-87174589D01*
X160457167Y-87174117D01*
X160340412Y-87212131D01*
X160321612Y-87236399D01*
X160286466Y-87355684D01*
X160285586Y-87381113D01*
X159928624Y-87381113D01*
X159929841Y-87273970D01*
X159936328Y-87145895D01*
X159938761Y-87121605D01*
X159975885Y-86995412D01*
X160053520Y-86897638D01*
X160103015Y-86862096D01*
X160219033Y-86822251D01*
X160302683Y-86816912D01*
X160424900Y-86835277D01*
X160489529Y-86863928D01*
X160587991Y-86943257D01*
X160631800Y-86998872D01*
X160631800Y-86093953D01*
X160989005Y-86093953D01*
X160989005Y-88595000D01*
G37*
G36*
X161288814Y-88595000D02*
G01*
X161288814Y-86836451D01*
X161646019Y-86836451D01*
X161646019Y-88595000D01*
X161288814Y-88595000D01*
G37*
G36*
X161288814Y-86451158D02*
G01*
X161288814Y-86093953D01*
X161646019Y-86093953D01*
X161646019Y-86451158D01*
X161288814Y-86451158D01*
G37*
G36*
X162536801Y-86827924D02*
G01*
X162626043Y-86851716D01*
X162739912Y-86908579D01*
X162798845Y-86955519D01*
X162876173Y-87055888D01*
X162911807Y-87128932D01*
X162945158Y-87249218D01*
X162954550Y-87371953D01*
X162954550Y-88595000D01*
X162597345Y-88595000D01*
X162597345Y-88413649D01*
X162590628Y-88413649D01*
X162511051Y-88508575D01*
X162448356Y-88562637D01*
X162329070Y-88608406D01*
X162246856Y-88614539D01*
X162122673Y-88596202D01*
X162118629Y-88595000D01*
X162009101Y-88536162D01*
X161994065Y-88523558D01*
X161917014Y-88425556D01*
X161896978Y-88381898D01*
X161867354Y-88260289D01*
X161860342Y-88141929D01*
X161863049Y-88069877D01*
X162217547Y-88069877D01*
X162240636Y-88193585D01*
X162266396Y-88237794D01*
X162372162Y-88299654D01*
X162403782Y-88301908D01*
X162521923Y-88265012D01*
X162546054Y-88241458D01*
X162593287Y-88128695D01*
X162597345Y-88070488D01*
X162597345Y-87824413D01*
X162499037Y-87813422D01*
X162372598Y-87833011D01*
X162299979Y-87868988D01*
X162229139Y-87973220D01*
X162217547Y-88069877D01*
X161863049Y-88069877D01*
X161865017Y-88017508D01*
X161881808Y-87892486D01*
X161884766Y-87878147D01*
X161925875Y-87761475D01*
X161975747Y-87687027D01*
X162073301Y-87609222D01*
X162148548Y-87576507D01*
X162272044Y-87549030D01*
X162394190Y-87540192D01*
X162425153Y-87539870D01*
X162464232Y-87539870D01*
X162502700Y-87539870D01*
X162544832Y-87539870D01*
X162597345Y-87550251D01*
X162597345Y-87373785D01*
X162571546Y-87253042D01*
X162558266Y-87230903D01*
X162448576Y-87175503D01*
X162418437Y-87174117D01*
X162300588Y-87209722D01*
X162289599Y-87217470D01*
X162220401Y-87318288D01*
X162213883Y-87343255D01*
X161874386Y-87343255D01*
X161886074Y-87218759D01*
X161926479Y-87096972D01*
X161995745Y-86992596D01*
X162022153Y-86964678D01*
X162121663Y-86890404D01*
X162191901Y-86856601D01*
X162310913Y-86824508D01*
X162414162Y-86816912D01*
X162536801Y-86827924D01*
G37*
G36*
X163232987Y-88595000D02*
G01*
X163232987Y-86836451D01*
X163590192Y-86836451D01*
X163590192Y-87008642D01*
X163597519Y-87008642D01*
X163679915Y-86911733D01*
X163730631Y-86871256D01*
X163845025Y-86824554D01*
X163929689Y-86816912D01*
X164053337Y-86836768D01*
X164061580Y-86839504D01*
X164169573Y-86904524D01*
X164179428Y-86913998D01*
X164250062Y-87018090D01*
X164262470Y-87047721D01*
X164289931Y-87170088D01*
X164293611Y-87246779D01*
X164293611Y-88595000D01*
X163936406Y-88595000D01*
X163936406Y-87381113D01*
X163911333Y-87259754D01*
X163891832Y-87229682D01*
X163780450Y-87174605D01*
X163765436Y-87174117D01*
X163647563Y-87212131D01*
X163628049Y-87236399D01*
X163593186Y-87354072D01*
X163590192Y-87415917D01*
X163590192Y-88595000D01*
X163232987Y-88595000D01*
G37*
G36*
X164554340Y-88595000D02*
G01*
X164554340Y-88258555D01*
X165195478Y-87048942D01*
X165242180Y-86935362D01*
X165250433Y-86890795D01*
X165257409Y-86764186D01*
X165257760Y-86721657D01*
X165257760Y-86625792D01*
X165240052Y-86536643D01*
X165187540Y-86472529D01*
X165086179Y-86445662D01*
X164967673Y-86483274D01*
X164958562Y-86491458D01*
X164911959Y-86607958D01*
X164911546Y-86623960D01*
X164911546Y-86826071D01*
X164554340Y-86826071D01*
X164554340Y-86630676D01*
X164567478Y-86508918D01*
X164595862Y-86420628D01*
X164656872Y-86313007D01*
X164711266Y-86249047D01*
X164809250Y-86169430D01*
X164878573Y-86132421D01*
X164999539Y-86095713D01*
X165088011Y-86088457D01*
X165210246Y-86099593D01*
X165327369Y-86139138D01*
X165428906Y-86207745D01*
X165493454Y-86277135D01*
X165555790Y-86389434D01*
X165585045Y-86476193D01*
X165608391Y-86598709D01*
X165614965Y-86713108D01*
X165614965Y-86836422D01*
X165614965Y-86864539D01*
X165604585Y-86981775D01*
X165569169Y-87093517D01*
X165515186Y-87205267D01*
X165502613Y-87229682D01*
X164974438Y-88237794D01*
X165614965Y-88237794D01*
X165614965Y-88595000D01*
X164554340Y-88595000D01*
G37*
G36*
X155094047Y-83050629D02*
G01*
X155188548Y-83076926D01*
X155304146Y-83130914D01*
X155385774Y-83188667D01*
X155466992Y-83280792D01*
X155523772Y-83380397D01*
X155563614Y-83504045D01*
X155576687Y-83626763D01*
X155576894Y-83645401D01*
X155576894Y-84956374D01*
X155565356Y-85085308D01*
X155527613Y-85204205D01*
X155524382Y-85210997D01*
X155744811Y-85389295D01*
X155562850Y-85606671D01*
X155352802Y-85435090D01*
X155245659Y-85503354D01*
X155128022Y-85546335D01*
X154999890Y-85564033D01*
X154973004Y-85564539D01*
X154849442Y-85552561D01*
X154754407Y-85526681D01*
X154639968Y-85471233D01*
X154560844Y-85411277D01*
X154476595Y-85322567D01*
X154418573Y-85226263D01*
X154378731Y-85103225D01*
X154365657Y-84977035D01*
X154365450Y-84957595D01*
X154365450Y-83647233D01*
X154722655Y-83647233D01*
X154722655Y-84956374D01*
X154746032Y-85079872D01*
X154796539Y-85146273D01*
X154910827Y-85201371D01*
X154971172Y-85207334D01*
X155050551Y-85193290D01*
X154884466Y-85064452D01*
X155071922Y-84848297D01*
X155219689Y-84963702D01*
X155219689Y-84956374D01*
X155219689Y-83647233D01*
X155196312Y-83523241D01*
X155145806Y-83456723D01*
X155031806Y-83401625D01*
X154971783Y-83395662D01*
X154850580Y-83421959D01*
X154796539Y-83456723D01*
X154731385Y-83566318D01*
X154722655Y-83647233D01*
X154365450Y-83647233D01*
X154365450Y-83646011D01*
X154375618Y-83521240D01*
X154409079Y-83402342D01*
X154418573Y-83380397D01*
X154480549Y-83274762D01*
X154560234Y-83188667D01*
X154663359Y-83116947D01*
X154753185Y-83076926D01*
X154875352Y-83045820D01*
X154971172Y-83038457D01*
X155094047Y-83050629D01*
G37*
G36*
X156915956Y-83786451D02*
G01*
X156915956Y-85545000D01*
X156558751Y-85545000D01*
X156558751Y-85372808D01*
X156552034Y-85372808D01*
X156469375Y-85470256D01*
X156418311Y-85510806D01*
X156303918Y-85556983D01*
X156219253Y-85564539D01*
X156095605Y-85545219D01*
X156087362Y-85542557D01*
X155979370Y-85477537D01*
X155969515Y-85468063D01*
X155898880Y-85363971D01*
X155886472Y-85334340D01*
X155859011Y-85211434D01*
X155855331Y-85134672D01*
X155855331Y-83786451D01*
X156212536Y-83786451D01*
X156212536Y-85000338D01*
X156237610Y-85122040D01*
X156257111Y-85152379D01*
X156368994Y-85206851D01*
X156384117Y-85207334D01*
X156501617Y-85169693D01*
X156520893Y-85145662D01*
X156555756Y-85027427D01*
X156558751Y-84965533D01*
X156558751Y-83786451D01*
X156915956Y-83786451D01*
G37*
G36*
X157814066Y-83777924D02*
G01*
X157903308Y-83801716D01*
X158017176Y-83858579D01*
X158076109Y-83905519D01*
X158153437Y-84005888D01*
X158189072Y-84078932D01*
X158222423Y-84199218D01*
X158231814Y-84321953D01*
X158231814Y-85545000D01*
X157874609Y-85545000D01*
X157874609Y-85363649D01*
X157867892Y-85363649D01*
X157788315Y-85458575D01*
X157725621Y-85512637D01*
X157606334Y-85558406D01*
X157524121Y-85564539D01*
X157399937Y-85546202D01*
X157395893Y-85545000D01*
X157286365Y-85486162D01*
X157271329Y-85473558D01*
X157194278Y-85375556D01*
X157174243Y-85331898D01*
X157144619Y-85210289D01*
X157137606Y-85091929D01*
X157140313Y-85019877D01*
X157494811Y-85019877D01*
X157517900Y-85143585D01*
X157543660Y-85187794D01*
X157649426Y-85249654D01*
X157681047Y-85251908D01*
X157799188Y-85215012D01*
X157823318Y-85191458D01*
X157870552Y-85078695D01*
X157874609Y-85020488D01*
X157874609Y-84774413D01*
X157776301Y-84763422D01*
X157649863Y-84783011D01*
X157577243Y-84818988D01*
X157506403Y-84923220D01*
X157494811Y-85019877D01*
X157140313Y-85019877D01*
X157142281Y-84967508D01*
X157159073Y-84842486D01*
X157162031Y-84828147D01*
X157203139Y-84711475D01*
X157253011Y-84637027D01*
X157350565Y-84559222D01*
X157425813Y-84526507D01*
X157549308Y-84499030D01*
X157671454Y-84490192D01*
X157702418Y-84489870D01*
X157741497Y-84489870D01*
X157779965Y-84489870D01*
X157822097Y-84489870D01*
X157874609Y-84500251D01*
X157874609Y-84323785D01*
X157848811Y-84203042D01*
X157835530Y-84180903D01*
X157725841Y-84125503D01*
X157695701Y-84124117D01*
X157577852Y-84159722D01*
X157566863Y-84167470D01*
X157497665Y-84268288D01*
X157491148Y-84293255D01*
X157151650Y-84293255D01*
X157163339Y-84168759D01*
X157203744Y-84046972D01*
X157273010Y-83942596D01*
X157299417Y-83914678D01*
X157398927Y-83840404D01*
X157469166Y-83806601D01*
X157588177Y-83774508D01*
X157691427Y-83766912D01*
X157814066Y-83777924D01*
G37*
G36*
X158510251Y-85545000D02*
G01*
X158510251Y-83786451D01*
X158867456Y-83786451D01*
X158867456Y-83958642D01*
X158874783Y-83958642D01*
X158957180Y-83861733D01*
X159007896Y-83821256D01*
X159122289Y-83774554D01*
X159206954Y-83766912D01*
X159330602Y-83786768D01*
X159338845Y-83789504D01*
X159446837Y-83854524D01*
X159456692Y-83863998D01*
X159527327Y-83968090D01*
X159539735Y-83997721D01*
X159567196Y-84120088D01*
X159570876Y-84196779D01*
X159570876Y-85545000D01*
X159213670Y-85545000D01*
X159213670Y-84331113D01*
X159188597Y-84209754D01*
X159169096Y-84179682D01*
X159057715Y-84124605D01*
X159042700Y-84124117D01*
X158924828Y-84162131D01*
X158905314Y-84186399D01*
X158870451Y-84304072D01*
X158867456Y-84365917D01*
X158867456Y-85545000D01*
X158510251Y-85545000D01*
G37*
G36*
X159865188Y-83786451D02*
G01*
X159865188Y-83219808D01*
X160222393Y-83219808D01*
X160222393Y-83786451D01*
X160417788Y-83786451D01*
X160417788Y-84060003D01*
X160222393Y-84060003D01*
X160222393Y-85017435D01*
X160233384Y-85113300D01*
X160268800Y-85163981D01*
X160329250Y-85184741D01*
X160417788Y-85187794D01*
X160417788Y-85545000D01*
X160276737Y-85545000D01*
X160151081Y-85531653D01*
X160080733Y-85507142D01*
X159977618Y-85434364D01*
X159955558Y-85409445D01*
X159894040Y-85298628D01*
X159886559Y-85275722D01*
X159865710Y-85152895D01*
X159865188Y-85131008D01*
X159865188Y-84060003D01*
X159675289Y-84060003D01*
X159675289Y-83786451D01*
X159865188Y-83786451D01*
G37*
G36*
X161644497Y-83786451D02*
G01*
X161644497Y-85545000D01*
X161287292Y-85545000D01*
X161287292Y-85372808D01*
X161280576Y-85372808D01*
X161197916Y-85470256D01*
X161146853Y-85510806D01*
X161032459Y-85556983D01*
X160947795Y-85564539D01*
X160824147Y-85545219D01*
X160815904Y-85542557D01*
X160707911Y-85477537D01*
X160698056Y-85468063D01*
X160627422Y-85363971D01*
X160615014Y-85334340D01*
X160587553Y-85211434D01*
X160583873Y-85134672D01*
X160583873Y-83786451D01*
X160941078Y-83786451D01*
X160941078Y-85000338D01*
X160966151Y-85122040D01*
X160985652Y-85152379D01*
X161097535Y-85206851D01*
X161112659Y-85207334D01*
X161230159Y-85169693D01*
X161249435Y-85145662D01*
X161284298Y-85027427D01*
X161287292Y-84965533D01*
X161287292Y-83786451D01*
X161644497Y-83786451D01*
G37*
G36*
X161944305Y-85545000D02*
G01*
X161944305Y-83786451D01*
X162301511Y-83786451D01*
X162301511Y-83958642D01*
X162308838Y-83958642D01*
X162391234Y-83861733D01*
X162441950Y-83821256D01*
X162556344Y-83774554D01*
X162641008Y-83766912D01*
X162763255Y-83786716D01*
X162831518Y-83823087D01*
X162923190Y-83904396D01*
X162956081Y-83944598D01*
X163048420Y-83857907D01*
X163101406Y-83819424D01*
X163217841Y-83775578D01*
X163323056Y-83766912D01*
X163445592Y-83785467D01*
X163458611Y-83789504D01*
X163565644Y-83848494D01*
X163583175Y-83863998D01*
X163657324Y-83963356D01*
X163673545Y-83997721D01*
X163704237Y-84120088D01*
X163708349Y-84196779D01*
X163708349Y-85545000D01*
X163351144Y-85545000D01*
X163351144Y-84331113D01*
X163326071Y-84209754D01*
X163306570Y-84179682D01*
X163194687Y-84124605D01*
X163179564Y-84124117D01*
X163061691Y-84162131D01*
X163042177Y-84186399D01*
X163007876Y-84304072D01*
X163004930Y-84365917D01*
X163004930Y-85545000D01*
X162647725Y-85545000D01*
X162647725Y-84331113D01*
X162622652Y-84209754D01*
X162603151Y-84179682D01*
X162491769Y-84124605D01*
X162476755Y-84124117D01*
X162358882Y-84162131D01*
X162339368Y-84186399D01*
X162304505Y-84304072D01*
X162301511Y-84365917D01*
X162301511Y-85545000D01*
X161944305Y-85545000D01*
G37*
G36*
X164398946Y-84099082D02*
G01*
X164526619Y-84090764D01*
X164618765Y-84061224D01*
X164676009Y-83948109D01*
X164679825Y-83885369D01*
X164679825Y-83567854D01*
X164638502Y-83450037D01*
X164632809Y-83443900D01*
X164516280Y-83395851D01*
X164506413Y-83395662D01*
X164390073Y-83434763D01*
X164373301Y-83454891D01*
X164333611Y-83567854D01*
X164333611Y-83768133D01*
X163976406Y-83768133D01*
X163976406Y-83563579D01*
X163991044Y-83439112D01*
X164017927Y-83358415D01*
X164078937Y-83252517D01*
X164133332Y-83191720D01*
X164234464Y-83115680D01*
X164304302Y-83080589D01*
X164425268Y-83045411D01*
X164513740Y-83038457D01*
X164639991Y-83051069D01*
X164756151Y-83095854D01*
X164858142Y-83168078D01*
X164901476Y-83211870D01*
X164961926Y-83295523D01*
X165005890Y-83395662D01*
X165027177Y-83517262D01*
X165035540Y-83642484D01*
X165037031Y-83735771D01*
X165037031Y-83858398D01*
X165037031Y-83943988D01*
X165019479Y-84065295D01*
X165015659Y-84075268D01*
X164944218Y-84169302D01*
X164843191Y-84237968D01*
X164819044Y-84251734D01*
X164921356Y-84324312D01*
X164949714Y-84350652D01*
X165015659Y-84455676D01*
X165036509Y-84578922D01*
X165037031Y-84605275D01*
X165037031Y-84730974D01*
X165037031Y-84824483D01*
X165037031Y-84949419D01*
X165037031Y-85028426D01*
X165028505Y-85151445D01*
X165026650Y-85161538D01*
X164998562Y-85256182D01*
X164952767Y-85336172D01*
X164871062Y-85431622D01*
X164781797Y-85499815D01*
X164661507Y-85548358D01*
X164539493Y-85563970D01*
X164508245Y-85564539D01*
X164381438Y-85550344D01*
X164328726Y-85537062D01*
X164216575Y-85488118D01*
X164155924Y-85445471D01*
X164069247Y-85351065D01*
X164027086Y-85279996D01*
X163987542Y-85158899D01*
X163976406Y-85030868D01*
X163976406Y-84826926D01*
X164333611Y-84826926D01*
X164333611Y-85013771D01*
X164366648Y-85135101D01*
X164380017Y-85152990D01*
X164491710Y-85206856D01*
X164506413Y-85207334D01*
X164623812Y-85162702D01*
X164632809Y-85152990D01*
X164678172Y-85039503D01*
X164679825Y-85006444D01*
X164679825Y-84648018D01*
X164665934Y-84525591D01*
X164624260Y-84453845D01*
X164539386Y-84419040D01*
X164414914Y-84411777D01*
X164398946Y-84411713D01*
X164398946Y-84099082D01*
G37*
G36*
X165964276Y-83052017D02*
G01*
X166090624Y-83080983D01*
X166210961Y-83138750D01*
X166298545Y-83212480D01*
X166374698Y-83318386D01*
X166425928Y-83446510D01*
X166450543Y-83579050D01*
X166456081Y-83689975D01*
X166456081Y-84859898D01*
X166450200Y-84985285D01*
X166428469Y-85115128D01*
X166384029Y-85241838D01*
X166318675Y-85345422D01*
X166288775Y-85378304D01*
X166183025Y-85458884D01*
X166069481Y-85508372D01*
X165937542Y-85537023D01*
X165807006Y-85545000D01*
X165317299Y-85545000D01*
X165317299Y-85187794D01*
X165674504Y-85187794D01*
X165832652Y-85187794D01*
X165956757Y-85169323D01*
X166038426Y-85113911D01*
X166088900Y-84996468D01*
X166098876Y-84881880D01*
X166098876Y-83703408D01*
X166084527Y-83575639D01*
X166041479Y-83480537D01*
X165933001Y-83412321D01*
X165832652Y-83401158D01*
X165674504Y-83401158D01*
X165674504Y-85187794D01*
X165317299Y-85187794D01*
X165317299Y-83043953D01*
X165838758Y-83043953D01*
X165964276Y-83052017D01*
G37*
G36*
X155869480Y-112384371D02*
G01*
X155869480Y-113530359D01*
X155863435Y-113604113D01*
X155842183Y-113679477D01*
X155805629Y-113746784D01*
X155772759Y-113787180D01*
X155716310Y-113835187D01*
X155658087Y-113867414D01*
X155586555Y-113889396D01*
X155509345Y-113896695D01*
X155503848Y-113896723D01*
X155425947Y-113889286D01*
X155354901Y-113864642D01*
X155332756Y-113851660D01*
X155271665Y-113806781D01*
X155224678Y-113762267D01*
X155392473Y-113627445D01*
X155446329Y-113666646D01*
X155510076Y-113682400D01*
X155554406Y-113675073D01*
X155602766Y-113646863D01*
X155640502Y-113593007D01*
X155654799Y-113518625D01*
X155655157Y-113501416D01*
X155655157Y-112384371D01*
X155869480Y-112384371D01*
G37*
G36*
X156428206Y-112825281D02*
G01*
X156487170Y-112843426D01*
X156551755Y-112879726D01*
X156588653Y-112912302D01*
X156632895Y-112975608D01*
X156660752Y-113048286D01*
X156671813Y-113121712D01*
X156672550Y-113147875D01*
X156672550Y-113439501D01*
X156250498Y-113439501D01*
X156250498Y-113580184D01*
X156273366Y-113650811D01*
X156278342Y-113656022D01*
X156348302Y-113682297D01*
X156354180Y-113682400D01*
X156425565Y-113659665D01*
X156434413Y-113647962D01*
X156458227Y-113578719D01*
X156672550Y-113578719D01*
X156665769Y-113652769D01*
X156642327Y-113725055D01*
X156602142Y-113786821D01*
X156586821Y-113803300D01*
X156527716Y-113850498D01*
X156486071Y-113871810D01*
X156415488Y-113891955D01*
X156354180Y-113896723D01*
X156277576Y-113889891D01*
X156206169Y-113867251D01*
X156183454Y-113855324D01*
X156125016Y-113810555D01*
X156078476Y-113749670D01*
X156076109Y-113745415D01*
X156049731Y-113675760D01*
X156044602Y-113649427D01*
X156037171Y-113574159D01*
X156036175Y-113531458D01*
X156036175Y-113183778D01*
X156037453Y-113154103D01*
X156250498Y-113154103D01*
X156250498Y-113275369D01*
X156458227Y-113275369D01*
X156458227Y-113154103D01*
X156443654Y-113082240D01*
X156430017Y-113062878D01*
X156363001Y-113032737D01*
X156354180Y-113032470D01*
X156283802Y-113057444D01*
X156278342Y-113062878D01*
X156251477Y-113132254D01*
X156250498Y-113154103D01*
X156037453Y-113154103D01*
X156039467Y-113107328D01*
X156044602Y-113065443D01*
X156064285Y-112994271D01*
X156076109Y-112969822D01*
X156121630Y-112908089D01*
X156179112Y-112862526D01*
X156183454Y-112859912D01*
X156256000Y-112829934D01*
X156329553Y-112818799D01*
X156354180Y-112818147D01*
X156428206Y-112825281D01*
G37*
G36*
X156879912Y-113885000D02*
G01*
X156879912Y-112994002D01*
X156765973Y-112994002D01*
X156765973Y-112829870D01*
X156879912Y-112829870D01*
X156879912Y-112680027D01*
X156885408Y-112605747D01*
X156901894Y-112544106D01*
X156937530Y-112479221D01*
X156961612Y-112451782D01*
X157021649Y-112408643D01*
X157044410Y-112399759D01*
X157116400Y-112385333D01*
X157141130Y-112384371D01*
X157234919Y-112384371D01*
X157234919Y-112598695D01*
X157149556Y-112598695D01*
X157095586Y-112651641D01*
X157094235Y-112673066D01*
X157094235Y-112829870D01*
X157234919Y-112829870D01*
X157234919Y-112994002D01*
X157094235Y-112994002D01*
X157094235Y-113885000D01*
X156879912Y-113885000D01*
G37*
G36*
X157345928Y-113885000D02*
G01*
X157345928Y-112994002D01*
X157231988Y-112994002D01*
X157231988Y-112829870D01*
X157345928Y-112829870D01*
X157345928Y-112680027D01*
X157351423Y-112605747D01*
X157367909Y-112544106D01*
X157403545Y-112479221D01*
X157427627Y-112451782D01*
X157487665Y-112408643D01*
X157510425Y-112399759D01*
X157582416Y-112385333D01*
X157607145Y-112384371D01*
X157700935Y-112384371D01*
X157700935Y-112598695D01*
X157615572Y-112598695D01*
X157561601Y-112651641D01*
X157560251Y-112673066D01*
X157560251Y-112829870D01*
X157700935Y-112829870D01*
X157700935Y-112994002D01*
X157560251Y-112994002D01*
X157560251Y-113885000D01*
X157345928Y-113885000D01*
G37*
G36*
X158841427Y-113458551D02*
G01*
X158841427Y-113550875D01*
X158833196Y-113626455D01*
X158815415Y-113682034D01*
X158780304Y-113747400D01*
X158744340Y-113792309D01*
X158687951Y-113840043D01*
X158637362Y-113868513D01*
X158565929Y-113891324D01*
X158506203Y-113896723D01*
X158430068Y-113890283D01*
X158383838Y-113880237D01*
X158314575Y-113851441D01*
X158272096Y-113821618D01*
X158221607Y-113766801D01*
X158190031Y-113713907D01*
X158167153Y-113643953D01*
X158158655Y-113570172D01*
X158158157Y-113545013D01*
X158158157Y-112724357D01*
X158165085Y-112649504D01*
X158182704Y-112588436D01*
X158217222Y-112522993D01*
X158253046Y-112479626D01*
X158313804Y-112431913D01*
X158362222Y-112407452D01*
X158433001Y-112386870D01*
X158501807Y-112381074D01*
X158581276Y-112388870D01*
X158651936Y-112412257D01*
X158720114Y-112456528D01*
X158744340Y-112479626D01*
X158789188Y-112539595D01*
X158815415Y-112593932D01*
X158835711Y-112667125D01*
X158841427Y-112737547D01*
X158841427Y-112821078D01*
X158627103Y-112821078D01*
X158627103Y-112750003D01*
X158612272Y-112675035D01*
X158592665Y-112641559D01*
X158531006Y-112599049D01*
X158499975Y-112595397D01*
X158426824Y-112612704D01*
X158397759Y-112644490D01*
X158376035Y-112716160D01*
X158372480Y-112769054D01*
X158372480Y-113529626D01*
X158383071Y-113602527D01*
X158399591Y-113638436D01*
X158461423Y-113678922D01*
X158497777Y-113682400D01*
X158541008Y-113675073D01*
X158584605Y-113650893D01*
X158615013Y-113605097D01*
X158627103Y-113531824D01*
X158627103Y-113458551D01*
X158841427Y-113458551D01*
G37*
G36*
X159012519Y-113885000D02*
G01*
X159012519Y-112384371D01*
X159226842Y-112384371D01*
X159226842Y-112933551D01*
X159231238Y-112933551D01*
X159280676Y-112875083D01*
X159311106Y-112850753D01*
X159379742Y-112822732D01*
X159430540Y-112818147D01*
X159504729Y-112830061D01*
X159509675Y-112831702D01*
X159574470Y-112870714D01*
X159580383Y-112876399D01*
X159622764Y-112938854D01*
X159630209Y-112956632D01*
X159646686Y-113030053D01*
X159648893Y-113076067D01*
X159648893Y-113885000D01*
X159434570Y-113885000D01*
X159434570Y-113156667D01*
X159419526Y-113083852D01*
X159407826Y-113065809D01*
X159340997Y-113032763D01*
X159331988Y-113032470D01*
X159261265Y-113055278D01*
X159249556Y-113069839D01*
X159228639Y-113140443D01*
X159226842Y-113177550D01*
X159226842Y-113885000D01*
X159012519Y-113885000D01*
G37*
G36*
X160197362Y-112825281D02*
G01*
X160256325Y-112843426D01*
X160320911Y-112879726D01*
X160357808Y-112912302D01*
X160402051Y-112975608D01*
X160429908Y-113048286D01*
X160440968Y-113121712D01*
X160441706Y-113147875D01*
X160441706Y-113439501D01*
X160019654Y-113439501D01*
X160019654Y-113580184D01*
X160042522Y-113650811D01*
X160047498Y-113656022D01*
X160117458Y-113682297D01*
X160123335Y-113682400D01*
X160194720Y-113659665D01*
X160203569Y-113647962D01*
X160227383Y-113578719D01*
X160441706Y-113578719D01*
X160434924Y-113652769D01*
X160411483Y-113725055D01*
X160371297Y-113786821D01*
X160355976Y-113803300D01*
X160296872Y-113850498D01*
X160255226Y-113871810D01*
X160184644Y-113891955D01*
X160123335Y-113896723D01*
X160046731Y-113889891D01*
X159975325Y-113867251D01*
X159952609Y-113855324D01*
X159894172Y-113810555D01*
X159847632Y-113749670D01*
X159845265Y-113745415D01*
X159818886Y-113675760D01*
X159813757Y-113649427D01*
X159806327Y-113574159D01*
X159805331Y-113531458D01*
X159805331Y-113183778D01*
X159806609Y-113154103D01*
X160019654Y-113154103D01*
X160019654Y-113275369D01*
X160227383Y-113275369D01*
X160227383Y-113154103D01*
X160212809Y-113082240D01*
X160199173Y-113062878D01*
X160132157Y-113032737D01*
X160123335Y-113032470D01*
X160052958Y-113057444D01*
X160047498Y-113062878D01*
X160020633Y-113132254D01*
X160019654Y-113154103D01*
X159806609Y-113154103D01*
X159808623Y-113107328D01*
X159813757Y-113065443D01*
X159833441Y-112994271D01*
X159845265Y-112969822D01*
X159890785Y-112908089D01*
X159948268Y-112862526D01*
X159952609Y-112859912D01*
X160025156Y-112829934D01*
X160098709Y-112818799D01*
X160123335Y-112818147D01*
X160197362Y-112825281D01*
G37*
G36*
X160605471Y-113885000D02*
G01*
X160605471Y-112829870D01*
X160819794Y-112829870D01*
X160819794Y-112933185D01*
X160824190Y-112933185D01*
X160873628Y-112875039D01*
X160904057Y-112850753D01*
X160972693Y-112822732D01*
X161023492Y-112818147D01*
X161097681Y-112830061D01*
X161102627Y-112831702D01*
X161167422Y-112870714D01*
X161173335Y-112876399D01*
X161215716Y-112938854D01*
X161223161Y-112956632D01*
X161239637Y-113030053D01*
X161241845Y-113076067D01*
X161241845Y-113885000D01*
X161027522Y-113885000D01*
X161027522Y-113156667D01*
X161012478Y-113083852D01*
X161000778Y-113065809D01*
X160933949Y-113032763D01*
X160924940Y-113032470D01*
X160854216Y-113055278D01*
X160842508Y-113069839D01*
X160821590Y-113140443D01*
X160819794Y-113177550D01*
X160819794Y-113885000D01*
X160605471Y-113885000D01*
G37*
G36*
X161421730Y-114044002D02*
G01*
X161421730Y-113673974D01*
X161636053Y-113673974D01*
X161636053Y-113888297D01*
X161421730Y-114044002D01*
G37*
G36*
X162177906Y-113885000D02*
G01*
X162177906Y-113683133D01*
X162562588Y-112957365D01*
X162590610Y-112889217D01*
X162595561Y-112862477D01*
X162599747Y-112786512D01*
X162599958Y-112760994D01*
X162599958Y-112703475D01*
X162589333Y-112649986D01*
X162557826Y-112611517D01*
X162497009Y-112595397D01*
X162425906Y-112617964D01*
X162420439Y-112622875D01*
X162392477Y-112692775D01*
X162392229Y-112702376D01*
X162392229Y-112823642D01*
X162177906Y-112823642D01*
X162177906Y-112706406D01*
X162185789Y-112633350D01*
X162202819Y-112580376D01*
X162239425Y-112515804D01*
X162272062Y-112477428D01*
X162330852Y-112429658D01*
X162372445Y-112407452D01*
X162445025Y-112385428D01*
X162498108Y-112381074D01*
X162571449Y-112387756D01*
X162641723Y-112411482D01*
X162702646Y-112452647D01*
X162741374Y-112494281D01*
X162778776Y-112561660D01*
X162796329Y-112613715D01*
X162810336Y-112687225D01*
X162814281Y-112755865D01*
X162814281Y-112829853D01*
X162814281Y-112846723D01*
X162808053Y-112917065D01*
X162786803Y-112984110D01*
X162754413Y-113051160D01*
X162746870Y-113065809D01*
X162429965Y-113670676D01*
X162814281Y-113670676D01*
X162814281Y-113885000D01*
X162177906Y-113885000D01*
G37*
G36*
X163353672Y-112389661D02*
G01*
X163397533Y-112403056D01*
X163464280Y-112438261D01*
X163499382Y-112466803D01*
X163547009Y-112525908D01*
X163568991Y-112567554D01*
X163590320Y-112638716D01*
X163595369Y-112701277D01*
X163595369Y-113576887D01*
X163587925Y-113652033D01*
X163568991Y-113710610D01*
X163531902Y-113774101D01*
X163499382Y-113810994D01*
X163438817Y-113855473D01*
X163397533Y-113874741D01*
X163323630Y-113893632D01*
X163277365Y-113896723D01*
X163204473Y-113888974D01*
X163156831Y-113874741D01*
X163090227Y-113839536D01*
X163055348Y-113810994D01*
X163007263Y-113752032D01*
X162985006Y-113710610D01*
X162963973Y-113639448D01*
X162958995Y-113576887D01*
X162958995Y-112702009D01*
X163173318Y-112702009D01*
X163173318Y-113576154D01*
X163197088Y-113646521D01*
X163202260Y-113652358D01*
X163271340Y-113682283D01*
X163276999Y-113682400D01*
X163346162Y-113657727D01*
X163351737Y-113652358D01*
X163380789Y-113584606D01*
X163381046Y-113576154D01*
X163381046Y-112702009D01*
X163356975Y-112631642D01*
X163351737Y-112625806D01*
X163282657Y-112595516D01*
X163276999Y-112595397D01*
X163207835Y-112620371D01*
X163202260Y-112625806D01*
X163173572Y-112693558D01*
X163173318Y-112702009D01*
X162958995Y-112702009D01*
X162958995Y-112701277D01*
X162966336Y-112626131D01*
X162985006Y-112567554D01*
X163022530Y-112503756D01*
X163055348Y-112466803D01*
X163115598Y-112422324D01*
X163156831Y-112403056D01*
X163230877Y-112384165D01*
X163277365Y-112381074D01*
X163353672Y-112389661D01*
G37*
G36*
X163740083Y-113885000D02*
G01*
X163740083Y-113683133D01*
X164124766Y-112957365D01*
X164152787Y-112889217D01*
X164157739Y-112862477D01*
X164161925Y-112786512D01*
X164162135Y-112760994D01*
X164162135Y-112703475D01*
X164151510Y-112649986D01*
X164120003Y-112611517D01*
X164059187Y-112595397D01*
X163988083Y-112617964D01*
X163982616Y-112622875D01*
X163954654Y-112692775D01*
X163954406Y-112702376D01*
X163954406Y-112823642D01*
X163740083Y-112823642D01*
X163740083Y-112706406D01*
X163747966Y-112633350D01*
X163764996Y-112580376D01*
X163801602Y-112515804D01*
X163834239Y-112477428D01*
X163893029Y-112429658D01*
X163934623Y-112407452D01*
X164007203Y-112385428D01*
X164060286Y-112381074D01*
X164133626Y-112387756D01*
X164203900Y-112411482D01*
X164264823Y-112452647D01*
X164303551Y-112494281D01*
X164340953Y-112561660D01*
X164358506Y-112613715D01*
X164372513Y-112687225D01*
X164376458Y-112755865D01*
X164376458Y-112829853D01*
X164376458Y-112846723D01*
X164370230Y-112917065D01*
X164348981Y-112984110D01*
X164316591Y-113051160D01*
X164309047Y-113065809D01*
X163992142Y-113670676D01*
X164376458Y-113670676D01*
X164376458Y-113885000D01*
X163740083Y-113885000D01*
G37*
G36*
X164896329Y-113885000D02*
G01*
X164896329Y-113677271D01*
X164474277Y-113677271D01*
X164474277Y-113462948D01*
X164779825Y-112384371D01*
X165005505Y-112384371D01*
X164686402Y-113462948D01*
X164896329Y-113462948D01*
X164896329Y-113040896D01*
X165110652Y-113040896D01*
X165110652Y-113462948D01*
X165224591Y-113462948D01*
X165224591Y-113677271D01*
X165110652Y-113677271D01*
X165110652Y-113885000D01*
X164896329Y-113885000D01*
G37*
M02*
