%TF.GenerationSoftware,KiCad,Pcbnew,8.0.6*%
%TF.CreationDate,2024-11-06T21:47:19-05:00*%
%TF.ProjectId,VGA Input Board,56474120-496e-4707-9574-20426f617264,rev?*%
%TF.SameCoordinates,Original*%
%TF.FileFunction,Copper,L1,Top*%
%TF.FilePolarity,Positive*%
%FSLAX46Y46*%
G04 Gerber Fmt 4.6, Leading zero omitted, Abs format (unit mm)*
G04 Created by KiCad (PCBNEW 8.0.6) date 2024-11-06 21:47:19*
%MOMM*%
%LPD*%
G01*
G04 APERTURE LIST*
%TA.AperFunction,ComponentPad*%
%ADD10R,1.524000X1.524000*%
%TD*%
%TA.AperFunction,ComponentPad*%
%ADD11C,1.524000*%
%TD*%
%TA.AperFunction,ComponentPad*%
%ADD12R,1.500000X1.500000*%
%TD*%
%TA.AperFunction,ComponentPad*%
%ADD13C,1.500000*%
%TD*%
%TA.AperFunction,ComponentPad*%
%ADD14C,4.066000*%
%TD*%
%TA.AperFunction,ViaPad*%
%ADD15C,0.500000*%
%TD*%
%TA.AperFunction,Conductor*%
%ADD16C,0.200000*%
%TD*%
G04 APERTURE END LIST*
D10*
%TO.P,P2,1,GND*%
%TO.N,GND*%
X165920000Y-105640000D03*
D11*
%TO.P,P2,2,SCL*%
%TO.N,/SCL*%
X163380000Y-105640000D03*
%TO.P,P2,3,5V*%
%TO.N,+5V*%
X165920000Y-103100000D03*
%TO.P,P2,4,SDA*%
%TO.N,/SDA*%
X163380000Y-103100000D03*
%TO.P,P2,5,GND*%
%TO.N,GND*%
X165920000Y-100560000D03*
%TO.P,P2,6,VSync*%
%TO.N,/VSync*%
X163380000Y-100560000D03*
%TO.P,P2,7,5V*%
%TO.N,+5V*%
X165920000Y-98020000D03*
%TO.P,P2,8,HSync*%
%TO.N,/HSync*%
X163380000Y-98020000D03*
%TO.P,P2,9,GND*%
%TO.N,GND*%
X165920000Y-95480000D03*
%TO.P,P2,10,B*%
%TO.N,/B*%
X163380000Y-95480000D03*
%TO.P,P2,11,5V*%
%TO.N,+5V*%
X165920000Y-92940000D03*
%TO.P,P2,12,G*%
%TO.N,/G*%
X163380000Y-92940000D03*
%TO.P,P2,13,GND*%
%TO.N,GND*%
X165920000Y-90400000D03*
%TO.P,P2,14,R*%
%TO.N,/R*%
X163380000Y-90400000D03*
%TD*%
D12*
%TO.P,P1,1,Red*%
%TO.N,/R*%
X154120000Y-104020000D03*
D13*
%TO.P,P1,2,Green*%
%TO.N,/G*%
X154120000Y-101730000D03*
%TO.P,P1,3,Blue*%
%TO.N,/B*%
X154120000Y-99440000D03*
%TO.P,P1,4,ID2/RES*%
%TO.N,unconnected-(P1-ID2{slash}RES-Pad4)*%
X154120000Y-97150000D03*
%TO.P,P1,5,HSYNC_GND*%
%TO.N,GND*%
X154120000Y-94860000D03*
%TO.P,P1,6,Red_GND*%
X152140000Y-105165000D03*
%TO.P,P1,7,Green_GND*%
X152140000Y-102875000D03*
%TO.P,P1,8,Blue_GND*%
X152140000Y-100585000D03*
%TO.P,P1,9,+5V*%
%TO.N,+5V*%
X152140000Y-98295000D03*
%TO.P,P1,10,VSYNC_GND*%
%TO.N,GND*%
X152140000Y-96005000D03*
%TO.P,P1,11,ID0/RES*%
%TO.N,unconnected-(P1-ID0{slash}RES-Pad11)*%
X150160000Y-104020000D03*
%TO.P,P1,12,ID1/SDA*%
%TO.N,/SDA*%
X150160000Y-101730000D03*
%TO.P,P1,13,HSYNC*%
%TO.N,/HSync*%
X150160000Y-99440000D03*
%TO.P,P1,14,VSYNC*%
%TO.N,/VSync*%
X150160000Y-97150000D03*
%TO.P,P1,15,ID3/SCL*%
%TO.N,/SCL*%
X150160000Y-94860000D03*
D14*
%TO.P,P1,S1,SHIELD*%
%TO.N,GND*%
X152140000Y-112185000D03*
%TO.P,P1,S2,SHIELD*%
X152140000Y-87195000D03*
%TD*%
D15*
%TO.N,/B*%
X157520000Y-102840000D03*
%TO.N,/SDA*%
X159770000Y-108180000D03*
%TO.N,/VSync*%
X157070000Y-108080000D03*
%TD*%
D16*
%TO.N,/R*%
X157261472Y-99038528D02*
X161738528Y-94561472D01*
X164251472Y-93858528D02*
X164288528Y-93821472D01*
X164288528Y-91308528D02*
X163380000Y-90400000D01*
X154120000Y-104020000D02*
X156558528Y-101581472D01*
X164640000Y-92972944D02*
X164640000Y-92157056D01*
X156910000Y-100732944D02*
X156910000Y-99887056D01*
X162587056Y-94210000D02*
X163402944Y-94210000D01*
X161738528Y-94561472D02*
G75*
G02*
X162587056Y-94209969I848572J-848528D01*
G01*
X156558528Y-101581472D02*
G75*
G03*
X156910031Y-100732944I-848528J848572D01*
G01*
X164288528Y-91308528D02*
G75*
G02*
X164640031Y-92157056I-848528J-848572D01*
G01*
X157261472Y-99038528D02*
G75*
G03*
X156909969Y-99887056I848528J-848572D01*
G01*
X164288528Y-93821472D02*
G75*
G03*
X164640031Y-92972944I-848528J848572D01*
G01*
X164251472Y-93858528D02*
G75*
G02*
X163402944Y-94210031I-848572J848528D01*
G01*
%TO.N,/G*%
X161257056Y-92940000D02*
X163380000Y-92940000D01*
X154120000Y-101730000D02*
X155298528Y-100551472D01*
X156001472Y-97698528D02*
X160408528Y-93291472D01*
X155650000Y-99702944D02*
X155650000Y-98547056D01*
X155298528Y-100551472D02*
G75*
G03*
X155650031Y-99702944I-848528J848572D01*
G01*
X155650000Y-98547056D02*
G75*
G02*
X156001494Y-97698550I1200000J-44D01*
G01*
X160408528Y-93291472D02*
G75*
G02*
X161257056Y-92939969I848572J-848528D01*
G01*
%TO.N,/B*%
X163380000Y-95490000D02*
X163380000Y-95480000D01*
X157520000Y-102840000D02*
X157520000Y-102830000D01*
X158080000Y-101772944D02*
X158080000Y-101287056D01*
X158431472Y-100438528D02*
X163380000Y-95490000D01*
X157520000Y-102830000D02*
X157728528Y-102621472D01*
X158080000Y-101772944D02*
G75*
G02*
X157728506Y-102621450I-1200000J44D01*
G01*
X158080000Y-101287056D02*
G75*
G02*
X158431494Y-100438550I1200000J-44D01*
G01*
%TO.N,/SDA*%
X159770000Y-108180000D02*
X159770000Y-108140000D01*
X161770000Y-105642944D02*
X161770000Y-105207056D01*
X159770000Y-108140000D02*
X161418528Y-106491472D01*
X162121472Y-104358528D02*
X163380000Y-103100000D01*
X161770000Y-105207056D02*
G75*
G02*
X162121494Y-104358550I1200000J-44D01*
G01*
X161418528Y-106491472D02*
G75*
G03*
X161770031Y-105642944I-848528J848572D01*
G01*
%TO.N,/VSync*%
X161151472Y-102788528D02*
X163380000Y-100560000D01*
X157070000Y-108080000D02*
X160448528Y-104701472D01*
X160800000Y-103852944D02*
X160800000Y-103637056D01*
X160800000Y-103852944D02*
G75*
G02*
X160448506Y-104701450I-1200000J44D01*
G01*
X160800000Y-103637056D02*
G75*
G02*
X161151494Y-102788550I1200000J-44D01*
G01*
%TO.N,/HSync*%
X155022944Y-107120000D02*
X150617056Y-107120000D01*
X163380000Y-98020000D02*
X159741472Y-101658528D01*
X149768528Y-106768528D02*
X148871472Y-105871472D01*
X159390000Y-102507056D02*
X159390000Y-102752944D01*
X159038528Y-103601472D02*
X155871472Y-106768528D01*
X148871472Y-100728528D02*
X150160000Y-99440000D01*
X148520000Y-105022944D02*
X148520000Y-101577056D01*
X148520000Y-101577056D02*
G75*
G02*
X148871494Y-100728550I1200000J-44D01*
G01*
X148520000Y-105022944D02*
G75*
G03*
X148871494Y-105871450I1200000J44D01*
G01*
X159038528Y-103601472D02*
G75*
G03*
X159390031Y-102752944I-848528J848572D01*
G01*
X149768528Y-106768528D02*
G75*
G03*
X150617056Y-107120031I848572J848528D01*
G01*
X155871472Y-106768528D02*
G75*
G02*
X155022944Y-107120031I-848572J848528D01*
G01*
X159390000Y-102507056D02*
G75*
G02*
X159741494Y-101658550I1200000J-44D01*
G01*
%TD*%
%TA.AperFunction,Conductor*%
%TO.N,GND*%
G36*
X165830256Y-82220959D02*
G01*
X165840118Y-82220959D01*
X165875128Y-82220959D01*
X165884854Y-82221341D01*
X165897663Y-82222348D01*
X166073534Y-82236187D01*
X166092730Y-82239227D01*
X166272010Y-82282258D01*
X166290509Y-82288267D01*
X166305527Y-82294487D01*
X166460849Y-82358808D01*
X166478181Y-82367637D01*
X166635394Y-82463951D01*
X166651125Y-82475377D01*
X166736866Y-82548585D01*
X166791339Y-82595096D01*
X166805096Y-82608849D01*
X166924861Y-82749023D01*
X166936299Y-82764759D01*
X167032661Y-82921931D01*
X167041497Y-82939262D01*
X167112093Y-83109574D01*
X167118110Y-83128075D01*
X167161199Y-83307335D01*
X167164248Y-83326547D01*
X167179115Y-83514674D01*
X167179500Y-83524443D01*
X167179500Y-111017293D01*
X167179382Y-111022702D01*
X167161472Y-111432906D01*
X167160529Y-111443682D01*
X167107290Y-111848069D01*
X167105412Y-111858722D01*
X167017130Y-112256941D01*
X167014330Y-112267391D01*
X166891676Y-112656399D01*
X166887976Y-112666564D01*
X166731885Y-113043399D01*
X166727313Y-113053203D01*
X166538974Y-113415001D01*
X166533565Y-113424370D01*
X166314413Y-113768367D01*
X166308209Y-113777227D01*
X166059900Y-114100830D01*
X166052946Y-114109117D01*
X165777387Y-114409837D01*
X165769738Y-114417486D01*
X165469018Y-114693046D01*
X165460731Y-114700000D01*
X165137136Y-114948303D01*
X165128275Y-114954508D01*
X164784261Y-115173669D01*
X164774893Y-115179077D01*
X164413104Y-115367413D01*
X164403300Y-115371985D01*
X164026465Y-115528075D01*
X164016299Y-115531775D01*
X163627293Y-115654428D01*
X163616845Y-115657228D01*
X163218622Y-115745512D01*
X163207968Y-115747390D01*
X162803583Y-115800629D01*
X162792807Y-115801572D01*
X162384894Y-115819382D01*
X162379485Y-115819500D01*
X148584963Y-115819500D01*
X148575196Y-115819115D01*
X148554619Y-115817489D01*
X148386487Y-115804202D01*
X148367274Y-115801153D01*
X148187954Y-115758048D01*
X148169453Y-115752031D01*
X147999080Y-115681408D01*
X147981753Y-115672574D01*
X147824528Y-115576175D01*
X147808794Y-115564739D01*
X147668574Y-115444930D01*
X147654821Y-115431171D01*
X147535075Y-115290918D01*
X147523645Y-115275183D01*
X147427297Y-115117907D01*
X147418469Y-115100574D01*
X147347912Y-114930176D01*
X147341903Y-114911674D01*
X147334766Y-114881937D01*
X147298865Y-114732343D01*
X147295824Y-114713129D01*
X147294833Y-114700523D01*
X147280915Y-114523558D01*
X147280534Y-114513834D01*
X147280536Y-114479661D01*
X147280535Y-114479659D01*
X147280536Y-114467654D01*
X147280500Y-114467277D01*
X147280500Y-112185000D01*
X149932273Y-112185000D01*
X149951160Y-112473168D01*
X149951161Y-112473173D01*
X150007497Y-112756394D01*
X150007501Y-112756409D01*
X150100324Y-113029856D01*
X150100333Y-113029877D01*
X150228048Y-113288856D01*
X150228055Y-113288869D01*
X150388490Y-113528976D01*
X150413710Y-113557735D01*
X150845747Y-113125697D01*
X150919588Y-113227330D01*
X151097670Y-113405412D01*
X151199300Y-113479251D01*
X150767263Y-113911288D01*
X150767263Y-113911289D01*
X150796019Y-113936507D01*
X151036130Y-114096944D01*
X151036143Y-114096951D01*
X151295122Y-114224666D01*
X151295143Y-114224675D01*
X151568590Y-114317498D01*
X151568605Y-114317502D01*
X151851826Y-114373838D01*
X151851831Y-114373839D01*
X152140000Y-114392726D01*
X152428168Y-114373839D01*
X152428173Y-114373838D01*
X152711394Y-114317502D01*
X152711409Y-114317498D01*
X152984856Y-114224675D01*
X152984877Y-114224666D01*
X153243856Y-114096951D01*
X153243869Y-114096944D01*
X153483978Y-113936508D01*
X153483982Y-113936505D01*
X153512734Y-113911289D01*
X153512734Y-113911288D01*
X153080698Y-113479251D01*
X153182330Y-113405412D01*
X153360412Y-113227330D01*
X153434251Y-113125698D01*
X153866288Y-113557734D01*
X153866289Y-113557734D01*
X153891505Y-113528982D01*
X153891508Y-113528978D01*
X154051944Y-113288869D01*
X154051951Y-113288856D01*
X154179666Y-113029877D01*
X154179675Y-113029856D01*
X154272498Y-112756409D01*
X154272502Y-112756394D01*
X154328838Y-112473173D01*
X154328839Y-112473168D01*
X154347726Y-112185000D01*
X154328839Y-111896831D01*
X154328838Y-111896826D01*
X154272502Y-111613605D01*
X154272498Y-111613590D01*
X154179675Y-111340143D01*
X154179666Y-111340122D01*
X154051953Y-111081146D01*
X154051944Y-111081131D01*
X153891507Y-110841019D01*
X153866288Y-110812263D01*
X153434250Y-111244300D01*
X153360412Y-111142670D01*
X153182330Y-110964588D01*
X153080697Y-110890747D01*
X153512735Y-110458710D01*
X153483976Y-110433490D01*
X153243869Y-110273055D01*
X153243856Y-110273048D01*
X152984877Y-110145333D01*
X152984856Y-110145324D01*
X152711409Y-110052501D01*
X152711394Y-110052497D01*
X152428173Y-109996161D01*
X152428168Y-109996160D01*
X152140000Y-109977273D01*
X151851831Y-109996160D01*
X151851826Y-109996161D01*
X151568605Y-110052497D01*
X151568590Y-110052501D01*
X151295143Y-110145324D01*
X151295122Y-110145333D01*
X151036146Y-110273046D01*
X151036131Y-110273055D01*
X150796019Y-110433493D01*
X150796012Y-110433498D01*
X150767264Y-110458708D01*
X150767264Y-110458710D01*
X151199301Y-110890747D01*
X151097670Y-110964588D01*
X150919588Y-111142670D01*
X150845748Y-111244301D01*
X150413710Y-110812264D01*
X150413708Y-110812264D01*
X150388498Y-110841012D01*
X150388493Y-110841019D01*
X150228055Y-111081131D01*
X150228046Y-111081146D01*
X150100333Y-111340122D01*
X150100324Y-111340143D01*
X150007501Y-111613590D01*
X150007497Y-111613605D01*
X149951161Y-111896826D01*
X149951160Y-111896831D01*
X149932273Y-112185000D01*
X147280500Y-112185000D01*
X147280500Y-108080000D01*
X156614867Y-108080000D01*
X156633302Y-108208225D01*
X156678972Y-108308226D01*
X156687118Y-108326063D01*
X156771951Y-108423967D01*
X156880931Y-108494004D01*
X157005225Y-108530499D01*
X157005227Y-108530500D01*
X157005228Y-108530500D01*
X157134773Y-108530500D01*
X157134773Y-108530499D01*
X157259069Y-108494004D01*
X157368049Y-108423967D01*
X157452882Y-108326063D01*
X157480471Y-108265650D01*
X157487474Y-108252477D01*
X157498026Y-108235220D01*
X157505270Y-108215527D01*
X157518337Y-108180000D01*
X159314867Y-108180000D01*
X159333302Y-108308225D01*
X159386160Y-108423966D01*
X159387118Y-108426063D01*
X159471951Y-108523967D01*
X159580931Y-108594004D01*
X159705225Y-108630499D01*
X159705227Y-108630500D01*
X159705228Y-108630500D01*
X159834773Y-108630500D01*
X159834773Y-108630499D01*
X159959069Y-108594004D01*
X160068049Y-108523967D01*
X160152882Y-108426063D01*
X160184118Y-108357662D01*
X160189381Y-108347427D01*
X160199692Y-108329477D01*
X160230078Y-108239310D01*
X160233494Y-108228133D01*
X160233846Y-108226852D01*
X160236615Y-108215527D01*
X160252183Y-108142990D01*
X160253053Y-108139227D01*
X160259320Y-108113910D01*
X160285072Y-108063557D01*
X160320119Y-108022190D01*
X160322237Y-108018550D01*
X160341721Y-107993248D01*
X161658988Y-106675983D01*
X161658988Y-106675982D01*
X161664692Y-106670279D01*
X161664989Y-106669938D01*
X161700530Y-106634402D01*
X161820274Y-106478358D01*
X161918625Y-106308019D01*
X161993902Y-106126301D01*
X162044816Y-105936311D01*
X162070497Y-105741302D01*
X162070497Y-105696948D01*
X162070500Y-105696934D01*
X162070500Y-105640001D01*
X162070500Y-105640000D01*
X162412843Y-105640000D01*
X162431426Y-105828681D01*
X162431427Y-105828683D01*
X162486463Y-106010115D01*
X162486464Y-106010118D01*
X162486465Y-106010119D01*
X162486466Y-106010122D01*
X162575834Y-106177318D01*
X162575838Y-106177325D01*
X162696116Y-106323883D01*
X162842674Y-106444161D01*
X162842681Y-106444165D01*
X163009877Y-106533533D01*
X163009878Y-106533533D01*
X163009885Y-106533537D01*
X163191317Y-106588573D01*
X163191316Y-106588573D01*
X163208233Y-106590239D01*
X163380000Y-106607157D01*
X163568683Y-106588573D01*
X163750115Y-106533537D01*
X163917324Y-106444162D01*
X164063883Y-106323883D01*
X164184162Y-106177324D01*
X164273537Y-106010115D01*
X164328573Y-105828683D01*
X164347157Y-105640000D01*
X164328573Y-105451317D01*
X164273537Y-105269885D01*
X164270736Y-105264644D01*
X164184165Y-105102681D01*
X164184161Y-105102674D01*
X164063883Y-104956116D01*
X163948294Y-104861254D01*
X164988000Y-104861254D01*
X164988000Y-105390000D01*
X165486988Y-105390000D01*
X165454075Y-105447007D01*
X165420000Y-105574174D01*
X165420000Y-105705826D01*
X165454075Y-105832993D01*
X165486988Y-105890000D01*
X164988001Y-105890000D01*
X164988001Y-106418738D01*
X164997864Y-106468330D01*
X164997865Y-106468333D01*
X165035437Y-106524562D01*
X165091670Y-106562136D01*
X165091671Y-106562137D01*
X165141256Y-106571999D01*
X165669999Y-106571999D01*
X165670000Y-106571998D01*
X165670000Y-106073012D01*
X165727007Y-106105925D01*
X165854174Y-106140000D01*
X165985826Y-106140000D01*
X166112993Y-106105925D01*
X166170000Y-106073012D01*
X166170000Y-106571999D01*
X166698738Y-106571999D01*
X166748330Y-106562135D01*
X166748333Y-106562134D01*
X166804562Y-106524562D01*
X166842136Y-106468329D01*
X166842137Y-106468328D01*
X166851999Y-106418745D01*
X166852000Y-106418742D01*
X166852000Y-105890000D01*
X166353012Y-105890000D01*
X166385925Y-105832993D01*
X166420000Y-105705826D01*
X166420000Y-105574174D01*
X166385925Y-105447007D01*
X166353012Y-105390000D01*
X166851999Y-105390000D01*
X166851999Y-104861261D01*
X166842135Y-104811669D01*
X166842134Y-104811666D01*
X166804562Y-104755437D01*
X166748329Y-104717863D01*
X166748328Y-104717862D01*
X166698745Y-104708000D01*
X166170000Y-104708000D01*
X166170000Y-105206988D01*
X166112993Y-105174075D01*
X165985826Y-105140000D01*
X165854174Y-105140000D01*
X165727007Y-105174075D01*
X165670000Y-105206988D01*
X165670000Y-104708000D01*
X165141261Y-104708000D01*
X165091669Y-104717864D01*
X165091666Y-104717865D01*
X165035437Y-104755437D01*
X164997863Y-104811670D01*
X164997862Y-104811671D01*
X164988000Y-104861254D01*
X163948294Y-104861254D01*
X163917325Y-104835838D01*
X163917318Y-104835834D01*
X163750122Y-104746466D01*
X163750119Y-104746465D01*
X163750118Y-104746464D01*
X163750115Y-104746463D01*
X163568683Y-104691427D01*
X163568681Y-104691426D01*
X163568683Y-104691426D01*
X163380000Y-104672843D01*
X163191318Y-104691426D01*
X163104161Y-104717865D01*
X163009885Y-104746463D01*
X163009882Y-104746464D01*
X163009880Y-104746465D01*
X163009877Y-104746466D01*
X162842681Y-104835834D01*
X162842674Y-104835838D01*
X162696116Y-104956116D01*
X162575838Y-105102674D01*
X162575834Y-105102681D01*
X162486466Y-105269877D01*
X162486465Y-105269880D01*
X162486464Y-105269882D01*
X162486463Y-105269885D01*
X162474321Y-105309912D01*
X162431426Y-105451318D01*
X162412843Y-105640000D01*
X162070500Y-105640000D01*
X162070500Y-105630925D01*
X162070502Y-105595360D01*
X162070500Y-105595355D01*
X162070501Y-105586738D01*
X162070500Y-105586708D01*
X162070500Y-105211935D01*
X162070883Y-105202202D01*
X162080813Y-105076081D01*
X162083854Y-105056880D01*
X162112257Y-104938591D01*
X162118264Y-104920105D01*
X162164822Y-104807714D01*
X162173648Y-104790394D01*
X162237207Y-104686683D01*
X162248637Y-104670951D01*
X162331070Y-104574440D01*
X162337663Y-104567307D01*
X162367608Y-104537366D01*
X162367609Y-104537363D01*
X162375962Y-104529011D01*
X162375977Y-104528993D01*
X162481345Y-104423624D01*
X162504575Y-104406670D01*
X162504103Y-104405940D01*
X162509213Y-104402634D01*
X162509214Y-104402632D01*
X162509222Y-104402629D01*
X162720425Y-104234539D01*
X162754448Y-104215331D01*
X162890058Y-104164951D01*
X162920058Y-104157894D01*
X162990614Y-104150360D01*
X162990613Y-104150359D01*
X163068323Y-104142061D01*
X163068326Y-104142060D01*
X163076114Y-104141228D01*
X163076992Y-104141330D01*
X163103811Y-104138264D01*
X163103812Y-104138265D01*
X163361975Y-104108757D01*
X163380235Y-104105832D01*
X163382296Y-104105406D01*
X163400236Y-104100847D01*
X163718794Y-104004420D01*
X163728283Y-104001294D01*
X163729357Y-104000911D01*
X163729359Y-104000909D01*
X163735812Y-103998609D01*
X163735828Y-103998655D01*
X163744658Y-103995191D01*
X163750115Y-103993537D01*
X163917324Y-103904162D01*
X164063883Y-103783883D01*
X164184162Y-103637324D01*
X164273537Y-103470115D01*
X164328573Y-103288683D01*
X164347157Y-103100000D01*
X164952843Y-103100000D01*
X164971426Y-103288681D01*
X164971978Y-103290500D01*
X165026463Y-103470115D01*
X165026464Y-103470118D01*
X165026465Y-103470119D01*
X165026466Y-103470122D01*
X165115834Y-103637318D01*
X165115838Y-103637325D01*
X165236116Y-103783883D01*
X165382674Y-103904161D01*
X165382681Y-103904165D01*
X165549877Y-103993533D01*
X165549878Y-103993533D01*
X165549885Y-103993537D01*
X165731317Y-104048573D01*
X165731316Y-104048573D01*
X165748233Y-104050239D01*
X165920000Y-104067157D01*
X166108683Y-104048573D01*
X166290115Y-103993537D01*
X166457324Y-103904162D01*
X166603883Y-103783883D01*
X166724162Y-103637324D01*
X166813537Y-103470115D01*
X166868573Y-103288683D01*
X166887157Y-103100000D01*
X166868573Y-102911317D01*
X166813537Y-102729885D01*
X166813533Y-102729877D01*
X166724165Y-102562681D01*
X166724161Y-102562674D01*
X166603883Y-102416116D01*
X166457325Y-102295838D01*
X166457318Y-102295834D01*
X166290122Y-102206466D01*
X166290119Y-102206465D01*
X166290118Y-102206464D01*
X166290115Y-102206463D01*
X166108683Y-102151427D01*
X166108681Y-102151426D01*
X166108683Y-102151426D01*
X165920000Y-102132843D01*
X165731318Y-102151426D01*
X165632874Y-102181289D01*
X165549885Y-102206463D01*
X165549882Y-102206464D01*
X165549880Y-102206465D01*
X165549877Y-102206466D01*
X165382681Y-102295834D01*
X165382674Y-102295838D01*
X165236116Y-102416116D01*
X165115838Y-102562674D01*
X165115834Y-102562681D01*
X165026466Y-102729877D01*
X165026465Y-102729880D01*
X165026465Y-102729881D01*
X165026463Y-102729885D01*
X165014190Y-102770344D01*
X164971426Y-102911318D01*
X164952843Y-103100000D01*
X164347157Y-103100000D01*
X164328573Y-102911317D01*
X164273537Y-102729885D01*
X164273533Y-102729877D01*
X164184165Y-102562681D01*
X164184161Y-102562674D01*
X164063883Y-102416116D01*
X163917325Y-102295838D01*
X163917318Y-102295834D01*
X163750122Y-102206466D01*
X163750119Y-102206465D01*
X163750118Y-102206464D01*
X163750115Y-102206463D01*
X163568683Y-102151427D01*
X163568681Y-102151426D01*
X163568683Y-102151426D01*
X163380000Y-102132843D01*
X163191318Y-102151426D01*
X163092874Y-102181289D01*
X163009885Y-102206463D01*
X163009882Y-102206464D01*
X163009880Y-102206465D01*
X163009877Y-102206466D01*
X162842681Y-102295834D01*
X162842674Y-102295838D01*
X162696116Y-102416116D01*
X162575838Y-102562674D01*
X162575834Y-102562681D01*
X162486464Y-102729881D01*
X162482316Y-102743555D01*
X162477426Y-102755375D01*
X162477907Y-102755574D01*
X162475581Y-102761196D01*
X162379152Y-103079757D01*
X162374586Y-103097732D01*
X162374572Y-103097789D01*
X162374155Y-103099809D01*
X162371241Y-103118021D01*
X162342277Y-103371423D01*
X162342162Y-103372114D01*
X162341690Y-103376530D01*
X162341634Y-103377034D01*
X162341614Y-103377241D01*
X162322103Y-103559927D01*
X162315042Y-103589942D01*
X162264663Y-103725548D01*
X162245449Y-103759581D01*
X162140965Y-103890868D01*
X162140963Y-103890870D01*
X162077366Y-103970780D01*
X162074475Y-103975116D01*
X162074227Y-103974950D01*
X162056488Y-103998540D01*
X161875557Y-104179472D01*
X161875265Y-104179804D01*
X161839473Y-104215594D01*
X161839469Y-104215599D01*
X161719725Y-104371642D01*
X161621375Y-104541981D01*
X161621373Y-104541984D01*
X161546098Y-104723698D01*
X161495184Y-104913686D01*
X161469502Y-105108699D01*
X161469501Y-105161361D01*
X161469500Y-105161387D01*
X161469500Y-105207049D01*
X161469498Y-105264619D01*
X161469500Y-105264644D01*
X161469500Y-105638064D01*
X161469117Y-105647798D01*
X161459187Y-105773910D01*
X161456143Y-105793128D01*
X161427744Y-105911399D01*
X161421731Y-105929903D01*
X161375181Y-106042276D01*
X161366346Y-106059613D01*
X161302795Y-106163311D01*
X161291358Y-106179052D01*
X161208930Y-106275557D01*
X161202321Y-106282707D01*
X161180610Y-106304416D01*
X161177008Y-106308019D01*
X161168062Y-106316964D01*
X161168050Y-106316977D01*
X159909571Y-107575456D01*
X159887620Y-107592920D01*
X159879788Y-107597816D01*
X159879780Y-107597821D01*
X159826962Y-107647515D01*
X159816363Y-107656425D01*
X159793911Y-107673253D01*
X159777100Y-107683862D01*
X159766086Y-107689634D01*
X159766074Y-107689640D01*
X159758714Y-107693496D01*
X159747365Y-107698731D01*
X159694343Y-107720017D01*
X159693863Y-107720209D01*
X159609422Y-107753699D01*
X159607368Y-107754528D01*
X159607250Y-107754576D01*
X159602703Y-107756986D01*
X159583959Y-107764612D01*
X159580934Y-107765994D01*
X159471950Y-107836033D01*
X159387118Y-107933937D01*
X159387117Y-107933938D01*
X159333302Y-108051774D01*
X159314867Y-108180000D01*
X157518337Y-108180000D01*
X157530627Y-108146586D01*
X157531892Y-108142998D01*
X157532490Y-108141303D01*
X157532688Y-108140716D01*
X157534317Y-108135673D01*
X157553950Y-108072093D01*
X157556661Y-108064260D01*
X157565249Y-108041902D01*
X157575784Y-108020755D01*
X157583573Y-108008268D01*
X157596371Y-107991215D01*
X157640019Y-107942442D01*
X157644000Y-107935910D01*
X157662193Y-107912776D01*
X160688988Y-104885983D01*
X160688988Y-104885982D01*
X160694692Y-104880279D01*
X160694989Y-104879938D01*
X160730530Y-104844402D01*
X160850274Y-104688358D01*
X160948625Y-104518019D01*
X161023902Y-104336301D01*
X161074816Y-104146311D01*
X161100497Y-103951302D01*
X161100497Y-103906948D01*
X161100500Y-103906934D01*
X161100500Y-103847609D01*
X161100500Y-103847607D01*
X161100502Y-103805360D01*
X161100500Y-103805355D01*
X161100501Y-103796738D01*
X161100500Y-103796708D01*
X161100500Y-103641935D01*
X161100883Y-103632202D01*
X161103616Y-103597489D01*
X161110813Y-103506081D01*
X161113854Y-103486880D01*
X161142257Y-103368591D01*
X161148264Y-103350105D01*
X161194822Y-103237714D01*
X161203648Y-103220394D01*
X161267207Y-103116683D01*
X161278637Y-103100951D01*
X161361070Y-103004440D01*
X161367663Y-102997307D01*
X161397608Y-102967366D01*
X161397609Y-102967363D01*
X161405962Y-102959011D01*
X161405977Y-102958993D01*
X162481345Y-101883624D01*
X162504575Y-101866670D01*
X162504103Y-101865940D01*
X162509213Y-101862634D01*
X162509214Y-101862632D01*
X162509222Y-101862629D01*
X162720425Y-101694539D01*
X162754448Y-101675331D01*
X162890058Y-101624951D01*
X162920058Y-101617894D01*
X162990614Y-101610360D01*
X162990613Y-101610359D01*
X163068323Y-101602061D01*
X163068326Y-101602060D01*
X163076114Y-101601228D01*
X163076992Y-101601330D01*
X163103811Y-101598264D01*
X163103812Y-101598265D01*
X163361975Y-101568757D01*
X163380235Y-101565832D01*
X163382296Y-101565406D01*
X163400236Y-101560847D01*
X163718794Y-101464420D01*
X163728283Y-101461294D01*
X163729357Y-101460911D01*
X163729359Y-101460909D01*
X163735812Y-101458609D01*
X163735828Y-101458655D01*
X163744658Y-101455191D01*
X163750115Y-101453537D01*
X163917324Y-101364162D01*
X164063883Y-101243883D01*
X164184162Y-101097324D01*
X164273537Y-100930115D01*
X164328573Y-100748683D01*
X164347157Y-100560000D01*
X164982866Y-100560000D01*
X165003346Y-100754844D01*
X165063883Y-100941164D01*
X165108318Y-101018126D01*
X165108319Y-101018127D01*
X165437037Y-100689408D01*
X165454075Y-100752993D01*
X165519901Y-100867007D01*
X165612993Y-100960099D01*
X165727007Y-101025925D01*
X165790590Y-101042962D01*
X165458724Y-101374827D01*
X165630412Y-101451267D01*
X165822043Y-101492000D01*
X166017957Y-101492000D01*
X166209589Y-101451267D01*
X166209594Y-101451265D01*
X166381273Y-101374828D01*
X166381274Y-101374827D01*
X166049410Y-101042962D01*
X166112993Y-101025925D01*
X166227007Y-100960099D01*
X166320099Y-100867007D01*
X166385925Y-100752993D01*
X166402962Y-100689409D01*
X166731680Y-101018127D01*
X166731681Y-101018127D01*
X166776115Y-100941166D01*
X166836653Y-100754844D01*
X166857133Y-100560000D01*
X166836653Y-100365155D01*
X166776116Y-100178835D01*
X166731680Y-100101871D01*
X166402962Y-100430589D01*
X166385925Y-100367007D01*
X166320099Y-100252993D01*
X166227007Y-100159901D01*
X166112993Y-100094075D01*
X166049409Y-100077037D01*
X166381274Y-99745171D01*
X166209587Y-99668732D01*
X166209588Y-99668732D01*
X166017957Y-99628000D01*
X165822043Y-99628000D01*
X165630412Y-99668732D01*
X165458724Y-99745171D01*
X165790591Y-100077037D01*
X165727007Y-100094075D01*
X165612993Y-100159901D01*
X165519901Y-100252993D01*
X165454075Y-100367007D01*
X165437037Y-100430590D01*
X165108318Y-100101871D01*
X165108317Y-100101872D01*
X165063886Y-100178829D01*
X165063884Y-100178833D01*
X165003346Y-100365155D01*
X164982866Y-100560000D01*
X164347157Y-100560000D01*
X164328573Y-100371317D01*
X164273537Y-100189885D01*
X164273533Y-100189877D01*
X164184165Y-100022681D01*
X164184161Y-100022674D01*
X164063883Y-99876116D01*
X163917325Y-99755838D01*
X163917318Y-99755834D01*
X163750122Y-99666466D01*
X163750119Y-99666465D01*
X163750118Y-99666464D01*
X163750115Y-99666463D01*
X163568683Y-99611427D01*
X163568681Y-99611426D01*
X163568683Y-99611426D01*
X163380000Y-99592843D01*
X163191318Y-99611426D01*
X163084194Y-99643921D01*
X163009885Y-99666463D01*
X163009882Y-99666464D01*
X163009880Y-99666465D01*
X163009877Y-99666466D01*
X162842681Y-99755834D01*
X162842674Y-99755838D01*
X162696116Y-99876116D01*
X162575838Y-100022674D01*
X162575834Y-100022681D01*
X162486464Y-100189881D01*
X162482316Y-100203555D01*
X162477426Y-100215375D01*
X162477907Y-100215574D01*
X162475581Y-100221196D01*
X162379152Y-100539757D01*
X162374586Y-100557732D01*
X162374572Y-100557789D01*
X162374155Y-100559809D01*
X162371241Y-100578021D01*
X162342277Y-100831423D01*
X162342162Y-100832114D01*
X162341690Y-100836530D01*
X162341634Y-100837034D01*
X162341614Y-100837241D01*
X162322103Y-101019927D01*
X162315042Y-101049942D01*
X162264663Y-101185548D01*
X162245449Y-101219581D01*
X162140965Y-101350868D01*
X162140963Y-101350870D01*
X162077366Y-101430780D01*
X162074475Y-101435116D01*
X162074227Y-101434950D01*
X162056487Y-101458540D01*
X160905565Y-102609463D01*
X160905266Y-102609802D01*
X160869473Y-102645594D01*
X160869469Y-102645599D01*
X160749725Y-102801642D01*
X160651375Y-102971981D01*
X160651373Y-102971984D01*
X160576098Y-103153698D01*
X160525184Y-103343686D01*
X160499502Y-103538699D01*
X160499501Y-103591361D01*
X160499500Y-103591387D01*
X160499500Y-103597494D01*
X160499500Y-103637045D01*
X160499499Y-103679637D01*
X160499498Y-103694619D01*
X160499500Y-103694644D01*
X160499500Y-103848064D01*
X160499117Y-103857798D01*
X160489187Y-103983910D01*
X160486143Y-104003128D01*
X160457744Y-104121399D01*
X160451731Y-104139903D01*
X160405181Y-104252276D01*
X160396346Y-104269613D01*
X160332795Y-104373311D01*
X160321358Y-104389052D01*
X160238930Y-104485557D01*
X160232321Y-104492707D01*
X160210610Y-104514416D01*
X160207008Y-104518019D01*
X160198062Y-104526964D01*
X160198050Y-104526977D01*
X157236964Y-107488063D01*
X157212360Y-107507140D01*
X157207561Y-107509975D01*
X157207557Y-107509977D01*
X157158788Y-107553619D01*
X157141723Y-107566426D01*
X157129251Y-107574205D01*
X157108095Y-107584746D01*
X157085742Y-107593333D01*
X157077863Y-107596059D01*
X157014301Y-107615687D01*
X157009444Y-107617253D01*
X157008868Y-107617446D01*
X157003428Y-107619362D01*
X156914816Y-107651957D01*
X156911370Y-107653266D01*
X156910708Y-107653518D01*
X156910698Y-107653522D01*
X156910328Y-107653667D01*
X156904709Y-107656561D01*
X156904198Y-107655568D01*
X156882519Y-107665529D01*
X156880935Y-107665994D01*
X156880932Y-107665995D01*
X156880931Y-107665996D01*
X156829994Y-107698731D01*
X156771950Y-107736033D01*
X156687118Y-107833937D01*
X156687117Y-107833938D01*
X156633302Y-107951774D01*
X156614867Y-108080000D01*
X147280500Y-108080000D01*
X147280500Y-104971666D01*
X148219468Y-104971666D01*
X148219472Y-105121299D01*
X148219473Y-105121305D01*
X148245154Y-105316319D01*
X148256147Y-105357338D01*
X148296069Y-105506310D01*
X148371348Y-105688033D01*
X148469701Y-105858375D01*
X148469703Y-105858377D01*
X148589449Y-106014425D01*
X148589451Y-106014426D01*
X148631011Y-106055982D01*
X149589628Y-107014599D01*
X149589967Y-107014896D01*
X149625598Y-107050530D01*
X149781642Y-107170274D01*
X149951981Y-107268625D01*
X150133699Y-107343902D01*
X150323689Y-107394816D01*
X150518698Y-107420497D01*
X150565657Y-107420497D01*
X150565675Y-107420500D01*
X150577494Y-107420500D01*
X150617044Y-107420500D01*
X150617045Y-107420500D01*
X150664640Y-107420502D01*
X150664643Y-107420500D01*
X150674619Y-107420501D01*
X150674644Y-107420500D01*
X154965356Y-107420500D01*
X154965380Y-107420501D01*
X154971544Y-107420501D01*
X154971649Y-107420531D01*
X155022955Y-107420529D01*
X155022955Y-107420530D01*
X155121304Y-107420527D01*
X155316317Y-107394846D01*
X155506310Y-107343931D01*
X155688033Y-107268652D01*
X155858375Y-107170299D01*
X156014422Y-107050553D01*
X156060960Y-107004011D01*
X159278988Y-103785983D01*
X159284692Y-103780279D01*
X159284989Y-103779938D01*
X159320530Y-103744402D01*
X159440274Y-103588358D01*
X159538625Y-103418019D01*
X159613902Y-103236301D01*
X159664816Y-103046311D01*
X159690497Y-102851302D01*
X159690497Y-102806948D01*
X159690500Y-102806934D01*
X159690500Y-102744506D01*
X159690500Y-102743555D01*
X159690502Y-102705360D01*
X159690500Y-102705355D01*
X159690501Y-102696739D01*
X159690500Y-102696709D01*
X159690500Y-102511935D01*
X159690883Y-102502202D01*
X159691155Y-102498742D01*
X159700813Y-102376081D01*
X159703854Y-102356880D01*
X159732257Y-102238591D01*
X159738264Y-102220105D01*
X159784822Y-102107714D01*
X159793648Y-102090394D01*
X159857207Y-101986683D01*
X159868637Y-101970951D01*
X159951070Y-101874440D01*
X159957663Y-101867307D01*
X159987608Y-101837366D01*
X159987609Y-101837363D01*
X159995962Y-101829011D01*
X159995977Y-101828993D01*
X162481345Y-99343624D01*
X162504575Y-99326670D01*
X162504103Y-99325940D01*
X162509213Y-99322634D01*
X162509214Y-99322632D01*
X162509222Y-99322629D01*
X162720425Y-99154539D01*
X162754448Y-99135331D01*
X162890058Y-99084951D01*
X162920058Y-99077894D01*
X162990614Y-99070360D01*
X162990613Y-99070359D01*
X163068323Y-99062061D01*
X163068326Y-99062060D01*
X163076114Y-99061228D01*
X163076992Y-99061330D01*
X163103811Y-99058264D01*
X163103812Y-99058265D01*
X163361975Y-99028757D01*
X163380235Y-99025832D01*
X163382296Y-99025406D01*
X163400236Y-99020847D01*
X163718794Y-98924420D01*
X163728283Y-98921294D01*
X163729357Y-98920911D01*
X163729359Y-98920909D01*
X163735812Y-98918609D01*
X163735828Y-98918655D01*
X163744658Y-98915191D01*
X163750115Y-98913537D01*
X163917324Y-98824162D01*
X164063883Y-98703883D01*
X164184162Y-98557324D01*
X164273537Y-98390115D01*
X164328573Y-98208683D01*
X164347157Y-98020000D01*
X164952843Y-98020000D01*
X164971426Y-98208681D01*
X164971427Y-98208683D01*
X165026463Y-98390115D01*
X165026464Y-98390118D01*
X165026465Y-98390119D01*
X165026466Y-98390122D01*
X165115834Y-98557318D01*
X165115838Y-98557325D01*
X165236116Y-98703883D01*
X165382674Y-98824161D01*
X165382681Y-98824165D01*
X165549877Y-98913533D01*
X165549878Y-98913533D01*
X165549885Y-98913537D01*
X165731317Y-98968573D01*
X165731316Y-98968573D01*
X165748233Y-98970239D01*
X165920000Y-98987157D01*
X166108683Y-98968573D01*
X166290115Y-98913537D01*
X166457324Y-98824162D01*
X166603883Y-98703883D01*
X166724162Y-98557324D01*
X166813537Y-98390115D01*
X166868573Y-98208683D01*
X166887157Y-98020000D01*
X166868573Y-97831317D01*
X166813537Y-97649885D01*
X166813533Y-97649877D01*
X166724165Y-97482681D01*
X166724161Y-97482674D01*
X166603883Y-97336116D01*
X166457325Y-97215838D01*
X166457318Y-97215834D01*
X166290122Y-97126466D01*
X166290119Y-97126465D01*
X166290118Y-97126464D01*
X166290115Y-97126463D01*
X166108683Y-97071427D01*
X166108681Y-97071426D01*
X166108683Y-97071426D01*
X165920000Y-97052843D01*
X165731318Y-97071426D01*
X165624194Y-97103921D01*
X165549885Y-97126463D01*
X165549882Y-97126464D01*
X165549880Y-97126465D01*
X165549877Y-97126466D01*
X165382681Y-97215834D01*
X165382674Y-97215838D01*
X165236116Y-97336116D01*
X165115838Y-97482674D01*
X165115834Y-97482681D01*
X165026466Y-97649877D01*
X165026465Y-97649880D01*
X165026465Y-97649881D01*
X165026463Y-97649885D01*
X165003921Y-97724194D01*
X164971426Y-97831318D01*
X164952843Y-98020000D01*
X164347157Y-98020000D01*
X164328573Y-97831317D01*
X164273537Y-97649885D01*
X164273533Y-97649877D01*
X164184165Y-97482681D01*
X164184161Y-97482674D01*
X164063883Y-97336116D01*
X163917325Y-97215838D01*
X163917318Y-97215834D01*
X163750122Y-97126466D01*
X163750119Y-97126465D01*
X163750118Y-97126464D01*
X163750115Y-97126463D01*
X163568683Y-97071427D01*
X163568681Y-97071426D01*
X163568683Y-97071426D01*
X163380000Y-97052843D01*
X163191318Y-97071426D01*
X163084194Y-97103921D01*
X163009885Y-97126463D01*
X163009882Y-97126464D01*
X163009880Y-97126465D01*
X163009877Y-97126466D01*
X162842681Y-97215834D01*
X162842674Y-97215838D01*
X162696116Y-97336116D01*
X162575838Y-97482674D01*
X162575834Y-97482681D01*
X162486464Y-97649881D01*
X162482316Y-97663555D01*
X162477426Y-97675375D01*
X162477907Y-97675574D01*
X162475581Y-97681196D01*
X162379152Y-97999757D01*
X162374586Y-98017732D01*
X162374572Y-98017789D01*
X162374155Y-98019809D01*
X162371241Y-98038021D01*
X162342277Y-98291423D01*
X162342162Y-98292114D01*
X162341690Y-98296530D01*
X162341634Y-98297034D01*
X162341614Y-98297241D01*
X162322103Y-98479927D01*
X162315042Y-98509942D01*
X162264663Y-98645548D01*
X162245449Y-98679581D01*
X162140965Y-98810868D01*
X162140963Y-98810870D01*
X162077366Y-98890780D01*
X162074475Y-98895116D01*
X162074227Y-98894950D01*
X162056487Y-98918540D01*
X159495565Y-101479463D01*
X159495266Y-101479802D01*
X159459473Y-101515594D01*
X159459469Y-101515599D01*
X159339725Y-101671642D01*
X159241375Y-101841981D01*
X159241373Y-101841984D01*
X159166098Y-102023698D01*
X159115184Y-102213686D01*
X159089502Y-102408699D01*
X159089501Y-102461361D01*
X159089500Y-102461387D01*
X159089500Y-102507049D01*
X159089498Y-102564619D01*
X159089500Y-102564644D01*
X159089500Y-102748064D01*
X159089117Y-102757798D01*
X159079187Y-102883910D01*
X159076143Y-102903128D01*
X159047744Y-103021399D01*
X159041731Y-103039903D01*
X158995181Y-103152276D01*
X158986346Y-103169613D01*
X158922795Y-103273311D01*
X158911358Y-103289052D01*
X158828930Y-103385557D01*
X158822321Y-103392707D01*
X158820402Y-103394626D01*
X158797008Y-103418019D01*
X158788062Y-103426964D01*
X158788050Y-103426977D01*
X155696977Y-106518050D01*
X155696945Y-106518079D01*
X155662441Y-106552587D01*
X155655290Y-106559198D01*
X155559070Y-106641382D01*
X155543329Y-106652819D01*
X155439626Y-106716373D01*
X155422289Y-106725208D01*
X155309912Y-106771760D01*
X155291407Y-106777773D01*
X155173134Y-106806172D01*
X155153917Y-106809216D01*
X155028178Y-106819117D01*
X155018444Y-106819500D01*
X150621936Y-106819500D01*
X150612203Y-106819117D01*
X150486090Y-106809187D01*
X150466871Y-106806143D01*
X150348600Y-106777744D01*
X150330096Y-106771731D01*
X150217723Y-106725181D01*
X150200386Y-106716346D01*
X150096688Y-106652795D01*
X150080947Y-106641358D01*
X149984442Y-106558930D01*
X149977291Y-106552320D01*
X149958506Y-106533533D01*
X149947366Y-106522392D01*
X149947364Y-106522391D01*
X149941531Y-106516557D01*
X149941507Y-106516536D01*
X149124684Y-105699713D01*
X149124667Y-105699693D01*
X149117608Y-105692635D01*
X149117608Y-105692634D01*
X149087396Y-105662424D01*
X149080801Y-105655290D01*
X149067741Y-105640000D01*
X149011518Y-105574174D01*
X148998617Y-105559070D01*
X148987180Y-105543329D01*
X148943471Y-105472007D01*
X148923624Y-105439623D01*
X148914791Y-105422289D01*
X148901415Y-105390000D01*
X148868238Y-105309911D01*
X148862226Y-105291407D01*
X148857057Y-105269880D01*
X148833825Y-105173125D01*
X148830784Y-105153924D01*
X148820883Y-105028176D01*
X148820500Y-105018443D01*
X148820500Y-104020000D01*
X149204901Y-104020000D01*
X149223252Y-104206331D01*
X149223253Y-104206333D01*
X149277604Y-104385502D01*
X149365862Y-104550623D01*
X149365864Y-104550626D01*
X149484642Y-104695357D01*
X149629373Y-104814135D01*
X149629376Y-104814137D01*
X149763605Y-104885883D01*
X149794499Y-104902396D01*
X149913847Y-104938600D01*
X149973666Y-104956746D01*
X149973668Y-104956747D01*
X149990374Y-104958392D01*
X150160000Y-104975099D01*
X150346331Y-104956747D01*
X150525501Y-104902396D01*
X150690625Y-104814136D01*
X150835357Y-104695357D01*
X150954136Y-104550625D01*
X151042396Y-104385501D01*
X151096747Y-104206331D01*
X151115099Y-104020000D01*
X151096747Y-103833669D01*
X151042396Y-103654499D01*
X151042395Y-103654497D01*
X150954137Y-103489376D01*
X150954135Y-103489373D01*
X150835357Y-103344642D01*
X150690626Y-103225864D01*
X150690623Y-103225862D01*
X150525502Y-103137604D01*
X150346333Y-103083253D01*
X150346331Y-103083252D01*
X150160000Y-103064901D01*
X149973668Y-103083252D01*
X149973666Y-103083253D01*
X149794497Y-103137604D01*
X149629376Y-103225862D01*
X149629373Y-103225864D01*
X149484642Y-103344642D01*
X149365864Y-103489373D01*
X149365862Y-103489376D01*
X149277604Y-103654497D01*
X149223253Y-103833666D01*
X149223252Y-103833668D01*
X149204901Y-104020000D01*
X148820500Y-104020000D01*
X148820500Y-102875000D01*
X151214932Y-102875000D01*
X151235147Y-103067333D01*
X151235149Y-103067338D01*
X151294904Y-103251250D01*
X151294908Y-103251259D01*
X151337103Y-103324342D01*
X151657037Y-103004408D01*
X151674075Y-103067993D01*
X151739901Y-103182007D01*
X151832993Y-103275099D01*
X151947007Y-103340925D01*
X152010590Y-103357962D01*
X151687814Y-103680738D01*
X151687814Y-103680739D01*
X151854133Y-103754790D01*
X151854138Y-103754792D01*
X152043305Y-103795000D01*
X152236695Y-103795000D01*
X152425861Y-103754792D01*
X152425866Y-103754790D01*
X152592184Y-103680739D01*
X152592184Y-103680738D01*
X152269409Y-103357962D01*
X152332993Y-103340925D01*
X152447007Y-103275099D01*
X152540099Y-103182007D01*
X152605925Y-103067993D01*
X152622962Y-103004409D01*
X152942895Y-103324342D01*
X152947425Y-103323745D01*
X152988681Y-103284410D01*
X153057288Y-103271188D01*
X153122152Y-103297156D01*
X153162680Y-103354070D01*
X153169500Y-103394626D01*
X153169500Y-104645372D01*
X153149815Y-104712411D01*
X153097011Y-104758166D01*
X153027853Y-104768110D01*
X152964297Y-104739085D01*
X152945203Y-104715960D01*
X152942895Y-104715656D01*
X152622962Y-105035589D01*
X152605925Y-104972007D01*
X152540099Y-104857993D01*
X152447007Y-104764901D01*
X152332993Y-104699075D01*
X152269409Y-104682037D01*
X152592185Y-104359260D01*
X152425859Y-104285207D01*
X152425861Y-104285207D01*
X152236695Y-104245000D01*
X152043305Y-104245000D01*
X151854139Y-104285207D01*
X151687813Y-104359260D01*
X152010591Y-104682037D01*
X151947007Y-104699075D01*
X151832993Y-104764901D01*
X151739901Y-104857993D01*
X151674075Y-104972007D01*
X151657037Y-105035590D01*
X151337103Y-104715657D01*
X151294907Y-104788742D01*
X151235148Y-104972664D01*
X151235147Y-104972666D01*
X151214932Y-105165000D01*
X151235147Y-105357333D01*
X151235149Y-105357338D01*
X151294904Y-105541250D01*
X151294908Y-105541259D01*
X151337103Y-105614342D01*
X151657037Y-105294408D01*
X151674075Y-105357993D01*
X151739901Y-105472007D01*
X151832993Y-105565099D01*
X151947007Y-105630925D01*
X152010590Y-105647962D01*
X151687814Y-105970738D01*
X151687814Y-105970739D01*
X151854133Y-106044790D01*
X151854138Y-106044792D01*
X152043305Y-106085000D01*
X152236695Y-106085000D01*
X152425861Y-106044792D01*
X152425866Y-106044790D01*
X152592184Y-105970739D01*
X152592184Y-105970738D01*
X152269409Y-105647962D01*
X152332993Y-105630925D01*
X152447007Y-105565099D01*
X152540099Y-105472007D01*
X152605925Y-105357993D01*
X152622962Y-105294409D01*
X152942895Y-105614342D01*
X152942896Y-105614341D01*
X152985092Y-105541258D01*
X153044850Y-105357338D01*
X153044852Y-105357333D01*
X153065067Y-105165000D01*
X153052280Y-105043341D01*
X153064849Y-104974611D01*
X153112581Y-104923587D01*
X153180321Y-104906469D01*
X153244491Y-104927276D01*
X153291769Y-104958867D01*
X153291771Y-104958867D01*
X153291772Y-104958868D01*
X153291770Y-104958868D01*
X153350247Y-104970499D01*
X153350250Y-104970500D01*
X153350252Y-104970500D01*
X154889750Y-104970500D01*
X154889751Y-104970499D01*
X154908812Y-104966708D01*
X154948229Y-104958868D01*
X154948229Y-104958867D01*
X154948231Y-104958867D01*
X155014552Y-104914552D01*
X155058867Y-104848231D01*
X155058867Y-104848229D01*
X155058868Y-104848229D01*
X155070499Y-104789752D01*
X155070500Y-104789750D01*
X155070500Y-104397159D01*
X155076217Y-104359943D01*
X155104638Y-104269613D01*
X155184658Y-104015287D01*
X155185884Y-104011598D01*
X155302221Y-103679586D01*
X155303892Y-103675104D01*
X155418751Y-103384575D01*
X155421118Y-103378995D01*
X155533707Y-103130738D01*
X155537137Y-103123767D01*
X155637396Y-102935231D01*
X155659192Y-102905777D01*
X156798988Y-101765983D01*
X156798988Y-101765982D01*
X156804692Y-101760279D01*
X156804989Y-101759938D01*
X156840530Y-101724402D01*
X156960274Y-101568358D01*
X157058625Y-101398019D01*
X157133902Y-101216301D01*
X157184816Y-101026311D01*
X157210497Y-100831302D01*
X157210497Y-100786948D01*
X157210500Y-100786934D01*
X157210500Y-100725599D01*
X157210500Y-100725596D01*
X157210502Y-100685360D01*
X157210500Y-100685355D01*
X157210501Y-100676738D01*
X157210500Y-100676708D01*
X157210500Y-99891935D01*
X157210883Y-99882202D01*
X157213919Y-99843643D01*
X157220813Y-99756081D01*
X157223854Y-99736880D01*
X157252257Y-99618591D01*
X157258264Y-99600105D01*
X157304822Y-99487714D01*
X157313648Y-99470394D01*
X157377207Y-99366683D01*
X157388637Y-99350951D01*
X157471070Y-99254440D01*
X157477663Y-99247307D01*
X157507608Y-99217366D01*
X157507609Y-99217363D01*
X157515962Y-99209011D01*
X157515977Y-99208993D01*
X161908993Y-94815977D01*
X161909011Y-94815962D01*
X161917362Y-94807609D01*
X161917366Y-94807608D01*
X161947586Y-94777384D01*
X161954693Y-94770815D01*
X162050934Y-94688613D01*
X162066665Y-94677183D01*
X162170381Y-94613621D01*
X162187701Y-94604795D01*
X162300092Y-94558237D01*
X162318587Y-94552227D01*
X162436876Y-94523825D01*
X162456073Y-94520784D01*
X162569528Y-94511850D01*
X162581823Y-94510883D01*
X162591556Y-94510500D01*
X162697584Y-94510500D01*
X162764623Y-94530185D01*
X162810378Y-94582989D01*
X162820322Y-94652147D01*
X162791297Y-94715703D01*
X162776249Y-94730353D01*
X162696116Y-94796116D01*
X162575838Y-94942674D01*
X162575834Y-94942681D01*
X162486464Y-95109881D01*
X162486463Y-95109883D01*
X162482125Y-95124184D01*
X162477322Y-95135830D01*
X162477787Y-95136022D01*
X162475473Y-95141651D01*
X162379580Y-95460839D01*
X162374989Y-95479134D01*
X162374987Y-95479143D01*
X162374556Y-95481273D01*
X162371650Y-95500048D01*
X162371645Y-95500081D01*
X162343718Y-95759236D01*
X162343513Y-95761219D01*
X162325643Y-95943993D01*
X162318779Y-95974266D01*
X162269685Y-96109404D01*
X162250320Y-96144081D01*
X162083074Y-96355115D01*
X162080198Y-96359445D01*
X162079911Y-96359254D01*
X162062244Y-96382783D01*
X158185565Y-100259463D01*
X158185266Y-100259802D01*
X158149473Y-100295594D01*
X158149469Y-100295599D01*
X158029725Y-100451642D01*
X157931375Y-100621981D01*
X157931373Y-100621984D01*
X157856098Y-100803698D01*
X157805184Y-100993686D01*
X157779502Y-101188699D01*
X157779501Y-101241361D01*
X157779500Y-101241387D01*
X157779500Y-101247494D01*
X157779500Y-101276556D01*
X157779500Y-101287045D01*
X157779500Y-101299112D01*
X157779498Y-101344619D01*
X157779500Y-101344644D01*
X157779500Y-101768064D01*
X157779117Y-101777798D01*
X157769187Y-101903910D01*
X157766143Y-101923128D01*
X157737744Y-102041399D01*
X157731731Y-102059903D01*
X157685181Y-102172276D01*
X157676346Y-102189613D01*
X157612795Y-102293311D01*
X157601360Y-102309050D01*
X157582351Y-102331306D01*
X157569772Y-102346032D01*
X157511267Y-102384225D01*
X157475484Y-102389500D01*
X157455226Y-102389500D01*
X157330935Y-102425994D01*
X157330932Y-102425995D01*
X157330931Y-102425996D01*
X157312223Y-102438019D01*
X157221950Y-102496033D01*
X157137118Y-102593937D01*
X157137117Y-102593938D01*
X157083302Y-102711774D01*
X157064867Y-102840000D01*
X157083302Y-102968225D01*
X157135834Y-103083252D01*
X157137118Y-103086063D01*
X157221951Y-103183967D01*
X157330931Y-103254004D01*
X157455225Y-103290499D01*
X157455227Y-103290500D01*
X157455228Y-103290500D01*
X157584773Y-103290500D01*
X157584773Y-103290499D01*
X157709069Y-103254004D01*
X157818049Y-103183967D01*
X157902882Y-103086063D01*
X157956697Y-102968226D01*
X157975133Y-102840000D01*
X157975132Y-102839996D01*
X157976009Y-102833900D01*
X158005033Y-102770344D01*
X158009927Y-102765088D01*
X158010527Y-102764405D01*
X158010527Y-102764404D01*
X158010530Y-102764402D01*
X158130274Y-102608358D01*
X158228625Y-102438019D01*
X158303902Y-102256301D01*
X158354816Y-102066311D01*
X158380497Y-101871302D01*
X158380497Y-101826948D01*
X158380500Y-101826934D01*
X158380500Y-101765984D01*
X158380500Y-101759926D01*
X158380502Y-101725360D01*
X158380500Y-101725355D01*
X158380501Y-101716738D01*
X158380500Y-101716708D01*
X158380500Y-101291935D01*
X158380883Y-101282202D01*
X158382324Y-101263900D01*
X158390813Y-101156081D01*
X158393854Y-101136880D01*
X158422257Y-101018591D01*
X158428264Y-101000105D01*
X158474822Y-100887714D01*
X158483648Y-100870394D01*
X158547207Y-100766683D01*
X158558637Y-100750951D01*
X158641070Y-100654440D01*
X158647663Y-100647307D01*
X158677608Y-100617366D01*
X158677609Y-100617363D01*
X158685962Y-100609011D01*
X158685977Y-100608993D01*
X162487561Y-96807408D01*
X162510831Y-96790393D01*
X162510385Y-96789706D01*
X162515481Y-96786397D01*
X162515492Y-96786392D01*
X162726287Y-96618044D01*
X162759775Y-96598967D01*
X162895319Y-96547688D01*
X162925104Y-96540471D01*
X163081113Y-96522641D01*
X163105919Y-96519807D01*
X163105919Y-96519809D01*
X163106469Y-96519745D01*
X163180361Y-96511624D01*
X163182844Y-96510602D01*
X163364339Y-96488875D01*
X163382262Y-96485921D01*
X163384280Y-96485496D01*
X163401805Y-96480991D01*
X163719160Y-96384332D01*
X163728437Y-96381264D01*
X163729492Y-96380887D01*
X163729496Y-96380884D01*
X163735948Y-96378580D01*
X163735964Y-96378625D01*
X163744884Y-96375123D01*
X163750115Y-96373537D01*
X163917324Y-96284162D01*
X164063883Y-96163883D01*
X164184162Y-96017324D01*
X164273537Y-95850115D01*
X164328573Y-95668683D01*
X164347157Y-95480000D01*
X164982866Y-95480000D01*
X165003346Y-95674844D01*
X165063883Y-95861164D01*
X165108318Y-95938126D01*
X165108319Y-95938127D01*
X165437037Y-95609408D01*
X165454075Y-95672993D01*
X165519901Y-95787007D01*
X165612993Y-95880099D01*
X165727007Y-95945925D01*
X165790590Y-95962962D01*
X165458724Y-96294827D01*
X165630412Y-96371267D01*
X165822043Y-96412000D01*
X166017957Y-96412000D01*
X166209589Y-96371267D01*
X166209594Y-96371265D01*
X166381273Y-96294828D01*
X166381274Y-96294827D01*
X166049410Y-95962962D01*
X166112993Y-95945925D01*
X166227007Y-95880099D01*
X166320099Y-95787007D01*
X166385925Y-95672993D01*
X166402962Y-95609409D01*
X166731680Y-95938127D01*
X166731681Y-95938127D01*
X166776115Y-95861166D01*
X166836653Y-95674844D01*
X166857133Y-95480000D01*
X166836653Y-95285155D01*
X166776116Y-95098835D01*
X166731680Y-95021871D01*
X166402962Y-95350589D01*
X166385925Y-95287007D01*
X166320099Y-95172993D01*
X166227007Y-95079901D01*
X166112993Y-95014075D01*
X166049409Y-94997037D01*
X166381274Y-94665171D01*
X166209587Y-94588732D01*
X166209588Y-94588732D01*
X166017957Y-94548000D01*
X165822043Y-94548000D01*
X165630412Y-94588732D01*
X165458724Y-94665171D01*
X165790591Y-94997037D01*
X165727007Y-95014075D01*
X165612993Y-95079901D01*
X165519901Y-95172993D01*
X165454075Y-95287007D01*
X165437037Y-95350590D01*
X165108318Y-95021871D01*
X165108317Y-95021872D01*
X165063886Y-95098829D01*
X165063884Y-95098833D01*
X165003346Y-95285155D01*
X164982866Y-95480000D01*
X164347157Y-95480000D01*
X164328573Y-95291317D01*
X164273537Y-95109885D01*
X164267630Y-95098833D01*
X164184165Y-94942681D01*
X164184161Y-94942674D01*
X164063883Y-94796116D01*
X163932895Y-94688617D01*
X163917324Y-94675838D01*
X163880019Y-94655898D01*
X163830176Y-94606936D01*
X163814715Y-94538799D01*
X163838546Y-94473119D01*
X163891013Y-94431982D01*
X164068033Y-94358652D01*
X164238375Y-94260299D01*
X164394422Y-94140553D01*
X164440960Y-94094011D01*
X164528988Y-94005983D01*
X164528989Y-94005980D01*
X164534699Y-94000271D01*
X164534989Y-93999938D01*
X164570530Y-93964402D01*
X164690274Y-93808358D01*
X164788625Y-93638019D01*
X164863902Y-93456301D01*
X164863905Y-93456286D01*
X164865207Y-93452457D01*
X164866987Y-93453061D01*
X164899313Y-93399885D01*
X164962124Y-93369281D01*
X165031509Y-93377492D01*
X165085440Y-93421913D01*
X165092191Y-93433085D01*
X165115836Y-93477321D01*
X165115838Y-93477325D01*
X165236116Y-93623883D01*
X165382674Y-93744161D01*
X165382681Y-93744165D01*
X165549877Y-93833533D01*
X165549878Y-93833533D01*
X165549885Y-93833537D01*
X165731317Y-93888573D01*
X165731316Y-93888573D01*
X165748233Y-93890239D01*
X165920000Y-93907157D01*
X166108683Y-93888573D01*
X166290115Y-93833537D01*
X166457324Y-93744162D01*
X166603883Y-93623883D01*
X166724162Y-93477324D01*
X166813537Y-93310115D01*
X166868573Y-93128683D01*
X166887157Y-92940000D01*
X166868573Y-92751317D01*
X166813537Y-92569885D01*
X166724162Y-92402676D01*
X166724161Y-92402674D01*
X166603883Y-92256116D01*
X166457325Y-92135838D01*
X166457318Y-92135834D01*
X166290122Y-92046466D01*
X166290119Y-92046465D01*
X166290118Y-92046464D01*
X166290115Y-92046463D01*
X166108683Y-91991427D01*
X166108681Y-91991426D01*
X166108683Y-91991426D01*
X165920000Y-91972843D01*
X165731318Y-91991426D01*
X165649149Y-92016352D01*
X165549885Y-92046463D01*
X165549882Y-92046464D01*
X165549880Y-92046465D01*
X165549877Y-92046466D01*
X165382681Y-92135834D01*
X165382674Y-92135838D01*
X165236116Y-92256116D01*
X165160353Y-92348434D01*
X165102607Y-92387768D01*
X165032762Y-92389639D01*
X164972994Y-92353451D01*
X164942278Y-92290695D01*
X164940500Y-92269769D01*
X164940500Y-92214644D01*
X164940501Y-92214619D01*
X164940501Y-92208455D01*
X164940531Y-92208349D01*
X164940529Y-92151821D01*
X164940527Y-92058696D01*
X164914846Y-91863683D01*
X164863931Y-91673690D01*
X164788652Y-91491967D01*
X164690299Y-91321625D01*
X164647139Y-91265381D01*
X164631312Y-91235020D01*
X164630475Y-91235379D01*
X164628078Y-91229784D01*
X164613986Y-91204165D01*
X164499512Y-90996052D01*
X164488875Y-90970153D01*
X164445041Y-90815701D01*
X164441097Y-90795613D01*
X164436399Y-90753553D01*
X164421615Y-90621202D01*
X164421118Y-90617124D01*
X164421059Y-90616677D01*
X164420524Y-90612895D01*
X164388387Y-90400000D01*
X164982866Y-90400000D01*
X165003346Y-90594844D01*
X165063883Y-90781164D01*
X165108318Y-90858126D01*
X165108319Y-90858127D01*
X165437037Y-90529408D01*
X165454075Y-90592993D01*
X165519901Y-90707007D01*
X165612993Y-90800099D01*
X165727007Y-90865925D01*
X165790590Y-90882962D01*
X165458724Y-91214827D01*
X165630412Y-91291267D01*
X165822043Y-91332000D01*
X166017957Y-91332000D01*
X166209589Y-91291267D01*
X166209594Y-91291265D01*
X166381273Y-91214828D01*
X166381274Y-91214827D01*
X166049410Y-90882962D01*
X166112993Y-90865925D01*
X166227007Y-90800099D01*
X166320099Y-90707007D01*
X166385925Y-90592993D01*
X166402962Y-90529409D01*
X166731680Y-90858127D01*
X166731681Y-90858127D01*
X166776115Y-90781166D01*
X166836653Y-90594844D01*
X166857133Y-90400000D01*
X166836653Y-90205155D01*
X166776116Y-90018835D01*
X166731680Y-89941871D01*
X166402962Y-90270589D01*
X166385925Y-90207007D01*
X166320099Y-90092993D01*
X166227007Y-89999901D01*
X166112993Y-89934075D01*
X166049409Y-89917037D01*
X166381274Y-89585171D01*
X166209587Y-89508732D01*
X166209588Y-89508732D01*
X166017957Y-89468000D01*
X165822043Y-89468000D01*
X165630412Y-89508732D01*
X165458724Y-89585171D01*
X165790591Y-89917037D01*
X165727007Y-89934075D01*
X165612993Y-89999901D01*
X165519901Y-90092993D01*
X165454075Y-90207007D01*
X165437037Y-90270590D01*
X165108318Y-89941871D01*
X165108317Y-89941872D01*
X165063886Y-90018829D01*
X165063884Y-90018833D01*
X165003346Y-90205155D01*
X164982866Y-90400000D01*
X164388387Y-90400000D01*
X164385835Y-90383096D01*
X164382667Y-90366671D01*
X164382230Y-90364815D01*
X164382226Y-90364797D01*
X164377724Y-90348661D01*
X164295000Y-90092993D01*
X164283411Y-90057174D01*
X164280736Y-90049435D01*
X164280419Y-90048574D01*
X164280418Y-90048573D01*
X164278107Y-90042294D01*
X164278208Y-90042256D01*
X164274302Y-90032407D01*
X164273537Y-90029885D01*
X164267630Y-90018833D01*
X164184165Y-89862681D01*
X164184161Y-89862674D01*
X164063883Y-89716116D01*
X163917325Y-89595838D01*
X163917318Y-89595834D01*
X163750122Y-89506466D01*
X163750119Y-89506465D01*
X163750118Y-89506464D01*
X163750115Y-89506463D01*
X163568683Y-89451427D01*
X163568681Y-89451426D01*
X163568683Y-89451426D01*
X163380000Y-89432843D01*
X163191318Y-89451426D01*
X163084194Y-89483921D01*
X163009885Y-89506463D01*
X163009882Y-89506464D01*
X163009880Y-89506465D01*
X163009877Y-89506466D01*
X162842681Y-89595834D01*
X162842674Y-89595838D01*
X162696116Y-89716116D01*
X162575838Y-89862674D01*
X162575834Y-89862681D01*
X162486466Y-90029877D01*
X162486465Y-90029880D01*
X162486464Y-90029882D01*
X162486463Y-90029885D01*
X162480794Y-90048574D01*
X162431426Y-90211318D01*
X162412843Y-90400000D01*
X162431426Y-90588681D01*
X162439919Y-90616677D01*
X162486463Y-90770115D01*
X162486464Y-90770118D01*
X162486465Y-90770119D01*
X162486466Y-90770122D01*
X162575834Y-90937318D01*
X162575838Y-90937325D01*
X162696116Y-91083883D01*
X162842674Y-91204161D01*
X162842681Y-91204165D01*
X163009877Y-91293533D01*
X163009879Y-91293534D01*
X163009885Y-91293537D01*
X163032941Y-91300531D01*
X163041601Y-91303158D01*
X163047191Y-91305000D01*
X163051941Y-91306691D01*
X163051946Y-91306692D01*
X163051948Y-91306693D01*
X163056173Y-91307743D01*
X163062214Y-91309410D01*
X163191317Y-91348573D01*
X163230256Y-91352407D01*
X163248037Y-91355478D01*
X163349964Y-91380838D01*
X163375596Y-91385513D01*
X163378532Y-91385858D01*
X163404466Y-91387253D01*
X163629081Y-91385120D01*
X163661118Y-91384816D01*
X163661140Y-91384815D01*
X163661210Y-91384815D01*
X163663401Y-91384782D01*
X163663649Y-91384777D01*
X163665812Y-91384722D01*
X163831224Y-91379644D01*
X163872650Y-91385430D01*
X163873992Y-91385858D01*
X163941894Y-91407479D01*
X163993988Y-91440036D01*
X164114627Y-91566478D01*
X164119199Y-91571542D01*
X164161382Y-91620929D01*
X164172819Y-91636670D01*
X164236373Y-91740373D01*
X164245208Y-91757710D01*
X164291760Y-91870087D01*
X164297773Y-91888592D01*
X164326172Y-92006865D01*
X164329216Y-92026082D01*
X164339117Y-92151821D01*
X164339500Y-92161555D01*
X164339500Y-92245399D01*
X164319815Y-92312438D01*
X164267011Y-92358193D01*
X164197853Y-92368137D01*
X164134297Y-92339112D01*
X164119647Y-92324064D01*
X164063883Y-92256116D01*
X163917325Y-92135838D01*
X163917318Y-92135834D01*
X163750122Y-92046466D01*
X163750119Y-92046465D01*
X163750118Y-92046464D01*
X163750115Y-92046463D01*
X163568683Y-91991427D01*
X163568681Y-91991426D01*
X163568683Y-91991426D01*
X163380000Y-91972843D01*
X163191318Y-91991426D01*
X163009881Y-92046464D01*
X162997285Y-92053197D01*
X162985468Y-92058099D01*
X162985668Y-92058579D01*
X162980049Y-92060909D01*
X162686587Y-92217992D01*
X162670737Y-92227414D01*
X162669027Y-92228537D01*
X162653936Y-92239457D01*
X162454225Y-92398200D01*
X162453658Y-92398605D01*
X162450250Y-92401355D01*
X162449693Y-92401801D01*
X162449509Y-92401953D01*
X162306727Y-92517177D01*
X162280512Y-92533406D01*
X162149009Y-92593668D01*
X162111357Y-92604147D01*
X161843161Y-92634635D01*
X161838043Y-92635658D01*
X161837984Y-92635363D01*
X161808773Y-92639500D01*
X161314644Y-92639500D01*
X161314620Y-92639498D01*
X161308435Y-92639498D01*
X161308332Y-92639468D01*
X161158700Y-92639472D01*
X161158694Y-92639473D01*
X160963680Y-92665154D01*
X160773689Y-92716069D01*
X160591969Y-92791347D01*
X160421622Y-92889703D01*
X160265574Y-93009449D01*
X160265573Y-93009451D01*
X160224022Y-93051007D01*
X155755565Y-97519464D01*
X155755266Y-97519802D01*
X155719473Y-97555594D01*
X155719469Y-97555599D01*
X155599725Y-97711642D01*
X155501375Y-97881981D01*
X155501373Y-97881984D01*
X155426098Y-98063698D01*
X155375184Y-98253686D01*
X155349502Y-98448699D01*
X155349501Y-98501361D01*
X155349500Y-98501387D01*
X155349500Y-98547049D01*
X155349498Y-98604619D01*
X155349500Y-98604644D01*
X155349500Y-99698064D01*
X155349117Y-99707798D01*
X155339187Y-99833910D01*
X155336143Y-99853128D01*
X155307744Y-99971399D01*
X155301731Y-99989903D01*
X155255181Y-100102276D01*
X155246346Y-100119613D01*
X155182795Y-100223311D01*
X155171358Y-100239052D01*
X155088930Y-100335557D01*
X155082321Y-100342707D01*
X155060610Y-100364416D01*
X155057008Y-100368019D01*
X155048062Y-100376964D01*
X155048050Y-100376977D01*
X155001629Y-100423398D01*
X154978385Y-100440379D01*
X154978848Y-100441094D01*
X154973732Y-100444404D01*
X154766667Y-100609341D01*
X154732767Y-100628523D01*
X154634057Y-100665362D01*
X154600637Y-100677834D01*
X154570679Y-100684935D01*
X154392200Y-100704330D01*
X154390948Y-100704471D01*
X154136887Y-100733853D01*
X154136852Y-100733858D01*
X154118694Y-100736789D01*
X154118670Y-100736794D01*
X154116652Y-100737213D01*
X154098823Y-100741759D01*
X153785704Y-100836687D01*
X153775962Y-100839907D01*
X153768496Y-100842582D01*
X153768482Y-100842544D01*
X153759351Y-100846131D01*
X153754501Y-100847602D01*
X153754498Y-100847603D01*
X153589376Y-100935862D01*
X153589373Y-100935864D01*
X153444642Y-101054642D01*
X153325864Y-101199373D01*
X153325862Y-101199376D01*
X153237604Y-101364497D01*
X153183253Y-101543666D01*
X153183252Y-101543668D01*
X153164901Y-101730000D01*
X153183252Y-101916331D01*
X153183253Y-101916333D01*
X153237604Y-102095502D01*
X153325862Y-102260623D01*
X153325864Y-102260626D01*
X153444642Y-102405357D01*
X153589373Y-102524135D01*
X153589376Y-102524137D01*
X153746944Y-102608358D01*
X153754499Y-102612396D01*
X153933666Y-102666746D01*
X153933668Y-102666747D01*
X153950374Y-102668392D01*
X154120000Y-102685099D01*
X154306331Y-102666747D01*
X154485501Y-102612396D01*
X154650625Y-102524136D01*
X154795357Y-102405357D01*
X154914136Y-102260625D01*
X155002396Y-102095501D01*
X155006416Y-102082246D01*
X155011444Y-102070110D01*
X155010982Y-102069919D01*
X155013311Y-102064293D01*
X155013312Y-102064292D01*
X155108241Y-101751167D01*
X155112782Y-101733357D01*
X155113208Y-101731307D01*
X155116145Y-101713106D01*
X155145513Y-101459176D01*
X155145586Y-101458540D01*
X155145595Y-101458460D01*
X155145601Y-101458407D01*
X155145619Y-101458249D01*
X155145692Y-101457583D01*
X155157966Y-101344619D01*
X155165061Y-101279318D01*
X155172158Y-101249371D01*
X155221476Y-101117225D01*
X155240653Y-101083332D01*
X155405598Y-100876260D01*
X155405602Y-100876251D01*
X155405609Y-100876242D01*
X155408496Y-100871918D01*
X155408739Y-100872080D01*
X155426483Y-100848486D01*
X155538988Y-100735983D01*
X155538989Y-100735980D01*
X155544699Y-100730271D01*
X155544989Y-100729938D01*
X155580530Y-100694402D01*
X155700274Y-100538358D01*
X155798625Y-100368019D01*
X155873902Y-100186301D01*
X155924816Y-99996311D01*
X155950497Y-99801302D01*
X155950497Y-99756948D01*
X155950500Y-99756934D01*
X155950500Y-99702546D01*
X155950501Y-99668732D01*
X155950502Y-99655360D01*
X155950500Y-99655355D01*
X155950501Y-99646738D01*
X155950500Y-99646708D01*
X155950500Y-98551935D01*
X155950883Y-98542202D01*
X155953950Y-98503252D01*
X155960813Y-98416081D01*
X155963854Y-98396880D01*
X155992257Y-98278591D01*
X155998264Y-98260105D01*
X156044822Y-98147714D01*
X156053648Y-98130394D01*
X156117207Y-98026683D01*
X156128637Y-98010951D01*
X156211070Y-97914440D01*
X156217663Y-97907307D01*
X156247608Y-97877366D01*
X156247609Y-97877363D01*
X156255962Y-97869011D01*
X156255977Y-97868993D01*
X160578993Y-93545977D01*
X160579011Y-93545962D01*
X160587362Y-93537609D01*
X160587366Y-93537608D01*
X160617586Y-93507384D01*
X160624693Y-93500815D01*
X160720934Y-93418613D01*
X160736665Y-93407183D01*
X160840381Y-93343621D01*
X160857701Y-93334795D01*
X160970092Y-93288237D01*
X160988587Y-93282227D01*
X161106876Y-93253825D01*
X161126073Y-93250784D01*
X161239528Y-93241850D01*
X161251823Y-93240883D01*
X161261556Y-93240500D01*
X161808611Y-93240500D01*
X161837020Y-93244932D01*
X161837202Y-93244085D01*
X161843152Y-93245361D01*
X161843160Y-93245361D01*
X161843167Y-93245364D01*
X162111369Y-93275852D01*
X162149008Y-93286328D01*
X162280519Y-93346594D01*
X162306734Y-93362824D01*
X162428855Y-93461378D01*
X162429405Y-93462070D01*
X162479179Y-93501633D01*
X162653955Y-93640554D01*
X162653966Y-93640562D01*
X162653970Y-93640565D01*
X162661545Y-93646048D01*
X162668962Y-93651416D01*
X162670721Y-93652572D01*
X162686603Y-93662015D01*
X162713059Y-93676176D01*
X162762874Y-93725168D01*
X162778294Y-93793315D01*
X162754424Y-93858981D01*
X162698841Y-93901317D01*
X162654541Y-93909500D01*
X162644644Y-93909500D01*
X162644620Y-93909498D01*
X162638435Y-93909498D01*
X162638332Y-93909468D01*
X162488700Y-93909472D01*
X162488694Y-93909473D01*
X162293680Y-93935154D01*
X162103689Y-93986069D01*
X161939077Y-94054260D01*
X161921967Y-94061348D01*
X161784789Y-94140553D01*
X161751622Y-94159703D01*
X161595574Y-94279449D01*
X161595573Y-94279451D01*
X161554022Y-94321007D01*
X157015565Y-98859464D01*
X157015266Y-98859802D01*
X156979473Y-98895594D01*
X156979469Y-98895599D01*
X156859725Y-99051642D01*
X156761375Y-99221981D01*
X156761373Y-99221984D01*
X156686098Y-99403698D01*
X156635184Y-99593686D01*
X156609502Y-99788699D01*
X156609501Y-99841361D01*
X156609500Y-99841387D01*
X156609500Y-99887044D01*
X156609498Y-99944619D01*
X156609500Y-99944644D01*
X156609500Y-100728064D01*
X156609117Y-100737798D01*
X156599187Y-100863910D01*
X156596143Y-100883128D01*
X156567744Y-101001399D01*
X156561731Y-101019903D01*
X156515181Y-101132276D01*
X156506346Y-101149613D01*
X156442795Y-101253311D01*
X156431358Y-101269052D01*
X156348930Y-101365557D01*
X156342321Y-101372707D01*
X156340201Y-101374827D01*
X156317008Y-101398019D01*
X156308062Y-101406964D01*
X156308050Y-101406977D01*
X155228902Y-102486125D01*
X155208937Y-102502322D01*
X154926511Y-102686429D01*
X154916315Y-102692403D01*
X154641639Y-102836228D01*
X154629708Y-102841691D01*
X154359623Y-102948468D01*
X154346031Y-102952954D01*
X154079971Y-103024014D01*
X154065024Y-103027035D01*
X153796064Y-103064371D01*
X153796052Y-103064373D01*
X153783249Y-103066990D01*
X153758425Y-103069500D01*
X153350247Y-103069500D01*
X153291770Y-103081131D01*
X153291769Y-103081132D01*
X153244492Y-103112722D01*
X153177814Y-103133600D01*
X153110434Y-103115115D01*
X153063744Y-103063136D01*
X153052280Y-102996658D01*
X153065067Y-102874999D01*
X153044852Y-102682666D01*
X153044850Y-102682661D01*
X152985092Y-102498741D01*
X152942895Y-102425656D01*
X152622962Y-102745589D01*
X152605925Y-102682007D01*
X152540099Y-102567993D01*
X152447007Y-102474901D01*
X152332993Y-102409075D01*
X152269409Y-102392037D01*
X152592185Y-102069260D01*
X152425859Y-101995207D01*
X152425861Y-101995207D01*
X152236695Y-101955000D01*
X152043305Y-101955000D01*
X151854139Y-101995207D01*
X151687813Y-102069260D01*
X152010591Y-102392037D01*
X151947007Y-102409075D01*
X151832993Y-102474901D01*
X151739901Y-102567993D01*
X151674075Y-102682007D01*
X151657037Y-102745590D01*
X151337103Y-102425657D01*
X151294907Y-102498742D01*
X151235148Y-102682664D01*
X151235147Y-102682666D01*
X151214932Y-102875000D01*
X148820500Y-102875000D01*
X148820500Y-101730000D01*
X149204901Y-101730000D01*
X149223252Y-101916331D01*
X149223253Y-101916333D01*
X149277604Y-102095502D01*
X149365862Y-102260623D01*
X149365864Y-102260626D01*
X149484642Y-102405357D01*
X149629373Y-102524135D01*
X149629376Y-102524137D01*
X149786944Y-102608358D01*
X149794499Y-102612396D01*
X149973666Y-102666746D01*
X149973668Y-102666747D01*
X149990374Y-102668392D01*
X150160000Y-102685099D01*
X150346331Y-102666747D01*
X150525501Y-102612396D01*
X150690625Y-102524136D01*
X150835357Y-102405357D01*
X150954136Y-102260625D01*
X151042396Y-102095501D01*
X151096747Y-101916331D01*
X151115099Y-101730000D01*
X151096747Y-101543669D01*
X151042396Y-101364499D01*
X151042395Y-101364497D01*
X150954137Y-101199376D01*
X150954135Y-101199373D01*
X150835357Y-101054642D01*
X150690626Y-100935864D01*
X150690623Y-100935862D01*
X150525502Y-100847604D01*
X150346333Y-100793253D01*
X150346331Y-100793252D01*
X150160000Y-100774901D01*
X149973668Y-100793252D01*
X149973666Y-100793253D01*
X149794497Y-100847604D01*
X149629376Y-100935862D01*
X149629373Y-100935864D01*
X149484642Y-101054642D01*
X149365864Y-101199373D01*
X149365862Y-101199376D01*
X149277604Y-101364497D01*
X149223253Y-101543666D01*
X149223252Y-101543668D01*
X149204901Y-101730000D01*
X148820500Y-101730000D01*
X148820500Y-101581935D01*
X148820883Y-101572202D01*
X148821154Y-101568757D01*
X148830813Y-101446081D01*
X148833854Y-101426880D01*
X148862257Y-101308591D01*
X148868264Y-101290105D01*
X148914822Y-101177714D01*
X148923648Y-101160394D01*
X148987207Y-101056683D01*
X148998637Y-101040951D01*
X149081070Y-100944440D01*
X149087663Y-100937307D01*
X149117608Y-100907366D01*
X149117609Y-100907363D01*
X149125962Y-100899011D01*
X149125977Y-100898993D01*
X149278373Y-100746596D01*
X149301613Y-100729625D01*
X149301148Y-100728906D01*
X149306249Y-100725603D01*
X149306260Y-100725598D01*
X149482766Y-100585000D01*
X151214932Y-100585000D01*
X151235147Y-100777333D01*
X151235149Y-100777338D01*
X151294904Y-100961250D01*
X151294908Y-100961259D01*
X151337103Y-101034342D01*
X151657037Y-100714408D01*
X151674075Y-100777993D01*
X151739901Y-100892007D01*
X151832993Y-100985099D01*
X151947007Y-101050925D01*
X152010590Y-101067962D01*
X151687814Y-101390738D01*
X151687814Y-101390739D01*
X151854133Y-101464790D01*
X151854138Y-101464792D01*
X152043305Y-101505000D01*
X152236695Y-101505000D01*
X152425861Y-101464792D01*
X152425866Y-101464790D01*
X152592184Y-101390739D01*
X152592184Y-101390738D01*
X152269409Y-101067962D01*
X152332993Y-101050925D01*
X152447007Y-100985099D01*
X152540099Y-100892007D01*
X152605925Y-100777993D01*
X152622962Y-100714409D01*
X152942895Y-101034342D01*
X152942896Y-101034341D01*
X152985092Y-100961258D01*
X153044850Y-100777338D01*
X153044852Y-100777333D01*
X153065067Y-100585000D01*
X153044852Y-100392666D01*
X153044850Y-100392661D01*
X152985092Y-100208741D01*
X152942895Y-100135656D01*
X152622962Y-100455589D01*
X152605925Y-100392007D01*
X152540099Y-100277993D01*
X152447007Y-100184901D01*
X152332993Y-100119075D01*
X152269409Y-100102037D01*
X152592185Y-99779260D01*
X152425859Y-99705207D01*
X152425861Y-99705207D01*
X152236695Y-99665000D01*
X152043305Y-99665000D01*
X151854139Y-99705207D01*
X151687813Y-99779260D01*
X152010591Y-100102037D01*
X151947007Y-100119075D01*
X151832993Y-100184901D01*
X151739901Y-100277993D01*
X151674075Y-100392007D01*
X151657037Y-100455590D01*
X151337103Y-100135657D01*
X151294907Y-100208742D01*
X151235148Y-100392664D01*
X151235147Y-100392666D01*
X151214932Y-100585000D01*
X149482766Y-100585000D01*
X149513334Y-100560651D01*
X149547219Y-100541478D01*
X149679370Y-100492159D01*
X149709324Y-100485061D01*
X149887606Y-100465688D01*
X149888412Y-100465599D01*
X149888410Y-100465599D01*
X149888503Y-100465589D01*
X149888583Y-100465580D01*
X149889218Y-100465507D01*
X149889212Y-100465507D01*
X149889271Y-100465501D01*
X149938544Y-100459802D01*
X150143105Y-100436145D01*
X150161307Y-100433208D01*
X150163357Y-100432782D01*
X150181167Y-100428241D01*
X150494292Y-100333312D01*
X150503765Y-100330187D01*
X150504835Y-100329805D01*
X150504837Y-100329803D01*
X150511280Y-100327504D01*
X150511287Y-100327526D01*
X150520483Y-100323917D01*
X150525501Y-100322396D01*
X150690625Y-100234136D01*
X150835357Y-100115357D01*
X150954136Y-99970625D01*
X151042396Y-99805501D01*
X151096747Y-99626331D01*
X151115099Y-99440000D01*
X151115099Y-99439996D01*
X153164901Y-99439996D01*
X153183252Y-99626331D01*
X153183253Y-99626333D01*
X153237604Y-99805502D01*
X153325862Y-99970623D01*
X153325864Y-99970626D01*
X153444642Y-100115357D01*
X153589373Y-100234135D01*
X153589376Y-100234137D01*
X153752851Y-100321515D01*
X153754499Y-100322396D01*
X153933666Y-100376746D01*
X153933668Y-100376747D01*
X153950374Y-100378392D01*
X154120000Y-100395099D01*
X154306331Y-100376747D01*
X154485501Y-100322396D01*
X154650625Y-100234136D01*
X154795357Y-100115357D01*
X154914136Y-99970625D01*
X155002396Y-99805501D01*
X155056747Y-99626331D01*
X155075099Y-99440000D01*
X155074966Y-99438653D01*
X155056747Y-99253668D01*
X155056746Y-99253666D01*
X155047134Y-99221981D01*
X155002396Y-99074499D01*
X154995303Y-99061228D01*
X154914137Y-98909376D01*
X154914135Y-98909373D01*
X154795357Y-98764642D01*
X154650626Y-98645864D01*
X154650623Y-98645862D01*
X154485502Y-98557604D01*
X154306333Y-98503253D01*
X154306331Y-98503252D01*
X154120000Y-98484901D01*
X153933668Y-98503252D01*
X153933666Y-98503253D01*
X153754497Y-98557604D01*
X153589376Y-98645862D01*
X153589373Y-98645864D01*
X153444642Y-98764642D01*
X153325864Y-98909373D01*
X153325862Y-98909376D01*
X153237604Y-99074497D01*
X153183253Y-99253666D01*
X153183252Y-99253668D01*
X153164901Y-99439996D01*
X151115099Y-99439996D01*
X151114966Y-99438653D01*
X151096747Y-99253668D01*
X151096746Y-99253666D01*
X151087134Y-99221981D01*
X151042396Y-99074499D01*
X151035303Y-99061228D01*
X150954137Y-98909376D01*
X150954135Y-98909373D01*
X150835357Y-98764642D01*
X150690626Y-98645864D01*
X150690623Y-98645862D01*
X150525502Y-98557604D01*
X150346333Y-98503253D01*
X150346331Y-98503252D01*
X150160000Y-98484901D01*
X149973668Y-98503252D01*
X149973666Y-98503253D01*
X149794497Y-98557604D01*
X149629376Y-98645862D01*
X149629373Y-98645864D01*
X149484642Y-98764642D01*
X149365864Y-98909373D01*
X149365862Y-98909376D01*
X149277603Y-99074499D01*
X149277601Y-99074503D01*
X149273581Y-99087756D01*
X149268560Y-99099889D01*
X149269017Y-99100078D01*
X149266684Y-99105712D01*
X149171758Y-99418824D01*
X149167221Y-99436609D01*
X149166804Y-99438618D01*
X149166797Y-99438653D01*
X149163854Y-99456880D01*
X149146249Y-99609112D01*
X149135136Y-99705207D01*
X149134462Y-99711032D01*
X149134330Y-99712200D01*
X149114935Y-99890679D01*
X149107834Y-99920638D01*
X149058523Y-100052768D01*
X149039341Y-100086669D01*
X148874406Y-100293732D01*
X148874395Y-100293748D01*
X148874378Y-100293781D01*
X148874345Y-100293824D01*
X148871505Y-100298080D01*
X148871264Y-100297919D01*
X148853513Y-100321515D01*
X148625557Y-100549472D01*
X148625265Y-100549804D01*
X148589473Y-100585594D01*
X148589469Y-100585599D01*
X148469725Y-100741642D01*
X148371375Y-100911981D01*
X148371373Y-100911984D01*
X148296098Y-101093698D01*
X148245184Y-101283686D01*
X148219502Y-101478699D01*
X148219501Y-101531361D01*
X148219500Y-101531387D01*
X148219500Y-101537494D01*
X148219500Y-101560847D01*
X148219500Y-101577045D01*
X148219499Y-101619544D01*
X148219498Y-101634619D01*
X148219500Y-101634644D01*
X148219500Y-104966708D01*
X148219498Y-104966738D01*
X148219498Y-104971564D01*
X148219468Y-104971666D01*
X147280500Y-104971666D01*
X147280500Y-98295000D01*
X151184901Y-98295000D01*
X151203252Y-98481331D01*
X151203253Y-98481333D01*
X151257604Y-98660502D01*
X151345862Y-98825623D01*
X151345864Y-98825626D01*
X151464642Y-98970357D01*
X151609373Y-99089135D01*
X151609376Y-99089137D01*
X151774497Y-99177395D01*
X151774499Y-99177396D01*
X151921485Y-99221984D01*
X151953666Y-99231746D01*
X151953668Y-99231747D01*
X151970374Y-99233392D01*
X152140000Y-99250099D01*
X152326331Y-99231747D01*
X152505501Y-99177396D01*
X152670625Y-99089136D01*
X152815357Y-98970357D01*
X152934136Y-98825625D01*
X153022396Y-98660501D01*
X153076747Y-98481331D01*
X153095099Y-98295000D01*
X153076747Y-98108669D01*
X153022396Y-97929499D01*
X152969917Y-97831317D01*
X152934137Y-97764376D01*
X152934135Y-97764373D01*
X152815357Y-97619642D01*
X152670626Y-97500864D01*
X152670623Y-97500862D01*
X152505502Y-97412604D01*
X152326333Y-97358253D01*
X152326331Y-97358252D01*
X152140000Y-97339901D01*
X151953668Y-97358252D01*
X151953666Y-97358253D01*
X151774497Y-97412604D01*
X151609376Y-97500862D01*
X151609373Y-97500864D01*
X151464642Y-97619642D01*
X151345864Y-97764373D01*
X151345862Y-97764376D01*
X151257604Y-97929497D01*
X151203253Y-98108666D01*
X151203252Y-98108668D01*
X151184901Y-98295000D01*
X147280500Y-98295000D01*
X147280500Y-97150000D01*
X149204901Y-97150000D01*
X149223252Y-97336331D01*
X149223253Y-97336333D01*
X149277604Y-97515502D01*
X149365862Y-97680623D01*
X149365864Y-97680626D01*
X149484642Y-97825357D01*
X149629373Y-97944135D01*
X149629376Y-97944137D01*
X149783820Y-98026688D01*
X149794499Y-98032396D01*
X149973666Y-98086746D01*
X149973668Y-98086747D01*
X149990374Y-98088392D01*
X150160000Y-98105099D01*
X150346331Y-98086747D01*
X150525501Y-98032396D01*
X150690625Y-97944136D01*
X150835357Y-97825357D01*
X150954136Y-97680625D01*
X151042396Y-97515501D01*
X151096747Y-97336331D01*
X151115099Y-97150000D01*
X153164901Y-97150000D01*
X153183252Y-97336331D01*
X153183253Y-97336333D01*
X153237604Y-97515502D01*
X153325862Y-97680623D01*
X153325864Y-97680626D01*
X153444642Y-97825357D01*
X153589373Y-97944135D01*
X153589376Y-97944137D01*
X153743820Y-98026688D01*
X153754499Y-98032396D01*
X153933666Y-98086746D01*
X153933668Y-98086747D01*
X153950374Y-98088392D01*
X154120000Y-98105099D01*
X154306331Y-98086747D01*
X154485501Y-98032396D01*
X154650625Y-97944136D01*
X154795357Y-97825357D01*
X154914136Y-97680625D01*
X155002396Y-97515501D01*
X155056747Y-97336331D01*
X155075099Y-97150000D01*
X155056747Y-96963669D01*
X155002396Y-96784499D01*
X154914136Y-96619375D01*
X154914135Y-96619373D01*
X154795357Y-96474642D01*
X154650626Y-96355864D01*
X154650623Y-96355862D01*
X154485502Y-96267604D01*
X154306333Y-96213253D01*
X154306331Y-96213252D01*
X154120000Y-96194901D01*
X153933668Y-96213252D01*
X153933666Y-96213253D01*
X153754497Y-96267604D01*
X153589376Y-96355862D01*
X153589373Y-96355864D01*
X153444642Y-96474642D01*
X153325864Y-96619373D01*
X153325862Y-96619376D01*
X153237604Y-96784497D01*
X153183253Y-96963666D01*
X153183252Y-96963668D01*
X153164901Y-97150000D01*
X151115099Y-97150000D01*
X151096747Y-96963669D01*
X151042396Y-96784499D01*
X150954136Y-96619375D01*
X150954135Y-96619373D01*
X150835357Y-96474642D01*
X150690626Y-96355864D01*
X150690623Y-96355862D01*
X150525502Y-96267604D01*
X150346333Y-96213253D01*
X150346331Y-96213252D01*
X150160000Y-96194901D01*
X149973668Y-96213252D01*
X149973666Y-96213253D01*
X149794497Y-96267604D01*
X149629376Y-96355862D01*
X149629373Y-96355864D01*
X149484642Y-96474642D01*
X149365864Y-96619373D01*
X149365862Y-96619376D01*
X149277604Y-96784497D01*
X149223253Y-96963666D01*
X149223252Y-96963668D01*
X149204901Y-97150000D01*
X147280500Y-97150000D01*
X147280500Y-96005000D01*
X151214932Y-96005000D01*
X151235147Y-96197333D01*
X151235149Y-96197338D01*
X151294904Y-96381250D01*
X151294908Y-96381259D01*
X151337103Y-96454342D01*
X151657037Y-96134408D01*
X151674075Y-96197993D01*
X151739901Y-96312007D01*
X151832993Y-96405099D01*
X151947007Y-96470925D01*
X152010590Y-96487962D01*
X151687814Y-96810738D01*
X151687814Y-96810739D01*
X151854133Y-96884790D01*
X151854138Y-96884792D01*
X152043305Y-96925000D01*
X152236695Y-96925000D01*
X152425861Y-96884792D01*
X152425866Y-96884790D01*
X152592184Y-96810739D01*
X152592184Y-96810738D01*
X152269409Y-96487962D01*
X152332993Y-96470925D01*
X152447007Y-96405099D01*
X152540099Y-96312007D01*
X152605925Y-96197993D01*
X152622962Y-96134409D01*
X152942895Y-96454342D01*
X152942896Y-96454341D01*
X152985092Y-96381258D01*
X153044850Y-96197338D01*
X153044852Y-96197333D01*
X153065067Y-96005000D01*
X153044852Y-95812666D01*
X153044850Y-95812661D01*
X152985092Y-95628741D01*
X152942895Y-95555656D01*
X152622962Y-95875589D01*
X152605925Y-95812007D01*
X152540099Y-95697993D01*
X152447007Y-95604901D01*
X152332993Y-95539075D01*
X152269409Y-95522037D01*
X152592185Y-95199260D01*
X152425859Y-95125207D01*
X152425861Y-95125207D01*
X152236695Y-95085000D01*
X152043305Y-95085000D01*
X151854139Y-95125207D01*
X151687813Y-95199260D01*
X152010591Y-95522037D01*
X151947007Y-95539075D01*
X151832993Y-95604901D01*
X151739901Y-95697993D01*
X151674075Y-95812007D01*
X151657037Y-95875590D01*
X151337103Y-95555657D01*
X151294907Y-95628742D01*
X151235148Y-95812664D01*
X151235147Y-95812666D01*
X151214932Y-96005000D01*
X147280500Y-96005000D01*
X147280500Y-94860000D01*
X149204901Y-94860000D01*
X149223252Y-95046331D01*
X149223253Y-95046333D01*
X149277604Y-95225502D01*
X149365862Y-95390623D01*
X149365864Y-95390626D01*
X149484642Y-95535357D01*
X149629373Y-95654135D01*
X149629376Y-95654137D01*
X149668117Y-95674844D01*
X149794499Y-95742396D01*
X149941561Y-95787007D01*
X149973666Y-95796746D01*
X149973668Y-95796747D01*
X149990374Y-95798392D01*
X150160000Y-95815099D01*
X150346331Y-95796747D01*
X150525501Y-95742396D01*
X150690625Y-95654136D01*
X150835357Y-95535357D01*
X150954136Y-95390625D01*
X151042396Y-95225501D01*
X151096747Y-95046331D01*
X151115099Y-94860000D01*
X153194932Y-94860000D01*
X153215147Y-95052333D01*
X153215149Y-95052338D01*
X153274904Y-95236250D01*
X153274908Y-95236259D01*
X153317103Y-95309342D01*
X153637037Y-94989408D01*
X153654075Y-95052993D01*
X153719901Y-95167007D01*
X153812993Y-95260099D01*
X153927007Y-95325925D01*
X153990590Y-95342962D01*
X153667814Y-95665738D01*
X153667814Y-95665739D01*
X153834133Y-95739790D01*
X153834138Y-95739792D01*
X154023305Y-95780000D01*
X154216695Y-95780000D01*
X154405861Y-95739792D01*
X154405866Y-95739790D01*
X154572184Y-95665739D01*
X154572184Y-95665738D01*
X154249409Y-95342962D01*
X154312993Y-95325925D01*
X154427007Y-95260099D01*
X154520099Y-95167007D01*
X154585925Y-95052993D01*
X154602962Y-94989409D01*
X154922895Y-95309342D01*
X154922896Y-95309341D01*
X154965092Y-95236258D01*
X155024850Y-95052338D01*
X155024852Y-95052333D01*
X155045067Y-94860000D01*
X155024852Y-94667666D01*
X155024850Y-94667661D01*
X154965092Y-94483741D01*
X154922895Y-94410656D01*
X154602962Y-94730589D01*
X154585925Y-94667007D01*
X154520099Y-94552993D01*
X154427007Y-94459901D01*
X154312993Y-94394075D01*
X154249409Y-94377037D01*
X154572185Y-94054260D01*
X154405859Y-93980207D01*
X154405861Y-93980207D01*
X154216695Y-93940000D01*
X154023305Y-93940000D01*
X153834139Y-93980207D01*
X153667813Y-94054260D01*
X153990591Y-94377037D01*
X153927007Y-94394075D01*
X153812993Y-94459901D01*
X153719901Y-94552993D01*
X153654075Y-94667007D01*
X153637037Y-94730590D01*
X153317103Y-94410657D01*
X153274907Y-94483742D01*
X153215148Y-94667664D01*
X153215147Y-94667666D01*
X153194932Y-94860000D01*
X151115099Y-94860000D01*
X151096747Y-94673669D01*
X151042396Y-94494499D01*
X150997582Y-94410657D01*
X150954137Y-94329376D01*
X150954135Y-94329373D01*
X150835357Y-94184642D01*
X150690626Y-94065864D01*
X150690623Y-94065862D01*
X150525502Y-93977604D01*
X150346333Y-93923253D01*
X150346331Y-93923252D01*
X150160000Y-93904901D01*
X149973668Y-93923252D01*
X149973666Y-93923253D01*
X149794497Y-93977604D01*
X149629376Y-94065862D01*
X149629373Y-94065864D01*
X149484642Y-94184642D01*
X149365864Y-94329373D01*
X149365862Y-94329376D01*
X149277604Y-94494497D01*
X149223253Y-94673666D01*
X149223252Y-94673668D01*
X149204901Y-94860000D01*
X147280500Y-94860000D01*
X147280500Y-87195000D01*
X149932273Y-87195000D01*
X149951160Y-87483168D01*
X149951161Y-87483173D01*
X150007497Y-87766394D01*
X150007501Y-87766409D01*
X150100324Y-88039856D01*
X150100333Y-88039877D01*
X150228048Y-88298856D01*
X150228055Y-88298869D01*
X150388490Y-88538976D01*
X150413710Y-88567735D01*
X150845747Y-88135697D01*
X150919588Y-88237330D01*
X151097670Y-88415412D01*
X151199300Y-88489251D01*
X150767263Y-88921288D01*
X150767263Y-88921289D01*
X150796019Y-88946507D01*
X151036130Y-89106944D01*
X151036143Y-89106951D01*
X151295122Y-89234666D01*
X151295143Y-89234675D01*
X151568590Y-89327498D01*
X151568605Y-89327502D01*
X151851826Y-89383838D01*
X151851831Y-89383839D01*
X152140000Y-89402726D01*
X152428168Y-89383839D01*
X152428173Y-89383838D01*
X152711394Y-89327502D01*
X152711409Y-89327498D01*
X152984856Y-89234675D01*
X152984877Y-89234666D01*
X153243856Y-89106951D01*
X153243869Y-89106944D01*
X153483978Y-88946508D01*
X153483982Y-88946505D01*
X153512734Y-88921289D01*
X153512734Y-88921288D01*
X153080698Y-88489251D01*
X153182330Y-88415412D01*
X153360412Y-88237330D01*
X153434251Y-88135698D01*
X153866288Y-88567734D01*
X153866289Y-88567734D01*
X153891505Y-88538982D01*
X153891508Y-88538978D01*
X154051944Y-88298869D01*
X154051951Y-88298856D01*
X154179666Y-88039877D01*
X154179675Y-88039856D01*
X154272498Y-87766409D01*
X154272502Y-87766394D01*
X154328838Y-87483173D01*
X154328839Y-87483168D01*
X154347726Y-87195000D01*
X154328839Y-86906831D01*
X154328838Y-86906826D01*
X154272502Y-86623605D01*
X154272498Y-86623590D01*
X154179675Y-86350143D01*
X154179666Y-86350122D01*
X154051953Y-86091146D01*
X154051944Y-86091131D01*
X153891507Y-85851019D01*
X153866288Y-85822263D01*
X153434250Y-86254300D01*
X153360412Y-86152670D01*
X153182330Y-85974588D01*
X153080697Y-85900747D01*
X153512735Y-85468710D01*
X153483976Y-85443490D01*
X153243869Y-85283055D01*
X153243856Y-85283048D01*
X152984877Y-85155333D01*
X152984856Y-85155324D01*
X152711409Y-85062501D01*
X152711394Y-85062497D01*
X152428173Y-85006161D01*
X152428168Y-85006160D01*
X152140000Y-84987273D01*
X151851831Y-85006160D01*
X151851826Y-85006161D01*
X151568605Y-85062497D01*
X151568590Y-85062501D01*
X151295143Y-85155324D01*
X151295122Y-85155333D01*
X151036146Y-85283046D01*
X151036131Y-85283055D01*
X150796019Y-85443493D01*
X150796012Y-85443498D01*
X150767264Y-85468708D01*
X150767264Y-85468710D01*
X151199301Y-85900747D01*
X151097670Y-85974588D01*
X150919588Y-86152670D01*
X150845748Y-86254301D01*
X150413710Y-85822264D01*
X150413708Y-85822264D01*
X150388498Y-85851012D01*
X150388493Y-85851019D01*
X150228055Y-86091131D01*
X150228046Y-86091146D01*
X150100333Y-86350122D01*
X150100324Y-86350143D01*
X150007501Y-86623590D01*
X150007497Y-86623605D01*
X149951161Y-86906826D01*
X149951160Y-86906831D01*
X149932273Y-87195000D01*
X147280500Y-87195000D01*
X147280500Y-87022706D01*
X147280618Y-87017297D01*
X147285441Y-86906826D01*
X147298528Y-86607070D01*
X147299468Y-86596339D01*
X147352712Y-86191912D01*
X147354584Y-86181293D01*
X147442875Y-85783033D01*
X147445662Y-85772633D01*
X147568330Y-85383578D01*
X147572014Y-85373457D01*
X147728120Y-84996585D01*
X147732678Y-84986811D01*
X147921038Y-84624974D01*
X147926414Y-84615663D01*
X148145599Y-84271612D01*
X148151783Y-84262780D01*
X148400106Y-83939160D01*
X148407044Y-83930891D01*
X148682623Y-83630150D01*
X148690250Y-83622523D01*
X148990990Y-83346944D01*
X148999259Y-83340006D01*
X149322873Y-83091688D01*
X149331713Y-83085498D01*
X149675749Y-82866323D01*
X149685094Y-82860928D01*
X150046910Y-82672578D01*
X150056684Y-82668020D01*
X150433556Y-82511915D01*
X150443684Y-82508229D01*
X150832716Y-82385568D01*
X150843137Y-82382775D01*
X151241389Y-82294484D01*
X151252019Y-82292610D01*
X151656438Y-82239368D01*
X151667169Y-82238428D01*
X152075106Y-82220617D01*
X152080515Y-82220500D01*
X165825597Y-82220500D01*
X165830256Y-82220959D01*
G37*
%TD.AperFunction*%
%TD*%
%TA.AperFunction,Conductor*%
%TO.N,/R*%
G36*
X164081250Y-90113234D02*
G01*
X164087574Y-90119575D01*
X164087891Y-90120436D01*
X164182200Y-90411913D01*
X164182637Y-90413769D01*
X164217326Y-90643568D01*
X164217385Y-90644015D01*
X164239897Y-90845548D01*
X164301407Y-91062284D01*
X164448019Y-91328824D01*
X164449004Y-91337725D01*
X164444268Y-91344191D01*
X164295078Y-91443883D01*
X164286296Y-91445630D01*
X164280114Y-91442232D01*
X164084517Y-91237227D01*
X164084515Y-91237226D01*
X163881283Y-91172514D01*
X163881280Y-91172513D01*
X163881279Y-91172513D01*
X163881278Y-91172513D01*
X163881273Y-91172512D01*
X163659507Y-91179319D01*
X163659259Y-91179324D01*
X163402515Y-91181762D01*
X163399579Y-91181417D01*
X163101563Y-91107272D01*
X163094362Y-91101949D01*
X163093034Y-91093093D01*
X163093570Y-91091462D01*
X163377590Y-90403660D01*
X163383911Y-90397325D01*
X164072297Y-90113223D01*
X164081250Y-90113234D01*
G37*
%TD.AperFunction*%
%TD*%
%TA.AperFunction,Conductor*%
%TO.N,/R*%
G36*
X155336330Y-102675671D02*
G01*
X155464918Y-102804259D01*
X155468345Y-102812532D01*
X155466975Y-102818025D01*
X155350840Y-103036416D01*
X155350828Y-103036440D01*
X155230627Y-103301481D01*
X155110413Y-103605556D01*
X154990211Y-103948595D01*
X154873829Y-104318487D01*
X154868077Y-104325350D01*
X154859156Y-104326136D01*
X154858203Y-104325789D01*
X154123786Y-104022562D01*
X154117448Y-104016239D01*
X153815110Y-103283974D01*
X153815120Y-103275020D01*
X153821459Y-103268696D01*
X153824313Y-103267921D01*
X154113395Y-103227791D01*
X154417451Y-103146583D01*
X154721507Y-103026376D01*
X155025563Y-102867168D01*
X155025567Y-102867165D01*
X155025578Y-102867159D01*
X155321668Y-102674143D01*
X155330470Y-102672495D01*
X155336330Y-102675671D01*
G37*
%TD.AperFunction*%
%TD*%
%TA.AperFunction,Conductor*%
%TO.N,/G*%
G36*
X163092857Y-92246885D02*
G01*
X163093346Y-92247916D01*
X163379133Y-92935510D01*
X163379144Y-92944464D01*
X163379133Y-92944490D01*
X163093346Y-93632083D01*
X163087006Y-93638408D01*
X163078052Y-93638397D01*
X163077021Y-93637908D01*
X162783583Y-93480838D01*
X162781824Y-93479682D01*
X162578409Y-93317997D01*
X162578341Y-93317943D01*
X162403662Y-93176975D01*
X162186821Y-93077607D01*
X162186816Y-93077605D01*
X162186815Y-93077605D01*
X162142416Y-93072558D01*
X161866378Y-93041179D01*
X161858545Y-93036840D01*
X161856000Y-93029554D01*
X161856000Y-92850445D01*
X161859427Y-92842172D01*
X161866377Y-92838820D01*
X162186815Y-92802394D01*
X162403662Y-92703023D01*
X162578341Y-92562056D01*
X162578343Y-92562058D01*
X162578386Y-92562019D01*
X162781833Y-92400309D01*
X162783573Y-92399166D01*
X163077023Y-92242090D01*
X163085932Y-92241208D01*
X163092857Y-92246885D01*
G37*
%TD.AperFunction*%
%TD*%
%TA.AperFunction,Conductor*%
%TO.N,/G*%
G36*
X155117338Y-100606019D02*
G01*
X155243980Y-100732661D01*
X155247407Y-100740934D01*
X155244859Y-100748224D01*
X155047269Y-100996281D01*
X154965218Y-101216136D01*
X154941383Y-101435486D01*
X154941374Y-101435566D01*
X154912006Y-101689496D01*
X154911580Y-101691546D01*
X154816651Y-102004671D01*
X154810971Y-102011595D01*
X154802060Y-102012474D01*
X154800990Y-102012092D01*
X154123788Y-101732562D01*
X154117448Y-101726238D01*
X154117437Y-101726211D01*
X153837907Y-101049009D01*
X153837918Y-101040054D01*
X153844258Y-101033730D01*
X153845310Y-101033353D01*
X154158456Y-100938417D01*
X154160501Y-100937992D01*
X154414432Y-100908625D01*
X154633865Y-100884779D01*
X154853717Y-100802730D01*
X155101776Y-100605139D01*
X155110382Y-100602666D01*
X155117338Y-100606019D01*
G37*
%TD.AperFunction*%
%TD*%
%TA.AperFunction,Conductor*%
%TO.N,/B*%
G36*
X162687944Y-95193323D02*
G01*
X163376211Y-95477437D01*
X163382551Y-95483762D01*
X163382562Y-95483788D01*
X163666691Y-96172092D01*
X163666680Y-96181046D01*
X163660340Y-96187371D01*
X163659285Y-96187748D01*
X163341930Y-96284407D01*
X163339912Y-96284832D01*
X163082925Y-96315597D01*
X163082863Y-96315604D01*
X162860996Y-96340961D01*
X162860990Y-96340962D01*
X162638568Y-96425109D01*
X162638563Y-96425111D01*
X162387251Y-96625816D01*
X162378648Y-96628301D01*
X162371677Y-96624947D01*
X162245025Y-96498295D01*
X162241598Y-96490022D01*
X162244128Y-96482755D01*
X162444580Y-96229823D01*
X162526124Y-96005364D01*
X162548041Y-95781202D01*
X162575968Y-95522057D01*
X162576393Y-95519959D01*
X162672284Y-95200775D01*
X162677946Y-95193838D01*
X162686855Y-95192937D01*
X162687944Y-95193323D01*
G37*
%TD.AperFunction*%
%TD*%
%TA.AperFunction,Conductor*%
%TO.N,/SDA*%
G36*
X160036889Y-107747738D02*
G01*
X160162669Y-107873518D01*
X160166096Y-107881791D01*
X160163323Y-107889354D01*
X160102273Y-107961416D01*
X160068770Y-108028467D01*
X160052337Y-108094847D01*
X160035691Y-108172402D01*
X160035339Y-108173683D01*
X160004953Y-108263850D01*
X159999064Y-108270596D01*
X159990130Y-108271201D01*
X159989429Y-108270940D01*
X159773824Y-108182564D01*
X159767468Y-108176255D01*
X159767435Y-108176175D01*
X159766156Y-108173054D01*
X159678817Y-107959979D01*
X159678850Y-107951026D01*
X159685206Y-107944717D01*
X159685306Y-107944676D01*
X159770258Y-107910983D01*
X159839364Y-107883240D01*
X159839373Y-107883234D01*
X159839378Y-107883233D01*
X159861461Y-107871661D01*
X159895958Y-107853587D01*
X159954355Y-107809815D01*
X160020600Y-107747489D01*
X160028972Y-107744316D01*
X160036889Y-107747738D01*
G37*
%TD.AperFunction*%
%TD*%
%TA.AperFunction,Conductor*%
%TO.N,/SDA*%
G36*
X162687928Y-102813317D02*
G01*
X163376211Y-103097437D01*
X163382551Y-103103762D01*
X163382562Y-103103788D01*
X163666682Y-103792071D01*
X163666671Y-103801025D01*
X163660331Y-103807350D01*
X163659257Y-103807733D01*
X163340699Y-103904160D01*
X163338638Y-103904586D01*
X163080475Y-103934094D01*
X163080388Y-103934104D01*
X162968790Y-103946022D01*
X162857192Y-103957941D01*
X162857190Y-103957941D01*
X162633595Y-104041007D01*
X162381253Y-104241836D01*
X162372646Y-104244306D01*
X162365694Y-104240954D01*
X162239045Y-104114305D01*
X162235618Y-104106032D01*
X162238163Y-104098746D01*
X162284113Y-104041009D01*
X162438989Y-103846405D01*
X162522057Y-103622805D01*
X162545895Y-103399610D01*
X162545899Y-103399610D01*
X162545903Y-103399539D01*
X162575414Y-103141348D01*
X162575835Y-103139308D01*
X162672266Y-102820740D01*
X162677943Y-102813817D01*
X162686854Y-102812934D01*
X162687928Y-102813317D01*
G37*
%TD.AperFunction*%
%TD*%
%TA.AperFunction,Conductor*%
%TO.N,/VSync*%
G36*
X162687928Y-100273317D02*
G01*
X163376211Y-100557437D01*
X163382551Y-100563762D01*
X163382562Y-100563788D01*
X163666682Y-101252071D01*
X163666671Y-101261025D01*
X163660331Y-101267350D01*
X163659257Y-101267733D01*
X163340699Y-101364160D01*
X163338638Y-101364586D01*
X163080475Y-101394094D01*
X163080388Y-101394104D01*
X162968790Y-101406022D01*
X162857192Y-101417941D01*
X162857190Y-101417941D01*
X162633595Y-101501007D01*
X162381253Y-101701836D01*
X162372646Y-101704306D01*
X162365694Y-101700954D01*
X162239045Y-101574305D01*
X162235618Y-101566032D01*
X162238163Y-101558746D01*
X162284113Y-101501009D01*
X162438989Y-101306405D01*
X162522057Y-101082805D01*
X162545895Y-100859610D01*
X162545899Y-100859610D01*
X162545903Y-100859539D01*
X162575414Y-100601348D01*
X162575835Y-100599308D01*
X162672266Y-100280740D01*
X162677943Y-100273817D01*
X162686854Y-100272934D01*
X162687928Y-100273317D01*
G37*
%TD.AperFunction*%
%TD*%
%TA.AperFunction,Conductor*%
%TO.N,/VSync*%
G36*
X157360669Y-107663562D02*
G01*
X157486436Y-107789329D01*
X157489863Y-107797602D01*
X157486882Y-107805404D01*
X157424265Y-107875377D01*
X157384730Y-107938763D01*
X157384728Y-107938766D01*
X157360862Y-108000899D01*
X157337967Y-108075035D01*
X157337769Y-108075622D01*
X157305159Y-108164281D01*
X157299087Y-108170863D01*
X157290139Y-108171223D01*
X157289741Y-108171068D01*
X157073824Y-108082564D01*
X157067468Y-108076255D01*
X157067435Y-108076175D01*
X157067208Y-108075622D01*
X156978931Y-107860257D01*
X156978964Y-107851304D01*
X156985320Y-107844995D01*
X156985690Y-107844850D01*
X157074390Y-107812222D01*
X157074946Y-107812035D01*
X157149104Y-107789135D01*
X157211234Y-107765268D01*
X157274623Y-107725732D01*
X157344597Y-107663114D01*
X157353044Y-107660153D01*
X157360669Y-107663562D01*
G37*
%TD.AperFunction*%
%TD*%
%TA.AperFunction,Conductor*%
%TO.N,/HSync*%
G36*
X162687928Y-97733317D02*
G01*
X163376211Y-98017437D01*
X163382551Y-98023762D01*
X163382562Y-98023788D01*
X163666682Y-98712071D01*
X163666671Y-98721025D01*
X163660331Y-98727350D01*
X163659257Y-98727733D01*
X163340699Y-98824160D01*
X163338638Y-98824586D01*
X163080475Y-98854094D01*
X163080388Y-98854104D01*
X162968790Y-98866022D01*
X162857192Y-98877941D01*
X162857190Y-98877941D01*
X162633595Y-98961007D01*
X162381253Y-99161836D01*
X162372646Y-99164306D01*
X162365694Y-99160954D01*
X162239045Y-99034305D01*
X162235618Y-99026032D01*
X162238163Y-99018746D01*
X162284113Y-98961009D01*
X162438989Y-98766405D01*
X162522057Y-98542805D01*
X162545895Y-98319610D01*
X162545899Y-98319610D01*
X162545903Y-98319539D01*
X162575414Y-98061348D01*
X162575835Y-98059308D01*
X162672266Y-97740740D01*
X162677943Y-97733817D01*
X162686854Y-97732934D01*
X162687928Y-97733317D01*
G37*
%TD.AperFunction*%
%TD*%
%TA.AperFunction,Conductor*%
%TO.N,/HSync*%
G36*
X149479009Y-99157907D02*
G01*
X150156211Y-99437437D01*
X150162551Y-99443761D01*
X150162562Y-99443788D01*
X150442092Y-100120990D01*
X150442081Y-100129945D01*
X150435741Y-100136269D01*
X150434671Y-100136651D01*
X150121546Y-100231580D01*
X150119496Y-100232006D01*
X149865609Y-100261368D01*
X149865529Y-100261377D01*
X149646136Y-100285218D01*
X149426281Y-100367269D01*
X149178224Y-100564859D01*
X149169617Y-100567333D01*
X149162661Y-100563980D01*
X149036019Y-100437338D01*
X149032592Y-100429065D01*
X149035139Y-100421777D01*
X149232730Y-100173717D01*
X149314779Y-99953865D01*
X149338625Y-99734432D01*
X149367992Y-99480501D01*
X149368418Y-99478453D01*
X149463349Y-99165325D01*
X149469028Y-99158404D01*
X149477940Y-99157525D01*
X149479009Y-99157907D01*
G37*
%TD.AperFunction*%
%TD*%
M02*
