M48
; DRILL file {KiCad 8.0.6} date 2024-11-06T21:47:23-0500
; FORMAT={-:-/ absolute / metric / decimal}
; #@! TF.CreationDate,2024-11-06T21:47:23-05:00
; #@! TF.GenerationSoftware,Kicad,Pcbnew,8.0.6
; #@! TF.FileFunction,Plated,1,2,PTH
FMAT,2
METRIC
; #@! TA.AperFunction,Plated,PTH,ViaDrill
T1C0.200
; #@! TA.AperFunction,Plated,PTH,ComponentDrill
T2C1.000
; #@! TA.AperFunction,Plated,PTH,ComponentDrill
T3C3.200
%
G90
G05
T1
X157.07Y-108.08
X157.52Y-102.84
X159.77Y-108.18
T2
X150.16Y-94.86
X150.16Y-97.15
X150.16Y-99.44
X150.16Y-101.73
X150.16Y-104.02
X152.14Y-96.005
X152.14Y-98.295
X152.14Y-100.585
X152.14Y-102.875
X152.14Y-105.165
X154.12Y-94.86
X154.12Y-97.15
X154.12Y-99.44
X154.12Y-101.73
X154.12Y-104.02
X163.38Y-90.4
X163.38Y-92.94
X163.38Y-95.48
X163.38Y-98.02
X163.38Y-100.56
X163.38Y-103.1
X163.38Y-105.64
X165.92Y-90.4
X165.92Y-92.94
X165.92Y-95.48
X165.92Y-98.02
X165.92Y-100.56
X165.92Y-103.1
X165.92Y-105.64
T3
X152.14Y-87.195
X152.14Y-112.185
M30
