%TF.GenerationSoftware,KiCad,Pcbnew,8.0.6*%
%TF.CreationDate,2024-11-06T21:47:23-05:00*%
%TF.ProjectId,VGA Input Board,56474120-496e-4707-9574-20426f617264,rev?*%
%TF.SameCoordinates,Original*%
%TF.FileFunction,Drillmap*%
%TF.FilePolarity,Positive*%
%FSLAX45Y45*%
G04 Gerber Fmt 4.5, Leading zero omitted, Abs format (unit mm)*
G04 Created by KiCad (PCBNEW 8.0.6) date 2024-11-06 21:47:23*
%MOMM*%
%LPD*%
G01*
G04 APERTURE LIST*
%ADD10C,0.020000*%
%ADD11C,0.200000*%
%ADD12C,0.100000*%
%ADD13C,0.320000*%
G04 APERTURE END LIST*
D10*
X14858000Y-11602000D02*
G75*
G02*
X14708010Y-11451953I50J150040D01*
G01*
X16738000Y-11102000D02*
G75*
G02*
X16237990Y-11602010I-500010J0D01*
G01*
X15208000Y-8202000D02*
X16588000Y-8202000D01*
X14708000Y-8702000D02*
X14708000Y-11452000D01*
X16738000Y-11102000D02*
X16738000Y-8352000D01*
X16588000Y-8202046D02*
G75*
G02*
X16738004Y-8352000I0J-150004D01*
G01*
X14858000Y-11602000D02*
X16238000Y-11602000D01*
X14708000Y-8702000D02*
G75*
G02*
X15208010Y-8201990I500010J0D01*
G01*
D11*
D12*
X15697000Y-10798000D02*
X15717000Y-10818000D01*
X15717000Y-10798000D02*
X15697000Y-10818000D01*
X15742000Y-10274000D02*
X15762000Y-10294000D01*
X15762000Y-10274000D02*
X15742000Y-10294000D01*
X15967000Y-10808000D02*
X15987000Y-10828000D01*
X15987000Y-10808000D02*
X15967000Y-10828000D01*
X15066000Y-9486000D02*
G75*
G02*
X14966000Y-9486000I-50000J0D01*
G01*
X14966000Y-9486000D02*
G75*
G02*
X15066000Y-9486000I50000J0D01*
G01*
X15066000Y-9715000D02*
G75*
G02*
X14966000Y-9715000I-50000J0D01*
G01*
X14966000Y-9715000D02*
G75*
G02*
X15066000Y-9715000I50000J0D01*
G01*
X15066000Y-9944000D02*
G75*
G02*
X14966000Y-9944000I-50000J0D01*
G01*
X14966000Y-9944000D02*
G75*
G02*
X15066000Y-9944000I50000J0D01*
G01*
X15066000Y-10173000D02*
G75*
G02*
X14966000Y-10173000I-50000J0D01*
G01*
X14966000Y-10173000D02*
G75*
G02*
X15066000Y-10173000I50000J0D01*
G01*
X15066000Y-10402000D02*
G75*
G02*
X14966000Y-10402000I-50000J0D01*
G01*
X14966000Y-10402000D02*
G75*
G02*
X15066000Y-10402000I50000J0D01*
G01*
X15264000Y-9600500D02*
G75*
G02*
X15164000Y-9600500I-50000J0D01*
G01*
X15164000Y-9600500D02*
G75*
G02*
X15264000Y-9600500I50000J0D01*
G01*
X15264000Y-9829500D02*
G75*
G02*
X15164000Y-9829500I-50000J0D01*
G01*
X15164000Y-9829500D02*
G75*
G02*
X15264000Y-9829500I50000J0D01*
G01*
X15264000Y-10058500D02*
G75*
G02*
X15164000Y-10058500I-50000J0D01*
G01*
X15164000Y-10058500D02*
G75*
G02*
X15264000Y-10058500I50000J0D01*
G01*
X15264000Y-10287500D02*
G75*
G02*
X15164000Y-10287500I-50000J0D01*
G01*
X15164000Y-10287500D02*
G75*
G02*
X15264000Y-10287500I50000J0D01*
G01*
X15264000Y-10516500D02*
G75*
G02*
X15164000Y-10516500I-50000J0D01*
G01*
X15164000Y-10516500D02*
G75*
G02*
X15264000Y-10516500I50000J0D01*
G01*
X15462000Y-9486000D02*
G75*
G02*
X15362000Y-9486000I-50000J0D01*
G01*
X15362000Y-9486000D02*
G75*
G02*
X15462000Y-9486000I50000J0D01*
G01*
X15462000Y-9715000D02*
G75*
G02*
X15362000Y-9715000I-50000J0D01*
G01*
X15362000Y-9715000D02*
G75*
G02*
X15462000Y-9715000I50000J0D01*
G01*
X15462000Y-9944000D02*
G75*
G02*
X15362000Y-9944000I-50000J0D01*
G01*
X15362000Y-9944000D02*
G75*
G02*
X15462000Y-9944000I50000J0D01*
G01*
X15462000Y-10173000D02*
G75*
G02*
X15362000Y-10173000I-50000J0D01*
G01*
X15362000Y-10173000D02*
G75*
G02*
X15462000Y-10173000I50000J0D01*
G01*
X15462000Y-10402000D02*
G75*
G02*
X15362000Y-10402000I-50000J0D01*
G01*
X15362000Y-10402000D02*
G75*
G02*
X15462000Y-10402000I50000J0D01*
G01*
X16388000Y-9040000D02*
G75*
G02*
X16288000Y-9040000I-50000J0D01*
G01*
X16288000Y-9040000D02*
G75*
G02*
X16388000Y-9040000I50000J0D01*
G01*
X16388000Y-9294000D02*
G75*
G02*
X16288000Y-9294000I-50000J0D01*
G01*
X16288000Y-9294000D02*
G75*
G02*
X16388000Y-9294000I50000J0D01*
G01*
X16388000Y-9548000D02*
G75*
G02*
X16288000Y-9548000I-50000J0D01*
G01*
X16288000Y-9548000D02*
G75*
G02*
X16388000Y-9548000I50000J0D01*
G01*
X16388000Y-9802000D02*
G75*
G02*
X16288000Y-9802000I-50000J0D01*
G01*
X16288000Y-9802000D02*
G75*
G02*
X16388000Y-9802000I50000J0D01*
G01*
X16388000Y-10056000D02*
G75*
G02*
X16288000Y-10056000I-50000J0D01*
G01*
X16288000Y-10056000D02*
G75*
G02*
X16388000Y-10056000I50000J0D01*
G01*
X16388000Y-10310000D02*
G75*
G02*
X16288000Y-10310000I-50000J0D01*
G01*
X16288000Y-10310000D02*
G75*
G02*
X16388000Y-10310000I50000J0D01*
G01*
X16388000Y-10564000D02*
G75*
G02*
X16288000Y-10564000I-50000J0D01*
G01*
X16288000Y-10564000D02*
G75*
G02*
X16388000Y-10564000I50000J0D01*
G01*
X16642000Y-9040000D02*
G75*
G02*
X16542000Y-9040000I-50000J0D01*
G01*
X16542000Y-9040000D02*
G75*
G02*
X16642000Y-9040000I50000J0D01*
G01*
X16642000Y-9294000D02*
G75*
G02*
X16542000Y-9294000I-50000J0D01*
G01*
X16542000Y-9294000D02*
G75*
G02*
X16642000Y-9294000I50000J0D01*
G01*
X16642000Y-9548000D02*
G75*
G02*
X16542000Y-9548000I-50000J0D01*
G01*
X16542000Y-9548000D02*
G75*
G02*
X16642000Y-9548000I50000J0D01*
G01*
X16642000Y-9802000D02*
G75*
G02*
X16542000Y-9802000I-50000J0D01*
G01*
X16542000Y-9802000D02*
G75*
G02*
X16642000Y-9802000I50000J0D01*
G01*
X16642000Y-10056000D02*
G75*
G02*
X16542000Y-10056000I-50000J0D01*
G01*
X16542000Y-10056000D02*
G75*
G02*
X16642000Y-10056000I50000J0D01*
G01*
X16642000Y-10310000D02*
G75*
G02*
X16542000Y-10310000I-50000J0D01*
G01*
X16542000Y-10310000D02*
G75*
G02*
X16642000Y-10310000I50000J0D01*
G01*
X16642000Y-10564000D02*
G75*
G02*
X16542000Y-10564000I-50000J0D01*
G01*
X16542000Y-10564000D02*
G75*
G02*
X16642000Y-10564000I50000J0D01*
G01*
D13*
X15214000Y-8559500D02*
X15214000Y-8879500D01*
X15054000Y-8719500D02*
X15374000Y-8719500D01*
X15214000Y-11058500D02*
X15214000Y-11378500D01*
X15054000Y-11218500D02*
X15374000Y-11218500D01*
D11*
X14967777Y-11914494D02*
X14967777Y-11714494D01*
X14967777Y-11714494D02*
X15015396Y-11714494D01*
X15015396Y-11714494D02*
X15043967Y-11724017D01*
X15043967Y-11724017D02*
X15063015Y-11743065D01*
X15063015Y-11743065D02*
X15072539Y-11762113D01*
X15072539Y-11762113D02*
X15082062Y-11800208D01*
X15082062Y-11800208D02*
X15082062Y-11828779D01*
X15082062Y-11828779D02*
X15072539Y-11866875D01*
X15072539Y-11866875D02*
X15063015Y-11885922D01*
X15063015Y-11885922D02*
X15043967Y-11904970D01*
X15043967Y-11904970D02*
X15015396Y-11914494D01*
X15015396Y-11914494D02*
X14967777Y-11914494D01*
X15167777Y-11914494D02*
X15167777Y-11781160D01*
X15167777Y-11819256D02*
X15177301Y-11800208D01*
X15177301Y-11800208D02*
X15186824Y-11790684D01*
X15186824Y-11790684D02*
X15205872Y-11781160D01*
X15205872Y-11781160D02*
X15224920Y-11781160D01*
X15291586Y-11914494D02*
X15291586Y-11781160D01*
X15291586Y-11714494D02*
X15282062Y-11724017D01*
X15282062Y-11724017D02*
X15291586Y-11733541D01*
X15291586Y-11733541D02*
X15301110Y-11724017D01*
X15301110Y-11724017D02*
X15291586Y-11714494D01*
X15291586Y-11714494D02*
X15291586Y-11733541D01*
X15415396Y-11914494D02*
X15396348Y-11904970D01*
X15396348Y-11904970D02*
X15386824Y-11885922D01*
X15386824Y-11885922D02*
X15386824Y-11714494D01*
X15520158Y-11914494D02*
X15501110Y-11904970D01*
X15501110Y-11904970D02*
X15491586Y-11885922D01*
X15491586Y-11885922D02*
X15491586Y-11714494D01*
X15748729Y-11914494D02*
X15748729Y-11714494D01*
X15748729Y-11714494D02*
X15815396Y-11857351D01*
X15815396Y-11857351D02*
X15882062Y-11714494D01*
X15882062Y-11714494D02*
X15882062Y-11914494D01*
X16063015Y-11914494D02*
X16063015Y-11809732D01*
X16063015Y-11809732D02*
X16053491Y-11790684D01*
X16053491Y-11790684D02*
X16034443Y-11781160D01*
X16034443Y-11781160D02*
X15996348Y-11781160D01*
X15996348Y-11781160D02*
X15977301Y-11790684D01*
X16063015Y-11904970D02*
X16043967Y-11914494D01*
X16043967Y-11914494D02*
X15996348Y-11914494D01*
X15996348Y-11914494D02*
X15977301Y-11904970D01*
X15977301Y-11904970D02*
X15967777Y-11885922D01*
X15967777Y-11885922D02*
X15967777Y-11866875D01*
X15967777Y-11866875D02*
X15977301Y-11847827D01*
X15977301Y-11847827D02*
X15996348Y-11838303D01*
X15996348Y-11838303D02*
X16043967Y-11838303D01*
X16043967Y-11838303D02*
X16063015Y-11828779D01*
X16158253Y-11781160D02*
X16158253Y-11981160D01*
X16158253Y-11790684D02*
X16177301Y-11781160D01*
X16177301Y-11781160D02*
X16215396Y-11781160D01*
X16215396Y-11781160D02*
X16234443Y-11790684D01*
X16234443Y-11790684D02*
X16243967Y-11800208D01*
X16243967Y-11800208D02*
X16253491Y-11819256D01*
X16253491Y-11819256D02*
X16253491Y-11876398D01*
X16253491Y-11876398D02*
X16243967Y-11895446D01*
X16243967Y-11895446D02*
X16234443Y-11904970D01*
X16234443Y-11904970D02*
X16215396Y-11914494D01*
X16215396Y-11914494D02*
X16177301Y-11914494D01*
X16177301Y-11914494D02*
X16158253Y-11904970D01*
X16339205Y-11895446D02*
X16348729Y-11904970D01*
X16348729Y-11904970D02*
X16339205Y-11914494D01*
X16339205Y-11914494D02*
X16329682Y-11904970D01*
X16329682Y-11904970D02*
X16339205Y-11895446D01*
X16339205Y-11895446D02*
X16339205Y-11914494D01*
X16339205Y-11790684D02*
X16348729Y-11800208D01*
X16348729Y-11800208D02*
X16339205Y-11809732D01*
X16339205Y-11809732D02*
X16329682Y-11800208D01*
X16329682Y-11800208D02*
X16339205Y-11790684D01*
X16339205Y-11790684D02*
X16339205Y-11809732D01*
D12*
X14687000Y-12233010D02*
X14707000Y-12253010D01*
X14707000Y-12233010D02*
X14687000Y-12253010D01*
D11*
X15005872Y-12134494D02*
X15024920Y-12134494D01*
X15024920Y-12134494D02*
X15043967Y-12144017D01*
X15043967Y-12144017D02*
X15053491Y-12153541D01*
X15053491Y-12153541D02*
X15063015Y-12172589D01*
X15063015Y-12172589D02*
X15072539Y-12210684D01*
X15072539Y-12210684D02*
X15072539Y-12258303D01*
X15072539Y-12258303D02*
X15063015Y-12296398D01*
X15063015Y-12296398D02*
X15053491Y-12315446D01*
X15053491Y-12315446D02*
X15043967Y-12324970D01*
X15043967Y-12324970D02*
X15024920Y-12334494D01*
X15024920Y-12334494D02*
X15005872Y-12334494D01*
X15005872Y-12334494D02*
X14986824Y-12324970D01*
X14986824Y-12324970D02*
X14977301Y-12315446D01*
X14977301Y-12315446D02*
X14967777Y-12296398D01*
X14967777Y-12296398D02*
X14958253Y-12258303D01*
X14958253Y-12258303D02*
X14958253Y-12210684D01*
X14958253Y-12210684D02*
X14967777Y-12172589D01*
X14967777Y-12172589D02*
X14977301Y-12153541D01*
X14977301Y-12153541D02*
X14986824Y-12144017D01*
X14986824Y-12144017D02*
X15005872Y-12134494D01*
X15158253Y-12315446D02*
X15167777Y-12324970D01*
X15167777Y-12324970D02*
X15158253Y-12334494D01*
X15158253Y-12334494D02*
X15148729Y-12324970D01*
X15148729Y-12324970D02*
X15158253Y-12315446D01*
X15158253Y-12315446D02*
X15158253Y-12334494D01*
X15243967Y-12153541D02*
X15253491Y-12144017D01*
X15253491Y-12144017D02*
X15272539Y-12134494D01*
X15272539Y-12134494D02*
X15320158Y-12134494D01*
X15320158Y-12134494D02*
X15339205Y-12144017D01*
X15339205Y-12144017D02*
X15348729Y-12153541D01*
X15348729Y-12153541D02*
X15358253Y-12172589D01*
X15358253Y-12172589D02*
X15358253Y-12191636D01*
X15358253Y-12191636D02*
X15348729Y-12220208D01*
X15348729Y-12220208D02*
X15234443Y-12334494D01*
X15234443Y-12334494D02*
X15358253Y-12334494D01*
X15482062Y-12134494D02*
X15501110Y-12134494D01*
X15501110Y-12134494D02*
X15520158Y-12144017D01*
X15520158Y-12144017D02*
X15529682Y-12153541D01*
X15529682Y-12153541D02*
X15539205Y-12172589D01*
X15539205Y-12172589D02*
X15548729Y-12210684D01*
X15548729Y-12210684D02*
X15548729Y-12258303D01*
X15548729Y-12258303D02*
X15539205Y-12296398D01*
X15539205Y-12296398D02*
X15529682Y-12315446D01*
X15529682Y-12315446D02*
X15520158Y-12324970D01*
X15520158Y-12324970D02*
X15501110Y-12334494D01*
X15501110Y-12334494D02*
X15482062Y-12334494D01*
X15482062Y-12334494D02*
X15463015Y-12324970D01*
X15463015Y-12324970D02*
X15453491Y-12315446D01*
X15453491Y-12315446D02*
X15443967Y-12296398D01*
X15443967Y-12296398D02*
X15434443Y-12258303D01*
X15434443Y-12258303D02*
X15434443Y-12210684D01*
X15434443Y-12210684D02*
X15443967Y-12172589D01*
X15443967Y-12172589D02*
X15453491Y-12153541D01*
X15453491Y-12153541D02*
X15463015Y-12144017D01*
X15463015Y-12144017D02*
X15482062Y-12134494D01*
X15672539Y-12134494D02*
X15691586Y-12134494D01*
X15691586Y-12134494D02*
X15710634Y-12144017D01*
X15710634Y-12144017D02*
X15720158Y-12153541D01*
X15720158Y-12153541D02*
X15729682Y-12172589D01*
X15729682Y-12172589D02*
X15739205Y-12210684D01*
X15739205Y-12210684D02*
X15739205Y-12258303D01*
X15739205Y-12258303D02*
X15729682Y-12296398D01*
X15729682Y-12296398D02*
X15720158Y-12315446D01*
X15720158Y-12315446D02*
X15710634Y-12324970D01*
X15710634Y-12324970D02*
X15691586Y-12334494D01*
X15691586Y-12334494D02*
X15672539Y-12334494D01*
X15672539Y-12334494D02*
X15653491Y-12324970D01*
X15653491Y-12324970D02*
X15643967Y-12315446D01*
X15643967Y-12315446D02*
X15634443Y-12296398D01*
X15634443Y-12296398D02*
X15624920Y-12258303D01*
X15624920Y-12258303D02*
X15624920Y-12210684D01*
X15624920Y-12210684D02*
X15634443Y-12172589D01*
X15634443Y-12172589D02*
X15643967Y-12153541D01*
X15643967Y-12153541D02*
X15653491Y-12144017D01*
X15653491Y-12144017D02*
X15672539Y-12134494D01*
X15824920Y-12334494D02*
X15824920Y-12201160D01*
X15824920Y-12220208D02*
X15834443Y-12210684D01*
X15834443Y-12210684D02*
X15853491Y-12201160D01*
X15853491Y-12201160D02*
X15882063Y-12201160D01*
X15882063Y-12201160D02*
X15901110Y-12210684D01*
X15901110Y-12210684D02*
X15910634Y-12229732D01*
X15910634Y-12229732D02*
X15910634Y-12334494D01*
X15910634Y-12229732D02*
X15920158Y-12210684D01*
X15920158Y-12210684D02*
X15939205Y-12201160D01*
X15939205Y-12201160D02*
X15967777Y-12201160D01*
X15967777Y-12201160D02*
X15986824Y-12210684D01*
X15986824Y-12210684D02*
X15996348Y-12229732D01*
X15996348Y-12229732D02*
X15996348Y-12334494D01*
X16091586Y-12334494D02*
X16091586Y-12201160D01*
X16091586Y-12220208D02*
X16101110Y-12210684D01*
X16101110Y-12210684D02*
X16120158Y-12201160D01*
X16120158Y-12201160D02*
X16148729Y-12201160D01*
X16148729Y-12201160D02*
X16167777Y-12210684D01*
X16167777Y-12210684D02*
X16177301Y-12229732D01*
X16177301Y-12229732D02*
X16177301Y-12334494D01*
X16177301Y-12229732D02*
X16186824Y-12210684D01*
X16186824Y-12210684D02*
X16205872Y-12201160D01*
X16205872Y-12201160D02*
X16234443Y-12201160D01*
X16234443Y-12201160D02*
X16253491Y-12210684D01*
X16253491Y-12210684D02*
X16263015Y-12229732D01*
X16263015Y-12229732D02*
X16263015Y-12334494D01*
X16653491Y-12124970D02*
X16482063Y-12382113D01*
X16910634Y-12134494D02*
X16929682Y-12134494D01*
X16929682Y-12134494D02*
X16948729Y-12144017D01*
X16948729Y-12144017D02*
X16958253Y-12153541D01*
X16958253Y-12153541D02*
X16967777Y-12172589D01*
X16967777Y-12172589D02*
X16977301Y-12210684D01*
X16977301Y-12210684D02*
X16977301Y-12258303D01*
X16977301Y-12258303D02*
X16967777Y-12296398D01*
X16967777Y-12296398D02*
X16958253Y-12315446D01*
X16958253Y-12315446D02*
X16948729Y-12324970D01*
X16948729Y-12324970D02*
X16929682Y-12334494D01*
X16929682Y-12334494D02*
X16910634Y-12334494D01*
X16910634Y-12334494D02*
X16891587Y-12324970D01*
X16891587Y-12324970D02*
X16882063Y-12315446D01*
X16882063Y-12315446D02*
X16872539Y-12296398D01*
X16872539Y-12296398D02*
X16863015Y-12258303D01*
X16863015Y-12258303D02*
X16863015Y-12210684D01*
X16863015Y-12210684D02*
X16872539Y-12172589D01*
X16872539Y-12172589D02*
X16882063Y-12153541D01*
X16882063Y-12153541D02*
X16891587Y-12144017D01*
X16891587Y-12144017D02*
X16910634Y-12134494D01*
X17063015Y-12315446D02*
X17072539Y-12324970D01*
X17072539Y-12324970D02*
X17063015Y-12334494D01*
X17063015Y-12334494D02*
X17053491Y-12324970D01*
X17053491Y-12324970D02*
X17063015Y-12315446D01*
X17063015Y-12315446D02*
X17063015Y-12334494D01*
X17196348Y-12134494D02*
X17215396Y-12134494D01*
X17215396Y-12134494D02*
X17234444Y-12144017D01*
X17234444Y-12144017D02*
X17243968Y-12153541D01*
X17243968Y-12153541D02*
X17253491Y-12172589D01*
X17253491Y-12172589D02*
X17263015Y-12210684D01*
X17263015Y-12210684D02*
X17263015Y-12258303D01*
X17263015Y-12258303D02*
X17253491Y-12296398D01*
X17253491Y-12296398D02*
X17243968Y-12315446D01*
X17243968Y-12315446D02*
X17234444Y-12324970D01*
X17234444Y-12324970D02*
X17215396Y-12334494D01*
X17215396Y-12334494D02*
X17196348Y-12334494D01*
X17196348Y-12334494D02*
X17177301Y-12324970D01*
X17177301Y-12324970D02*
X17167777Y-12315446D01*
X17167777Y-12315446D02*
X17158253Y-12296398D01*
X17158253Y-12296398D02*
X17148729Y-12258303D01*
X17148729Y-12258303D02*
X17148729Y-12210684D01*
X17148729Y-12210684D02*
X17158253Y-12172589D01*
X17158253Y-12172589D02*
X17167777Y-12153541D01*
X17167777Y-12153541D02*
X17177301Y-12144017D01*
X17177301Y-12144017D02*
X17196348Y-12134494D01*
X17386825Y-12134494D02*
X17405872Y-12134494D01*
X17405872Y-12134494D02*
X17424920Y-12144017D01*
X17424920Y-12144017D02*
X17434444Y-12153541D01*
X17434444Y-12153541D02*
X17443968Y-12172589D01*
X17443968Y-12172589D02*
X17453491Y-12210684D01*
X17453491Y-12210684D02*
X17453491Y-12258303D01*
X17453491Y-12258303D02*
X17443968Y-12296398D01*
X17443968Y-12296398D02*
X17434444Y-12315446D01*
X17434444Y-12315446D02*
X17424920Y-12324970D01*
X17424920Y-12324970D02*
X17405872Y-12334494D01*
X17405872Y-12334494D02*
X17386825Y-12334494D01*
X17386825Y-12334494D02*
X17367777Y-12324970D01*
X17367777Y-12324970D02*
X17358253Y-12315446D01*
X17358253Y-12315446D02*
X17348729Y-12296398D01*
X17348729Y-12296398D02*
X17339206Y-12258303D01*
X17339206Y-12258303D02*
X17339206Y-12210684D01*
X17339206Y-12210684D02*
X17348729Y-12172589D01*
X17348729Y-12172589D02*
X17358253Y-12153541D01*
X17358253Y-12153541D02*
X17367777Y-12144017D01*
X17367777Y-12144017D02*
X17386825Y-12134494D01*
X17520158Y-12134494D02*
X17653491Y-12134494D01*
X17653491Y-12134494D02*
X17567777Y-12334494D01*
X17739206Y-12334494D02*
X17777301Y-12334494D01*
X17777301Y-12334494D02*
X17796349Y-12324970D01*
X17796349Y-12324970D02*
X17805872Y-12315446D01*
X17805872Y-12315446D02*
X17824920Y-12286875D01*
X17824920Y-12286875D02*
X17834444Y-12248779D01*
X17834444Y-12248779D02*
X17834444Y-12172589D01*
X17834444Y-12172589D02*
X17824920Y-12153541D01*
X17824920Y-12153541D02*
X17815396Y-12144017D01*
X17815396Y-12144017D02*
X17796349Y-12134494D01*
X17796349Y-12134494D02*
X17758253Y-12134494D01*
X17758253Y-12134494D02*
X17739206Y-12144017D01*
X17739206Y-12144017D02*
X17729682Y-12153541D01*
X17729682Y-12153541D02*
X17720158Y-12172589D01*
X17720158Y-12172589D02*
X17720158Y-12220208D01*
X17720158Y-12220208D02*
X17729682Y-12239256D01*
X17729682Y-12239256D02*
X17739206Y-12248779D01*
X17739206Y-12248779D02*
X17758253Y-12258303D01*
X17758253Y-12258303D02*
X17796349Y-12258303D01*
X17796349Y-12258303D02*
X17815396Y-12248779D01*
X17815396Y-12248779D02*
X17824920Y-12239256D01*
X17824920Y-12239256D02*
X17834444Y-12220208D01*
X17910634Y-12134494D02*
X17910634Y-12172589D01*
X17986825Y-12134494D02*
X17986825Y-12172589D01*
X18282063Y-12410684D02*
X18272539Y-12401160D01*
X18272539Y-12401160D02*
X18253491Y-12372589D01*
X18253491Y-12372589D02*
X18243968Y-12353541D01*
X18243968Y-12353541D02*
X18234444Y-12324970D01*
X18234444Y-12324970D02*
X18224920Y-12277351D01*
X18224920Y-12277351D02*
X18224920Y-12239256D01*
X18224920Y-12239256D02*
X18234444Y-12191636D01*
X18234444Y-12191636D02*
X18243968Y-12163065D01*
X18243968Y-12163065D02*
X18253491Y-12144017D01*
X18253491Y-12144017D02*
X18272539Y-12115446D01*
X18272539Y-12115446D02*
X18282063Y-12105922D01*
X18339206Y-12134494D02*
X18463015Y-12134494D01*
X18463015Y-12134494D02*
X18396349Y-12210684D01*
X18396349Y-12210684D02*
X18424920Y-12210684D01*
X18424920Y-12210684D02*
X18443968Y-12220208D01*
X18443968Y-12220208D02*
X18453491Y-12229732D01*
X18453491Y-12229732D02*
X18463015Y-12248779D01*
X18463015Y-12248779D02*
X18463015Y-12296398D01*
X18463015Y-12296398D02*
X18453491Y-12315446D01*
X18453491Y-12315446D02*
X18443968Y-12324970D01*
X18443968Y-12324970D02*
X18424920Y-12334494D01*
X18424920Y-12334494D02*
X18367777Y-12334494D01*
X18367777Y-12334494D02*
X18348730Y-12324970D01*
X18348730Y-12324970D02*
X18339206Y-12315446D01*
X18701111Y-12334494D02*
X18701111Y-12134494D01*
X18786825Y-12334494D02*
X18786825Y-12229732D01*
X18786825Y-12229732D02*
X18777301Y-12210684D01*
X18777301Y-12210684D02*
X18758253Y-12201160D01*
X18758253Y-12201160D02*
X18729682Y-12201160D01*
X18729682Y-12201160D02*
X18710634Y-12210684D01*
X18710634Y-12210684D02*
X18701111Y-12220208D01*
X18910634Y-12334494D02*
X18891587Y-12324970D01*
X18891587Y-12324970D02*
X18882063Y-12315446D01*
X18882063Y-12315446D02*
X18872539Y-12296398D01*
X18872539Y-12296398D02*
X18872539Y-12239256D01*
X18872539Y-12239256D02*
X18882063Y-12220208D01*
X18882063Y-12220208D02*
X18891587Y-12210684D01*
X18891587Y-12210684D02*
X18910634Y-12201160D01*
X18910634Y-12201160D02*
X18939206Y-12201160D01*
X18939206Y-12201160D02*
X18958253Y-12210684D01*
X18958253Y-12210684D02*
X18967777Y-12220208D01*
X18967777Y-12220208D02*
X18977301Y-12239256D01*
X18977301Y-12239256D02*
X18977301Y-12296398D01*
X18977301Y-12296398D02*
X18967777Y-12315446D01*
X18967777Y-12315446D02*
X18958253Y-12324970D01*
X18958253Y-12324970D02*
X18939206Y-12334494D01*
X18939206Y-12334494D02*
X18910634Y-12334494D01*
X19091587Y-12334494D02*
X19072539Y-12324970D01*
X19072539Y-12324970D02*
X19063015Y-12305922D01*
X19063015Y-12305922D02*
X19063015Y-12134494D01*
X19243968Y-12324970D02*
X19224920Y-12334494D01*
X19224920Y-12334494D02*
X19186825Y-12334494D01*
X19186825Y-12334494D02*
X19167777Y-12324970D01*
X19167777Y-12324970D02*
X19158253Y-12305922D01*
X19158253Y-12305922D02*
X19158253Y-12229732D01*
X19158253Y-12229732D02*
X19167777Y-12210684D01*
X19167777Y-12210684D02*
X19186825Y-12201160D01*
X19186825Y-12201160D02*
X19224920Y-12201160D01*
X19224920Y-12201160D02*
X19243968Y-12210684D01*
X19243968Y-12210684D02*
X19253492Y-12229732D01*
X19253492Y-12229732D02*
X19253492Y-12248779D01*
X19253492Y-12248779D02*
X19158253Y-12267827D01*
X19329682Y-12324970D02*
X19348730Y-12334494D01*
X19348730Y-12334494D02*
X19386825Y-12334494D01*
X19386825Y-12334494D02*
X19405873Y-12324970D01*
X19405873Y-12324970D02*
X19415396Y-12305922D01*
X19415396Y-12305922D02*
X19415396Y-12296398D01*
X19415396Y-12296398D02*
X19405873Y-12277351D01*
X19405873Y-12277351D02*
X19386825Y-12267827D01*
X19386825Y-12267827D02*
X19358253Y-12267827D01*
X19358253Y-12267827D02*
X19339206Y-12258303D01*
X19339206Y-12258303D02*
X19329682Y-12239256D01*
X19329682Y-12239256D02*
X19329682Y-12229732D01*
X19329682Y-12229732D02*
X19339206Y-12210684D01*
X19339206Y-12210684D02*
X19358253Y-12201160D01*
X19358253Y-12201160D02*
X19386825Y-12201160D01*
X19386825Y-12201160D02*
X19405873Y-12210684D01*
X19482063Y-12410684D02*
X19491587Y-12401160D01*
X19491587Y-12401160D02*
X19510634Y-12372589D01*
X19510634Y-12372589D02*
X19520158Y-12353541D01*
X19520158Y-12353541D02*
X19529682Y-12324970D01*
X19529682Y-12324970D02*
X19539206Y-12277351D01*
X19539206Y-12277351D02*
X19539206Y-12239256D01*
X19539206Y-12239256D02*
X19529682Y-12191636D01*
X19529682Y-12191636D02*
X19520158Y-12163065D01*
X19520158Y-12163065D02*
X19510634Y-12144017D01*
X19510634Y-12144017D02*
X19491587Y-12115446D01*
X19491587Y-12115446D02*
X19482063Y-12105922D01*
D12*
X14707000Y-12507010D02*
G75*
G02*
X14607000Y-12507010I-50000J0D01*
G01*
X14607000Y-12507010D02*
G75*
G02*
X14707000Y-12507010I50000J0D01*
G01*
D11*
X15072539Y-12598494D02*
X14958253Y-12598494D01*
X15015396Y-12598494D02*
X15015396Y-12398494D01*
X15015396Y-12398494D02*
X14996348Y-12427065D01*
X14996348Y-12427065D02*
X14977301Y-12446113D01*
X14977301Y-12446113D02*
X14958253Y-12455636D01*
X15158253Y-12579446D02*
X15167777Y-12588970D01*
X15167777Y-12588970D02*
X15158253Y-12598494D01*
X15158253Y-12598494D02*
X15148729Y-12588970D01*
X15148729Y-12588970D02*
X15158253Y-12579446D01*
X15158253Y-12579446D02*
X15158253Y-12598494D01*
X15291586Y-12398494D02*
X15310634Y-12398494D01*
X15310634Y-12398494D02*
X15329682Y-12408017D01*
X15329682Y-12408017D02*
X15339205Y-12417541D01*
X15339205Y-12417541D02*
X15348729Y-12436589D01*
X15348729Y-12436589D02*
X15358253Y-12474684D01*
X15358253Y-12474684D02*
X15358253Y-12522303D01*
X15358253Y-12522303D02*
X15348729Y-12560398D01*
X15348729Y-12560398D02*
X15339205Y-12579446D01*
X15339205Y-12579446D02*
X15329682Y-12588970D01*
X15329682Y-12588970D02*
X15310634Y-12598494D01*
X15310634Y-12598494D02*
X15291586Y-12598494D01*
X15291586Y-12598494D02*
X15272539Y-12588970D01*
X15272539Y-12588970D02*
X15263015Y-12579446D01*
X15263015Y-12579446D02*
X15253491Y-12560398D01*
X15253491Y-12560398D02*
X15243967Y-12522303D01*
X15243967Y-12522303D02*
X15243967Y-12474684D01*
X15243967Y-12474684D02*
X15253491Y-12436589D01*
X15253491Y-12436589D02*
X15263015Y-12417541D01*
X15263015Y-12417541D02*
X15272539Y-12408017D01*
X15272539Y-12408017D02*
X15291586Y-12398494D01*
X15482062Y-12398494D02*
X15501110Y-12398494D01*
X15501110Y-12398494D02*
X15520158Y-12408017D01*
X15520158Y-12408017D02*
X15529682Y-12417541D01*
X15529682Y-12417541D02*
X15539205Y-12436589D01*
X15539205Y-12436589D02*
X15548729Y-12474684D01*
X15548729Y-12474684D02*
X15548729Y-12522303D01*
X15548729Y-12522303D02*
X15539205Y-12560398D01*
X15539205Y-12560398D02*
X15529682Y-12579446D01*
X15529682Y-12579446D02*
X15520158Y-12588970D01*
X15520158Y-12588970D02*
X15501110Y-12598494D01*
X15501110Y-12598494D02*
X15482062Y-12598494D01*
X15482062Y-12598494D02*
X15463015Y-12588970D01*
X15463015Y-12588970D02*
X15453491Y-12579446D01*
X15453491Y-12579446D02*
X15443967Y-12560398D01*
X15443967Y-12560398D02*
X15434443Y-12522303D01*
X15434443Y-12522303D02*
X15434443Y-12474684D01*
X15434443Y-12474684D02*
X15443967Y-12436589D01*
X15443967Y-12436589D02*
X15453491Y-12417541D01*
X15453491Y-12417541D02*
X15463015Y-12408017D01*
X15463015Y-12408017D02*
X15482062Y-12398494D01*
X15672539Y-12398494D02*
X15691586Y-12398494D01*
X15691586Y-12398494D02*
X15710634Y-12408017D01*
X15710634Y-12408017D02*
X15720158Y-12417541D01*
X15720158Y-12417541D02*
X15729682Y-12436589D01*
X15729682Y-12436589D02*
X15739205Y-12474684D01*
X15739205Y-12474684D02*
X15739205Y-12522303D01*
X15739205Y-12522303D02*
X15729682Y-12560398D01*
X15729682Y-12560398D02*
X15720158Y-12579446D01*
X15720158Y-12579446D02*
X15710634Y-12588970D01*
X15710634Y-12588970D02*
X15691586Y-12598494D01*
X15691586Y-12598494D02*
X15672539Y-12598494D01*
X15672539Y-12598494D02*
X15653491Y-12588970D01*
X15653491Y-12588970D02*
X15643967Y-12579446D01*
X15643967Y-12579446D02*
X15634443Y-12560398D01*
X15634443Y-12560398D02*
X15624920Y-12522303D01*
X15624920Y-12522303D02*
X15624920Y-12474684D01*
X15624920Y-12474684D02*
X15634443Y-12436589D01*
X15634443Y-12436589D02*
X15643967Y-12417541D01*
X15643967Y-12417541D02*
X15653491Y-12408017D01*
X15653491Y-12408017D02*
X15672539Y-12398494D01*
X15824920Y-12598494D02*
X15824920Y-12465160D01*
X15824920Y-12484208D02*
X15834443Y-12474684D01*
X15834443Y-12474684D02*
X15853491Y-12465160D01*
X15853491Y-12465160D02*
X15882063Y-12465160D01*
X15882063Y-12465160D02*
X15901110Y-12474684D01*
X15901110Y-12474684D02*
X15910634Y-12493732D01*
X15910634Y-12493732D02*
X15910634Y-12598494D01*
X15910634Y-12493732D02*
X15920158Y-12474684D01*
X15920158Y-12474684D02*
X15939205Y-12465160D01*
X15939205Y-12465160D02*
X15967777Y-12465160D01*
X15967777Y-12465160D02*
X15986824Y-12474684D01*
X15986824Y-12474684D02*
X15996348Y-12493732D01*
X15996348Y-12493732D02*
X15996348Y-12598494D01*
X16091586Y-12598494D02*
X16091586Y-12465160D01*
X16091586Y-12484208D02*
X16101110Y-12474684D01*
X16101110Y-12474684D02*
X16120158Y-12465160D01*
X16120158Y-12465160D02*
X16148729Y-12465160D01*
X16148729Y-12465160D02*
X16167777Y-12474684D01*
X16167777Y-12474684D02*
X16177301Y-12493732D01*
X16177301Y-12493732D02*
X16177301Y-12598494D01*
X16177301Y-12493732D02*
X16186824Y-12474684D01*
X16186824Y-12474684D02*
X16205872Y-12465160D01*
X16205872Y-12465160D02*
X16234443Y-12465160D01*
X16234443Y-12465160D02*
X16253491Y-12474684D01*
X16253491Y-12474684D02*
X16263015Y-12493732D01*
X16263015Y-12493732D02*
X16263015Y-12598494D01*
X16653491Y-12388970D02*
X16482063Y-12646113D01*
X16910634Y-12398494D02*
X16929682Y-12398494D01*
X16929682Y-12398494D02*
X16948729Y-12408017D01*
X16948729Y-12408017D02*
X16958253Y-12417541D01*
X16958253Y-12417541D02*
X16967777Y-12436589D01*
X16967777Y-12436589D02*
X16977301Y-12474684D01*
X16977301Y-12474684D02*
X16977301Y-12522303D01*
X16977301Y-12522303D02*
X16967777Y-12560398D01*
X16967777Y-12560398D02*
X16958253Y-12579446D01*
X16958253Y-12579446D02*
X16948729Y-12588970D01*
X16948729Y-12588970D02*
X16929682Y-12598494D01*
X16929682Y-12598494D02*
X16910634Y-12598494D01*
X16910634Y-12598494D02*
X16891587Y-12588970D01*
X16891587Y-12588970D02*
X16882063Y-12579446D01*
X16882063Y-12579446D02*
X16872539Y-12560398D01*
X16872539Y-12560398D02*
X16863015Y-12522303D01*
X16863015Y-12522303D02*
X16863015Y-12474684D01*
X16863015Y-12474684D02*
X16872539Y-12436589D01*
X16872539Y-12436589D02*
X16882063Y-12417541D01*
X16882063Y-12417541D02*
X16891587Y-12408017D01*
X16891587Y-12408017D02*
X16910634Y-12398494D01*
X17063015Y-12579446D02*
X17072539Y-12588970D01*
X17072539Y-12588970D02*
X17063015Y-12598494D01*
X17063015Y-12598494D02*
X17053491Y-12588970D01*
X17053491Y-12588970D02*
X17063015Y-12579446D01*
X17063015Y-12579446D02*
X17063015Y-12598494D01*
X17196348Y-12398494D02*
X17215396Y-12398494D01*
X17215396Y-12398494D02*
X17234444Y-12408017D01*
X17234444Y-12408017D02*
X17243968Y-12417541D01*
X17243968Y-12417541D02*
X17253491Y-12436589D01*
X17253491Y-12436589D02*
X17263015Y-12474684D01*
X17263015Y-12474684D02*
X17263015Y-12522303D01*
X17263015Y-12522303D02*
X17253491Y-12560398D01*
X17253491Y-12560398D02*
X17243968Y-12579446D01*
X17243968Y-12579446D02*
X17234444Y-12588970D01*
X17234444Y-12588970D02*
X17215396Y-12598494D01*
X17215396Y-12598494D02*
X17196348Y-12598494D01*
X17196348Y-12598494D02*
X17177301Y-12588970D01*
X17177301Y-12588970D02*
X17167777Y-12579446D01*
X17167777Y-12579446D02*
X17158253Y-12560398D01*
X17158253Y-12560398D02*
X17148729Y-12522303D01*
X17148729Y-12522303D02*
X17148729Y-12474684D01*
X17148729Y-12474684D02*
X17158253Y-12436589D01*
X17158253Y-12436589D02*
X17167777Y-12417541D01*
X17167777Y-12417541D02*
X17177301Y-12408017D01*
X17177301Y-12408017D02*
X17196348Y-12398494D01*
X17329682Y-12398494D02*
X17453491Y-12398494D01*
X17453491Y-12398494D02*
X17386825Y-12474684D01*
X17386825Y-12474684D02*
X17415396Y-12474684D01*
X17415396Y-12474684D02*
X17434444Y-12484208D01*
X17434444Y-12484208D02*
X17443968Y-12493732D01*
X17443968Y-12493732D02*
X17453491Y-12512779D01*
X17453491Y-12512779D02*
X17453491Y-12560398D01*
X17453491Y-12560398D02*
X17443968Y-12579446D01*
X17443968Y-12579446D02*
X17434444Y-12588970D01*
X17434444Y-12588970D02*
X17415396Y-12598494D01*
X17415396Y-12598494D02*
X17358253Y-12598494D01*
X17358253Y-12598494D02*
X17339206Y-12588970D01*
X17339206Y-12588970D02*
X17329682Y-12579446D01*
X17548729Y-12598494D02*
X17586825Y-12598494D01*
X17586825Y-12598494D02*
X17605872Y-12588970D01*
X17605872Y-12588970D02*
X17615396Y-12579446D01*
X17615396Y-12579446D02*
X17634444Y-12550875D01*
X17634444Y-12550875D02*
X17643968Y-12512779D01*
X17643968Y-12512779D02*
X17643968Y-12436589D01*
X17643968Y-12436589D02*
X17634444Y-12417541D01*
X17634444Y-12417541D02*
X17624920Y-12408017D01*
X17624920Y-12408017D02*
X17605872Y-12398494D01*
X17605872Y-12398494D02*
X17567777Y-12398494D01*
X17567777Y-12398494D02*
X17548729Y-12408017D01*
X17548729Y-12408017D02*
X17539206Y-12417541D01*
X17539206Y-12417541D02*
X17529682Y-12436589D01*
X17529682Y-12436589D02*
X17529682Y-12484208D01*
X17529682Y-12484208D02*
X17539206Y-12503256D01*
X17539206Y-12503256D02*
X17548729Y-12512779D01*
X17548729Y-12512779D02*
X17567777Y-12522303D01*
X17567777Y-12522303D02*
X17605872Y-12522303D01*
X17605872Y-12522303D02*
X17624920Y-12512779D01*
X17624920Y-12512779D02*
X17634444Y-12503256D01*
X17634444Y-12503256D02*
X17643968Y-12484208D01*
X17815396Y-12465160D02*
X17815396Y-12598494D01*
X17767777Y-12388970D02*
X17720158Y-12531827D01*
X17720158Y-12531827D02*
X17843968Y-12531827D01*
X17910634Y-12398494D02*
X17910634Y-12436589D01*
X17986825Y-12398494D02*
X17986825Y-12436589D01*
X18282063Y-12674684D02*
X18272539Y-12665160D01*
X18272539Y-12665160D02*
X18253491Y-12636589D01*
X18253491Y-12636589D02*
X18243968Y-12617541D01*
X18243968Y-12617541D02*
X18234444Y-12588970D01*
X18234444Y-12588970D02*
X18224920Y-12541351D01*
X18224920Y-12541351D02*
X18224920Y-12503256D01*
X18224920Y-12503256D02*
X18234444Y-12455636D01*
X18234444Y-12455636D02*
X18243968Y-12427065D01*
X18243968Y-12427065D02*
X18253491Y-12408017D01*
X18253491Y-12408017D02*
X18272539Y-12379446D01*
X18272539Y-12379446D02*
X18282063Y-12369922D01*
X18348730Y-12417541D02*
X18358253Y-12408017D01*
X18358253Y-12408017D02*
X18377301Y-12398494D01*
X18377301Y-12398494D02*
X18424920Y-12398494D01*
X18424920Y-12398494D02*
X18443968Y-12408017D01*
X18443968Y-12408017D02*
X18453491Y-12417541D01*
X18453491Y-12417541D02*
X18463015Y-12436589D01*
X18463015Y-12436589D02*
X18463015Y-12455636D01*
X18463015Y-12455636D02*
X18453491Y-12484208D01*
X18453491Y-12484208D02*
X18339206Y-12598494D01*
X18339206Y-12598494D02*
X18463015Y-12598494D01*
X18558253Y-12598494D02*
X18596349Y-12598494D01*
X18596349Y-12598494D02*
X18615396Y-12588970D01*
X18615396Y-12588970D02*
X18624920Y-12579446D01*
X18624920Y-12579446D02*
X18643968Y-12550875D01*
X18643968Y-12550875D02*
X18653491Y-12512779D01*
X18653491Y-12512779D02*
X18653491Y-12436589D01*
X18653491Y-12436589D02*
X18643968Y-12417541D01*
X18643968Y-12417541D02*
X18634444Y-12408017D01*
X18634444Y-12408017D02*
X18615396Y-12398494D01*
X18615396Y-12398494D02*
X18577301Y-12398494D01*
X18577301Y-12398494D02*
X18558253Y-12408017D01*
X18558253Y-12408017D02*
X18548730Y-12417541D01*
X18548730Y-12417541D02*
X18539206Y-12436589D01*
X18539206Y-12436589D02*
X18539206Y-12484208D01*
X18539206Y-12484208D02*
X18548730Y-12503256D01*
X18548730Y-12503256D02*
X18558253Y-12512779D01*
X18558253Y-12512779D02*
X18577301Y-12522303D01*
X18577301Y-12522303D02*
X18615396Y-12522303D01*
X18615396Y-12522303D02*
X18634444Y-12512779D01*
X18634444Y-12512779D02*
X18643968Y-12503256D01*
X18643968Y-12503256D02*
X18653491Y-12484208D01*
X18891587Y-12598494D02*
X18891587Y-12398494D01*
X18977301Y-12598494D02*
X18977301Y-12493732D01*
X18977301Y-12493732D02*
X18967777Y-12474684D01*
X18967777Y-12474684D02*
X18948730Y-12465160D01*
X18948730Y-12465160D02*
X18920158Y-12465160D01*
X18920158Y-12465160D02*
X18901111Y-12474684D01*
X18901111Y-12474684D02*
X18891587Y-12484208D01*
X19101111Y-12598494D02*
X19082063Y-12588970D01*
X19082063Y-12588970D02*
X19072539Y-12579446D01*
X19072539Y-12579446D02*
X19063015Y-12560398D01*
X19063015Y-12560398D02*
X19063015Y-12503256D01*
X19063015Y-12503256D02*
X19072539Y-12484208D01*
X19072539Y-12484208D02*
X19082063Y-12474684D01*
X19082063Y-12474684D02*
X19101111Y-12465160D01*
X19101111Y-12465160D02*
X19129682Y-12465160D01*
X19129682Y-12465160D02*
X19148730Y-12474684D01*
X19148730Y-12474684D02*
X19158253Y-12484208D01*
X19158253Y-12484208D02*
X19167777Y-12503256D01*
X19167777Y-12503256D02*
X19167777Y-12560398D01*
X19167777Y-12560398D02*
X19158253Y-12579446D01*
X19158253Y-12579446D02*
X19148730Y-12588970D01*
X19148730Y-12588970D02*
X19129682Y-12598494D01*
X19129682Y-12598494D02*
X19101111Y-12598494D01*
X19282063Y-12598494D02*
X19263015Y-12588970D01*
X19263015Y-12588970D02*
X19253492Y-12569922D01*
X19253492Y-12569922D02*
X19253492Y-12398494D01*
X19434444Y-12588970D02*
X19415396Y-12598494D01*
X19415396Y-12598494D02*
X19377301Y-12598494D01*
X19377301Y-12598494D02*
X19358253Y-12588970D01*
X19358253Y-12588970D02*
X19348730Y-12569922D01*
X19348730Y-12569922D02*
X19348730Y-12493732D01*
X19348730Y-12493732D02*
X19358253Y-12474684D01*
X19358253Y-12474684D02*
X19377301Y-12465160D01*
X19377301Y-12465160D02*
X19415396Y-12465160D01*
X19415396Y-12465160D02*
X19434444Y-12474684D01*
X19434444Y-12474684D02*
X19443968Y-12493732D01*
X19443968Y-12493732D02*
X19443968Y-12512779D01*
X19443968Y-12512779D02*
X19348730Y-12531827D01*
X19520158Y-12588970D02*
X19539206Y-12598494D01*
X19539206Y-12598494D02*
X19577301Y-12598494D01*
X19577301Y-12598494D02*
X19596349Y-12588970D01*
X19596349Y-12588970D02*
X19605873Y-12569922D01*
X19605873Y-12569922D02*
X19605873Y-12560398D01*
X19605873Y-12560398D02*
X19596349Y-12541351D01*
X19596349Y-12541351D02*
X19577301Y-12531827D01*
X19577301Y-12531827D02*
X19548730Y-12531827D01*
X19548730Y-12531827D02*
X19529682Y-12522303D01*
X19529682Y-12522303D02*
X19520158Y-12503256D01*
X19520158Y-12503256D02*
X19520158Y-12493732D01*
X19520158Y-12493732D02*
X19529682Y-12474684D01*
X19529682Y-12474684D02*
X19548730Y-12465160D01*
X19548730Y-12465160D02*
X19577301Y-12465160D01*
X19577301Y-12465160D02*
X19596349Y-12474684D01*
X19672539Y-12674684D02*
X19682063Y-12665160D01*
X19682063Y-12665160D02*
X19701111Y-12636589D01*
X19701111Y-12636589D02*
X19710634Y-12617541D01*
X19710634Y-12617541D02*
X19720158Y-12588970D01*
X19720158Y-12588970D02*
X19729682Y-12541351D01*
X19729682Y-12541351D02*
X19729682Y-12503256D01*
X19729682Y-12503256D02*
X19720158Y-12455636D01*
X19720158Y-12455636D02*
X19710634Y-12427065D01*
X19710634Y-12427065D02*
X19701111Y-12408017D01*
X19701111Y-12408017D02*
X19682063Y-12379446D01*
X19682063Y-12379446D02*
X19672539Y-12369922D01*
X14607000Y-12671010D02*
X14607000Y-12871010D01*
X14507000Y-12771010D02*
X14707000Y-12771010D01*
X14948729Y-12662494D02*
X15072539Y-12662494D01*
X15072539Y-12662494D02*
X15005872Y-12738684D01*
X15005872Y-12738684D02*
X15034443Y-12738684D01*
X15034443Y-12738684D02*
X15053491Y-12748208D01*
X15053491Y-12748208D02*
X15063015Y-12757732D01*
X15063015Y-12757732D02*
X15072539Y-12776779D01*
X15072539Y-12776779D02*
X15072539Y-12824398D01*
X15072539Y-12824398D02*
X15063015Y-12843446D01*
X15063015Y-12843446D02*
X15053491Y-12852970D01*
X15053491Y-12852970D02*
X15034443Y-12862494D01*
X15034443Y-12862494D02*
X14977301Y-12862494D01*
X14977301Y-12862494D02*
X14958253Y-12852970D01*
X14958253Y-12852970D02*
X14948729Y-12843446D01*
X15158253Y-12843446D02*
X15167777Y-12852970D01*
X15167777Y-12852970D02*
X15158253Y-12862494D01*
X15158253Y-12862494D02*
X15148729Y-12852970D01*
X15148729Y-12852970D02*
X15158253Y-12843446D01*
X15158253Y-12843446D02*
X15158253Y-12862494D01*
X15243967Y-12681541D02*
X15253491Y-12672017D01*
X15253491Y-12672017D02*
X15272539Y-12662494D01*
X15272539Y-12662494D02*
X15320158Y-12662494D01*
X15320158Y-12662494D02*
X15339205Y-12672017D01*
X15339205Y-12672017D02*
X15348729Y-12681541D01*
X15348729Y-12681541D02*
X15358253Y-12700589D01*
X15358253Y-12700589D02*
X15358253Y-12719636D01*
X15358253Y-12719636D02*
X15348729Y-12748208D01*
X15348729Y-12748208D02*
X15234443Y-12862494D01*
X15234443Y-12862494D02*
X15358253Y-12862494D01*
X15482062Y-12662494D02*
X15501110Y-12662494D01*
X15501110Y-12662494D02*
X15520158Y-12672017D01*
X15520158Y-12672017D02*
X15529682Y-12681541D01*
X15529682Y-12681541D02*
X15539205Y-12700589D01*
X15539205Y-12700589D02*
X15548729Y-12738684D01*
X15548729Y-12738684D02*
X15548729Y-12786303D01*
X15548729Y-12786303D02*
X15539205Y-12824398D01*
X15539205Y-12824398D02*
X15529682Y-12843446D01*
X15529682Y-12843446D02*
X15520158Y-12852970D01*
X15520158Y-12852970D02*
X15501110Y-12862494D01*
X15501110Y-12862494D02*
X15482062Y-12862494D01*
X15482062Y-12862494D02*
X15463015Y-12852970D01*
X15463015Y-12852970D02*
X15453491Y-12843446D01*
X15453491Y-12843446D02*
X15443967Y-12824398D01*
X15443967Y-12824398D02*
X15434443Y-12786303D01*
X15434443Y-12786303D02*
X15434443Y-12738684D01*
X15434443Y-12738684D02*
X15443967Y-12700589D01*
X15443967Y-12700589D02*
X15453491Y-12681541D01*
X15453491Y-12681541D02*
X15463015Y-12672017D01*
X15463015Y-12672017D02*
X15482062Y-12662494D01*
X15672539Y-12662494D02*
X15691586Y-12662494D01*
X15691586Y-12662494D02*
X15710634Y-12672017D01*
X15710634Y-12672017D02*
X15720158Y-12681541D01*
X15720158Y-12681541D02*
X15729682Y-12700589D01*
X15729682Y-12700589D02*
X15739205Y-12738684D01*
X15739205Y-12738684D02*
X15739205Y-12786303D01*
X15739205Y-12786303D02*
X15729682Y-12824398D01*
X15729682Y-12824398D02*
X15720158Y-12843446D01*
X15720158Y-12843446D02*
X15710634Y-12852970D01*
X15710634Y-12852970D02*
X15691586Y-12862494D01*
X15691586Y-12862494D02*
X15672539Y-12862494D01*
X15672539Y-12862494D02*
X15653491Y-12852970D01*
X15653491Y-12852970D02*
X15643967Y-12843446D01*
X15643967Y-12843446D02*
X15634443Y-12824398D01*
X15634443Y-12824398D02*
X15624920Y-12786303D01*
X15624920Y-12786303D02*
X15624920Y-12738684D01*
X15624920Y-12738684D02*
X15634443Y-12700589D01*
X15634443Y-12700589D02*
X15643967Y-12681541D01*
X15643967Y-12681541D02*
X15653491Y-12672017D01*
X15653491Y-12672017D02*
X15672539Y-12662494D01*
X15824920Y-12862494D02*
X15824920Y-12729160D01*
X15824920Y-12748208D02*
X15834443Y-12738684D01*
X15834443Y-12738684D02*
X15853491Y-12729160D01*
X15853491Y-12729160D02*
X15882063Y-12729160D01*
X15882063Y-12729160D02*
X15901110Y-12738684D01*
X15901110Y-12738684D02*
X15910634Y-12757732D01*
X15910634Y-12757732D02*
X15910634Y-12862494D01*
X15910634Y-12757732D02*
X15920158Y-12738684D01*
X15920158Y-12738684D02*
X15939205Y-12729160D01*
X15939205Y-12729160D02*
X15967777Y-12729160D01*
X15967777Y-12729160D02*
X15986824Y-12738684D01*
X15986824Y-12738684D02*
X15996348Y-12757732D01*
X15996348Y-12757732D02*
X15996348Y-12862494D01*
X16091586Y-12862494D02*
X16091586Y-12729160D01*
X16091586Y-12748208D02*
X16101110Y-12738684D01*
X16101110Y-12738684D02*
X16120158Y-12729160D01*
X16120158Y-12729160D02*
X16148729Y-12729160D01*
X16148729Y-12729160D02*
X16167777Y-12738684D01*
X16167777Y-12738684D02*
X16177301Y-12757732D01*
X16177301Y-12757732D02*
X16177301Y-12862494D01*
X16177301Y-12757732D02*
X16186824Y-12738684D01*
X16186824Y-12738684D02*
X16205872Y-12729160D01*
X16205872Y-12729160D02*
X16234443Y-12729160D01*
X16234443Y-12729160D02*
X16253491Y-12738684D01*
X16253491Y-12738684D02*
X16263015Y-12757732D01*
X16263015Y-12757732D02*
X16263015Y-12862494D01*
X16653491Y-12652970D02*
X16482063Y-12910113D01*
X16910634Y-12662494D02*
X16929682Y-12662494D01*
X16929682Y-12662494D02*
X16948729Y-12672017D01*
X16948729Y-12672017D02*
X16958253Y-12681541D01*
X16958253Y-12681541D02*
X16967777Y-12700589D01*
X16967777Y-12700589D02*
X16977301Y-12738684D01*
X16977301Y-12738684D02*
X16977301Y-12786303D01*
X16977301Y-12786303D02*
X16967777Y-12824398D01*
X16967777Y-12824398D02*
X16958253Y-12843446D01*
X16958253Y-12843446D02*
X16948729Y-12852970D01*
X16948729Y-12852970D02*
X16929682Y-12862494D01*
X16929682Y-12862494D02*
X16910634Y-12862494D01*
X16910634Y-12862494D02*
X16891587Y-12852970D01*
X16891587Y-12852970D02*
X16882063Y-12843446D01*
X16882063Y-12843446D02*
X16872539Y-12824398D01*
X16872539Y-12824398D02*
X16863015Y-12786303D01*
X16863015Y-12786303D02*
X16863015Y-12738684D01*
X16863015Y-12738684D02*
X16872539Y-12700589D01*
X16872539Y-12700589D02*
X16882063Y-12681541D01*
X16882063Y-12681541D02*
X16891587Y-12672017D01*
X16891587Y-12672017D02*
X16910634Y-12662494D01*
X17063015Y-12843446D02*
X17072539Y-12852970D01*
X17072539Y-12852970D02*
X17063015Y-12862494D01*
X17063015Y-12862494D02*
X17053491Y-12852970D01*
X17053491Y-12852970D02*
X17063015Y-12843446D01*
X17063015Y-12843446D02*
X17063015Y-12862494D01*
X17263015Y-12862494D02*
X17148729Y-12862494D01*
X17205872Y-12862494D02*
X17205872Y-12662494D01*
X17205872Y-12662494D02*
X17186825Y-12691065D01*
X17186825Y-12691065D02*
X17167777Y-12710113D01*
X17167777Y-12710113D02*
X17148729Y-12719636D01*
X17339206Y-12681541D02*
X17348729Y-12672017D01*
X17348729Y-12672017D02*
X17367777Y-12662494D01*
X17367777Y-12662494D02*
X17415396Y-12662494D01*
X17415396Y-12662494D02*
X17434444Y-12672017D01*
X17434444Y-12672017D02*
X17443968Y-12681541D01*
X17443968Y-12681541D02*
X17453491Y-12700589D01*
X17453491Y-12700589D02*
X17453491Y-12719636D01*
X17453491Y-12719636D02*
X17443968Y-12748208D01*
X17443968Y-12748208D02*
X17329682Y-12862494D01*
X17329682Y-12862494D02*
X17453491Y-12862494D01*
X17624920Y-12662494D02*
X17586825Y-12662494D01*
X17586825Y-12662494D02*
X17567777Y-12672017D01*
X17567777Y-12672017D02*
X17558253Y-12681541D01*
X17558253Y-12681541D02*
X17539206Y-12710113D01*
X17539206Y-12710113D02*
X17529682Y-12748208D01*
X17529682Y-12748208D02*
X17529682Y-12824398D01*
X17529682Y-12824398D02*
X17539206Y-12843446D01*
X17539206Y-12843446D02*
X17548729Y-12852970D01*
X17548729Y-12852970D02*
X17567777Y-12862494D01*
X17567777Y-12862494D02*
X17605872Y-12862494D01*
X17605872Y-12862494D02*
X17624920Y-12852970D01*
X17624920Y-12852970D02*
X17634444Y-12843446D01*
X17634444Y-12843446D02*
X17643968Y-12824398D01*
X17643968Y-12824398D02*
X17643968Y-12776779D01*
X17643968Y-12776779D02*
X17634444Y-12757732D01*
X17634444Y-12757732D02*
X17624920Y-12748208D01*
X17624920Y-12748208D02*
X17605872Y-12738684D01*
X17605872Y-12738684D02*
X17567777Y-12738684D01*
X17567777Y-12738684D02*
X17548729Y-12748208D01*
X17548729Y-12748208D02*
X17539206Y-12757732D01*
X17539206Y-12757732D02*
X17529682Y-12776779D01*
X17767777Y-12662494D02*
X17786825Y-12662494D01*
X17786825Y-12662494D02*
X17805872Y-12672017D01*
X17805872Y-12672017D02*
X17815396Y-12681541D01*
X17815396Y-12681541D02*
X17824920Y-12700589D01*
X17824920Y-12700589D02*
X17834444Y-12738684D01*
X17834444Y-12738684D02*
X17834444Y-12786303D01*
X17834444Y-12786303D02*
X17824920Y-12824398D01*
X17824920Y-12824398D02*
X17815396Y-12843446D01*
X17815396Y-12843446D02*
X17805872Y-12852970D01*
X17805872Y-12852970D02*
X17786825Y-12862494D01*
X17786825Y-12862494D02*
X17767777Y-12862494D01*
X17767777Y-12862494D02*
X17748729Y-12852970D01*
X17748729Y-12852970D02*
X17739206Y-12843446D01*
X17739206Y-12843446D02*
X17729682Y-12824398D01*
X17729682Y-12824398D02*
X17720158Y-12786303D01*
X17720158Y-12786303D02*
X17720158Y-12738684D01*
X17720158Y-12738684D02*
X17729682Y-12700589D01*
X17729682Y-12700589D02*
X17739206Y-12681541D01*
X17739206Y-12681541D02*
X17748729Y-12672017D01*
X17748729Y-12672017D02*
X17767777Y-12662494D01*
X17910634Y-12662494D02*
X17910634Y-12700589D01*
X17986825Y-12662494D02*
X17986825Y-12700589D01*
X18282063Y-12938684D02*
X18272539Y-12929160D01*
X18272539Y-12929160D02*
X18253491Y-12900589D01*
X18253491Y-12900589D02*
X18243968Y-12881541D01*
X18243968Y-12881541D02*
X18234444Y-12852970D01*
X18234444Y-12852970D02*
X18224920Y-12805351D01*
X18224920Y-12805351D02*
X18224920Y-12767256D01*
X18224920Y-12767256D02*
X18234444Y-12719636D01*
X18234444Y-12719636D02*
X18243968Y-12691065D01*
X18243968Y-12691065D02*
X18253491Y-12672017D01*
X18253491Y-12672017D02*
X18272539Y-12643446D01*
X18272539Y-12643446D02*
X18282063Y-12633922D01*
X18348730Y-12681541D02*
X18358253Y-12672017D01*
X18358253Y-12672017D02*
X18377301Y-12662494D01*
X18377301Y-12662494D02*
X18424920Y-12662494D01*
X18424920Y-12662494D02*
X18443968Y-12672017D01*
X18443968Y-12672017D02*
X18453491Y-12681541D01*
X18453491Y-12681541D02*
X18463015Y-12700589D01*
X18463015Y-12700589D02*
X18463015Y-12719636D01*
X18463015Y-12719636D02*
X18453491Y-12748208D01*
X18453491Y-12748208D02*
X18339206Y-12862494D01*
X18339206Y-12862494D02*
X18463015Y-12862494D01*
X18701111Y-12862494D02*
X18701111Y-12662494D01*
X18786825Y-12862494D02*
X18786825Y-12757732D01*
X18786825Y-12757732D02*
X18777301Y-12738684D01*
X18777301Y-12738684D02*
X18758253Y-12729160D01*
X18758253Y-12729160D02*
X18729682Y-12729160D01*
X18729682Y-12729160D02*
X18710634Y-12738684D01*
X18710634Y-12738684D02*
X18701111Y-12748208D01*
X18910634Y-12862494D02*
X18891587Y-12852970D01*
X18891587Y-12852970D02*
X18882063Y-12843446D01*
X18882063Y-12843446D02*
X18872539Y-12824398D01*
X18872539Y-12824398D02*
X18872539Y-12767256D01*
X18872539Y-12767256D02*
X18882063Y-12748208D01*
X18882063Y-12748208D02*
X18891587Y-12738684D01*
X18891587Y-12738684D02*
X18910634Y-12729160D01*
X18910634Y-12729160D02*
X18939206Y-12729160D01*
X18939206Y-12729160D02*
X18958253Y-12738684D01*
X18958253Y-12738684D02*
X18967777Y-12748208D01*
X18967777Y-12748208D02*
X18977301Y-12767256D01*
X18977301Y-12767256D02*
X18977301Y-12824398D01*
X18977301Y-12824398D02*
X18967777Y-12843446D01*
X18967777Y-12843446D02*
X18958253Y-12852970D01*
X18958253Y-12852970D02*
X18939206Y-12862494D01*
X18939206Y-12862494D02*
X18910634Y-12862494D01*
X19091587Y-12862494D02*
X19072539Y-12852970D01*
X19072539Y-12852970D02*
X19063015Y-12833922D01*
X19063015Y-12833922D02*
X19063015Y-12662494D01*
X19243968Y-12852970D02*
X19224920Y-12862494D01*
X19224920Y-12862494D02*
X19186825Y-12862494D01*
X19186825Y-12862494D02*
X19167777Y-12852970D01*
X19167777Y-12852970D02*
X19158253Y-12833922D01*
X19158253Y-12833922D02*
X19158253Y-12757732D01*
X19158253Y-12757732D02*
X19167777Y-12738684D01*
X19167777Y-12738684D02*
X19186825Y-12729160D01*
X19186825Y-12729160D02*
X19224920Y-12729160D01*
X19224920Y-12729160D02*
X19243968Y-12738684D01*
X19243968Y-12738684D02*
X19253492Y-12757732D01*
X19253492Y-12757732D02*
X19253492Y-12776779D01*
X19253492Y-12776779D02*
X19158253Y-12795827D01*
X19329682Y-12852970D02*
X19348730Y-12862494D01*
X19348730Y-12862494D02*
X19386825Y-12862494D01*
X19386825Y-12862494D02*
X19405873Y-12852970D01*
X19405873Y-12852970D02*
X19415396Y-12833922D01*
X19415396Y-12833922D02*
X19415396Y-12824398D01*
X19415396Y-12824398D02*
X19405873Y-12805351D01*
X19405873Y-12805351D02*
X19386825Y-12795827D01*
X19386825Y-12795827D02*
X19358253Y-12795827D01*
X19358253Y-12795827D02*
X19339206Y-12786303D01*
X19339206Y-12786303D02*
X19329682Y-12767256D01*
X19329682Y-12767256D02*
X19329682Y-12757732D01*
X19329682Y-12757732D02*
X19339206Y-12738684D01*
X19339206Y-12738684D02*
X19358253Y-12729160D01*
X19358253Y-12729160D02*
X19386825Y-12729160D01*
X19386825Y-12729160D02*
X19405873Y-12738684D01*
X19482063Y-12938684D02*
X19491587Y-12929160D01*
X19491587Y-12929160D02*
X19510634Y-12900589D01*
X19510634Y-12900589D02*
X19520158Y-12881541D01*
X19520158Y-12881541D02*
X19529682Y-12852970D01*
X19529682Y-12852970D02*
X19539206Y-12805351D01*
X19539206Y-12805351D02*
X19539206Y-12767256D01*
X19539206Y-12767256D02*
X19529682Y-12719636D01*
X19529682Y-12719636D02*
X19520158Y-12691065D01*
X19520158Y-12691065D02*
X19510634Y-12672017D01*
X19510634Y-12672017D02*
X19491587Y-12643446D01*
X19491587Y-12643446D02*
X19482063Y-12633922D01*
M02*
