%TF.GenerationSoftware,KiCad,Pcbnew,8.0.6*%
%TF.CreationDate,2024-11-06T22:11:36-05:00*%
%TF.ProjectId,CPLD Replacement,43504c44-2052-4657-906c-6163656d656e,rev?*%
%TF.SameCoordinates,Original*%
%TF.FileFunction,Copper,L1,Top*%
%TF.FilePolarity,Positive*%
%FSLAX46Y46*%
G04 Gerber Fmt 4.6, Leading zero omitted, Abs format (unit mm)*
G04 Created by KiCad (PCBNEW 8.0.6) date 2024-11-06 22:11:36*
%MOMM*%
%LPD*%
G01*
G04 APERTURE LIST*
G04 Aperture macros list*
%AMRoundRect*
0 Rectangle with rounded corners*
0 $1 Rounding radius*
0 $2 $3 $4 $5 $6 $7 $8 $9 X,Y pos of 4 corners*
0 Add a 4 corners polygon primitive as box body*
4,1,4,$2,$3,$4,$5,$6,$7,$8,$9,$2,$3,0*
0 Add four circle primitives for the rounded corners*
1,1,$1+$1,$2,$3*
1,1,$1+$1,$4,$5*
1,1,$1+$1,$6,$7*
1,1,$1+$1,$8,$9*
0 Add four rect primitives between the rounded corners*
20,1,$1+$1,$2,$3,$4,$5,0*
20,1,$1+$1,$4,$5,$6,$7,0*
20,1,$1+$1,$6,$7,$8,$9,0*
20,1,$1+$1,$8,$9,$2,$3,0*%
%AMFreePoly0*
4,1,19,0.358779,0.830902,0.395106,0.780902,0.400000,0.750000,0.400000,0.060000,0.380902,0.001221,0.365493,-0.015569,0.065493,-0.275569,0.008567,-0.299632,-0.051632,-0.285640,-0.065493,-0.275569,-0.365493,-0.015569,-0.397403,0.037359,-0.400000,0.060000,-0.400000,0.750000,-0.380902,0.808779,-0.330902,0.845106,-0.300000,0.850000,0.300000,0.850000,0.358779,0.830902,0.358779,0.830902,
$1*%
G04 Aperture macros list end*
%TA.AperFunction,SMDPad,CuDef*%
%ADD10RoundRect,0.237500X-0.250000X-0.237500X0.250000X-0.237500X0.250000X0.237500X-0.250000X0.237500X0*%
%TD*%
%TA.AperFunction,ComponentPad*%
%ADD11C,0.800000*%
%TD*%
%TA.AperFunction,ComponentPad*%
%ADD12FreePoly0,0.000000*%
%TD*%
%TA.AperFunction,ComponentPad*%
%ADD13FreePoly0,90.000000*%
%TD*%
%TA.AperFunction,ComponentPad*%
%ADD14FreePoly0,180.000000*%
%TD*%
%TA.AperFunction,ComponentPad*%
%ADD15FreePoly0,270.000000*%
%TD*%
%TA.AperFunction,SMDPad,CuDef*%
%ADD16R,1.676400X0.355600*%
%TD*%
%TA.AperFunction,SMDPad,CuDef*%
%ADD17RoundRect,0.237500X0.250000X0.237500X-0.250000X0.237500X-0.250000X-0.237500X0.250000X-0.237500X0*%
%TD*%
%TA.AperFunction,ViaPad*%
%ADD18C,0.600000*%
%TD*%
%TA.AperFunction,ViaPad*%
%ADD19C,0.400000*%
%TD*%
%TA.AperFunction,Conductor*%
%ADD20C,0.400000*%
%TD*%
%TA.AperFunction,Conductor*%
%ADD21C,0.200000*%
%TD*%
G04 APERTURE END LIST*
D10*
%TO.P,R3,1*%
%TO.N,/VideoSW_Voodoo*%
X143187500Y-100060000D03*
%TO.P,R3,2*%
%TO.N,GND*%
X145012500Y-100060000D03*
%TD*%
D11*
%TO.P,E1,1,FBI_193*%
%TO.N,/Monitor_Detection*%
X146500000Y-87530000D03*
D12*
X146500000Y-88280000D03*
D11*
%TO.P,E1,2,FBI_199*%
%TO.N,unconnected-(E1-FBI_199-Pad2)*%
X145230000Y-87530000D03*
D12*
%TO.N,unconnected-(E1-FBI_199-Pad2)_1*%
X145230000Y-88280000D03*
D11*
%TO.P,E1,3,J23A_3*%
%TO.N,unconnected-(E1-J23A_3-Pad3)*%
X143960000Y-87530000D03*
D12*
%TO.N,unconnected-(E1-J23A_3-Pad3)_1*%
X143960000Y-88280000D03*
D11*
%TO.P,E1,4,J23A_5*%
%TO.N,unconnected-(E1-J23A_5-Pad4)_1*%
X142690000Y-87530000D03*
D12*
%TO.N,unconnected-(E1-J23A_5-Pad4)*%
X142690000Y-88280000D03*
D11*
%TO.P,E1,5,To_Pin_22*%
%TO.N,unconnected-(E1-To_Pin_22-Pad5)*%
X141420000Y-87530000D03*
D12*
%TO.N,unconnected-(E1-To_Pin_22-Pad5)_1*%
X141420000Y-88280000D03*
D11*
%TO.P,E1,6,To_Pin_19*%
%TO.N,unconnected-(E1-To_Pin_19-Pad6)*%
X140150000Y-87530000D03*
D12*
%TO.N,unconnected-(E1-To_Pin_19-Pad6)_1*%
X140150000Y-88280000D03*
D11*
%TO.P,E1,7,VGA_Out_4*%
%TO.N,unconnected-(E1-VGA_Out_4-Pad7)_1*%
X138500000Y-89180000D03*
D13*
%TO.N,unconnected-(E1-VGA_Out_4-Pad7)*%
X139250000Y-89180000D03*
D11*
%TO.P,E1,8,DAC_68_Sense#*%
%TO.N,/Monitor_Detection*%
X138500000Y-90450000D03*
D13*
X139250000Y-90450000D03*
D11*
%TO.P,E1,9,U68_2*%
%TO.N,unconnected-(E1-U68_2-Pad9)_1*%
X138500000Y-91720000D03*
D13*
%TO.N,unconnected-(E1-U68_2-Pad9)*%
X139250000Y-91720000D03*
D11*
%TO.P,E1,10,GND*%
%TO.N,GND*%
X138500000Y-92990000D03*
D13*
X139250000Y-92990000D03*
D11*
%TO.P,E1,11,VGA_Out_VSync*%
%TO.N,/VGA_OUT_VSync*%
X138500000Y-94260000D03*
D13*
X139250000Y-94260000D03*
D11*
%TO.P,E1,12,U23_35*%
%TO.N,unconnected-(E1-U23_35-Pad12)*%
X138500000Y-95530000D03*
D13*
%TO.N,unconnected-(E1-U23_35-Pad12)_1*%
X139250000Y-95530000D03*
D11*
%TO.P,E1,13,FBI_193+47R*%
%TO.N,unconnected-(E1-FBI_193+47R-Pad13)_1*%
X138500000Y-96800000D03*
D13*
%TO.N,unconnected-(E1-FBI_193+47R-Pad13)*%
X139250000Y-96800000D03*
D11*
%TO.P,E1,14,U67_3*%
%TO.N,unconnected-(E1-U67_3-Pad14)_1*%
X138500000Y-98070000D03*
D13*
%TO.N,unconnected-(E1-U67_3-Pad14)*%
X139250000Y-98070000D03*
D11*
%TO.P,E1,15,JTAG_TDI*%
%TO.N,unconnected-(E1-JTAG_TDI-Pad15)_1*%
X138500000Y-99340000D03*
D13*
%TO.N,unconnected-(E1-JTAG_TDI-Pad15)*%
X139250000Y-99340000D03*
D11*
%TO.P,E1,16,JTAG_TMS*%
%TO.N,unconnected-(E1-JTAG_TMS-Pad16)_1*%
X138500000Y-100610000D03*
D13*
%TO.N,unconnected-(E1-JTAG_TMS-Pad16)*%
X139250000Y-100610000D03*
D11*
%TO.P,E1,17,JTAG_TCK*%
%TO.N,unconnected-(E1-JTAG_TCK-Pad17)*%
X138500000Y-101880000D03*
D13*
%TO.N,unconnected-(E1-JTAG_TCK-Pad17)_1*%
X139250000Y-101880000D03*
D14*
%TO.P,E1,18,FBI_189_VD_VSync*%
%TO.N,/VD_VSync*%
X140150000Y-102780000D03*
D11*
X140150000Y-103530000D03*
D14*
%TO.P,E1,19,To_Pin_6*%
%TO.N,unconnected-(E1-To_Pin_6-Pad19)*%
X141420000Y-102780000D03*
D11*
%TO.N,unconnected-(E1-To_Pin_6-Pad19)_1*%
X141420000Y-103530000D03*
D14*
%TO.P,E1,20,VideoSW_Voodoo*%
%TO.N,/VideoSW_Voodoo*%
X142690000Y-102780000D03*
D11*
X142690000Y-103530000D03*
D14*
%TO.P,E1,21,5V*%
%TO.N,unconnected-(E1-5V-Pad21)_1*%
X143960000Y-102780000D03*
D11*
%TO.N,unconnected-(E1-5V-Pad21)*%
X143960000Y-103530000D03*
D14*
%TO.P,E1,22,To_Pin_5*%
%TO.N,unconnected-(E1-To_Pin_5-Pad22)_1*%
X145230000Y-102780000D03*
D11*
%TO.N,unconnected-(E1-To_Pin_5-Pad22)*%
X145230000Y-103530000D03*
D14*
%TO.P,E1,23,GND*%
%TO.N,GND*%
X146500000Y-102780000D03*
D11*
X146500000Y-103530000D03*
D14*
%TO.P,E1,24,VGA_Out_HSync*%
%TO.N,/VGA_OUT_HSync*%
X147770000Y-102780000D03*
D11*
X147770000Y-103530000D03*
D14*
%TO.P,E1,25,U23_34*%
%TO.N,unconnected-(E1-U23_34-Pad25)_1*%
X149040000Y-102780000D03*
D11*
%TO.N,unconnected-(E1-U23_34-Pad25)*%
X149040000Y-103530000D03*
D14*
%TO.P,E1,26,U65_13*%
%TO.N,unconnected-(E1-U65_13-Pad26)_1*%
X150310000Y-102780000D03*
D11*
%TO.N,unconnected-(E1-U65_13-Pad26)*%
X150310000Y-103530000D03*
D14*
%TO.P,E1,27,?*%
%TO.N,unconnected-(E1-?-Pad27)*%
X151580000Y-102780000D03*
D11*
%TO.N,unconnected-(E1-?-Pad27)_1*%
X151580000Y-103530000D03*
D14*
%TO.P,E1,28,FBI_188_VD_HSync*%
%TO.N,/VD_HSync*%
X152850000Y-102780000D03*
D11*
X152850000Y-103530000D03*
D15*
%TO.P,E1,29,U65_10*%
%TO.N,unconnected-(E1-U65_10-Pad29)_1*%
X153750000Y-101880000D03*
D11*
%TO.N,unconnected-(E1-U65_10-Pad29)*%
X154500000Y-101880000D03*
D15*
%TO.P,E1,30,JTAG_TDO*%
%TO.N,unconnected-(E1-JTAG_TDO-Pad30)*%
X153750000Y-100610000D03*
D11*
%TO.N,unconnected-(E1-JTAG_TDO-Pad30)_1*%
X154500000Y-100610000D03*
D15*
%TO.P,E1,31,GND*%
%TO.N,GND*%
X153750000Y-99340000D03*
D11*
X154500000Y-99340000D03*
D15*
%TO.P,E1,32,5V*%
%TO.N,unconnected-(E1-5V-Pad32)*%
X153750000Y-98070000D03*
D11*
%TO.N,unconnected-(E1-5V-Pad32)_1*%
X154500000Y-98070000D03*
D15*
%TO.P,E1,33,VideoSW_Passthru*%
%TO.N,/VideoSW_Passthru*%
X153750000Y-96800000D03*
D11*
X154500000Y-96800000D03*
D15*
%TO.P,E1,34,To_Pin_39*%
%TO.N,unconnected-(E1-To_Pin_39-Pad34)_1*%
X153750000Y-95530000D03*
D11*
%TO.N,unconnected-(E1-To_Pin_39-Pad34)*%
X154500000Y-95530000D03*
D15*
%TO.P,E1,35,VGA_IN_HSync*%
%TO.N,/VGA_IN_HSync*%
X153750000Y-94260000D03*
D11*
X154500000Y-94260000D03*
D15*
%TO.P,E1,36,FBI_197_&_Both_TMU_208*%
%TO.N,unconnected-(E1-FBI_197_&_Both_TMU_208-Pad36)_1*%
X153750000Y-92990000D03*
D11*
%TO.N,unconnected-(E1-FBI_197_&_Both_TMU_208-Pad36)*%
X154500000Y-92990000D03*
D15*
%TO.P,E1,37,VGA_IN_VSync*%
%TO.N,/VGA_IN_VSync*%
X153750000Y-91720000D03*
D11*
X154500000Y-91720000D03*
D15*
%TO.P,E1,38,U23_15*%
%TO.N,unconnected-(E1-U23_15-Pad38)_1*%
X153750000Y-90450000D03*
D11*
%TO.N,unconnected-(E1-U23_15-Pad38)*%
X154500000Y-90450000D03*
D15*
%TO.P,E1,39,To_Pin_34*%
%TO.N,unconnected-(E1-To_Pin_34-Pad39)_1*%
X153750000Y-89180000D03*
D11*
%TO.N,unconnected-(E1-To_Pin_34-Pad39)*%
X154500000Y-89180000D03*
%TO.P,E1,40,NC*%
%TO.N,unconnected-(E1-NC-Pad40)_1*%
X152850000Y-87530000D03*
D12*
%TO.N,unconnected-(E1-NC-Pad40)*%
X152850000Y-88280000D03*
D11*
%TO.P,E1,41,5V*%
%TO.N,+5V*%
X151580000Y-87530000D03*
D12*
X151580000Y-88280000D03*
D11*
%TO.P,E1,42,NC*%
%TO.N,unconnected-(E1-NC-Pad42)_1*%
X150310000Y-87530000D03*
D12*
%TO.N,unconnected-(E1-NC-Pad42)*%
X150310000Y-88280000D03*
D11*
%TO.P,E1,43,U67_2*%
%TO.N,unconnected-(E1-U67_2-Pad43)*%
X149040000Y-87530000D03*
D12*
%TO.N,unconnected-(E1-U67_2-Pad43)_1*%
X149040000Y-88280000D03*
D11*
%TO.P,E1,44,FBI_228_VGAPASS*%
%TO.N,/VGA_PASS*%
X147770000Y-87530000D03*
D12*
X147770000Y-88280000D03*
%TD*%
D16*
%TO.P,U1,1,B1*%
%TO.N,/VD_VSync*%
X143680600Y-93255001D03*
%TO.P,U1,2,B0*%
%TO.N,/VGA_IN_VSync*%
X143680600Y-93904999D03*
%TO.P,U1,3,C1*%
%TO.N,/VideoSW_Passthru*%
X143680600Y-94555001D03*
%TO.P,U1,4,CN*%
%TO.N,/Logic_High*%
X143680600Y-95204999D03*
%TO.P,U1,5,C0*%
%TO.N,/VideoSW_Voodoo*%
X143680600Y-95854998D03*
%TO.P,U1,6,\u002AE*%
%TO.N,GND*%
X143680600Y-96504999D03*
%TO.P,U1,7,VEE*%
X143680600Y-97154998D03*
%TO.P,U1,8,GND*%
X143680600Y-97804999D03*
%TO.P,U1,9,S2*%
%TO.N,/VGA_PASS*%
X149319400Y-97804999D03*
%TO.P,U1,10,S1*%
X149319400Y-97155001D03*
%TO.P,U1,11,S0*%
X149319400Y-96504999D03*
%TO.P,U1,12,A0*%
%TO.N,/VGA_IN_HSync*%
X149319400Y-95855001D03*
%TO.P,U1,13,A1*%
%TO.N,/VD_HSync*%
X149319400Y-95205002D03*
%TO.P,U1,14,AN*%
%TO.N,/VGA_OUT_HSync*%
X149319400Y-94555001D03*
%TO.P,U1,15,BN*%
%TO.N,/VGA_OUT_VSync*%
X149319400Y-93905002D03*
%TO.P,U1,16,VCC*%
%TO.N,+5V*%
X149319400Y-93255001D03*
%TD*%
D10*
%TO.P,R1,1*%
%TO.N,/Logic_High*%
X143187500Y-91040000D03*
%TO.P,R1,2*%
%TO.N,+5V*%
X145012500Y-91040000D03*
%TD*%
D17*
%TO.P,C1,1*%
%TO.N,+5V*%
X149632500Y-91030000D03*
%TO.P,C1,2*%
%TO.N,GND*%
X147807500Y-91030000D03*
%TD*%
D10*
%TO.P,R2,1*%
%TO.N,/VideoSW_Passthru*%
X147807500Y-100060000D03*
%TO.P,R2,2*%
%TO.N,GND*%
X149632500Y-100060000D03*
%TD*%
D18*
%TO.N,GND*%
X141440000Y-89300000D03*
X151580000Y-101540000D03*
X147750000Y-96140000D03*
X149680000Y-89310000D03*
X146490000Y-94790000D03*
X140810000Y-98070000D03*
X152660000Y-89270000D03*
X146500000Y-101530000D03*
X151740000Y-92990000D03*
D19*
%TO.N,/VGA_IN_VSync*%
X148610000Y-92140000D03*
%TO.N,/VD_VSync*%
X143680000Y-92410000D03*
%TO.N,/VGA_PASS*%
X147910000Y-97140000D03*
%TO.N,/VGA_OUT_HSync*%
X146780000Y-97150000D03*
%TO.N,/VGA_IN_HSync*%
X151110000Y-97260000D03*
%TO.N,/VideoSW_Passthru*%
X148650000Y-99220000D03*
%TO.N,/VGA_OUT_VSync*%
X145730000Y-94260000D03*
%TD*%
D20*
%TO.N,+5V*%
X151580000Y-89355786D02*
X151580000Y-88280000D01*
X150612893Y-90737107D02*
X151287107Y-90062893D01*
X147890786Y-89720000D02*
X146746714Y-89720000D01*
X149804999Y-93255001D02*
X149319400Y-93255001D01*
X149960000Y-93100000D02*
X149804999Y-93255001D01*
X146039607Y-90012893D02*
X145012500Y-91040000D01*
X149615000Y-91030000D02*
X149667107Y-91082107D01*
X149615000Y-91030000D02*
X149905786Y-91030000D01*
X149615000Y-91030000D02*
X148597893Y-90012893D01*
X149960000Y-91789214D02*
X149960000Y-93100000D01*
X149667107Y-91082107D02*
G75*
G02*
X149959990Y-91789214I-707107J-707093D01*
G01*
X149905786Y-91030000D02*
G75*
G03*
X150612900Y-90737114I14J1000000D01*
G01*
X151580000Y-89355786D02*
G75*
G02*
X151287114Y-90062900I-1000000J-14D01*
G01*
X148597893Y-90012893D02*
G75*
G03*
X147890786Y-89720010I-707093J-707107D01*
G01*
X146039607Y-90012893D02*
G75*
G02*
X146746714Y-89720010I707093J-707107D01*
G01*
D21*
%TO.N,/VGA_IN_VSync*%
X146237107Y-92432893D02*
X145057894Y-93612106D01*
X148610000Y-92140000D02*
X146944214Y-92140000D01*
X144350787Y-93904999D02*
X143591700Y-93904999D01*
X145057894Y-93612106D02*
G75*
G02*
X144350787Y-93904990I-707094J707106D01*
G01*
X146237107Y-92432893D02*
G75*
G02*
X146944214Y-92140010I707093J-707107D01*
G01*
%TO.N,/VD_VSync*%
X143680000Y-93254401D02*
X143680600Y-93255001D01*
X143680000Y-92410000D02*
X143680000Y-93254401D01*
%TO.N,/VGA_PASS*%
X147925001Y-97155001D02*
X147910000Y-97140000D01*
X147910000Y-97140000D02*
X147910000Y-97480000D01*
X147910000Y-96830000D02*
X147942108Y-96797892D01*
X148649213Y-97804999D02*
X149319400Y-97804999D01*
X149319400Y-97155001D02*
X147925001Y-97155001D01*
X148649215Y-96504999D02*
X149319400Y-96504999D01*
X147910000Y-97480000D02*
X147942106Y-97512106D01*
X147910000Y-97140000D02*
X147910000Y-96830000D01*
X148649215Y-96504999D02*
G75*
G03*
X147942101Y-96797885I-15J-1000001D01*
G01*
X148649213Y-97804999D02*
G75*
G02*
X147942100Y-97512112I-13J999999D01*
G01*
%TO.N,/VGA_OUT_HSync*%
X146780000Y-97150000D02*
X146780000Y-96414214D01*
X148639213Y-94555001D02*
X149319400Y-94555001D01*
X147072893Y-95707107D02*
X147932106Y-94847894D01*
X147932106Y-94847894D02*
G75*
G02*
X148639213Y-94555010I707094J-707106D01*
G01*
X147072893Y-95707107D02*
G75*
G03*
X146780010Y-96414214I707107J-707093D01*
G01*
%TO.N,/VGA_IN_HSync*%
X149319400Y-95855001D02*
X149990787Y-95855001D01*
X150697894Y-96147894D02*
X150817107Y-96267107D01*
X151110000Y-96974214D02*
X151110000Y-97260000D01*
X149990787Y-95855001D02*
G75*
G02*
X150697900Y-96147888I13J-999999D01*
G01*
X151110000Y-96974214D02*
G75*
G03*
X150817114Y-96267100I-1000000J14D01*
G01*
%TO.N,/VideoSW_Voodoo*%
X142690000Y-100971714D02*
X142690000Y-102780000D01*
X143079216Y-95854998D02*
X143591700Y-95854998D01*
X143187500Y-100060000D02*
X142982893Y-100264607D01*
X142162893Y-96357107D02*
X142372109Y-96147891D01*
X143187500Y-100060000D02*
X142162893Y-99035393D01*
X141870000Y-98328286D02*
X141870000Y-97064214D01*
X141870000Y-98328286D02*
G75*
G03*
X142162886Y-99035400I1000000J-14D01*
G01*
X142690000Y-100971714D02*
G75*
G02*
X142982886Y-100264600I1000000J14D01*
G01*
X142372109Y-96147891D02*
G75*
G02*
X143079216Y-95855010I707091J-707109D01*
G01*
X142162893Y-96357107D02*
G75*
G03*
X141870010Y-97064214I707107J-707093D01*
G01*
%TO.N,/VideoSW_Passthru*%
X148647500Y-99220000D02*
X148650000Y-99220000D01*
X146883750Y-99136250D02*
X145972893Y-98225393D01*
X145387107Y-95177107D02*
X145057894Y-94847894D01*
X147807500Y-100060000D02*
X148647500Y-99220000D01*
X147807500Y-100060000D02*
X146883750Y-99136250D01*
X145680000Y-97518286D02*
X145680000Y-95884214D01*
X144350787Y-94555001D02*
X143680600Y-94555001D01*
X145387107Y-95177107D02*
G75*
G02*
X145679990Y-95884214I-707107J-707093D01*
G01*
X145057894Y-94847894D02*
G75*
G03*
X144350787Y-94555010I-707094J-707106D01*
G01*
X145972893Y-98225393D02*
G75*
G02*
X145680010Y-97518286I707107J707093D01*
G01*
%TO.N,/VD_HSync*%
X151877107Y-96077107D02*
X151297895Y-95497895D01*
X152557107Y-102017107D02*
X152462893Y-101922893D01*
X152850000Y-102780000D02*
X152850000Y-102724214D01*
X150590788Y-95205002D02*
X149319400Y-95205002D01*
X152170000Y-101215786D02*
X152170000Y-96784214D01*
X152462893Y-101922893D02*
G75*
G02*
X152170010Y-101215786I707107J707093D01*
G01*
X151877107Y-96077107D02*
G75*
G02*
X152169990Y-96784214I-707107J-707093D01*
G01*
X151297895Y-95497895D02*
G75*
G03*
X150590788Y-95205010I-707095J-707105D01*
G01*
X152557107Y-102017107D02*
G75*
G02*
X152849990Y-102724214I-707107J-707093D01*
G01*
%TO.N,/VGA_OUT_VSync*%
X145730000Y-94260000D02*
X145792105Y-94197895D01*
X146499212Y-93905002D02*
X149230500Y-93905002D01*
X146499212Y-93905002D02*
G75*
G03*
X145792100Y-94197890I-12J-999998D01*
G01*
%TO.N,/Logic_High*%
X141850000Y-93980786D02*
X141850000Y-92791714D01*
X142142893Y-92084607D02*
X143187500Y-91040000D01*
X143591700Y-95204999D02*
X143074213Y-95204999D01*
X142367106Y-94912106D02*
X142142893Y-94687893D01*
X143074213Y-95204999D02*
G75*
G02*
X142367100Y-94912112I-13J999999D01*
G01*
X142142893Y-94687893D02*
G75*
G02*
X141850010Y-93980786I707107J707093D01*
G01*
X142142893Y-92084607D02*
G75*
G03*
X141850010Y-92791714I707107J-707093D01*
G01*
%TD*%
%TA.AperFunction,Conductor*%
%TO.N,GND*%
G36*
X139482539Y-87674677D02*
G01*
X139528294Y-87727481D01*
X139539500Y-87778992D01*
X139539500Y-88220011D01*
X139540839Y-88243424D01*
X139543565Y-88267189D01*
X139543566Y-88267196D01*
X139571738Y-88349879D01*
X139605235Y-88405440D01*
X139605244Y-88405453D01*
X139646639Y-88454636D01*
X139646651Y-88454648D01*
X139946626Y-88714626D01*
X139946634Y-88714632D01*
X139946644Y-88714641D01*
X139960441Y-88725599D01*
X139974996Y-88736174D01*
X140019178Y-88756349D01*
X140049258Y-88770085D01*
X140049259Y-88770085D01*
X140049261Y-88770086D01*
X140112469Y-88784778D01*
X140112475Y-88784778D01*
X140112476Y-88784779D01*
X140148954Y-88789869D01*
X140148955Y-88789868D01*
X140148957Y-88789869D01*
X140239008Y-88773897D01*
X140298781Y-88748630D01*
X140353356Y-88714641D01*
X140653356Y-88454641D01*
X140670175Y-88438293D01*
X140686354Y-88420663D01*
X140686357Y-88420656D01*
X140687167Y-88419560D01*
X140687825Y-88419059D01*
X140690850Y-88415764D01*
X140691444Y-88416309D01*
X140742793Y-88377280D01*
X140812446Y-88371786D01*
X140874013Y-88404822D01*
X140881832Y-88413280D01*
X140916640Y-88454636D01*
X140916646Y-88454643D01*
X140916651Y-88454648D01*
X141216626Y-88714626D01*
X141216634Y-88714632D01*
X141216644Y-88714641D01*
X141230441Y-88725599D01*
X141244996Y-88736174D01*
X141289178Y-88756349D01*
X141319258Y-88770085D01*
X141319259Y-88770085D01*
X141319261Y-88770086D01*
X141382469Y-88784778D01*
X141382475Y-88784778D01*
X141382476Y-88784779D01*
X141418954Y-88789869D01*
X141418955Y-88789868D01*
X141418957Y-88789869D01*
X141509008Y-88773897D01*
X141568781Y-88748630D01*
X141623356Y-88714641D01*
X141923356Y-88454641D01*
X141940175Y-88438293D01*
X141956354Y-88420663D01*
X141956357Y-88420656D01*
X141957167Y-88419560D01*
X141957825Y-88419059D01*
X141960850Y-88415764D01*
X141961444Y-88416309D01*
X142012793Y-88377280D01*
X142082446Y-88371786D01*
X142144013Y-88404822D01*
X142151832Y-88413280D01*
X142186640Y-88454636D01*
X142186646Y-88454643D01*
X142186651Y-88454648D01*
X142486626Y-88714626D01*
X142486634Y-88714632D01*
X142486644Y-88714641D01*
X142500441Y-88725599D01*
X142514996Y-88736174D01*
X142559178Y-88756349D01*
X142589258Y-88770085D01*
X142589259Y-88770085D01*
X142589261Y-88770086D01*
X142652469Y-88784778D01*
X142652475Y-88784778D01*
X142652476Y-88784779D01*
X142688954Y-88789869D01*
X142688955Y-88789868D01*
X142688957Y-88789869D01*
X142779008Y-88773897D01*
X142838781Y-88748630D01*
X142893356Y-88714641D01*
X143193356Y-88454641D01*
X143210175Y-88438293D01*
X143226354Y-88420663D01*
X143226357Y-88420656D01*
X143227167Y-88419560D01*
X143227825Y-88419059D01*
X143230850Y-88415764D01*
X143231444Y-88416309D01*
X143282793Y-88377280D01*
X143352446Y-88371786D01*
X143414013Y-88404822D01*
X143421832Y-88413280D01*
X143456640Y-88454636D01*
X143456646Y-88454643D01*
X143456651Y-88454648D01*
X143756626Y-88714626D01*
X143756634Y-88714632D01*
X143756644Y-88714641D01*
X143770441Y-88725599D01*
X143784996Y-88736174D01*
X143829178Y-88756349D01*
X143859258Y-88770085D01*
X143859259Y-88770085D01*
X143859261Y-88770086D01*
X143922469Y-88784778D01*
X143922475Y-88784778D01*
X143922476Y-88784779D01*
X143958954Y-88789869D01*
X143958955Y-88789868D01*
X143958957Y-88789869D01*
X144049008Y-88773897D01*
X144108781Y-88748630D01*
X144163356Y-88714641D01*
X144463356Y-88454641D01*
X144480175Y-88438293D01*
X144496354Y-88420663D01*
X144496357Y-88420656D01*
X144497167Y-88419560D01*
X144497825Y-88419059D01*
X144500850Y-88415764D01*
X144501444Y-88416309D01*
X144552793Y-88377280D01*
X144622446Y-88371786D01*
X144684013Y-88404822D01*
X144691832Y-88413280D01*
X144726640Y-88454636D01*
X144726646Y-88454643D01*
X144726651Y-88454648D01*
X145026626Y-88714626D01*
X145026634Y-88714632D01*
X145026644Y-88714641D01*
X145040441Y-88725599D01*
X145054996Y-88736174D01*
X145099178Y-88756349D01*
X145129258Y-88770085D01*
X145129259Y-88770085D01*
X145129261Y-88770086D01*
X145192469Y-88784778D01*
X145192475Y-88784778D01*
X145192476Y-88784779D01*
X145228954Y-88789869D01*
X145228955Y-88789868D01*
X145228957Y-88789869D01*
X145319008Y-88773897D01*
X145378781Y-88748630D01*
X145433356Y-88714641D01*
X145733356Y-88454641D01*
X145750175Y-88438293D01*
X145766354Y-88420663D01*
X145766357Y-88420656D01*
X145767167Y-88419560D01*
X145767825Y-88419059D01*
X145770850Y-88415764D01*
X145771444Y-88416309D01*
X145822793Y-88377280D01*
X145892446Y-88371786D01*
X145954013Y-88404822D01*
X145961832Y-88413280D01*
X145996640Y-88454636D01*
X145996646Y-88454643D01*
X145996651Y-88454648D01*
X146296626Y-88714626D01*
X146296634Y-88714632D01*
X146296644Y-88714641D01*
X146310441Y-88725599D01*
X146324996Y-88736174D01*
X146369178Y-88756349D01*
X146399258Y-88770085D01*
X146399259Y-88770085D01*
X146399261Y-88770086D01*
X146462469Y-88784778D01*
X146462475Y-88784778D01*
X146462476Y-88784779D01*
X146498954Y-88789869D01*
X146498955Y-88789868D01*
X146498957Y-88789869D01*
X146589008Y-88773897D01*
X146648781Y-88748630D01*
X146703356Y-88714641D01*
X147003356Y-88454641D01*
X147020175Y-88438293D01*
X147036354Y-88420663D01*
X147036357Y-88420656D01*
X147037167Y-88419560D01*
X147037825Y-88419059D01*
X147040850Y-88415764D01*
X147041444Y-88416309D01*
X147092793Y-88377280D01*
X147162446Y-88371786D01*
X147224013Y-88404822D01*
X147231832Y-88413280D01*
X147266640Y-88454636D01*
X147266646Y-88454643D01*
X147266651Y-88454648D01*
X147566626Y-88714626D01*
X147566634Y-88714632D01*
X147566644Y-88714641D01*
X147580441Y-88725599D01*
X147594996Y-88736174D01*
X147639178Y-88756349D01*
X147669258Y-88770085D01*
X147669259Y-88770085D01*
X147669261Y-88770086D01*
X147732469Y-88784778D01*
X147732475Y-88784778D01*
X147732476Y-88784779D01*
X147768954Y-88789869D01*
X147768955Y-88789868D01*
X147768957Y-88789869D01*
X147859008Y-88773897D01*
X147918781Y-88748630D01*
X147973356Y-88714641D01*
X148273356Y-88454641D01*
X148290175Y-88438293D01*
X148306354Y-88420663D01*
X148306357Y-88420656D01*
X148307167Y-88419560D01*
X148307825Y-88419059D01*
X148310850Y-88415764D01*
X148311444Y-88416309D01*
X148362793Y-88377280D01*
X148432446Y-88371786D01*
X148494013Y-88404822D01*
X148501832Y-88413280D01*
X148536640Y-88454636D01*
X148536646Y-88454643D01*
X148536651Y-88454648D01*
X148836626Y-88714626D01*
X148836634Y-88714632D01*
X148836644Y-88714641D01*
X148850441Y-88725599D01*
X148864996Y-88736174D01*
X148909178Y-88756349D01*
X148939258Y-88770085D01*
X148939259Y-88770085D01*
X148939261Y-88770086D01*
X149002469Y-88784778D01*
X149002475Y-88784778D01*
X149002476Y-88784779D01*
X149038954Y-88789869D01*
X149038955Y-88789868D01*
X149038957Y-88789869D01*
X149129008Y-88773897D01*
X149188781Y-88748630D01*
X149243356Y-88714641D01*
X149543356Y-88454641D01*
X149560175Y-88438293D01*
X149576354Y-88420663D01*
X149576357Y-88420656D01*
X149577167Y-88419560D01*
X149577825Y-88419059D01*
X149580850Y-88415764D01*
X149581444Y-88416309D01*
X149632793Y-88377280D01*
X149702446Y-88371786D01*
X149764013Y-88404822D01*
X149771832Y-88413280D01*
X149806640Y-88454636D01*
X149806646Y-88454643D01*
X149806651Y-88454648D01*
X150106626Y-88714626D01*
X150106634Y-88714632D01*
X150106644Y-88714641D01*
X150120441Y-88725599D01*
X150134996Y-88736174D01*
X150179178Y-88756349D01*
X150209258Y-88770085D01*
X150209259Y-88770085D01*
X150209261Y-88770086D01*
X150272469Y-88784778D01*
X150272475Y-88784778D01*
X150272476Y-88784779D01*
X150308954Y-88789869D01*
X150308955Y-88789868D01*
X150308957Y-88789869D01*
X150399008Y-88773897D01*
X150458781Y-88748630D01*
X150513356Y-88714641D01*
X150813356Y-88454641D01*
X150830175Y-88438293D01*
X150846354Y-88420663D01*
X150846357Y-88420656D01*
X150847167Y-88419560D01*
X150847825Y-88419059D01*
X150850850Y-88415764D01*
X150851444Y-88416309D01*
X150902793Y-88377280D01*
X150972446Y-88371786D01*
X151034013Y-88404822D01*
X151041832Y-88413280D01*
X151076640Y-88454636D01*
X151076646Y-88454643D01*
X151076650Y-88454647D01*
X151136710Y-88506698D01*
X151174480Y-88565479D01*
X151179500Y-88600404D01*
X151179500Y-89349701D01*
X151178903Y-89361855D01*
X151169178Y-89460597D01*
X151164436Y-89484436D01*
X151137414Y-89573522D01*
X151128112Y-89595981D01*
X151084226Y-89678088D01*
X151070721Y-89698300D01*
X151007837Y-89774925D01*
X150999664Y-89783942D01*
X150358981Y-90424625D01*
X150297658Y-90458110D01*
X150266454Y-90460849D01*
X150231218Y-90459471D01*
X150212702Y-90457345D01*
X150177199Y-90450534D01*
X150126927Y-90428525D01*
X150121643Y-90424625D01*
X150089475Y-90400884D01*
X150036640Y-90382396D01*
X149964848Y-90357274D01*
X149964849Y-90357274D01*
X149935260Y-90354500D01*
X149935256Y-90354500D01*
X149890696Y-90354500D01*
X149855419Y-90349376D01*
X149737266Y-90314314D01*
X149726602Y-90310614D01*
X149591974Y-90256914D01*
X149582374Y-90252604D01*
X149463375Y-90192989D01*
X149444821Y-90183694D01*
X149436334Y-90179017D01*
X149295899Y-90094320D01*
X149288497Y-90089487D01*
X149144589Y-89987999D01*
X149144588Y-89987998D01*
X149140695Y-89985253D01*
X149140858Y-89985020D01*
X149120796Y-89969404D01*
X148919398Y-89768005D01*
X148919381Y-89767974D01*
X148816192Y-89664787D01*
X148816186Y-89664781D01*
X148670541Y-89553025D01*
X148670530Y-89553018D01*
X148608839Y-89517401D01*
X148511540Y-89461227D01*
X148457208Y-89438722D01*
X148341920Y-89390970D01*
X148164590Y-89343458D01*
X148164587Y-89343457D01*
X147982576Y-89319499D01*
X147982574Y-89319499D01*
X147890780Y-89319500D01*
X146686457Y-89319500D01*
X146686310Y-89319509D01*
X146654924Y-89319509D01*
X146472914Y-89343467D01*
X146472911Y-89343468D01*
X146295583Y-89390980D01*
X146125969Y-89461234D01*
X146125967Y-89461235D01*
X146125965Y-89461236D01*
X145966987Y-89553020D01*
X145966968Y-89553031D01*
X145821328Y-89664781D01*
X145821322Y-89664787D01*
X145793696Y-89692412D01*
X145793695Y-89692412D01*
X145756415Y-89729693D01*
X145756413Y-89729695D01*
X145715703Y-89770402D01*
X145715696Y-89770410D01*
X145715696Y-89770411D01*
X145715694Y-89770413D01*
X145560642Y-89925464D01*
X145513893Y-89972213D01*
X145493945Y-89987564D01*
X145494115Y-89987800D01*
X145346421Y-90094240D01*
X145339093Y-90099135D01*
X145199661Y-90185272D01*
X145191253Y-90190024D01*
X145054752Y-90260305D01*
X145045220Y-90264713D01*
X144911676Y-90319726D01*
X144901060Y-90323544D01*
X144870514Y-90332984D01*
X144857110Y-90337127D01*
X144857108Y-90337127D01*
X144852254Y-90338628D01*
X144852253Y-90338627D01*
X144852244Y-90338631D01*
X144786429Y-90358971D01*
X144749816Y-90364500D01*
X144709740Y-90364500D01*
X144680150Y-90367274D01*
X144555523Y-90410884D01*
X144449289Y-90489288D01*
X144449288Y-90489289D01*
X144370884Y-90595523D01*
X144327274Y-90720150D01*
X144324500Y-90749739D01*
X144324500Y-91330260D01*
X144327274Y-91359849D01*
X144370884Y-91484476D01*
X144449288Y-91590710D01*
X144449289Y-91590711D01*
X144555523Y-91669115D01*
X144555524Y-91669115D01*
X144555525Y-91669116D01*
X144680151Y-91712725D01*
X144680150Y-91712725D01*
X144709740Y-91715500D01*
X144709744Y-91715500D01*
X145315260Y-91715500D01*
X145344849Y-91712725D01*
X145388553Y-91697432D01*
X145469475Y-91669116D01*
X145575711Y-91590711D01*
X145654116Y-91484475D01*
X145697725Y-91359849D01*
X145699865Y-91337032D01*
X145700500Y-91330260D01*
X145700500Y-91302477D01*
X145710153Y-91254512D01*
X145733156Y-91199674D01*
X145767435Y-91117952D01*
X145769073Y-91114222D01*
X145844183Y-90950645D01*
X145846245Y-90946375D01*
X145920023Y-90800911D01*
X145922679Y-90795960D01*
X145994561Y-90669045D01*
X145998040Y-90663279D01*
X146066661Y-90556272D01*
X146083359Y-90535532D01*
X146194266Y-90424625D01*
X146318493Y-90300398D01*
X146327490Y-90292243D01*
X146404213Y-90229280D01*
X146424411Y-90215785D01*
X146506529Y-90171893D01*
X146528974Y-90162597D01*
X146618066Y-90135572D01*
X146641904Y-90130831D01*
X146740748Y-90121096D01*
X146752900Y-90120500D01*
X146804292Y-90120500D01*
X147423514Y-90120500D01*
X147490553Y-90140185D01*
X147536308Y-90192989D01*
X147546252Y-90262147D01*
X147517227Y-90325703D01*
X147464469Y-90361541D01*
X147350762Y-90401329D01*
X147244646Y-90479646D01*
X147166329Y-90585762D01*
X147122772Y-90710237D01*
X147122770Y-90710249D01*
X147120000Y-90739791D01*
X147120000Y-90780000D01*
X148494999Y-90780000D01*
X148516653Y-90758346D01*
X148577976Y-90724860D01*
X148647668Y-90729844D01*
X148703601Y-90771715D01*
X148711437Y-90783534D01*
X148717759Y-90794369D01*
X148720575Y-90799467D01*
X148795899Y-90943723D01*
X148798097Y-90948145D01*
X148874855Y-91110604D01*
X148876594Y-91114454D01*
X148934355Y-91248334D01*
X148944500Y-91297456D01*
X148944500Y-91320260D01*
X148947274Y-91349849D01*
X148990884Y-91474476D01*
X149062286Y-91571222D01*
X149069289Y-91580711D01*
X149175525Y-91659116D01*
X149175527Y-91659116D01*
X149183742Y-91663459D01*
X149183353Y-91664194D01*
X149196791Y-91670961D01*
X149252067Y-91708473D01*
X149262937Y-91716760D01*
X149331824Y-91775555D01*
X149340222Y-91783425D01*
X149414958Y-91860280D01*
X149421422Y-91867467D01*
X149500671Y-91962815D01*
X149505667Y-91969244D01*
X149535858Y-92010848D01*
X149559302Y-92076665D01*
X149559500Y-92083677D01*
X149559500Y-92730501D01*
X149539815Y-92797540D01*
X149487011Y-92843295D01*
X149435500Y-92854501D01*
X149266673Y-92854501D01*
X149199589Y-92872476D01*
X149167496Y-92876701D01*
X148461447Y-92876701D01*
X148402970Y-92888332D01*
X148402969Y-92888333D01*
X148336647Y-92932648D01*
X148292332Y-92998970D01*
X148292331Y-92998971D01*
X148280700Y-93057448D01*
X148280700Y-93057453D01*
X148280700Y-93452549D01*
X148280700Y-93452551D01*
X148280699Y-93452551D01*
X148281447Y-93456306D01*
X148281267Y-93458313D01*
X148281297Y-93458614D01*
X148281240Y-93458619D01*
X148275223Y-93525898D01*
X148232362Y-93581077D01*
X148166473Y-93604324D01*
X148159831Y-93604502D01*
X146452358Y-93604502D01*
X146452240Y-93604509D01*
X146396858Y-93604509D01*
X146194680Y-93636530D01*
X146194678Y-93636530D01*
X146000002Y-93699782D01*
X146000001Y-93699782D01*
X145950897Y-93724800D01*
X145919828Y-93735721D01*
X145912472Y-93737249D01*
X145912469Y-93737249D01*
X145836020Y-93769676D01*
X145834413Y-93770367D01*
X145834367Y-93770387D01*
X145832234Y-93771328D01*
X145770897Y-93798810D01*
X145768816Y-93799757D01*
X145717657Y-93823349D01*
X145716434Y-93823905D01*
X145659750Y-93849303D01*
X145657472Y-93850296D01*
X145583838Y-93881532D01*
X145583830Y-93881536D01*
X145569395Y-93891289D01*
X145556274Y-93899024D01*
X145519191Y-93917919D01*
X145450522Y-93930816D01*
X145385782Y-93904540D01*
X145345524Y-93847434D01*
X145342532Y-93777628D01*
X145375213Y-93719756D01*
X146445285Y-92649685D01*
X146454279Y-92641533D01*
X146546159Y-92566130D01*
X146566350Y-92552640D01*
X146665758Y-92499505D01*
X146688209Y-92490207D01*
X146796059Y-92457493D01*
X146819894Y-92452752D01*
X146938252Y-92441096D01*
X146950398Y-92440500D01*
X146991804Y-92440501D01*
X146991807Y-92440500D01*
X148177878Y-92440500D01*
X148205976Y-92443725D01*
X148214707Y-92445757D01*
X148267293Y-92447450D01*
X148281590Y-92448743D01*
X148286781Y-92449518D01*
X148294690Y-92450698D01*
X148314322Y-92455284D01*
X148322710Y-92457979D01*
X148334137Y-92462282D01*
X148380574Y-92482431D01*
X148380586Y-92482436D01*
X148440762Y-92508561D01*
X148441130Y-92508721D01*
X148441262Y-92508778D01*
X148442589Y-92509055D01*
X148446620Y-92510475D01*
X148447216Y-92510664D01*
X148447209Y-92510682D01*
X148473507Y-92519945D01*
X148484696Y-92525646D01*
X148484697Y-92525646D01*
X148484699Y-92525647D01*
X148609997Y-92545492D01*
X148610000Y-92545492D01*
X148610003Y-92545492D01*
X148735300Y-92525647D01*
X148735301Y-92525647D01*
X148735302Y-92525646D01*
X148735304Y-92525646D01*
X148848342Y-92468050D01*
X148938050Y-92378342D01*
X148995646Y-92265304D01*
X148995646Y-92265302D01*
X148995647Y-92265301D01*
X148995647Y-92265300D01*
X149015492Y-92140003D01*
X149015492Y-92139996D01*
X148995647Y-92014699D01*
X148995647Y-92014698D01*
X148980350Y-91984676D01*
X148938050Y-91901658D01*
X148938046Y-91901654D01*
X148938045Y-91901652D01*
X148848347Y-91811954D01*
X148848344Y-91811952D01*
X148848342Y-91811950D01*
X148735304Y-91754354D01*
X148735303Y-91754353D01*
X148735300Y-91754352D01*
X148610003Y-91734508D01*
X148610001Y-91734508D01*
X148610000Y-91734508D01*
X148597505Y-91736487D01*
X148508633Y-91750562D01*
X148439340Y-91741606D01*
X148385889Y-91696609D01*
X148365250Y-91629857D01*
X148383976Y-91562544D01*
X148389468Y-91554453D01*
X148448670Y-91474238D01*
X148492227Y-91349762D01*
X148492229Y-91349750D01*
X148495000Y-91320208D01*
X148495000Y-91280000D01*
X147120000Y-91280000D01*
X147120000Y-91320208D01*
X147122770Y-91349750D01*
X147122772Y-91349762D01*
X147166329Y-91474237D01*
X147244645Y-91580353D01*
X147292579Y-91615729D01*
X147334830Y-91671377D01*
X147340289Y-91741033D01*
X147307222Y-91802583D01*
X147246128Y-91836484D01*
X147218946Y-91839500D01*
X146897122Y-91839500D01*
X146896975Y-91839509D01*
X146841867Y-91839509D01*
X146639682Y-91871529D01*
X146445005Y-91934780D01*
X146262606Y-92027714D01*
X146262599Y-92027718D01*
X146097000Y-92148031D01*
X146096994Y-92148035D01*
X146056935Y-92188094D01*
X146056913Y-92188114D01*
X146024625Y-92220403D01*
X146024624Y-92220405D01*
X145990968Y-92254060D01*
X144930981Y-93314047D01*
X144869658Y-93347532D01*
X144799966Y-93342548D01*
X144744033Y-93300676D01*
X144719616Y-93235212D01*
X144719300Y-93226366D01*
X144719300Y-93057450D01*
X144719299Y-93057448D01*
X144707668Y-92998971D01*
X144707667Y-92998970D01*
X144663352Y-92932648D01*
X144597030Y-92888333D01*
X144597029Y-92888332D01*
X144538552Y-92876701D01*
X144538548Y-92876701D01*
X144111983Y-92876701D01*
X144044944Y-92857016D01*
X143999189Y-92804212D01*
X143989245Y-92735054D01*
X143989337Y-92734423D01*
X143989339Y-92734409D01*
X143990696Y-92725307D01*
X143995281Y-92705678D01*
X143997981Y-92697275D01*
X144002280Y-92685861D01*
X144010292Y-92667398D01*
X144019907Y-92645241D01*
X144019907Y-92645238D01*
X144021937Y-92640562D01*
X144021943Y-92640545D01*
X144043111Y-92591790D01*
X144048565Y-92579229D01*
X144048604Y-92579137D01*
X144048721Y-92578869D01*
X144048778Y-92578737D01*
X144049054Y-92577413D01*
X144050468Y-92573398D01*
X144050666Y-92572776D01*
X144050685Y-92572782D01*
X144059947Y-92546486D01*
X144065646Y-92535304D01*
X144069886Y-92508533D01*
X144085492Y-92410003D01*
X144085492Y-92409996D01*
X144065647Y-92284699D01*
X144065647Y-92284698D01*
X144055765Y-92265304D01*
X144008050Y-92171658D01*
X144008046Y-92171654D01*
X144008045Y-92171652D01*
X143918347Y-92081954D01*
X143918344Y-92081952D01*
X143918342Y-92081950D01*
X143805304Y-92024354D01*
X143805303Y-92024353D01*
X143805300Y-92024352D01*
X143680003Y-92004508D01*
X143679997Y-92004508D01*
X143554699Y-92024352D01*
X143554698Y-92024352D01*
X143479337Y-92062751D01*
X143441658Y-92081950D01*
X143441657Y-92081951D01*
X143441652Y-92081954D01*
X143351954Y-92171652D01*
X143351951Y-92171657D01*
X143351950Y-92171658D01*
X143343565Y-92188114D01*
X143294352Y-92284698D01*
X143294352Y-92284699D01*
X143274508Y-92409996D01*
X143274508Y-92410002D01*
X143294352Y-92535300D01*
X143294353Y-92535303D01*
X143294354Y-92535304D01*
X143300219Y-92546815D01*
X143310921Y-92576856D01*
X143311437Y-92579236D01*
X143311438Y-92579238D01*
X143311440Y-92579246D01*
X143340757Y-92646776D01*
X143340774Y-92646814D01*
X143357720Y-92685869D01*
X143362019Y-92697284D01*
X143364713Y-92705670D01*
X143369299Y-92725304D01*
X143370657Y-92734409D01*
X143361078Y-92803619D01*
X143315601Y-92856663D01*
X143248666Y-92876699D01*
X143248014Y-92876701D01*
X142822647Y-92876701D01*
X142764170Y-92888332D01*
X142764169Y-92888333D01*
X142697847Y-92932648D01*
X142653532Y-92998970D01*
X142653531Y-92998971D01*
X142641900Y-93057448D01*
X142641900Y-93452553D01*
X142653531Y-93511030D01*
X142653585Y-93511110D01*
X142653647Y-93511308D01*
X142658206Y-93522314D01*
X142657220Y-93522722D01*
X142674462Y-93577788D01*
X142658047Y-93637620D01*
X142658206Y-93637686D01*
X142657683Y-93638946D01*
X142655977Y-93645168D01*
X142653585Y-93648890D01*
X142653532Y-93648969D01*
X142653531Y-93648969D01*
X142641900Y-93707446D01*
X142641900Y-94102551D01*
X142653531Y-94161028D01*
X142653534Y-94161034D01*
X142653587Y-94161113D01*
X142653648Y-94161310D01*
X142658206Y-94172312D01*
X142657221Y-94172720D01*
X142674463Y-94227791D01*
X142658046Y-94287622D01*
X142658206Y-94287688D01*
X142657681Y-94288954D01*
X142655976Y-94295170D01*
X142653587Y-94298887D01*
X142653534Y-94298965D01*
X142653531Y-94298971D01*
X142641900Y-94357448D01*
X142641900Y-94462567D01*
X142622215Y-94529606D01*
X142569411Y-94575361D01*
X142500253Y-94585305D01*
X142436697Y-94556280D01*
X142430219Y-94550248D01*
X142359695Y-94479724D01*
X142351522Y-94470707D01*
X142276134Y-94378844D01*
X142262637Y-94358644D01*
X142209507Y-94259244D01*
X142200206Y-94236786D01*
X142194432Y-94217752D01*
X142167494Y-94128942D01*
X142162752Y-94105102D01*
X142151096Y-93986748D01*
X142150500Y-93974597D01*
X142150500Y-93957159D01*
X142150501Y-93933196D01*
X142150500Y-93933192D01*
X142150500Y-92839307D01*
X142150501Y-92839304D01*
X142150500Y-92797797D01*
X142151097Y-92785646D01*
X142151844Y-92778060D01*
X142162742Y-92667388D01*
X142167480Y-92643566D01*
X142200200Y-92535699D01*
X142209495Y-92513258D01*
X142262632Y-92413844D01*
X142276122Y-92393653D01*
X142351465Y-92301845D01*
X142359610Y-92292859D01*
X142612563Y-92039906D01*
X142632652Y-92023630D01*
X142785093Y-91924543D01*
X142795351Y-91918556D01*
X142940193Y-91843088D01*
X142952215Y-91837618D01*
X143092444Y-91782638D01*
X143106145Y-91778166D01*
X143242320Y-91742337D01*
X143257366Y-91739361D01*
X143371877Y-91724000D01*
X143396515Y-91720695D01*
X143396516Y-91720694D01*
X143396529Y-91720693D01*
X143410382Y-91717917D01*
X143434745Y-91715500D01*
X143490260Y-91715500D01*
X143519849Y-91712725D01*
X143563553Y-91697432D01*
X143644475Y-91669116D01*
X143750711Y-91590711D01*
X143829116Y-91484475D01*
X143872725Y-91359849D01*
X143874865Y-91337032D01*
X143875500Y-91330260D01*
X143875500Y-90749739D01*
X143872725Y-90720150D01*
X143829115Y-90595523D01*
X143750711Y-90489289D01*
X143750710Y-90489288D01*
X143644476Y-90410884D01*
X143519848Y-90367274D01*
X143519849Y-90367274D01*
X143490260Y-90364500D01*
X143490256Y-90364500D01*
X142884744Y-90364500D01*
X142884740Y-90364500D01*
X142855150Y-90367274D01*
X142730523Y-90410884D01*
X142624289Y-90489288D01*
X142624288Y-90489289D01*
X142545884Y-90595523D01*
X142502274Y-90720150D01*
X142499500Y-90749739D01*
X142499500Y-90790345D01*
X142494147Y-90826386D01*
X142438983Y-91007988D01*
X142437775Y-91011746D01*
X142375638Y-91195099D01*
X142373987Y-91199674D01*
X142313296Y-91358038D01*
X142310968Y-91363691D01*
X142252564Y-91496149D01*
X142249161Y-91503248D01*
X142203898Y-91590450D01*
X142181522Y-91621005D01*
X141968716Y-91833811D01*
X141968689Y-91833825D01*
X141858028Y-91944488D01*
X141737703Y-92110105D01*
X141644771Y-92292501D01*
X141581519Y-92487180D01*
X141549499Y-92689366D01*
X141549500Y-92752152D01*
X141549500Y-94028089D01*
X141549509Y-94028232D01*
X141549509Y-94083133D01*
X141581529Y-94285317D01*
X141644780Y-94479994D01*
X141644782Y-94479999D01*
X141644783Y-94480000D01*
X141667248Y-94524091D01*
X141737714Y-94662393D01*
X141737718Y-94662400D01*
X141858034Y-94828004D01*
X141858036Y-94828006D01*
X141895359Y-94865328D01*
X141895370Y-94865341D01*
X141930403Y-94900374D01*
X141930404Y-94900376D01*
X141971123Y-94941095D01*
X141971129Y-94941100D01*
X142116627Y-95086598D01*
X142116637Y-95086609D01*
X142118271Y-95088242D01*
X142118293Y-95088282D01*
X142118296Y-95088280D01*
X142154616Y-95124598D01*
X142154616Y-95124599D01*
X142226991Y-95196972D01*
X142392601Y-95317293D01*
X142392605Y-95317295D01*
X142392608Y-95317297D01*
X142466597Y-95354995D01*
X142574995Y-95410225D01*
X142583178Y-95412883D01*
X142640855Y-95452317D01*
X142668057Y-95516674D01*
X142656146Y-95585521D01*
X142608905Y-95637000D01*
X142583199Y-95648742D01*
X142580015Y-95649776D01*
X142580010Y-95649778D01*
X142397608Y-95742712D01*
X142397602Y-95742716D01*
X142232000Y-95863031D01*
X142231995Y-95863035D01*
X142187604Y-95907423D01*
X142187598Y-95907431D01*
X142164520Y-95930509D01*
X142159625Y-95935402D01*
X142159626Y-95935403D01*
X142125973Y-95969054D01*
X142125971Y-95969057D01*
X142125969Y-95969059D01*
X142044879Y-96050149D01*
X141988716Y-96106312D01*
X141988687Y-96106327D01*
X141878028Y-96216988D01*
X141757703Y-96382605D01*
X141664771Y-96565001D01*
X141601519Y-96759680D01*
X141569499Y-96961866D01*
X141569500Y-97024652D01*
X141569500Y-98375589D01*
X141569509Y-98375732D01*
X141569509Y-98430633D01*
X141601529Y-98632817D01*
X141664780Y-98827494D01*
X141757714Y-99009893D01*
X141757718Y-99009900D01*
X141878034Y-99175504D01*
X141878036Y-99175506D01*
X141915359Y-99212828D01*
X141915370Y-99212841D01*
X141950403Y-99247874D01*
X141950404Y-99247876D01*
X141991123Y-99288595D01*
X141991129Y-99288600D01*
X142181525Y-99478996D01*
X142203901Y-99509551D01*
X142245658Y-99590000D01*
X142249156Y-99596738D01*
X142252559Y-99603837D01*
X142310967Y-99736304D01*
X142313295Y-99741956D01*
X142364989Y-99876843D01*
X142373984Y-99900312D01*
X142375635Y-99904888D01*
X142437773Y-100088244D01*
X142438981Y-100092003D01*
X142464497Y-100176005D01*
X142469242Y-100224307D01*
X142451880Y-100399025D01*
X142451736Y-100400403D01*
X142430271Y-100594360D01*
X142430067Y-100596084D01*
X142420220Y-100674945D01*
X142419650Y-100678977D01*
X142389499Y-100869366D01*
X142389499Y-100893230D01*
X142388725Y-100907060D01*
X142387524Y-100917760D01*
X142387394Y-100919358D01*
X142387330Y-100920176D01*
X142388145Y-100925643D01*
X142389500Y-100943927D01*
X142389500Y-102372928D01*
X142369815Y-102439967D01*
X142346712Y-102466633D01*
X142186656Y-102605348D01*
X142186617Y-102605383D01*
X142169850Y-102621681D01*
X142169841Y-102621690D01*
X142153640Y-102639342D01*
X142152819Y-102640457D01*
X142152155Y-102640961D01*
X142149150Y-102644236D01*
X142148559Y-102643693D01*
X142097186Y-102682726D01*
X142027532Y-102688208D01*
X141965971Y-102655162D01*
X141958168Y-102646720D01*
X141923356Y-102605359D01*
X141923353Y-102605356D01*
X141923348Y-102605351D01*
X141623373Y-102345373D01*
X141623362Y-102345364D01*
X141623356Y-102345359D01*
X141609559Y-102334401D01*
X141595004Y-102323826D01*
X141520741Y-102289914D01*
X141457523Y-102275220D01*
X141421045Y-102270130D01*
X141421040Y-102270131D01*
X141330993Y-102286102D01*
X141271222Y-102311368D01*
X141271212Y-102311373D01*
X141216644Y-102345359D01*
X141216635Y-102345365D01*
X140916672Y-102605333D01*
X140916617Y-102605383D01*
X140899850Y-102621681D01*
X140899841Y-102621690D01*
X140883640Y-102639342D01*
X140882819Y-102640457D01*
X140882155Y-102640961D01*
X140879150Y-102644236D01*
X140878559Y-102643693D01*
X140827186Y-102682726D01*
X140757532Y-102688208D01*
X140695971Y-102655162D01*
X140688168Y-102646720D01*
X140653356Y-102605359D01*
X140653353Y-102605356D01*
X140653348Y-102605351D01*
X140353373Y-102345373D01*
X140353362Y-102345364D01*
X140353356Y-102345359D01*
X140339559Y-102334401D01*
X140325004Y-102323826D01*
X140250741Y-102289914D01*
X140187523Y-102275220D01*
X140151045Y-102270130D01*
X140151040Y-102270131D01*
X140060993Y-102286102D01*
X140001222Y-102311368D01*
X140001212Y-102311373D01*
X139946644Y-102345359D01*
X139946635Y-102345365D01*
X139646672Y-102605333D01*
X139646617Y-102605383D01*
X139629850Y-102621681D01*
X139629841Y-102621690D01*
X139629828Y-102621703D01*
X139629825Y-102621707D01*
X139624605Y-102627394D01*
X139613647Y-102639335D01*
X139610591Y-102644571D01*
X139569611Y-102714780D01*
X139569610Y-102714782D01*
X139569610Y-102714783D01*
X139549557Y-102776496D01*
X139539500Y-102840000D01*
X139539500Y-103290923D01*
X139519815Y-103357962D01*
X139467011Y-103403717D01*
X139415500Y-103414923D01*
X139077690Y-103414923D01*
X139075852Y-103414741D01*
X139032795Y-103414738D01*
X139016612Y-103413676D01*
X138937448Y-103403248D01*
X138906181Y-103394868D01*
X138839987Y-103367444D01*
X138811953Y-103351255D01*
X138755111Y-103307631D01*
X138732224Y-103284741D01*
X138688611Y-103227894D01*
X138672428Y-103199859D01*
X138645013Y-103133659D01*
X138636638Y-103102391D01*
X138629201Y-103045871D01*
X138626129Y-103022525D01*
X138625070Y-103006351D01*
X138625073Y-102975288D01*
X138625072Y-102975285D01*
X138625073Y-102963391D01*
X138625044Y-102963083D01*
X138625044Y-102614500D01*
X138644729Y-102547461D01*
X138697533Y-102501706D01*
X138749044Y-102490500D01*
X139189986Y-102490500D01*
X139190000Y-102490500D01*
X139213419Y-102489161D01*
X139237192Y-102486434D01*
X139237194Y-102486433D01*
X139237196Y-102486433D01*
X139259571Y-102478808D01*
X139319876Y-102458263D01*
X139375450Y-102424758D01*
X139424641Y-102383356D01*
X139433680Y-102372927D01*
X139557905Y-102229590D01*
X139684641Y-102083356D01*
X139695599Y-102069559D01*
X139706174Y-102055004D01*
X139740086Y-101980739D01*
X139754778Y-101917531D01*
X139759869Y-101881043D01*
X139743897Y-101790992D01*
X139718630Y-101731219D01*
X139713659Y-101723238D01*
X139705670Y-101710410D01*
X139684641Y-101676644D01*
X139684636Y-101676639D01*
X139684634Y-101676635D01*
X139424666Y-101376672D01*
X139424616Y-101376617D01*
X139408318Y-101359850D01*
X139408309Y-101359841D01*
X139408304Y-101359837D01*
X139408293Y-101359825D01*
X139390663Y-101343646D01*
X139390661Y-101343644D01*
X139389550Y-101342825D01*
X139389046Y-101342162D01*
X139385764Y-101339150D01*
X139386307Y-101338557D01*
X139347276Y-101287194D01*
X139341789Y-101217541D01*
X139374831Y-101155977D01*
X139383267Y-101148178D01*
X139424641Y-101113356D01*
X139684641Y-100813356D01*
X139695599Y-100799559D01*
X139706174Y-100785004D01*
X139740086Y-100710739D01*
X139754778Y-100647531D01*
X139759869Y-100611043D01*
X139743897Y-100520992D01*
X139718630Y-100461219D01*
X139713659Y-100453238D01*
X139693234Y-100420442D01*
X139684641Y-100406644D01*
X139684636Y-100406639D01*
X139684634Y-100406635D01*
X139424666Y-100106672D01*
X139424616Y-100106617D01*
X139408318Y-100089850D01*
X139408309Y-100089841D01*
X139408304Y-100089837D01*
X139408293Y-100089825D01*
X139390663Y-100073646D01*
X139390661Y-100073644D01*
X139389550Y-100072825D01*
X139389046Y-100072162D01*
X139385764Y-100069150D01*
X139386307Y-100068557D01*
X139347276Y-100017194D01*
X139341789Y-99947541D01*
X139374831Y-99885977D01*
X139383267Y-99878178D01*
X139424641Y-99843356D01*
X139684641Y-99543356D01*
X139695599Y-99529559D01*
X139706174Y-99515004D01*
X139740086Y-99440739D01*
X139754778Y-99377531D01*
X139757551Y-99357655D01*
X139759869Y-99341045D01*
X139759868Y-99341040D01*
X139759683Y-99339999D01*
X139743897Y-99250992D01*
X139718630Y-99191219D01*
X139713659Y-99183238D01*
X139708077Y-99174275D01*
X139684641Y-99136644D01*
X139684636Y-99136639D01*
X139684634Y-99136635D01*
X139424666Y-98836672D01*
X139424616Y-98836617D01*
X139408318Y-98819850D01*
X139408309Y-98819841D01*
X139408304Y-98819837D01*
X139408293Y-98819825D01*
X139390663Y-98803646D01*
X139390661Y-98803644D01*
X139389550Y-98802825D01*
X139389046Y-98802162D01*
X139385764Y-98799150D01*
X139386307Y-98798557D01*
X139347276Y-98747194D01*
X139341789Y-98677541D01*
X139374831Y-98615977D01*
X139383267Y-98608178D01*
X139424641Y-98573356D01*
X139684641Y-98273356D01*
X139695599Y-98259559D01*
X139706174Y-98245004D01*
X139740086Y-98170739D01*
X139754778Y-98107531D01*
X139759869Y-98071043D01*
X139743897Y-97980992D01*
X139718630Y-97921219D01*
X139716187Y-97917297D01*
X139709637Y-97906780D01*
X139684641Y-97866644D01*
X139684636Y-97866639D01*
X139684634Y-97866635D01*
X139424666Y-97566672D01*
X139424616Y-97566617D01*
X139408318Y-97549850D01*
X139408309Y-97549841D01*
X139408304Y-97549837D01*
X139408293Y-97549825D01*
X139390663Y-97533646D01*
X139390661Y-97533644D01*
X139389550Y-97532825D01*
X139389046Y-97532162D01*
X139385764Y-97529150D01*
X139386307Y-97528557D01*
X139347276Y-97477194D01*
X139341789Y-97407541D01*
X139374831Y-97345977D01*
X139383267Y-97338178D01*
X139424641Y-97303356D01*
X139684641Y-97003356D01*
X139695599Y-96989559D01*
X139706174Y-96975004D01*
X139740086Y-96900739D01*
X139754778Y-96837531D01*
X139759469Y-96803911D01*
X139759869Y-96801045D01*
X139759868Y-96801040D01*
X139759066Y-96796521D01*
X139743897Y-96710992D01*
X139718630Y-96651219D01*
X139716466Y-96647745D01*
X139693234Y-96610442D01*
X139684641Y-96596644D01*
X139684636Y-96596639D01*
X139684634Y-96596635D01*
X139424666Y-96296672D01*
X139424616Y-96296617D01*
X139408318Y-96279850D01*
X139408309Y-96279841D01*
X139408304Y-96279837D01*
X139408293Y-96279825D01*
X139390663Y-96263646D01*
X139390661Y-96263644D01*
X139389550Y-96262825D01*
X139389046Y-96262162D01*
X139385764Y-96259150D01*
X139386307Y-96258557D01*
X139347276Y-96207194D01*
X139341789Y-96137541D01*
X139374831Y-96075977D01*
X139383267Y-96068178D01*
X139424641Y-96033356D01*
X139684641Y-95733356D01*
X139695599Y-95719559D01*
X139706174Y-95705004D01*
X139740086Y-95630739D01*
X139754778Y-95567531D01*
X139759645Y-95532649D01*
X139759869Y-95531045D01*
X139759868Y-95531040D01*
X139759683Y-95529998D01*
X139743897Y-95440992D01*
X139718630Y-95381219D01*
X139713659Y-95373238D01*
X139693234Y-95340442D01*
X139684641Y-95326644D01*
X139684636Y-95326639D01*
X139684634Y-95326635D01*
X139424666Y-95026672D01*
X139424616Y-95026617D01*
X139408318Y-95009850D01*
X139408309Y-95009841D01*
X139408304Y-95009837D01*
X139408293Y-95009825D01*
X139390663Y-94993646D01*
X139390661Y-94993644D01*
X139389550Y-94992825D01*
X139389046Y-94992162D01*
X139385764Y-94989150D01*
X139386307Y-94988557D01*
X139347276Y-94937194D01*
X139341789Y-94867541D01*
X139374831Y-94805977D01*
X139383267Y-94798178D01*
X139424641Y-94763356D01*
X139684641Y-94463356D01*
X139695599Y-94449559D01*
X139706174Y-94435004D01*
X139740086Y-94360739D01*
X139754778Y-94297531D01*
X139759869Y-94261043D01*
X139743897Y-94170992D01*
X139718630Y-94111219D01*
X139718005Y-94110216D01*
X139693234Y-94070442D01*
X139684641Y-94056644D01*
X139684636Y-94056639D01*
X139684634Y-94056635D01*
X139424666Y-93756672D01*
X139424616Y-93756617D01*
X139408318Y-93739850D01*
X139408309Y-93739841D01*
X139408304Y-93739837D01*
X139408293Y-93739825D01*
X139394189Y-93726881D01*
X139390659Y-93723642D01*
X139389137Y-93722520D01*
X139388448Y-93721613D01*
X139385764Y-93719150D01*
X139386208Y-93718665D01*
X139346865Y-93666888D01*
X139341381Y-93597234D01*
X139374425Y-93535672D01*
X139382887Y-93527851D01*
X139410802Y-93504356D01*
X139410803Y-93504356D01*
X138984128Y-93077681D01*
X138950643Y-93016358D01*
X138953950Y-92970109D01*
X139150000Y-92970109D01*
X139150000Y-93009891D01*
X139165224Y-93046645D01*
X139193355Y-93074776D01*
X139230109Y-93090000D01*
X139269891Y-93090000D01*
X139306645Y-93074776D01*
X139334776Y-93046645D01*
X139350000Y-93009891D01*
X139350000Y-92990000D01*
X139603553Y-92990000D01*
X139728494Y-93114941D01*
X139728495Y-93114941D01*
X139739599Y-93090625D01*
X139754288Y-93027426D01*
X139754290Y-93027417D01*
X139759368Y-92991015D01*
X139759368Y-92991013D01*
X139743437Y-92901187D01*
X139743436Y-92901186D01*
X139728262Y-92865290D01*
X139603553Y-92990000D01*
X139350000Y-92990000D01*
X139350000Y-92970109D01*
X139334776Y-92933355D01*
X139306645Y-92905224D01*
X139269891Y-92890000D01*
X139230109Y-92890000D01*
X139193355Y-92905224D01*
X139165224Y-92933355D01*
X139150000Y-92970109D01*
X138953950Y-92970109D01*
X138955627Y-92946666D01*
X138984128Y-92902319D01*
X139250000Y-92636447D01*
X139412044Y-92474401D01*
X139407963Y-92470202D01*
X139407953Y-92470192D01*
X139390323Y-92454012D01*
X139389159Y-92453154D01*
X139388631Y-92452459D01*
X139385426Y-92449518D01*
X139385956Y-92448939D01*
X139346885Y-92397524D01*
X139341398Y-92327871D01*
X139374439Y-92266307D01*
X139382875Y-92258508D01*
X139424641Y-92223356D01*
X139684641Y-91923356D01*
X139695599Y-91909559D01*
X139706174Y-91895004D01*
X139740086Y-91820739D01*
X139754778Y-91757531D01*
X139757990Y-91734508D01*
X139759869Y-91721045D01*
X139759868Y-91721040D01*
X139759806Y-91720693D01*
X139743897Y-91630992D01*
X139718630Y-91571219D01*
X139713659Y-91563238D01*
X139693234Y-91530442D01*
X139684641Y-91516644D01*
X139684636Y-91516639D01*
X139684634Y-91516635D01*
X139424666Y-91216672D01*
X139424616Y-91216617D01*
X139408318Y-91199850D01*
X139408309Y-91199841D01*
X139408304Y-91199837D01*
X139408293Y-91199825D01*
X139390663Y-91183646D01*
X139390661Y-91183644D01*
X139389550Y-91182825D01*
X139389046Y-91182162D01*
X139385764Y-91179150D01*
X139386307Y-91178557D01*
X139347276Y-91127194D01*
X139341789Y-91057541D01*
X139374831Y-90995977D01*
X139383267Y-90988178D01*
X139424641Y-90953356D01*
X139431093Y-90945912D01*
X139558937Y-90798399D01*
X139684641Y-90653356D01*
X139695599Y-90639559D01*
X139706174Y-90625004D01*
X139740086Y-90550739D01*
X139754778Y-90487531D01*
X139759869Y-90451043D01*
X139743897Y-90360992D01*
X139718630Y-90301219D01*
X139713659Y-90293238D01*
X139693234Y-90260442D01*
X139684641Y-90246644D01*
X139684636Y-90246639D01*
X139684634Y-90246635D01*
X139424666Y-89946672D01*
X139424616Y-89946617D01*
X139408318Y-89929850D01*
X139408309Y-89929841D01*
X139408304Y-89929837D01*
X139408293Y-89929825D01*
X139390663Y-89913646D01*
X139390661Y-89913644D01*
X139389550Y-89912825D01*
X139389046Y-89912162D01*
X139385764Y-89909150D01*
X139386307Y-89908557D01*
X139347276Y-89857194D01*
X139341789Y-89787541D01*
X139374831Y-89725977D01*
X139383267Y-89718178D01*
X139424641Y-89683356D01*
X139684641Y-89383356D01*
X139695599Y-89369559D01*
X139706174Y-89355004D01*
X139740086Y-89280739D01*
X139754778Y-89217531D01*
X139759869Y-89181043D01*
X139743897Y-89090992D01*
X139718630Y-89031219D01*
X139713659Y-89023238D01*
X139693234Y-88990442D01*
X139684641Y-88976644D01*
X139684636Y-88976639D01*
X139684634Y-88976635D01*
X139424666Y-88676672D01*
X139424616Y-88676617D01*
X139408318Y-88659850D01*
X139408309Y-88659841D01*
X139408304Y-88659837D01*
X139408293Y-88659825D01*
X139390663Y-88643646D01*
X139315220Y-88599611D01*
X139300986Y-88594986D01*
X139253503Y-88579557D01*
X139198454Y-88570839D01*
X139190000Y-88569500D01*
X139189999Y-88569500D01*
X138749044Y-88569500D01*
X138682005Y-88549815D01*
X138636250Y-88497011D01*
X138625044Y-88445500D01*
X138625044Y-88344384D01*
X138644729Y-88277345D01*
X138661363Y-88256703D01*
X139226755Y-87691311D01*
X139288078Y-87657826D01*
X139314436Y-87654992D01*
X139415500Y-87654992D01*
X139482539Y-87674677D01*
G37*
%TD.AperFunction*%
%TA.AperFunction,Conductor*%
G36*
X153762756Y-87674677D02*
G01*
X153783398Y-87691311D01*
X154338680Y-88246593D01*
X154372165Y-88307916D01*
X154374999Y-88334274D01*
X154374999Y-88445500D01*
X154355314Y-88512539D01*
X154302510Y-88558294D01*
X154250999Y-88569500D01*
X153809988Y-88569500D01*
X153786575Y-88570839D01*
X153762810Y-88573565D01*
X153762803Y-88573566D01*
X153680120Y-88601738D01*
X153624559Y-88635235D01*
X153624546Y-88635244D01*
X153575363Y-88676639D01*
X153575351Y-88676651D01*
X153315373Y-88976626D01*
X153304400Y-88990442D01*
X153293826Y-89004995D01*
X153259914Y-89079258D01*
X153245220Y-89142475D01*
X153245220Y-89142477D01*
X153240130Y-89178954D01*
X153240131Y-89178959D01*
X153256102Y-89269006D01*
X153281368Y-89328777D01*
X153281373Y-89328787D01*
X153298185Y-89355780D01*
X153315359Y-89383356D01*
X153315361Y-89383359D01*
X153315365Y-89383364D01*
X153575333Y-89683327D01*
X153575383Y-89683382D01*
X153591681Y-89700149D01*
X153591690Y-89700158D01*
X153591707Y-89700175D01*
X153609337Y-89716354D01*
X153609339Y-89716355D01*
X153609340Y-89716356D01*
X153610447Y-89717173D01*
X153610948Y-89717832D01*
X153614236Y-89720850D01*
X153613691Y-89721442D01*
X153652722Y-89772801D01*
X153658211Y-89842455D01*
X153625171Y-89904019D01*
X153616707Y-89911842D01*
X153608999Y-89918330D01*
X153575358Y-89946644D01*
X153575351Y-89946651D01*
X153315373Y-90246626D01*
X153304400Y-90260442D01*
X153293826Y-90274995D01*
X153259914Y-90349258D01*
X153245220Y-90412475D01*
X153245220Y-90412477D01*
X153240130Y-90448954D01*
X153240131Y-90448959D01*
X153256102Y-90539006D01*
X153281368Y-90598777D01*
X153281373Y-90598787D01*
X153299790Y-90628358D01*
X153315359Y-90653356D01*
X153315361Y-90653359D01*
X153315365Y-90653364D01*
X153575333Y-90953327D01*
X153575383Y-90953382D01*
X153591681Y-90970149D01*
X153591690Y-90970158D01*
X153591707Y-90970175D01*
X153609337Y-90986354D01*
X153609339Y-90986355D01*
X153609340Y-90986356D01*
X153610447Y-90987173D01*
X153610948Y-90987832D01*
X153614236Y-90990850D01*
X153613691Y-90991442D01*
X153652722Y-91042801D01*
X153658211Y-91112455D01*
X153625171Y-91174019D01*
X153616707Y-91181842D01*
X153608999Y-91188330D01*
X153575358Y-91216644D01*
X153575351Y-91216651D01*
X153315373Y-91516626D01*
X153304400Y-91530442D01*
X153293826Y-91544995D01*
X153259914Y-91619258D01*
X153245220Y-91682475D01*
X153245220Y-91682477D01*
X153240130Y-91718954D01*
X153240131Y-91718959D01*
X153256102Y-91809006D01*
X153281368Y-91868777D01*
X153281373Y-91868787D01*
X153299790Y-91898358D01*
X153315359Y-91923356D01*
X153315361Y-91923359D01*
X153315365Y-91923364D01*
X153575333Y-92223327D01*
X153575383Y-92223382D01*
X153591681Y-92240149D01*
X153591690Y-92240158D01*
X153591707Y-92240175D01*
X153609337Y-92256354D01*
X153609339Y-92256355D01*
X153609340Y-92256356D01*
X153610447Y-92257173D01*
X153610948Y-92257832D01*
X153614236Y-92260850D01*
X153613691Y-92261442D01*
X153652722Y-92312801D01*
X153658211Y-92382455D01*
X153625171Y-92444019D01*
X153616707Y-92451842D01*
X153612619Y-92455284D01*
X153575358Y-92486644D01*
X153575351Y-92486651D01*
X153315373Y-92786626D01*
X153304400Y-92800442D01*
X153293826Y-92814995D01*
X153259914Y-92889258D01*
X153245220Y-92952475D01*
X153245220Y-92952477D01*
X153240130Y-92988954D01*
X153240131Y-92988959D01*
X153256102Y-93079006D01*
X153281368Y-93138777D01*
X153281373Y-93138787D01*
X153295074Y-93160785D01*
X153315359Y-93193356D01*
X153315361Y-93193359D01*
X153315365Y-93193364D01*
X153575333Y-93493327D01*
X153575383Y-93493382D01*
X153591681Y-93510149D01*
X153591690Y-93510158D01*
X153591707Y-93510175D01*
X153609337Y-93526354D01*
X153609339Y-93526355D01*
X153609340Y-93526356D01*
X153610447Y-93527173D01*
X153610948Y-93527832D01*
X153614236Y-93530850D01*
X153613691Y-93531442D01*
X153652722Y-93582801D01*
X153658211Y-93652455D01*
X153625171Y-93714019D01*
X153616707Y-93721842D01*
X153613194Y-93724800D01*
X153575358Y-93756644D01*
X153575351Y-93756651D01*
X153315373Y-94056626D01*
X153304400Y-94070442D01*
X153293826Y-94084995D01*
X153259914Y-94159258D01*
X153245220Y-94222475D01*
X153245220Y-94222477D01*
X153240130Y-94258954D01*
X153240131Y-94258959D01*
X153256102Y-94349006D01*
X153281368Y-94408777D01*
X153281373Y-94408787D01*
X153299790Y-94438358D01*
X153315359Y-94463356D01*
X153315361Y-94463359D01*
X153315365Y-94463364D01*
X153575333Y-94763327D01*
X153575383Y-94763382D01*
X153591681Y-94780149D01*
X153591690Y-94780158D01*
X153591707Y-94780175D01*
X153609337Y-94796354D01*
X153609339Y-94796355D01*
X153609340Y-94796356D01*
X153610447Y-94797173D01*
X153610948Y-94797832D01*
X153614236Y-94800850D01*
X153613691Y-94801442D01*
X153652722Y-94852801D01*
X153658211Y-94922455D01*
X153625171Y-94984019D01*
X153616707Y-94991842D01*
X153608999Y-94998330D01*
X153575358Y-95026644D01*
X153575351Y-95026651D01*
X153315373Y-95326626D01*
X153304400Y-95340442D01*
X153293826Y-95354995D01*
X153259914Y-95429258D01*
X153245220Y-95492475D01*
X153245220Y-95492477D01*
X153240130Y-95528954D01*
X153240131Y-95528959D01*
X153256102Y-95619006D01*
X153281368Y-95678777D01*
X153281373Y-95678787D01*
X153298614Y-95706469D01*
X153315359Y-95733356D01*
X153315361Y-95733359D01*
X153315365Y-95733364D01*
X153575333Y-96033327D01*
X153575383Y-96033382D01*
X153591681Y-96050149D01*
X153591690Y-96050158D01*
X153591707Y-96050175D01*
X153609337Y-96066354D01*
X153609339Y-96066355D01*
X153609340Y-96066356D01*
X153610447Y-96067173D01*
X153610948Y-96067832D01*
X153614236Y-96070850D01*
X153613691Y-96071442D01*
X153652722Y-96122801D01*
X153658211Y-96192455D01*
X153625171Y-96254019D01*
X153616707Y-96261842D01*
X153611874Y-96265911D01*
X153575358Y-96296644D01*
X153575351Y-96296651D01*
X153315373Y-96596626D01*
X153304400Y-96610442D01*
X153293826Y-96624995D01*
X153259914Y-96699258D01*
X153245220Y-96762475D01*
X153245220Y-96762477D01*
X153240130Y-96798954D01*
X153240131Y-96798959D01*
X153256102Y-96889006D01*
X153281368Y-96948777D01*
X153281373Y-96948787D01*
X153299068Y-96977198D01*
X153315359Y-97003356D01*
X153315361Y-97003359D01*
X153315365Y-97003364D01*
X153575333Y-97303327D01*
X153575383Y-97303382D01*
X153591681Y-97320149D01*
X153591690Y-97320158D01*
X153591707Y-97320175D01*
X153609337Y-97336354D01*
X153609339Y-97336355D01*
X153609340Y-97336356D01*
X153610447Y-97337173D01*
X153610948Y-97337832D01*
X153614236Y-97340850D01*
X153613691Y-97341442D01*
X153652722Y-97392801D01*
X153658211Y-97462455D01*
X153625171Y-97524019D01*
X153616707Y-97531842D01*
X153610251Y-97537277D01*
X153575358Y-97566644D01*
X153575351Y-97566651D01*
X153315373Y-97866626D01*
X153304400Y-97880442D01*
X153293826Y-97894995D01*
X153259914Y-97969258D01*
X153245220Y-98032475D01*
X153245220Y-98032477D01*
X153240130Y-98068954D01*
X153240131Y-98068959D01*
X153256102Y-98159006D01*
X153281368Y-98218777D01*
X153281373Y-98218787D01*
X153299790Y-98248358D01*
X153315359Y-98273356D01*
X153315361Y-98273359D01*
X153315365Y-98273364D01*
X153575333Y-98573327D01*
X153575383Y-98573382D01*
X153591681Y-98590149D01*
X153591690Y-98590158D01*
X153591707Y-98590175D01*
X153609337Y-98606354D01*
X153609338Y-98606355D01*
X153609342Y-98606358D01*
X153610856Y-98607475D01*
X153611541Y-98608377D01*
X153614236Y-98610850D01*
X153613790Y-98611335D01*
X153653131Y-98663104D01*
X153658618Y-98732758D01*
X153625577Y-98794322D01*
X153617111Y-98802148D01*
X153589196Y-98825641D01*
X153589196Y-98825643D01*
X154015871Y-99252318D01*
X154049356Y-99313641D01*
X154044372Y-99383333D01*
X154015871Y-99427680D01*
X153587954Y-99855597D01*
X153587954Y-99855598D01*
X153592032Y-99859794D01*
X153609676Y-99875987D01*
X153610837Y-99876843D01*
X153611362Y-99877535D01*
X153614574Y-99880482D01*
X153614042Y-99881061D01*
X153653113Y-99932472D01*
X153658602Y-100002125D01*
X153625562Y-100063689D01*
X153617099Y-100071512D01*
X153606647Y-100080310D01*
X153575358Y-100106644D01*
X153575351Y-100106651D01*
X153315373Y-100406626D01*
X153304400Y-100420442D01*
X153293826Y-100434995D01*
X153259914Y-100509258D01*
X153245220Y-100572475D01*
X153245220Y-100572477D01*
X153240130Y-100608954D01*
X153240131Y-100608959D01*
X153256102Y-100699006D01*
X153281368Y-100758777D01*
X153281373Y-100758787D01*
X153299790Y-100788358D01*
X153315359Y-100813356D01*
X153315361Y-100813359D01*
X153315365Y-100813364D01*
X153575333Y-101113327D01*
X153575383Y-101113382D01*
X153591681Y-101130149D01*
X153591690Y-101130158D01*
X153591707Y-101130175D01*
X153609337Y-101146354D01*
X153609339Y-101146355D01*
X153609340Y-101146356D01*
X153610447Y-101147173D01*
X153610948Y-101147832D01*
X153614236Y-101150850D01*
X153613691Y-101151442D01*
X153652722Y-101202801D01*
X153658211Y-101272455D01*
X153625171Y-101334019D01*
X153616707Y-101341842D01*
X153608999Y-101348330D01*
X153575358Y-101376644D01*
X153575351Y-101376651D01*
X153315373Y-101676626D01*
X153304400Y-101690442D01*
X153293826Y-101704995D01*
X153259914Y-101779258D01*
X153245220Y-101842475D01*
X153245220Y-101842477D01*
X153240130Y-101878954D01*
X153240131Y-101878959D01*
X153256102Y-101969006D01*
X153281368Y-102028777D01*
X153281373Y-102028787D01*
X153299790Y-102058358D01*
X153315359Y-102083356D01*
X153315361Y-102083359D01*
X153315365Y-102083364D01*
X153575333Y-102383327D01*
X153575383Y-102383382D01*
X153591681Y-102400149D01*
X153591690Y-102400158D01*
X153591707Y-102400175D01*
X153609337Y-102416354D01*
X153684780Y-102460389D01*
X153719623Y-102471710D01*
X153746496Y-102480442D01*
X153778248Y-102485471D01*
X153810000Y-102490500D01*
X154250999Y-102490500D01*
X154318038Y-102510185D01*
X154363793Y-102562989D01*
X154374999Y-102614500D01*
X154374999Y-103006791D01*
X154373937Y-103022987D01*
X154363585Y-103101563D01*
X154355205Y-103132826D01*
X154327780Y-103199025D01*
X154311594Y-103227058D01*
X154267966Y-103283909D01*
X154245076Y-103306796D01*
X154188229Y-103350412D01*
X154160196Y-103366595D01*
X154093988Y-103394017D01*
X154062724Y-103402394D01*
X153999604Y-103410703D01*
X153983129Y-103412872D01*
X153966947Y-103413933D01*
X153928473Y-103413933D01*
X153918425Y-103414923D01*
X153584500Y-103414923D01*
X153517461Y-103395238D01*
X153471706Y-103342434D01*
X153460500Y-103290923D01*
X153460500Y-102840014D01*
X153460500Y-102840000D01*
X153459161Y-102816581D01*
X153456434Y-102792808D01*
X153456433Y-102792806D01*
X153456433Y-102792803D01*
X153441649Y-102749415D01*
X153428263Y-102710124D01*
X153419280Y-102695224D01*
X153394764Y-102654559D01*
X153394755Y-102654546D01*
X153353360Y-102605363D01*
X153353355Y-102605358D01*
X153209221Y-102480442D01*
X153136442Y-102417367D01*
X153099723Y-102361979D01*
X153055219Y-102225005D01*
X153055217Y-102225002D01*
X153055217Y-102225000D01*
X152962286Y-102042607D01*
X152962283Y-102042604D01*
X152962281Y-102042599D01*
X152841965Y-101876995D01*
X152841963Y-101876993D01*
X152807779Y-101842810D01*
X152807773Y-101842802D01*
X152769596Y-101804625D01*
X152769594Y-101804622D01*
X152731623Y-101766650D01*
X152731600Y-101766629D01*
X152679695Y-101714724D01*
X152671522Y-101705707D01*
X152647664Y-101676635D01*
X152596134Y-101613844D01*
X152582637Y-101593644D01*
X152529507Y-101494244D01*
X152520206Y-101471786D01*
X152487494Y-101363942D01*
X152482752Y-101340102D01*
X152482600Y-101338557D01*
X152471096Y-101221748D01*
X152470500Y-101209597D01*
X152470500Y-101202801D01*
X152470501Y-101168196D01*
X152470500Y-101168192D01*
X152470500Y-99338983D01*
X153240631Y-99338983D01*
X153256562Y-99428809D01*
X153271737Y-99464708D01*
X153396447Y-99339999D01*
X153376557Y-99320109D01*
X153650000Y-99320109D01*
X153650000Y-99359891D01*
X153665224Y-99396645D01*
X153693355Y-99424776D01*
X153730109Y-99440000D01*
X153769891Y-99440000D01*
X153806645Y-99424776D01*
X153834776Y-99396645D01*
X153850000Y-99359891D01*
X153850000Y-99320109D01*
X153834776Y-99283355D01*
X153806645Y-99255224D01*
X153769891Y-99240000D01*
X153730109Y-99240000D01*
X153693355Y-99255224D01*
X153665224Y-99283355D01*
X153650000Y-99320109D01*
X153376557Y-99320109D01*
X153271504Y-99215057D01*
X153260399Y-99239376D01*
X153245712Y-99302567D01*
X153245709Y-99302582D01*
X153240631Y-99338983D01*
X152470500Y-99338983D01*
X152470500Y-96744652D01*
X152470500Y-96736311D01*
X152470490Y-96736165D01*
X152470490Y-96717523D01*
X152470491Y-96681867D01*
X152438471Y-96479684D01*
X152406928Y-96382602D01*
X152375219Y-96285005D01*
X152375217Y-96285002D01*
X152375217Y-96285000D01*
X152282286Y-96102607D01*
X152282283Y-96102604D01*
X152282281Y-96102599D01*
X152161965Y-95936995D01*
X152161963Y-95936993D01*
X152127779Y-95902810D01*
X152127773Y-95902802D01*
X152089596Y-95864625D01*
X152089594Y-95864622D01*
X152051623Y-95826650D01*
X152051600Y-95826629D01*
X151551103Y-95326132D01*
X151551101Y-95326129D01*
X151546703Y-95321731D01*
X151546692Y-95321711D01*
X151438012Y-95213032D01*
X151438010Y-95213030D01*
X151272400Y-95092709D01*
X151272397Y-95092707D01*
X151272395Y-95092706D01*
X151272392Y-95092704D01*
X151090001Y-94999774D01*
X150895322Y-94936522D01*
X150693141Y-94904501D01*
X150693136Y-94904501D01*
X150590784Y-94904502D01*
X150478969Y-94904502D01*
X150411930Y-94884817D01*
X150366175Y-94832013D01*
X150356231Y-94762855D01*
X150357353Y-94756306D01*
X150358100Y-94752551D01*
X150358100Y-94357450D01*
X150358099Y-94357448D01*
X150346468Y-94298971D01*
X150346467Y-94298969D01*
X150346416Y-94298893D01*
X150346355Y-94298700D01*
X150341794Y-94287688D01*
X150342779Y-94287279D01*
X150325537Y-94232216D01*
X150341951Y-94172380D01*
X150341794Y-94172315D01*
X150342313Y-94171061D01*
X150344021Y-94164836D01*
X150346405Y-94161125D01*
X150346467Y-94161033D01*
X150346820Y-94159261D01*
X150358099Y-94102554D01*
X150358100Y-94102552D01*
X150358100Y-93707451D01*
X150358099Y-93707449D01*
X150346468Y-93648973D01*
X150346465Y-93648969D01*
X150346415Y-93648894D01*
X150346354Y-93648698D01*
X150341794Y-93637689D01*
X150342778Y-93637280D01*
X150325536Y-93582219D01*
X150341949Y-93522378D01*
X150341794Y-93522314D01*
X150342307Y-93521074D01*
X150344018Y-93514838D01*
X150346388Y-93511150D01*
X150346467Y-93511032D01*
X150358100Y-93452549D01*
X150358100Y-93178012D01*
X150360352Y-93160905D01*
X150359440Y-93160785D01*
X150360501Y-93152726D01*
X150360501Y-93039678D01*
X150360500Y-93039660D01*
X150360500Y-91984676D01*
X150361849Y-91966436D01*
X150364658Y-91947547D01*
X150360647Y-91865311D01*
X150360500Y-91859270D01*
X150360500Y-91728143D01*
X150360490Y-91727999D01*
X150360490Y-91717917D01*
X150360491Y-91697426D01*
X150349809Y-91616283D01*
X150348853Y-91605167D01*
X150343944Y-91484258D01*
X150360893Y-91416478D01*
X150385575Y-91386451D01*
X150441333Y-91337016D01*
X150448938Y-91330797D01*
X150465497Y-91318319D01*
X150492665Y-91302792D01*
X150526535Y-91288764D01*
X150685527Y-91196972D01*
X150770216Y-91131987D01*
X150782779Y-91123518D01*
X150790127Y-91119194D01*
X150793128Y-91117094D01*
X150809535Y-91104329D01*
X150809541Y-91104320D01*
X150812943Y-91100827D01*
X150826310Y-91088947D01*
X150831178Y-91085213D01*
X150851733Y-91064658D01*
X150851739Y-91064653D01*
X150858803Y-91057588D01*
X150858806Y-91057587D01*
X151522521Y-90393870D01*
X151522528Y-90393865D01*
X151533982Y-90382412D01*
X151534010Y-90382396D01*
X151570312Y-90346092D01*
X151570313Y-90346093D01*
X151635220Y-90281184D01*
X151738059Y-90147159D01*
X151746974Y-90135541D01*
X151746974Y-90135539D01*
X151746980Y-90135533D01*
X151838773Y-89976540D01*
X151909027Y-89806926D01*
X151956541Y-89629592D01*
X151960966Y-89595981D01*
X151966619Y-89553031D01*
X151980501Y-89447574D01*
X151980500Y-89355780D01*
X151980500Y-89328781D01*
X151980500Y-88600404D01*
X152000185Y-88533365D01*
X152023287Y-88506700D01*
X152083356Y-88454641D01*
X152100175Y-88438293D01*
X152116354Y-88420663D01*
X152116357Y-88420656D01*
X152117167Y-88419560D01*
X152117825Y-88419059D01*
X152120850Y-88415764D01*
X152121444Y-88416309D01*
X152172793Y-88377280D01*
X152242446Y-88371786D01*
X152304013Y-88404822D01*
X152311832Y-88413280D01*
X152346640Y-88454636D01*
X152346646Y-88454643D01*
X152346651Y-88454648D01*
X152646626Y-88714626D01*
X152646634Y-88714632D01*
X152646644Y-88714641D01*
X152660441Y-88725599D01*
X152674996Y-88736174D01*
X152719178Y-88756349D01*
X152749258Y-88770085D01*
X152749259Y-88770085D01*
X152749261Y-88770086D01*
X152812469Y-88784778D01*
X152812475Y-88784778D01*
X152812476Y-88784779D01*
X152848954Y-88789869D01*
X152848955Y-88789868D01*
X152848957Y-88789869D01*
X152939008Y-88773897D01*
X152998781Y-88748630D01*
X153053356Y-88714641D01*
X153353356Y-88454641D01*
X153370175Y-88438293D01*
X153386354Y-88420663D01*
X153430389Y-88345220D01*
X153450442Y-88283503D01*
X153460500Y-88220000D01*
X153460500Y-87778992D01*
X153480185Y-87711953D01*
X153532989Y-87666198D01*
X153584500Y-87654992D01*
X153695717Y-87654992D01*
X153762756Y-87674677D01*
G37*
%TD.AperFunction*%
%TA.AperFunction,Conductor*%
G36*
X147973704Y-94225187D02*
G01*
X148019459Y-94277991D01*
X148029403Y-94347149D01*
X148000378Y-94410705D01*
X147962957Y-94439988D01*
X147957605Y-94442714D01*
X147791999Y-94563032D01*
X147791993Y-94563036D01*
X147751934Y-94603095D01*
X147751912Y-94603115D01*
X147719623Y-94635405D01*
X147719622Y-94635407D01*
X147685966Y-94669062D01*
X147685965Y-94669063D01*
X146898716Y-95456311D01*
X146898689Y-95456325D01*
X146788028Y-95566988D01*
X146667703Y-95732605D01*
X146574771Y-95915001D01*
X146511519Y-96109680D01*
X146479499Y-96311866D01*
X146479500Y-96374652D01*
X146479500Y-96717869D01*
X146476274Y-96745969D01*
X146474242Y-96754698D01*
X146472547Y-96807288D01*
X146471253Y-96821591D01*
X146469297Y-96834700D01*
X146464713Y-96854324D01*
X146462023Y-96862698D01*
X146457719Y-96874131D01*
X146440120Y-96914692D01*
X146440109Y-96914715D01*
X146425853Y-96947550D01*
X146425854Y-96947551D01*
X146411376Y-96980904D01*
X146411051Y-96982452D01*
X146400188Y-97013244D01*
X146394376Y-97024652D01*
X146394354Y-97024696D01*
X146394352Y-97024700D01*
X146374508Y-97149997D01*
X146374508Y-97150003D01*
X146394352Y-97275300D01*
X146394352Y-97275301D01*
X146412805Y-97311517D01*
X146451950Y-97388342D01*
X146451952Y-97388344D01*
X146451954Y-97388347D01*
X146541652Y-97478045D01*
X146541654Y-97478046D01*
X146541658Y-97478050D01*
X146654696Y-97535646D01*
X146654697Y-97535646D01*
X146654699Y-97535647D01*
X146779997Y-97555492D01*
X146780000Y-97555492D01*
X146780003Y-97555492D01*
X146905300Y-97535647D01*
X146905301Y-97535647D01*
X146905302Y-97535646D01*
X146905304Y-97535646D01*
X147018342Y-97478050D01*
X147108050Y-97388342D01*
X147165646Y-97275304D01*
X147165646Y-97275302D01*
X147165647Y-97275301D01*
X147165647Y-97275300D01*
X147185492Y-97150003D01*
X147185492Y-97149996D01*
X147165647Y-97024699D01*
X147165646Y-97024697D01*
X147165646Y-97024696D01*
X147159780Y-97013185D01*
X147149072Y-96983123D01*
X147148592Y-96980904D01*
X147148561Y-96980762D01*
X147121250Y-96917854D01*
X147119544Y-96913924D01*
X147102278Y-96874131D01*
X147097976Y-96862706D01*
X147097973Y-96862698D01*
X147095283Y-96854324D01*
X147090699Y-96834700D01*
X147088742Y-96821586D01*
X147087451Y-96807289D01*
X147087342Y-96803911D01*
X147085759Y-96754710D01*
X147083501Y-96744637D01*
X147080500Y-96717523D01*
X147080500Y-96461807D01*
X147080501Y-96461804D01*
X147080500Y-96420297D01*
X147081097Y-96408146D01*
X147081273Y-96406361D01*
X147092742Y-96289888D01*
X147097480Y-96266066D01*
X147130200Y-96158199D01*
X147139495Y-96135758D01*
X147192632Y-96036344D01*
X147206122Y-96016153D01*
X147281465Y-95924345D01*
X147289610Y-95915359D01*
X148069021Y-95135949D01*
X148130342Y-95102466D01*
X148200034Y-95107450D01*
X148255967Y-95149322D01*
X148280384Y-95214786D01*
X148280700Y-95223632D01*
X148280700Y-95402554D01*
X148292331Y-95461031D01*
X148292385Y-95461111D01*
X148292447Y-95461309D01*
X148297006Y-95472315D01*
X148296020Y-95472723D01*
X148313262Y-95527789D01*
X148296847Y-95587622D01*
X148297006Y-95587688D01*
X148296482Y-95588950D01*
X148294777Y-95595169D01*
X148292388Y-95598886D01*
X148292333Y-95598967D01*
X148292331Y-95598971D01*
X148280700Y-95657448D01*
X148280700Y-96052553D01*
X148294715Y-96123011D01*
X148293568Y-96123239D01*
X148299698Y-96180252D01*
X148268423Y-96242731D01*
X148221698Y-96272866D01*
X148221892Y-96273274D01*
X148218780Y-96274749D01*
X148217213Y-96275760D01*
X148215265Y-96276415D01*
X148208634Y-96279559D01*
X148208256Y-96278763D01*
X148193519Y-96285642D01*
X148150001Y-96299782D01*
X148150000Y-96299782D01*
X147967610Y-96392711D01*
X147967609Y-96392712D01*
X147801999Y-96513031D01*
X147750530Y-96564498D01*
X147747436Y-96567593D01*
X147747422Y-96567607D01*
X147740663Y-96574366D01*
X147734189Y-96580840D01*
X147723479Y-96590376D01*
X147706635Y-96603710D01*
X147683245Y-96631213D01*
X147676476Y-96638551D01*
X147669543Y-96645484D01*
X147664595Y-96651934D01*
X147664522Y-96651878D01*
X147658936Y-96659799D01*
X147657496Y-96661491D01*
X147657487Y-96661503D01*
X147642946Y-96680793D01*
X147641435Y-96683065D01*
X147641430Y-96683071D01*
X147629307Y-96703832D01*
X147616563Y-96728920D01*
X147601507Y-96758563D01*
X147601502Y-96758572D01*
X147601500Y-96758578D01*
X147592472Y-96779041D01*
X147591579Y-96781407D01*
X147591574Y-96781421D01*
X147585372Y-96801045D01*
X147584778Y-96802924D01*
X147584775Y-96802932D01*
X147570880Y-96857075D01*
X147570868Y-96857123D01*
X147570638Y-96858014D01*
X147569797Y-96861414D01*
X147569700Y-96861822D01*
X147568952Y-96865080D01*
X147558157Y-96913924D01*
X147554510Y-96926985D01*
X147534112Y-96987132D01*
X147533656Y-96989019D01*
X147525788Y-97010280D01*
X147524353Y-97014699D01*
X147504508Y-97139997D01*
X147504508Y-97140003D01*
X147524352Y-97265301D01*
X147527368Y-97274580D01*
X147527256Y-97274616D01*
X147530859Y-97284678D01*
X147531250Y-97284552D01*
X147533133Y-97290343D01*
X147533134Y-97290344D01*
X147553368Y-97352549D01*
X147553628Y-97353346D01*
X147557750Y-97369744D01*
X147566864Y-97420399D01*
X147567540Y-97423963D01*
X147576989Y-97471592D01*
X147576995Y-97471626D01*
X147579601Y-97484763D01*
X147579606Y-97484782D01*
X147585555Y-97507736D01*
X147586373Y-97510281D01*
X147586379Y-97510296D01*
X147591778Y-97524253D01*
X147594949Y-97532448D01*
X147620241Y-97588048D01*
X147622193Y-97592339D01*
X147635112Y-97616368D01*
X147636755Y-97618990D01*
X147636764Y-97619002D01*
X147636769Y-97619010D01*
X147652705Y-97641046D01*
X147652710Y-97641052D01*
X147652720Y-97641066D01*
X147656828Y-97646019D01*
X147668773Y-97663182D01*
X147669540Y-97664511D01*
X147680861Y-97675832D01*
X147688613Y-97684340D01*
X147705032Y-97704135D01*
X147711267Y-97711308D01*
X147711991Y-97712103D01*
X147720436Y-97718036D01*
X147736832Y-97731816D01*
X147801764Y-97796745D01*
X147801991Y-97796972D01*
X147967601Y-97917293D01*
X147967605Y-97917295D01*
X147967608Y-97917297D01*
X147975306Y-97921219D01*
X148149995Y-98010225D01*
X148220023Y-98032977D01*
X148233104Y-98038065D01*
X148237832Y-98040219D01*
X148238436Y-98040361D01*
X148238721Y-98040523D01*
X148243603Y-98042192D01*
X148243286Y-98043116D01*
X148299185Y-98074872D01*
X148313142Y-98092174D01*
X148336646Y-98127350D01*
X148402969Y-98171666D01*
X148402970Y-98171667D01*
X148461447Y-98183298D01*
X148461450Y-98183299D01*
X148461452Y-98183299D01*
X150177350Y-98183299D01*
X150177351Y-98183298D01*
X150192168Y-98180351D01*
X150235829Y-98171667D01*
X150235829Y-98171666D01*
X150235831Y-98171666D01*
X150302152Y-98127351D01*
X150346467Y-98061030D01*
X150346467Y-98061028D01*
X150346468Y-98061028D01*
X150358099Y-98002551D01*
X150358100Y-98002549D01*
X150358100Y-97607448D01*
X150358099Y-97607446D01*
X150346468Y-97548970D01*
X150346467Y-97548968D01*
X150346418Y-97548895D01*
X150346360Y-97548709D01*
X150341794Y-97537686D01*
X150342779Y-97537277D01*
X150325537Y-97482221D01*
X150341950Y-97422378D01*
X150341794Y-97422314D01*
X150342308Y-97421072D01*
X150344018Y-97414839D01*
X150346404Y-97411124D01*
X150346467Y-97411032D01*
X150346840Y-97409161D01*
X150358099Y-97352553D01*
X150358100Y-97352551D01*
X150358100Y-96957450D01*
X150358099Y-96957448D01*
X150346468Y-96898972D01*
X150346416Y-96898894D01*
X150346354Y-96898697D01*
X150341794Y-96887688D01*
X150342778Y-96887279D01*
X150325536Y-96832218D01*
X150341949Y-96772376D01*
X150341794Y-96772312D01*
X150342308Y-96771070D01*
X150344018Y-96764837D01*
X150346416Y-96761106D01*
X150346467Y-96761030D01*
X150346507Y-96760832D01*
X150358099Y-96702551D01*
X150358100Y-96702549D01*
X150358100Y-96532433D01*
X150377785Y-96465394D01*
X150430589Y-96419639D01*
X150499747Y-96409695D01*
X150563303Y-96438720D01*
X150569781Y-96444752D01*
X150600304Y-96475275D01*
X150608476Y-96484291D01*
X150683863Y-96576153D01*
X150697363Y-96596357D01*
X150704892Y-96610442D01*
X150750491Y-96695754D01*
X150759793Y-96718213D01*
X150792505Y-96826057D01*
X150797247Y-96849898D01*
X150804593Y-96924497D01*
X150791573Y-96993143D01*
X150788000Y-96999637D01*
X150782136Y-97009580D01*
X150778176Y-97016605D01*
X150777722Y-97017447D01*
X150773989Y-97024729D01*
X150745939Y-97082262D01*
X150743451Y-97087555D01*
X150743181Y-97088151D01*
X150743176Y-97088167D01*
X150742925Y-97089319D01*
X150732266Y-97119165D01*
X150724354Y-97134694D01*
X150724352Y-97134700D01*
X150704508Y-97259997D01*
X150704508Y-97260003D01*
X150724352Y-97385300D01*
X150724352Y-97385301D01*
X150737463Y-97411032D01*
X150781950Y-97498342D01*
X150781952Y-97498344D01*
X150781954Y-97498347D01*
X150871652Y-97588045D01*
X150871654Y-97588046D01*
X150871658Y-97588050D01*
X150984696Y-97645646D01*
X150984697Y-97645646D01*
X150984699Y-97645647D01*
X151109997Y-97665492D01*
X151110000Y-97665492D01*
X151110003Y-97665492D01*
X151235300Y-97645647D01*
X151235301Y-97645647D01*
X151235302Y-97645646D01*
X151235304Y-97645646D01*
X151348342Y-97588050D01*
X151438050Y-97498342D01*
X151495646Y-97385304D01*
X151495646Y-97385302D01*
X151495647Y-97385301D01*
X151495647Y-97385300D01*
X151515492Y-97260003D01*
X151515492Y-97259996D01*
X151495647Y-97134699D01*
X151495646Y-97134697D01*
X151495646Y-97134696D01*
X151492714Y-97128943D01*
X151483892Y-97102838D01*
X151483300Y-97103008D01*
X151481625Y-97097156D01*
X151458383Y-97038455D01*
X151455950Y-97031751D01*
X151455823Y-97031368D01*
X151444438Y-96996949D01*
X151441638Y-96987148D01*
X151434617Y-96958071D01*
X151433303Y-96951952D01*
X151424020Y-96902726D01*
X151424008Y-96902658D01*
X151423710Y-96901084D01*
X151423687Y-96900963D01*
X151423472Y-96899824D01*
X151423455Y-96899738D01*
X151410192Y-96829748D01*
X151410067Y-96829098D01*
X151405224Y-96817300D01*
X151397463Y-96789611D01*
X151396165Y-96781416D01*
X151383676Y-96702549D01*
X151378471Y-96669682D01*
X151315219Y-96475005D01*
X151315217Y-96475002D01*
X151315217Y-96475000D01*
X151222286Y-96292607D01*
X151222283Y-96292604D01*
X151222281Y-96292599D01*
X151101965Y-96126995D01*
X151101963Y-96126993D01*
X151067779Y-96092810D01*
X151067773Y-96092802D01*
X151029596Y-96054625D01*
X151029594Y-96054622D01*
X150991623Y-96016650D01*
X150991600Y-96016629D01*
X150951102Y-95976131D01*
X150951100Y-95976128D01*
X150946703Y-95971731D01*
X150946688Y-95971704D01*
X150906787Y-95931804D01*
X150838009Y-95863028D01*
X150699807Y-95762620D01*
X150657143Y-95707292D01*
X150651164Y-95637679D01*
X150683769Y-95575883D01*
X150744608Y-95541526D01*
X150808687Y-95543641D01*
X150846795Y-95555201D01*
X150869250Y-95564503D01*
X150922609Y-95593022D01*
X150968646Y-95617629D01*
X150988851Y-95631129D01*
X151046911Y-95678777D01*
X151080654Y-95706469D01*
X151089670Y-95714641D01*
X151660304Y-96285275D01*
X151668476Y-96294291D01*
X151743863Y-96386153D01*
X151757366Y-96406361D01*
X151810491Y-96505754D01*
X151819793Y-96528213D01*
X151852505Y-96636057D01*
X151857247Y-96659897D01*
X151868902Y-96778246D01*
X151869499Y-96790399D01*
X151869499Y-96841791D01*
X151869500Y-96841804D01*
X151869500Y-101263089D01*
X151869509Y-101263232D01*
X151869509Y-101318133D01*
X151901529Y-101520317D01*
X151964780Y-101714994D01*
X151964782Y-101714999D01*
X151964783Y-101715000D01*
X151991099Y-101766650D01*
X152057714Y-101897393D01*
X152057718Y-101897400D01*
X152178034Y-102063004D01*
X152178036Y-102063006D01*
X152215359Y-102100328D01*
X152215370Y-102100341D01*
X152250403Y-102135374D01*
X152250404Y-102135376D01*
X152291123Y-102176095D01*
X152291129Y-102176100D01*
X152340304Y-102225275D01*
X152348476Y-102234291D01*
X152423863Y-102326153D01*
X152437366Y-102346362D01*
X152456583Y-102382316D01*
X152470824Y-102450719D01*
X152445823Y-102515962D01*
X152428436Y-102534472D01*
X152346656Y-102605348D01*
X152346617Y-102605383D01*
X152329850Y-102621681D01*
X152329841Y-102621690D01*
X152313640Y-102639342D01*
X152312819Y-102640457D01*
X152312155Y-102640961D01*
X152309150Y-102644236D01*
X152308559Y-102643693D01*
X152257186Y-102682726D01*
X152187532Y-102688208D01*
X152125971Y-102655162D01*
X152118168Y-102646720D01*
X152083356Y-102605359D01*
X152083353Y-102605356D01*
X152083348Y-102605351D01*
X151783373Y-102345373D01*
X151783362Y-102345364D01*
X151783356Y-102345359D01*
X151769559Y-102334401D01*
X151755004Y-102323826D01*
X151680741Y-102289914D01*
X151617523Y-102275220D01*
X151581045Y-102270130D01*
X151581040Y-102270131D01*
X151490993Y-102286102D01*
X151431222Y-102311368D01*
X151431212Y-102311373D01*
X151376644Y-102345359D01*
X151376635Y-102345365D01*
X151076672Y-102605333D01*
X151076617Y-102605383D01*
X151059850Y-102621681D01*
X151059841Y-102621690D01*
X151043640Y-102639342D01*
X151042819Y-102640457D01*
X151042155Y-102640961D01*
X151039150Y-102644236D01*
X151038559Y-102643693D01*
X150987186Y-102682726D01*
X150917532Y-102688208D01*
X150855971Y-102655162D01*
X150848168Y-102646720D01*
X150813356Y-102605359D01*
X150813353Y-102605356D01*
X150813348Y-102605351D01*
X150513373Y-102345373D01*
X150513362Y-102345364D01*
X150513356Y-102345359D01*
X150499559Y-102334401D01*
X150485004Y-102323826D01*
X150410741Y-102289914D01*
X150347523Y-102275220D01*
X150311045Y-102270130D01*
X150311040Y-102270131D01*
X150220993Y-102286102D01*
X150161222Y-102311368D01*
X150161212Y-102311373D01*
X150106644Y-102345359D01*
X150106635Y-102345365D01*
X149806672Y-102605333D01*
X149806617Y-102605383D01*
X149789850Y-102621681D01*
X149789841Y-102621690D01*
X149773640Y-102639342D01*
X149772819Y-102640457D01*
X149772155Y-102640961D01*
X149769150Y-102644236D01*
X149768559Y-102643693D01*
X149717186Y-102682726D01*
X149647532Y-102688208D01*
X149585971Y-102655162D01*
X149578168Y-102646720D01*
X149543356Y-102605359D01*
X149543353Y-102605356D01*
X149543348Y-102605351D01*
X149243373Y-102345373D01*
X149243362Y-102345364D01*
X149243356Y-102345359D01*
X149229559Y-102334401D01*
X149215004Y-102323826D01*
X149140741Y-102289914D01*
X149077523Y-102275220D01*
X149041045Y-102270130D01*
X149041040Y-102270131D01*
X148950993Y-102286102D01*
X148891222Y-102311368D01*
X148891212Y-102311373D01*
X148836644Y-102345359D01*
X148836635Y-102345365D01*
X148536672Y-102605333D01*
X148536617Y-102605383D01*
X148519850Y-102621681D01*
X148519841Y-102621690D01*
X148503640Y-102639342D01*
X148502819Y-102640457D01*
X148502155Y-102640961D01*
X148499150Y-102644236D01*
X148498559Y-102643693D01*
X148447186Y-102682726D01*
X148377532Y-102688208D01*
X148315971Y-102655162D01*
X148308168Y-102646720D01*
X148273356Y-102605359D01*
X148273353Y-102605356D01*
X148273348Y-102605351D01*
X147973373Y-102345373D01*
X147973362Y-102345364D01*
X147973356Y-102345359D01*
X147959559Y-102334401D01*
X147945004Y-102323826D01*
X147870741Y-102289914D01*
X147807523Y-102275220D01*
X147771045Y-102270130D01*
X147771040Y-102270131D01*
X147680993Y-102286102D01*
X147621222Y-102311368D01*
X147621212Y-102311373D01*
X147566644Y-102345359D01*
X147566635Y-102345365D01*
X147266672Y-102605333D01*
X147266617Y-102605383D01*
X147249850Y-102621681D01*
X147249841Y-102621690D01*
X147249828Y-102621703D01*
X147249825Y-102621707D01*
X147242599Y-102629580D01*
X147233640Y-102639343D01*
X147232515Y-102640869D01*
X147231606Y-102641558D01*
X147229150Y-102644236D01*
X147228666Y-102643792D01*
X147176880Y-102683137D01*
X147107226Y-102688616D01*
X147045666Y-102655568D01*
X147037851Y-102647113D01*
X147014354Y-102619196D01*
X146587680Y-103045871D01*
X146526357Y-103079356D01*
X146456665Y-103074372D01*
X146412318Y-103045871D01*
X146126556Y-102760109D01*
X146400000Y-102760109D01*
X146400000Y-102799891D01*
X146415224Y-102836645D01*
X146443355Y-102864776D01*
X146480109Y-102880000D01*
X146519891Y-102880000D01*
X146556645Y-102864776D01*
X146584776Y-102836645D01*
X146600000Y-102799891D01*
X146600000Y-102760109D01*
X146584776Y-102723355D01*
X146556645Y-102695224D01*
X146519891Y-102680000D01*
X146480109Y-102680000D01*
X146443355Y-102695224D01*
X146415224Y-102723355D01*
X146400000Y-102760109D01*
X146126556Y-102760109D01*
X145984401Y-102617954D01*
X145984400Y-102617954D01*
X145980189Y-102622048D01*
X145980177Y-102622061D01*
X145964014Y-102639673D01*
X145963149Y-102640847D01*
X145962450Y-102641377D01*
X145959520Y-102644571D01*
X145958943Y-102644042D01*
X145907516Y-102683117D01*
X145837862Y-102688600D01*
X145776301Y-102655554D01*
X145768498Y-102647112D01*
X145733356Y-102605359D01*
X145733353Y-102605356D01*
X145733348Y-102605351D01*
X145433373Y-102345373D01*
X145433362Y-102345364D01*
X145433356Y-102345359D01*
X145419559Y-102334401D01*
X145405004Y-102323826D01*
X145356632Y-102301737D01*
X146375290Y-102301737D01*
X146499999Y-102426446D01*
X146624941Y-102301504D01*
X146624941Y-102301503D01*
X146600630Y-102290402D01*
X146600631Y-102290402D01*
X146537426Y-102275711D01*
X146537417Y-102275709D01*
X146501016Y-102270631D01*
X146411189Y-102286562D01*
X146411187Y-102286562D01*
X146375290Y-102301737D01*
X145356632Y-102301737D01*
X145330741Y-102289914D01*
X145267523Y-102275220D01*
X145231045Y-102270130D01*
X145231040Y-102270131D01*
X145140993Y-102286102D01*
X145081222Y-102311368D01*
X145081212Y-102311373D01*
X145026644Y-102345359D01*
X145026635Y-102345365D01*
X144726672Y-102605333D01*
X144726617Y-102605383D01*
X144709850Y-102621681D01*
X144709841Y-102621690D01*
X144693640Y-102639342D01*
X144692819Y-102640457D01*
X144692155Y-102640961D01*
X144689150Y-102644236D01*
X144688559Y-102643693D01*
X144637186Y-102682726D01*
X144567532Y-102688208D01*
X144505971Y-102655162D01*
X144498168Y-102646720D01*
X144463356Y-102605359D01*
X144463353Y-102605356D01*
X144463348Y-102605351D01*
X144163373Y-102345373D01*
X144163362Y-102345364D01*
X144163356Y-102345359D01*
X144149559Y-102334401D01*
X144135004Y-102323826D01*
X144060741Y-102289914D01*
X143997523Y-102275220D01*
X143961045Y-102270130D01*
X143961040Y-102270131D01*
X143870993Y-102286102D01*
X143811222Y-102311368D01*
X143811212Y-102311373D01*
X143756644Y-102345359D01*
X143756635Y-102345365D01*
X143456672Y-102605333D01*
X143456617Y-102605383D01*
X143439850Y-102621681D01*
X143439841Y-102621690D01*
X143423640Y-102639342D01*
X143422819Y-102640457D01*
X143422155Y-102640961D01*
X143419150Y-102644236D01*
X143418559Y-102643693D01*
X143367186Y-102682726D01*
X143297532Y-102688208D01*
X143235971Y-102655162D01*
X143228168Y-102646720D01*
X143193356Y-102605359D01*
X143193347Y-102605351D01*
X143033288Y-102466632D01*
X142995519Y-102407850D01*
X142990500Y-102372927D01*
X142990500Y-101097796D01*
X143010185Y-101030757D01*
X143028889Y-101008093D01*
X143056840Y-100981417D01*
X143065666Y-100973755D01*
X143110591Y-100938325D01*
X143110599Y-100938317D01*
X143174936Y-100887576D01*
X143186122Y-100879716D01*
X143288503Y-100815936D01*
X143302481Y-100808427D01*
X143397235Y-100765101D01*
X143414084Y-100758830D01*
X143484588Y-100738275D01*
X143507705Y-100733863D01*
X143519849Y-100732725D01*
X143519851Y-100732724D01*
X143519853Y-100732724D01*
X143582675Y-100710741D01*
X143644475Y-100689116D01*
X143750711Y-100610711D01*
X143829116Y-100504475D01*
X143872725Y-100379849D01*
X143875500Y-100350256D01*
X143875500Y-100350208D01*
X144325000Y-100350208D01*
X144327770Y-100379750D01*
X144327772Y-100379762D01*
X144371329Y-100504237D01*
X144449646Y-100610353D01*
X144555762Y-100688670D01*
X144680237Y-100732227D01*
X144680249Y-100732229D01*
X144709792Y-100735000D01*
X144762500Y-100735000D01*
X145262500Y-100735000D01*
X145315208Y-100735000D01*
X145344750Y-100732229D01*
X145344762Y-100732227D01*
X145469237Y-100688670D01*
X145575353Y-100610353D01*
X145653670Y-100504237D01*
X145697227Y-100379762D01*
X145697229Y-100379750D01*
X145700000Y-100350208D01*
X145700000Y-100310000D01*
X145262500Y-100310000D01*
X145262500Y-100735000D01*
X144762500Y-100735000D01*
X144762500Y-100310000D01*
X144325000Y-100310000D01*
X144325000Y-100350208D01*
X143875500Y-100350208D01*
X143875500Y-99769791D01*
X144325000Y-99769791D01*
X144325000Y-99810000D01*
X144762500Y-99810000D01*
X145262500Y-99810000D01*
X145700000Y-99810000D01*
X145700000Y-99769791D01*
X145697229Y-99740249D01*
X145697227Y-99740237D01*
X145653670Y-99615762D01*
X145575353Y-99509646D01*
X145469237Y-99431329D01*
X145344762Y-99387772D01*
X145344750Y-99387770D01*
X145315208Y-99385000D01*
X145262500Y-99385000D01*
X145262500Y-99810000D01*
X144762500Y-99810000D01*
X144762500Y-99385000D01*
X144709792Y-99385000D01*
X144680249Y-99387770D01*
X144680237Y-99387772D01*
X144555762Y-99431329D01*
X144449646Y-99509646D01*
X144371329Y-99615762D01*
X144327772Y-99740237D01*
X144327770Y-99740249D01*
X144325000Y-99769791D01*
X143875500Y-99769791D01*
X143875500Y-99769744D01*
X143872725Y-99740151D01*
X143829116Y-99615525D01*
X143817976Y-99600431D01*
X143750711Y-99509289D01*
X143750710Y-99509288D01*
X143644476Y-99430884D01*
X143519848Y-99387274D01*
X143519849Y-99387274D01*
X143490260Y-99384500D01*
X143490256Y-99384500D01*
X143432337Y-99384500D01*
X143402722Y-99379572D01*
X143402456Y-99380703D01*
X143396532Y-99379306D01*
X143257366Y-99360636D01*
X143242301Y-99357655D01*
X143106153Y-99321832D01*
X143092444Y-99317358D01*
X142952225Y-99262382D01*
X142940189Y-99256906D01*
X142795357Y-99181443D01*
X142785077Y-99175442D01*
X142632661Y-99076373D01*
X142612558Y-99060087D01*
X142379695Y-98827224D01*
X142371522Y-98818207D01*
X142369271Y-98815464D01*
X142296134Y-98726344D01*
X142282637Y-98706144D01*
X142229507Y-98606744D01*
X142220206Y-98584286D01*
X142187494Y-98476442D01*
X142182752Y-98452602D01*
X142181302Y-98437874D01*
X142171096Y-98334248D01*
X142170500Y-98322097D01*
X142170501Y-98280696D01*
X142170500Y-98280692D01*
X142170500Y-98002501D01*
X142642400Y-98002501D01*
X142654002Y-98060832D01*
X142654003Y-98060833D01*
X142698208Y-98126990D01*
X142764365Y-98171195D01*
X142764366Y-98171196D01*
X142822697Y-98182798D01*
X142822701Y-98182799D01*
X143502800Y-98182799D01*
X143858400Y-98182799D01*
X144538499Y-98182799D01*
X144538502Y-98182798D01*
X144596833Y-98171196D01*
X144596834Y-98171195D01*
X144662991Y-98126990D01*
X144707196Y-98060833D01*
X144707197Y-98060832D01*
X144718799Y-98002501D01*
X144718800Y-98002498D01*
X144718800Y-97982799D01*
X143858400Y-97982799D01*
X143858400Y-98182799D01*
X143502800Y-98182799D01*
X143502800Y-97982799D01*
X142642400Y-97982799D01*
X142642400Y-98002501D01*
X142170500Y-98002501D01*
X142170500Y-97332798D01*
X142642400Y-97332798D01*
X142642400Y-97352500D01*
X142654002Y-97410831D01*
X142654003Y-97410833D01*
X142654186Y-97411106D01*
X142654400Y-97411791D01*
X142658677Y-97422115D01*
X142657753Y-97422497D01*
X142675065Y-97477783D01*
X142658588Y-97537845D01*
X142658677Y-97537882D01*
X142658384Y-97538587D01*
X142656581Y-97545163D01*
X142654189Y-97548886D01*
X142654004Y-97549162D01*
X142654002Y-97549165D01*
X142642400Y-97607496D01*
X142642400Y-97627199D01*
X143543844Y-97627199D01*
X143555405Y-97625956D01*
X143805795Y-97625956D01*
X143810028Y-97627199D01*
X144718800Y-97627199D01*
X144718800Y-97607500D01*
X144718799Y-97607496D01*
X144707197Y-97549165D01*
X144707011Y-97548886D01*
X144706793Y-97548191D01*
X144702523Y-97537882D01*
X144703446Y-97537499D01*
X144686135Y-97482208D01*
X144702611Y-97422151D01*
X144702523Y-97422115D01*
X144702815Y-97421408D01*
X144704621Y-97414828D01*
X144707014Y-97411106D01*
X144707196Y-97410833D01*
X144707197Y-97410831D01*
X144718799Y-97352500D01*
X144718800Y-97352497D01*
X144718800Y-97332798D01*
X144582460Y-97332798D01*
X144578598Y-97331664D01*
X144529964Y-97331664D01*
X142829964Y-97331664D01*
X142788015Y-97331664D01*
X142777468Y-97332798D01*
X142642400Y-97332798D01*
X142170500Y-97332798D01*
X142170500Y-97111807D01*
X142170501Y-97111804D01*
X142170500Y-97070297D01*
X142171097Y-97058146D01*
X142174388Y-97024729D01*
X142182742Y-96939888D01*
X142187480Y-96916066D01*
X142220200Y-96808199D01*
X142229495Y-96785758D01*
X142273996Y-96702501D01*
X142642400Y-96702501D01*
X142654002Y-96760832D01*
X142654187Y-96761108D01*
X142654403Y-96761798D01*
X142658677Y-96772116D01*
X142657753Y-96772498D01*
X142675064Y-96827786D01*
X142658587Y-96887844D01*
X142658677Y-96887881D01*
X142658382Y-96888591D01*
X142656579Y-96895166D01*
X142654190Y-96898883D01*
X142654004Y-96899160D01*
X142654002Y-96899164D01*
X142642400Y-96957495D01*
X142642400Y-96977198D01*
X142777774Y-96977198D01*
X142780716Y-96978062D01*
X142830000Y-96978062D01*
X144574190Y-96978062D01*
X144582226Y-96977198D01*
X144718800Y-96977198D01*
X144718800Y-96957499D01*
X144718799Y-96957495D01*
X144707197Y-96899164D01*
X144707196Y-96899162D01*
X144707014Y-96898890D01*
X144706799Y-96898204D01*
X144702523Y-96887881D01*
X144703446Y-96887498D01*
X144686135Y-96832213D01*
X144702611Y-96772152D01*
X144702523Y-96772116D01*
X144702813Y-96771414D01*
X144704619Y-96764833D01*
X144707017Y-96761101D01*
X144707197Y-96760831D01*
X144718799Y-96702501D01*
X144718800Y-96702498D01*
X144718800Y-96682799D01*
X143815098Y-96682799D01*
X143806067Y-96683770D01*
X143555133Y-96683770D01*
X143551826Y-96682799D01*
X142642400Y-96682799D01*
X142642400Y-96702501D01*
X142273996Y-96702501D01*
X142282632Y-96686344D01*
X142296122Y-96666153D01*
X142371465Y-96574345D01*
X142379610Y-96565359D01*
X142580286Y-96364684D01*
X142589314Y-96356504D01*
X142590760Y-96355317D01*
X142655080Y-96328028D01*
X142669391Y-96327199D01*
X144718800Y-96327199D01*
X144718800Y-96307500D01*
X144718799Y-96307496D01*
X144707197Y-96249165D01*
X144702523Y-96237882D01*
X144703587Y-96237440D01*
X144686435Y-96182663D01*
X144704918Y-96115283D01*
X144707297Y-96111581D01*
X144707667Y-96111029D01*
X144707680Y-96110967D01*
X144716259Y-96067832D01*
X144719300Y-96052546D01*
X144719300Y-95657450D01*
X144719300Y-95657448D01*
X144719300Y-95657447D01*
X144719299Y-95657445D01*
X144707668Y-95598968D01*
X144707667Y-95598966D01*
X144707616Y-95598890D01*
X144707555Y-95598697D01*
X144702994Y-95587685D01*
X144703979Y-95587276D01*
X144686737Y-95532213D01*
X144703151Y-95472377D01*
X144702994Y-95472312D01*
X144703513Y-95471058D01*
X144705221Y-95464833D01*
X144707613Y-95461111D01*
X144707667Y-95461030D01*
X144707680Y-95460969D01*
X144717244Y-95412883D01*
X144719300Y-95402547D01*
X144719300Y-95233633D01*
X144738985Y-95166594D01*
X144791789Y-95120839D01*
X144860947Y-95110895D01*
X144924503Y-95139920D01*
X144930981Y-95145952D01*
X145170304Y-95385275D01*
X145178476Y-95394291D01*
X145253863Y-95486153D01*
X145267363Y-95506357D01*
X145280000Y-95529998D01*
X145320491Y-95605754D01*
X145329793Y-95628213D01*
X145362505Y-95736057D01*
X145367247Y-95759897D01*
X145378902Y-95878246D01*
X145379499Y-95890399D01*
X145379499Y-95941791D01*
X145379500Y-95941804D01*
X145379500Y-97565589D01*
X145379509Y-97565732D01*
X145379509Y-97620633D01*
X145411529Y-97822817D01*
X145474780Y-98017494D01*
X145474782Y-98017499D01*
X145474783Y-98017500D01*
X145492552Y-98052374D01*
X145567714Y-98199893D01*
X145567718Y-98199900D01*
X145688034Y-98365504D01*
X145688036Y-98365506D01*
X145725359Y-98402828D01*
X145725370Y-98402841D01*
X145760403Y-98437874D01*
X145760404Y-98437876D01*
X145801123Y-98478595D01*
X145801129Y-98478600D01*
X146801525Y-99478996D01*
X146823901Y-99509551D01*
X146865658Y-99590000D01*
X146869156Y-99596738D01*
X146872559Y-99603837D01*
X146930967Y-99736304D01*
X146933295Y-99741956D01*
X146984989Y-99876843D01*
X146993984Y-99900312D01*
X146995635Y-99904888D01*
X147057773Y-100088244D01*
X147058981Y-100092003D01*
X147114147Y-100273612D01*
X147119500Y-100309652D01*
X147119500Y-100350260D01*
X147122274Y-100379849D01*
X147165884Y-100504476D01*
X147244288Y-100610710D01*
X147244289Y-100610711D01*
X147350523Y-100689115D01*
X147350524Y-100689115D01*
X147350525Y-100689116D01*
X147475151Y-100732725D01*
X147475150Y-100732725D01*
X147504740Y-100735500D01*
X147504744Y-100735500D01*
X148110260Y-100735500D01*
X148139849Y-100732725D01*
X148141272Y-100732227D01*
X148264475Y-100689116D01*
X148370711Y-100610711D01*
X148449116Y-100504475D01*
X148492725Y-100379849D01*
X148495500Y-100350256D01*
X148495500Y-100350208D01*
X148945000Y-100350208D01*
X148947770Y-100379750D01*
X148947772Y-100379762D01*
X148991329Y-100504237D01*
X149069646Y-100610353D01*
X149175762Y-100688670D01*
X149300237Y-100732227D01*
X149300249Y-100732229D01*
X149329792Y-100735000D01*
X149382500Y-100735000D01*
X149882500Y-100735000D01*
X149935208Y-100735000D01*
X149964750Y-100732229D01*
X149964762Y-100732227D01*
X150089237Y-100688670D01*
X150195353Y-100610353D01*
X150273670Y-100504237D01*
X150317227Y-100379762D01*
X150317229Y-100379750D01*
X150320000Y-100350208D01*
X150320000Y-100310000D01*
X149882500Y-100310000D01*
X149882500Y-100735000D01*
X149382500Y-100735000D01*
X149382500Y-100310000D01*
X148945000Y-100310000D01*
X148945000Y-100350208D01*
X148495500Y-100350208D01*
X148495500Y-100309647D01*
X148500853Y-100273608D01*
X148523308Y-100199682D01*
X148556016Y-100091997D01*
X148557199Y-100088317D01*
X148619364Y-99904880D01*
X148621013Y-99900314D01*
X148681694Y-99741976D01*
X148684021Y-99736324D01*
X148684069Y-99736216D01*
X148711229Y-99674615D01*
X148756285Y-99621217D01*
X148823061Y-99600654D01*
X148890353Y-99619456D01*
X148936797Y-99671655D01*
X148948148Y-99736216D01*
X148945000Y-99769798D01*
X148945000Y-99810000D01*
X149382500Y-99810000D01*
X149882500Y-99810000D01*
X150320000Y-99810000D01*
X150320000Y-99769791D01*
X150317229Y-99740249D01*
X150317227Y-99740237D01*
X150273670Y-99615762D01*
X150195353Y-99509646D01*
X150089237Y-99431329D01*
X149964762Y-99387772D01*
X149964750Y-99387770D01*
X149935208Y-99385000D01*
X149882500Y-99385000D01*
X149882500Y-99810000D01*
X149382500Y-99810000D01*
X149382500Y-99385000D01*
X149329792Y-99385000D01*
X149300249Y-99387770D01*
X149300237Y-99387772D01*
X149208895Y-99419735D01*
X149139116Y-99423297D01*
X149078489Y-99388569D01*
X149046261Y-99326575D01*
X149045467Y-99283296D01*
X149055492Y-99220001D01*
X149055492Y-99219996D01*
X149035647Y-99094699D01*
X149035647Y-99094698D01*
X149027468Y-99078646D01*
X148978050Y-98981658D01*
X148978046Y-98981654D01*
X148978045Y-98981652D01*
X148888347Y-98891954D01*
X148888344Y-98891952D01*
X148888342Y-98891950D01*
X148775304Y-98834354D01*
X148775303Y-98834353D01*
X148775300Y-98834352D01*
X148650003Y-98814508D01*
X148649997Y-98814508D01*
X148524699Y-98834352D01*
X148524698Y-98834352D01*
X148449337Y-98872751D01*
X148411658Y-98891950D01*
X148411657Y-98891951D01*
X148411652Y-98891954D01*
X148321950Y-98981656D01*
X148285367Y-99053454D01*
X148279002Y-99064503D01*
X148269857Y-99078640D01*
X148269854Y-99078646D01*
X148253748Y-99119226D01*
X148210720Y-99174275D01*
X148195793Y-99183448D01*
X148125641Y-99220000D01*
X148066160Y-99250992D01*
X148054813Y-99256904D01*
X148042778Y-99262380D01*
X147902552Y-99317359D01*
X147888840Y-99321834D01*
X147839050Y-99334934D01*
X147775948Y-99334934D01*
X147726157Y-99321834D01*
X147712445Y-99317359D01*
X147572224Y-99262382D01*
X147560189Y-99256906D01*
X147415357Y-99181443D01*
X147405077Y-99175442D01*
X147252661Y-99076373D01*
X147232558Y-99060087D01*
X146189695Y-98017224D01*
X146181522Y-98008207D01*
X146106134Y-97916344D01*
X146092637Y-97896144D01*
X146039507Y-97796744D01*
X146030206Y-97774286D01*
X145997494Y-97666442D01*
X145992752Y-97642602D01*
X145991113Y-97625956D01*
X145981096Y-97524248D01*
X145980500Y-97512097D01*
X145980500Y-97498342D01*
X145980501Y-97470696D01*
X145980500Y-97470692D01*
X145980500Y-95844652D01*
X145980500Y-95836311D01*
X145980490Y-95836165D01*
X145980490Y-95826629D01*
X145980491Y-95781867D01*
X145948471Y-95579684D01*
X145907089Y-95452317D01*
X145885219Y-95385005D01*
X145885217Y-95385002D01*
X145885217Y-95385000D01*
X145792286Y-95202607D01*
X145792283Y-95202604D01*
X145792281Y-95202599D01*
X145671965Y-95036995D01*
X145671963Y-95036993D01*
X145637779Y-95002810D01*
X145637773Y-95002802D01*
X145599596Y-94964625D01*
X145599594Y-94964622D01*
X145561623Y-94926650D01*
X145561600Y-94926629D01*
X145489483Y-94854512D01*
X145455998Y-94793189D01*
X145460982Y-94723497D01*
X145502854Y-94667564D01*
X145568318Y-94643147D01*
X145596562Y-94644358D01*
X145729998Y-94665492D01*
X145730000Y-94665492D01*
X145730003Y-94665492D01*
X145855300Y-94645647D01*
X145855301Y-94645647D01*
X145855302Y-94645646D01*
X145855304Y-94645646D01*
X145968342Y-94588050D01*
X146027720Y-94528670D01*
X146032555Y-94524091D01*
X146043957Y-94513856D01*
X146047161Y-94510354D01*
X146054460Y-94501930D01*
X146058050Y-94498342D01*
X146058470Y-94497516D01*
X146069706Y-94479475D01*
X146089675Y-94452814D01*
X146104737Y-94429596D01*
X146106266Y-94426850D01*
X146118061Y-94401843D01*
X146142239Y-94340129D01*
X146185021Y-94284892D01*
X146199235Y-94276009D01*
X146220758Y-94264506D01*
X146243207Y-94255208D01*
X146351057Y-94222493D01*
X146374897Y-94217752D01*
X146493230Y-94206098D01*
X146505376Y-94205502D01*
X146546803Y-94205503D01*
X146546806Y-94205502D01*
X147906665Y-94205502D01*
X147973704Y-94225187D01*
G37*
%TD.AperFunction*%
%TD*%
%TA.AperFunction,Conductor*%
%TO.N,+5V*%
G36*
X145624437Y-90159296D02*
G01*
X145893581Y-90428440D01*
X145897008Y-90436713D01*
X145895157Y-90443029D01*
X145820205Y-90559910D01*
X145820180Y-90559951D01*
X145740159Y-90701234D01*
X145740146Y-90701259D01*
X145660095Y-90859091D01*
X145580044Y-91033430D01*
X145504358Y-91213860D01*
X145497998Y-91220163D01*
X145489452Y-91220286D01*
X145016554Y-91042497D01*
X145010016Y-91036378D01*
X145009854Y-91036003D01*
X144871892Y-90701234D01*
X144820633Y-90576851D01*
X144820649Y-90567896D01*
X144826992Y-90561576D01*
X144827986Y-90561218D01*
X144917785Y-90533466D01*
X144976067Y-90515455D01*
X144976069Y-90515453D01*
X144976079Y-90515451D01*
X145136409Y-90449403D01*
X145296738Y-90366854D01*
X145457068Y-90267806D01*
X145609325Y-90158076D01*
X145618039Y-90156020D01*
X145624437Y-90159296D01*
G37*
%TD.AperFunction*%
%TD*%
%TA.AperFunction,Conductor*%
%TO.N,+5V*%
G36*
X149026154Y-90155938D02*
G01*
X149179681Y-90264209D01*
X149341257Y-90361657D01*
X149502834Y-90442604D01*
X149664410Y-90507052D01*
X149813631Y-90551333D01*
X149820588Y-90556972D01*
X149821520Y-90565878D01*
X149821146Y-90566944D01*
X149635116Y-91025995D01*
X149628833Y-91032376D01*
X149628460Y-91032526D01*
X149155482Y-91213803D01*
X149146531Y-91213564D01*
X149140553Y-91207514D01*
X149063052Y-91027877D01*
X148981104Y-90854434D01*
X148899157Y-90697491D01*
X148817209Y-90557048D01*
X148748787Y-90453561D01*
X148740531Y-90441074D01*
X148738827Y-90432283D01*
X148742016Y-90426350D01*
X149011140Y-90157226D01*
X149019412Y-90153800D01*
X149026154Y-90155938D01*
G37*
%TD.AperFunction*%
%TD*%
%TA.AperFunction,Conductor*%
%TO.N,+5V*%
G36*
X150116226Y-90988385D02*
G01*
X150120389Y-90996313D01*
X150120430Y-90996967D01*
X150127999Y-91214645D01*
X150135999Y-91428191D01*
X150144000Y-91625236D01*
X150152000Y-91805782D01*
X150159402Y-91957558D01*
X150156382Y-91965988D01*
X150148286Y-91969814D01*
X150147716Y-91969828D01*
X149765965Y-91969828D01*
X149757692Y-91966401D01*
X149756496Y-91965000D01*
X149665627Y-91839782D01*
X149571254Y-91726236D01*
X149476882Y-91629189D01*
X149476867Y-91629176D01*
X149382512Y-91548645D01*
X149298324Y-91491511D01*
X149293403Y-91484030D01*
X149295213Y-91475260D01*
X149295529Y-91474817D01*
X149629381Y-91033126D01*
X149637103Y-91028593D01*
X149637623Y-91028533D01*
X150107677Y-90985722D01*
X150116226Y-90988385D01*
G37*
%TD.AperFunction*%
%TD*%
%TA.AperFunction,Conductor*%
%TO.N,+5V*%
G36*
X149892730Y-90560087D02*
G01*
X149987791Y-90607363D01*
X150093082Y-90643645D01*
X150198373Y-90663844D01*
X150303664Y-90667963D01*
X150403223Y-90656651D01*
X150411830Y-90659122D01*
X150412961Y-90660149D01*
X150675598Y-90932179D01*
X150678879Y-90940512D01*
X150675308Y-90948723D01*
X150672307Y-90950823D01*
X150562801Y-91004193D01*
X150562790Y-91004199D01*
X150438796Y-91081132D01*
X150438789Y-91081136D01*
X150314804Y-91174562D01*
X150190810Y-91284494D01*
X150190793Y-91284510D01*
X150074547Y-91403043D01*
X150066308Y-91406550D01*
X150058494Y-91403660D01*
X149638742Y-91036778D01*
X149634768Y-91028754D01*
X149636092Y-91022514D01*
X149645745Y-91004199D01*
X149877172Y-90565107D01*
X149884060Y-90559388D01*
X149892730Y-90560087D01*
G37*
%TD.AperFunction*%
%TD*%
%TA.AperFunction,Conductor*%
%TO.N,/VGA_IN_VSync*%
G36*
X148537989Y-91966013D02*
G01*
X148538037Y-91966124D01*
X148557584Y-92012705D01*
X148609100Y-92135473D01*
X148609141Y-92144428D01*
X148609100Y-92144527D01*
X148538046Y-92313854D01*
X148531685Y-92320157D01*
X148522730Y-92320116D01*
X148522598Y-92320059D01*
X148456559Y-92291389D01*
X148401037Y-92267298D01*
X148401019Y-92267292D01*
X148351597Y-92251413D01*
X148293021Y-92242675D01*
X148293006Y-92242673D01*
X148221323Y-92240364D01*
X148213165Y-92236672D01*
X148210000Y-92228670D01*
X148210000Y-92051329D01*
X148213427Y-92043056D01*
X148221322Y-92039635D01*
X148293013Y-92037325D01*
X148351599Y-92028585D01*
X148401025Y-92012705D01*
X148420109Y-92004424D01*
X148456559Y-91988609D01*
X148485032Y-91976247D01*
X148522599Y-91959939D01*
X148531551Y-91959789D01*
X148537989Y-91966013D01*
G37*
%TD.AperFunction*%
%TD*%
%TA.AperFunction,Conductor*%
%TO.N,/VGA_IN_VSync*%
G36*
X144522437Y-93728993D02*
G01*
X144545428Y-93740339D01*
X144545431Y-93740340D01*
X144545433Y-93740341D01*
X144558256Y-93744711D01*
X144572057Y-93749415D01*
X144592618Y-93753285D01*
X144598679Y-93754426D01*
X144598685Y-93754427D01*
X144625314Y-93755375D01*
X144643160Y-93753286D01*
X144651773Y-93755727D01*
X144655327Y-93760429D01*
X144710675Y-93894055D01*
X144723211Y-93924319D01*
X144723211Y-93933273D01*
X144716879Y-93939605D01*
X144715083Y-93940185D01*
X144686533Y-93946905D01*
X144644613Y-93961439D01*
X144644603Y-93961443D01*
X144602676Y-93980646D01*
X144560729Y-94004528D01*
X144560721Y-94004533D01*
X144522599Y-94030482D01*
X144514256Y-94032377D01*
X143743198Y-93915046D01*
X143735534Y-93910413D01*
X143733391Y-93901719D01*
X143738024Y-93894055D01*
X143742523Y-93892035D01*
X144514833Y-93728041D01*
X144522437Y-93728993D01*
G37*
%TD.AperFunction*%
%TD*%
%TA.AperFunction,Conductor*%
%TO.N,/VD_VSync*%
G36*
X143779956Y-92902828D02*
G01*
X143782733Y-92907257D01*
X143795619Y-92944297D01*
X143811239Y-92984525D01*
X143819622Y-93003609D01*
X143826866Y-93020099D01*
X143842474Y-93050966D01*
X143842478Y-93050973D01*
X143853458Y-93069408D01*
X143854747Y-93078270D01*
X143851709Y-93083638D01*
X143688888Y-93247651D01*
X143680628Y-93251108D01*
X143672342Y-93247711D01*
X143508889Y-93083616D01*
X143505478Y-93075336D01*
X143507106Y-93069406D01*
X143517994Y-93050984D01*
X143517999Y-93050976D01*
X143533499Y-93020084D01*
X143548999Y-92984525D01*
X143564499Y-92944297D01*
X143577279Y-92907283D01*
X143583218Y-92900581D01*
X143588338Y-92899401D01*
X143771683Y-92899401D01*
X143779956Y-92902828D01*
G37*
%TD.AperFunction*%
%TD*%
%TA.AperFunction,Conductor*%
%TO.N,/VD_VSync*%
G36*
X143853855Y-92481954D02*
G01*
X143860157Y-92488314D01*
X143860116Y-92497269D01*
X143860059Y-92497401D01*
X143831388Y-92563439D01*
X143831389Y-92563440D01*
X143807298Y-92618960D01*
X143807292Y-92618978D01*
X143791415Y-92668395D01*
X143791412Y-92668404D01*
X143782675Y-92726977D01*
X143782673Y-92726992D01*
X143780365Y-92798677D01*
X143776674Y-92806835D01*
X143768671Y-92810000D01*
X143591329Y-92810000D01*
X143583056Y-92806573D01*
X143579635Y-92798677D01*
X143577325Y-92726992D01*
X143577325Y-92726986D01*
X143568585Y-92668399D01*
X143552705Y-92618973D01*
X143552700Y-92618961D01*
X143528609Y-92563440D01*
X143528609Y-92563439D01*
X143499940Y-92497401D01*
X143499789Y-92488448D01*
X143506013Y-92482010D01*
X143506042Y-92481997D01*
X143675474Y-92410898D01*
X143684428Y-92410858D01*
X143853855Y-92481954D01*
G37*
%TD.AperFunction*%
%TD*%
%TA.AperFunction,Conductor*%
%TO.N,/VGA_PASS*%
G36*
X147913775Y-97141159D02*
G01*
X148082336Y-97211356D01*
X148088656Y-97217700D01*
X148088639Y-97226655D01*
X148087901Y-97228125D01*
X148061075Y-97273355D01*
X148059861Y-97275041D01*
X148021785Y-97319061D01*
X148021764Y-97319087D01*
X147991923Y-97357528D01*
X147991923Y-97357529D01*
X147984451Y-97396130D01*
X148007867Y-97433498D01*
X148009356Y-97442328D01*
X148006226Y-97447984D01*
X147880474Y-97573736D01*
X147872201Y-97577163D01*
X147863928Y-97573736D01*
X147863204Y-97572941D01*
X147810892Y-97509872D01*
X147809249Y-97507250D01*
X147782001Y-97447349D01*
X147781175Y-97444782D01*
X147778936Y-97433498D01*
X147769118Y-97384010D01*
X147756016Y-97311199D01*
X147728555Y-97226777D01*
X147729254Y-97217850D01*
X147735152Y-97212370D01*
X147904784Y-97141184D01*
X147913737Y-97141144D01*
X147913775Y-97141159D01*
G37*
%TD.AperFunction*%
%TD*%
%TA.AperFunction,Conductor*%
%TO.N,/VGA_PASS*%
G36*
X148486160Y-96978251D02*
G01*
X148767623Y-97037885D01*
X149266375Y-97143555D01*
X149273758Y-97148622D01*
X149275396Y-97157426D01*
X149270329Y-97164809D01*
X149266375Y-97166447D01*
X148486172Y-97331747D01*
X148477368Y-97330109D01*
X148477037Y-97329886D01*
X148445645Y-97307909D01*
X148445643Y-97307908D01*
X148445639Y-97307905D01*
X148427583Y-97297634D01*
X148410080Y-97287677D01*
X148374521Y-97272116D01*
X148338967Y-97261226D01*
X148338964Y-97261225D01*
X148338960Y-97261224D01*
X148338956Y-97261223D01*
X148338955Y-97261223D01*
X148313083Y-97256695D01*
X148305524Y-97251893D01*
X148303400Y-97245170D01*
X148303400Y-97064831D01*
X148306827Y-97056558D01*
X148313082Y-97053306D01*
X148338960Y-97048777D01*
X148374520Y-97037885D01*
X148410079Y-97022324D01*
X148445639Y-97002096D01*
X148477038Y-96980114D01*
X148485778Y-96978178D01*
X148486160Y-96978251D01*
G37*
%TD.AperFunction*%
%TD*%
%TA.AperFunction,Conductor*%
%TO.N,/VGA_PASS*%
G36*
X147997183Y-96960090D02*
G01*
X147997514Y-96960235D01*
X148063084Y-96990166D01*
X148063508Y-96990371D01*
X148082326Y-96999944D01*
X148117983Y-97018086D01*
X148117994Y-97018091D01*
X148142176Y-97028233D01*
X148166360Y-97038376D01*
X148224125Y-97050789D01*
X148295911Y-97054436D01*
X148303998Y-97058278D01*
X148307016Y-97066121D01*
X148307016Y-97243475D01*
X148303589Y-97251748D01*
X148295492Y-97255174D01*
X148225256Y-97256232D01*
X148167000Y-97261486D01*
X148117567Y-97273103D01*
X148117553Y-97273107D01*
X148062316Y-97293414D01*
X147997294Y-97320323D01*
X147988339Y-97320320D01*
X147982031Y-97314039D01*
X147973379Y-97293420D01*
X147910898Y-97144525D01*
X147910858Y-97135573D01*
X147910871Y-97135540D01*
X147981867Y-96966351D01*
X147988229Y-96960049D01*
X147997183Y-96960090D01*
G37*
%TD.AperFunction*%
%TD*%
%TA.AperFunction,Conductor*%
%TO.N,/VGA_PASS*%
G36*
X147879673Y-96735511D02*
G01*
X147880366Y-96736151D01*
X148006321Y-96862106D01*
X148009748Y-96870379D01*
X148008046Y-96876455D01*
X147988758Y-96908191D01*
X147988758Y-96908194D01*
X147997730Y-96941358D01*
X147997731Y-96941359D01*
X148026919Y-96974203D01*
X148062714Y-97011998D01*
X148064175Y-97013897D01*
X148087569Y-97051790D01*
X148088999Y-97060630D01*
X148083759Y-97067892D01*
X148082111Y-97068737D01*
X147913808Y-97138826D01*
X147904853Y-97138843D01*
X147904783Y-97138814D01*
X147735279Y-97067682D01*
X147728976Y-97061320D01*
X147728726Y-97053135D01*
X147754921Y-96975892D01*
X147769607Y-96909442D01*
X147769693Y-96909081D01*
X147769921Y-96908193D01*
X147783827Y-96854010D01*
X147784726Y-96851629D01*
X147812525Y-96796901D01*
X147814036Y-96794630D01*
X147863180Y-96736843D01*
X147871151Y-96732762D01*
X147879673Y-96735511D01*
G37*
%TD.AperFunction*%
%TD*%
%TA.AperFunction,Conductor*%
%TO.N,/VGA_PASS*%
G36*
X148951905Y-96448555D02*
G01*
X149256801Y-96494951D01*
X149264465Y-96499584D01*
X149266608Y-96508278D01*
X149261975Y-96515942D01*
X149257471Y-96517963D01*
X148485168Y-96681956D01*
X148477560Y-96681003D01*
X148454571Y-96669658D01*
X148454567Y-96669656D01*
X148454565Y-96669655D01*
X148427944Y-96660582D01*
X148401321Y-96655570D01*
X148381344Y-96654859D01*
X148374687Y-96654622D01*
X148374686Y-96654622D01*
X148374685Y-96654622D01*
X148356842Y-96656710D01*
X148348227Y-96654267D01*
X148344674Y-96649566D01*
X148276790Y-96485675D01*
X148276790Y-96476720D01*
X148283122Y-96470389D01*
X148284905Y-96469813D01*
X148313460Y-96463091D01*
X148313463Y-96463089D01*
X148313467Y-96463089D01*
X148355387Y-96448555D01*
X148355397Y-96448551D01*
X148397322Y-96429349D01*
X148397329Y-96429346D01*
X148439264Y-96405471D01*
X148477400Y-96379513D01*
X148485742Y-96377619D01*
X148951905Y-96448555D01*
G37*
%TD.AperFunction*%
%TD*%
%TA.AperFunction,Conductor*%
%TO.N,/VGA_PASS*%
G36*
X149257472Y-97792035D02*
G01*
X149264852Y-97797105D01*
X149266486Y-97805909D01*
X149261415Y-97813290D01*
X149256801Y-97815046D01*
X148485743Y-97932377D01*
X148477400Y-97930482D01*
X148439277Y-97904533D01*
X148439269Y-97904528D01*
X148397322Y-97880646D01*
X148355396Y-97861444D01*
X148355386Y-97861440D01*
X148313466Y-97846906D01*
X148284917Y-97840186D01*
X148277649Y-97834954D01*
X148276209Y-97826116D01*
X148276784Y-97824333D01*
X148344674Y-97660428D01*
X148351006Y-97654097D01*
X148356839Y-97653285D01*
X148374687Y-97655374D01*
X148401315Y-97654426D01*
X148401320Y-97654425D01*
X148401321Y-97654425D01*
X148407378Y-97653285D01*
X148427943Y-97649415D01*
X148454571Y-97640339D01*
X148477562Y-97628993D01*
X148485166Y-97628041D01*
X149257472Y-97792035D01*
G37*
%TD.AperFunction*%
%TD*%
%TA.AperFunction,Conductor*%
%TO.N,/VGA_OUT_HSync*%
G36*
X146876944Y-96753427D02*
G01*
X146880365Y-96761323D01*
X146882673Y-96833006D01*
X146882675Y-96833021D01*
X146891413Y-96891596D01*
X146891413Y-96891598D01*
X146907292Y-96941019D01*
X146907298Y-96941037D01*
X146931388Y-96996557D01*
X146960059Y-97062598D01*
X146960210Y-97071551D01*
X146953986Y-97077989D01*
X146953854Y-97078046D01*
X146784527Y-97149100D01*
X146775572Y-97149141D01*
X146775473Y-97149100D01*
X146677435Y-97107961D01*
X146606144Y-97078045D01*
X146599842Y-97071685D01*
X146599883Y-97062730D01*
X146614360Y-97029379D01*
X146628610Y-96996557D01*
X146652700Y-96941036D01*
X146652705Y-96941025D01*
X146668585Y-96891599D01*
X146677325Y-96833013D01*
X146679635Y-96761322D01*
X146683327Y-96753165D01*
X146691329Y-96750000D01*
X146868671Y-96750000D01*
X146876944Y-96753427D01*
G37*
%TD.AperFunction*%
%TD*%
%TA.AperFunction,Conductor*%
%TO.N,/VGA_OUT_HSync*%
G36*
X149257509Y-94544819D02*
G01*
X149265155Y-94549480D01*
X149267265Y-94558183D01*
X149262604Y-94565829D01*
X149258135Y-94567824D01*
X148485322Y-94731925D01*
X148477466Y-94730846D01*
X148468957Y-94726391D01*
X148454455Y-94718800D01*
X148454453Y-94718799D01*
X148454449Y-94718797D01*
X148427713Y-94708904D01*
X148427712Y-94708903D01*
X148427710Y-94708903D01*
X148404337Y-94703841D01*
X148400967Y-94703111D01*
X148374221Y-94701423D01*
X148356046Y-94703066D01*
X148347498Y-94700397D01*
X148344184Y-94695890D01*
X148276228Y-94531824D01*
X148276228Y-94522869D01*
X148282560Y-94516538D01*
X148284381Y-94515953D01*
X148312994Y-94509328D01*
X148355045Y-94494924D01*
X148397097Y-94475852D01*
X148439148Y-94452112D01*
X148477392Y-94426276D01*
X148485740Y-94424412D01*
X149257509Y-94544819D01*
G37*
%TD.AperFunction*%
%TD*%
%TA.AperFunction,Conductor*%
%TO.N,/VGA_IN_HSync*%
G36*
X151203290Y-96860460D02*
G01*
X151208265Y-96867906D01*
X151208285Y-96868010D01*
X151221775Y-96939196D01*
X151221776Y-96939207D01*
X151221777Y-96939207D01*
X151232905Y-96998216D01*
X151232914Y-96998256D01*
X151245066Y-97048580D01*
X151263820Y-97105275D01*
X151263835Y-97105317D01*
X151290556Y-97172806D01*
X151290416Y-97181760D01*
X151284208Y-97187900D01*
X151114720Y-97259079D01*
X151105766Y-97259123D01*
X151105668Y-97259083D01*
X151105658Y-97259079D01*
X151074027Y-97245823D01*
X150936646Y-97188249D01*
X150930340Y-97181891D01*
X150930377Y-97172936D01*
X150930651Y-97172331D01*
X150958706Y-97114788D01*
X150959130Y-97114000D01*
X150988291Y-97064562D01*
X151009309Y-97020476D01*
X151017881Y-96968604D01*
X151011087Y-96906072D01*
X151013601Y-96897480D01*
X151020436Y-96893336D01*
X151194508Y-96858713D01*
X151203290Y-96860460D01*
G37*
%TD.AperFunction*%
%TD*%
%TA.AperFunction,Conductor*%
%TO.N,/VGA_IN_HSync*%
G36*
X150161399Y-95729126D02*
G01*
X150199549Y-95755070D01*
X150241498Y-95778928D01*
X150283447Y-95798120D01*
X150325396Y-95812643D01*
X150353945Y-95819349D01*
X150361214Y-95824577D01*
X150362658Y-95833415D01*
X150362077Y-95835216D01*
X150294184Y-95999129D01*
X150287853Y-96005461D01*
X150282052Y-96006276D01*
X150264168Y-96004241D01*
X150264167Y-96004241D01*
X150237525Y-96005276D01*
X150210888Y-96010381D01*
X150184243Y-96019556D01*
X150184235Y-96019560D01*
X150161250Y-96030986D01*
X150153612Y-96031954D01*
X149381247Y-95867947D01*
X149373866Y-95862876D01*
X149372232Y-95854072D01*
X149377303Y-95846691D01*
X149381908Y-95844937D01*
X150153057Y-95727236D01*
X150161399Y-95729126D01*
G37*
%TD.AperFunction*%
%TD*%
%TA.AperFunction,Conductor*%
%TO.N,/VideoSW_Voodoo*%
G36*
X142519836Y-99248134D02*
G01*
X142686362Y-99356375D01*
X142860834Y-99447281D01*
X143035306Y-99515687D01*
X143209778Y-99561593D01*
X143369206Y-99582981D01*
X143376949Y-99587477D01*
X143379245Y-99596133D01*
X143378466Y-99599035D01*
X143190145Y-100056003D01*
X143183825Y-100062346D01*
X143183445Y-100062497D01*
X142711684Y-100239858D01*
X142702734Y-100239561D01*
X142696615Y-100233023D01*
X142696372Y-100232307D01*
X142634090Y-100027269D01*
X142568186Y-99832803D01*
X142502287Y-99660850D01*
X142502281Y-99660834D01*
X142436375Y-99511362D01*
X142374416Y-99391994D01*
X142373646Y-99383073D01*
X142376525Y-99378333D01*
X142505188Y-99249670D01*
X142513460Y-99246244D01*
X142519836Y-99248134D01*
G37*
%TD.AperFunction*%
%TD*%
%TA.AperFunction,Conductor*%
%TO.N,/VideoSW_Voodoo*%
G36*
X142712843Y-99960509D02*
G01*
X143182503Y-100057960D01*
X143189906Y-100062995D01*
X143190157Y-100063395D01*
X143461552Y-100515655D01*
X143462871Y-100524512D01*
X143457540Y-100531707D01*
X143454795Y-100532907D01*
X143333569Y-100568250D01*
X143333567Y-100568251D01*
X143197799Y-100630331D01*
X143197779Y-100630342D01*
X143062007Y-100714923D01*
X143061990Y-100714935D01*
X142960983Y-100794595D01*
X142926215Y-100822015D01*
X142878749Y-100867314D01*
X142793921Y-100948271D01*
X142785605Y-100951505D01*
X142603690Y-100947802D01*
X142595488Y-100944207D01*
X142592230Y-100935866D01*
X142592345Y-100934454D01*
X142612377Y-100794595D01*
X142634283Y-100619157D01*
X142656188Y-100421220D01*
X142678094Y-100200782D01*
X142698821Y-99970915D01*
X142702977Y-99962984D01*
X142711525Y-99960314D01*
X142712843Y-99960509D01*
G37*
%TD.AperFunction*%
%TD*%
%TA.AperFunction,Conductor*%
%TO.N,/VideoSW_Voodoo*%
G36*
X143671475Y-95853353D02*
G01*
X143679254Y-95857784D01*
X143681712Y-95864742D01*
X143684621Y-96020314D01*
X143681349Y-96028650D01*
X143673142Y-96032231D01*
X143672383Y-96032221D01*
X143523178Y-96025327D01*
X143490533Y-96023819D01*
X143490526Y-96023818D01*
X143490508Y-96023818D01*
X143296218Y-96019508D01*
X143296212Y-96019508D01*
X143294122Y-96019511D01*
X143101885Y-96019864D01*
X142907554Y-96024890D01*
X142721485Y-96034172D01*
X142713051Y-96031162D01*
X142710093Y-96026964D01*
X142709234Y-96024890D01*
X142641845Y-95862194D01*
X142641845Y-95853243D01*
X142648177Y-95846911D01*
X142649677Y-95846405D01*
X142677851Y-95839012D01*
X142718985Y-95823551D01*
X142718986Y-95823551D01*
X142719964Y-95823071D01*
X142760125Y-95803419D01*
X142801262Y-95778621D01*
X142838675Y-95751822D01*
X142846945Y-95749726D01*
X143671475Y-95853353D01*
G37*
%TD.AperFunction*%
%TD*%
%TA.AperFunction,Conductor*%
%TO.N,/VideoSW_Passthru*%
G36*
X148489812Y-99249671D02*
G01*
X148618472Y-99378331D01*
X148621899Y-99386604D01*
X148620583Y-99391994D01*
X148558626Y-99511356D01*
X148492711Y-99660850D01*
X148426812Y-99832804D01*
X148360905Y-100027279D01*
X148298628Y-100232307D01*
X148292945Y-100239228D01*
X148284033Y-100240102D01*
X148283316Y-100239859D01*
X147811554Y-100062497D01*
X147805016Y-100056378D01*
X147804854Y-100056003D01*
X147616533Y-99599035D01*
X147616549Y-99590080D01*
X147622892Y-99583760D01*
X147625789Y-99582982D01*
X147785221Y-99561593D01*
X147959693Y-99515687D01*
X148134165Y-99447281D01*
X148308637Y-99356375D01*
X148475164Y-99248133D01*
X148483967Y-99246499D01*
X148489812Y-99249671D01*
G37*
%TD.AperFunction*%
%TD*%
%TA.AperFunction,Conductor*%
%TO.N,/VideoSW_Passthru*%
G36*
X148476115Y-99147915D02*
G01*
X148492099Y-99154450D01*
X148646162Y-99217435D01*
X148652523Y-99223738D01*
X148652564Y-99223837D01*
X148722044Y-99393787D01*
X148722003Y-99402742D01*
X148715642Y-99409045D01*
X148715484Y-99409108D01*
X148648482Y-99435375D01*
X148648429Y-99435396D01*
X148591881Y-99457246D01*
X148545418Y-99480514D01*
X148545417Y-99480515D01*
X148497571Y-99515387D01*
X148445131Y-99564340D01*
X148436745Y-99567480D01*
X148428874Y-99564060D01*
X148303472Y-99438658D01*
X148300045Y-99430385D01*
X148303225Y-99422367D01*
X148352266Y-99370268D01*
X148387776Y-99322977D01*
X148411854Y-99277150D01*
X148434378Y-99221181D01*
X148460863Y-99154449D01*
X148467100Y-99148024D01*
X148476054Y-99147891D01*
X148476115Y-99147915D01*
G37*
%TD.AperFunction*%
%TD*%
%TA.AperFunction,Conductor*%
%TO.N,/VideoSW_Passthru*%
G36*
X147139836Y-99248134D02*
G01*
X147306362Y-99356375D01*
X147480834Y-99447281D01*
X147655306Y-99515687D01*
X147829778Y-99561593D01*
X147989206Y-99582981D01*
X147996949Y-99587477D01*
X147999245Y-99596133D01*
X147998466Y-99599035D01*
X147810145Y-100056003D01*
X147803825Y-100062346D01*
X147803445Y-100062497D01*
X147331684Y-100239858D01*
X147322734Y-100239561D01*
X147316615Y-100233023D01*
X147316372Y-100232307D01*
X147254090Y-100027269D01*
X147188186Y-99832803D01*
X147122287Y-99660850D01*
X147122281Y-99660834D01*
X147056375Y-99511362D01*
X146994416Y-99391994D01*
X146993646Y-99383073D01*
X146996525Y-99378333D01*
X147125188Y-99249670D01*
X147133460Y-99246244D01*
X147139836Y-99248134D01*
G37*
%TD.AperFunction*%
%TD*%
%TA.AperFunction,Conductor*%
%TO.N,/VideoSW_Passthru*%
G36*
X144522599Y-94429517D02*
G01*
X144560721Y-94455465D01*
X144560730Y-94455470D01*
X144560735Y-94455474D01*
X144602670Y-94479349D01*
X144602673Y-94479350D01*
X144602676Y-94479352D01*
X144644603Y-94498555D01*
X144644613Y-94498559D01*
X144686533Y-94513093D01*
X144686539Y-94513094D01*
X144686541Y-94513095D01*
X144715084Y-94519814D01*
X144722351Y-94525044D01*
X144723791Y-94533883D01*
X144723211Y-94535679D01*
X144655327Y-94699570D01*
X144648996Y-94705902D01*
X144643159Y-94706713D01*
X144625314Y-94704625D01*
X144598680Y-94705572D01*
X144598678Y-94705572D01*
X144572055Y-94710584D01*
X144545433Y-94719657D01*
X144545424Y-94719661D01*
X144522437Y-94731005D01*
X144514830Y-94731958D01*
X143742527Y-94567964D01*
X143735147Y-94562894D01*
X143733513Y-94554090D01*
X143738584Y-94546709D01*
X143743197Y-94544953D01*
X144514257Y-94427622D01*
X144522599Y-94429517D01*
G37*
%TD.AperFunction*%
%TD*%
%TA.AperFunction,Conductor*%
%TO.N,/VD_HSync*%
G36*
X150161431Y-95029893D02*
G01*
X150161762Y-95030116D01*
X150193160Y-95052097D01*
X150228720Y-95072325D01*
X150264279Y-95087886D01*
X150299839Y-95098778D01*
X150325717Y-95103307D01*
X150333276Y-95108109D01*
X150335400Y-95114832D01*
X150335400Y-95295171D01*
X150331973Y-95303444D01*
X150325717Y-95306696D01*
X150299843Y-95311224D01*
X150299831Y-95311227D01*
X150264277Y-95322117D01*
X150228718Y-95337678D01*
X150193153Y-95357910D01*
X150161762Y-95379887D01*
X150153019Y-95381824D01*
X150152627Y-95381748D01*
X149372424Y-95216448D01*
X149365041Y-95211381D01*
X149363403Y-95202577D01*
X149368470Y-95195194D01*
X149372424Y-95193556D01*
X150152628Y-95028255D01*
X150161431Y-95029893D01*
G37*
%TD.AperFunction*%
%TD*%
%TA.AperFunction,Conductor*%
%TO.N,/VGA_OUT_VSync*%
G36*
X148486160Y-93728252D02*
G01*
X148767623Y-93787886D01*
X149266375Y-93893556D01*
X149273758Y-93898623D01*
X149275396Y-93907427D01*
X149270329Y-93914810D01*
X149266375Y-93916448D01*
X148486172Y-94081748D01*
X148477368Y-94080110D01*
X148477037Y-94079887D01*
X148445645Y-94057910D01*
X148445643Y-94057909D01*
X148445639Y-94057906D01*
X148427583Y-94047635D01*
X148410080Y-94037678D01*
X148374521Y-94022117D01*
X148338967Y-94011227D01*
X148338964Y-94011226D01*
X148338960Y-94011225D01*
X148338956Y-94011224D01*
X148338955Y-94011224D01*
X148313083Y-94006696D01*
X148305524Y-94001894D01*
X148303400Y-93995171D01*
X148303400Y-93814832D01*
X148306827Y-93806559D01*
X148313082Y-93803307D01*
X148338960Y-93798778D01*
X148374520Y-93787886D01*
X148410079Y-93772325D01*
X148445639Y-93752097D01*
X148477038Y-93730115D01*
X148485778Y-93728179D01*
X148486160Y-93728252D01*
G37*
%TD.AperFunction*%
%TD*%
%TA.AperFunction,Conductor*%
%TO.N,/VGA_OUT_VSync*%
G36*
X146008053Y-93932638D02*
G01*
X146008091Y-93932730D01*
X146076281Y-94097362D01*
X146076281Y-94106317D01*
X146071574Y-94111822D01*
X146006593Y-94151543D01*
X145971350Y-94203453D01*
X145971349Y-94203455D01*
X145971348Y-94203457D01*
X145955748Y-94250946D01*
X145952094Y-94262070D01*
X145951872Y-94262686D01*
X145926722Y-94326878D01*
X145925193Y-94329624D01*
X145879475Y-94390666D01*
X145871772Y-94395233D01*
X145863096Y-94393017D01*
X145861875Y-94391963D01*
X145730772Y-94262061D01*
X145728175Y-94258173D01*
X145684630Y-94151543D01*
X145657826Y-94085907D01*
X145657871Y-94076955D01*
X145664086Y-94070717D01*
X145740727Y-94038206D01*
X145802128Y-94010695D01*
X145854908Y-93986354D01*
X145916272Y-93958860D01*
X145916341Y-93958830D01*
X145992714Y-93926435D01*
X146001668Y-93926360D01*
X146008053Y-93932638D01*
G37*
%TD.AperFunction*%
%TD*%
%TA.AperFunction,Conductor*%
%TO.N,/Logic_High*%
G36*
X142711665Y-90860134D02*
G01*
X143183446Y-91037503D01*
X143189983Y-91043621D01*
X143190145Y-91043996D01*
X143378467Y-91500964D01*
X143378451Y-91509919D01*
X143372108Y-91516239D01*
X143369206Y-91517018D01*
X143209790Y-91538404D01*
X143209782Y-91538405D01*
X143209779Y-91538406D01*
X143209775Y-91538406D01*
X143209775Y-91538407D01*
X143035305Y-91584312D01*
X142860838Y-91652716D01*
X142860829Y-91652720D01*
X142686368Y-91743620D01*
X142686348Y-91743632D01*
X142519836Y-91851865D01*
X142511032Y-91853500D01*
X142505187Y-91850328D01*
X142376527Y-91721668D01*
X142373100Y-91713395D01*
X142374416Y-91708005D01*
X142436372Y-91588642D01*
X142436375Y-91588637D01*
X142502281Y-91439165D01*
X142568187Y-91267193D01*
X142634093Y-91072721D01*
X142696372Y-90867691D01*
X142702056Y-90860772D01*
X142710968Y-90859898D01*
X142711665Y-90860134D01*
G37*
%TD.AperFunction*%
%TD*%
%TA.AperFunction,Conductor*%
%TO.N,/Logic_High*%
G36*
X143614071Y-95191058D02*
G01*
X143621452Y-95196129D01*
X143623086Y-95204933D01*
X143618015Y-95212314D01*
X143613122Y-95214109D01*
X142846946Y-95311876D01*
X142838668Y-95309793D01*
X142801201Y-95283054D01*
X142760014Y-95258328D01*
X142718813Y-95238262D01*
X142677610Y-95222864D01*
X142677604Y-95222862D01*
X142649428Y-95215526D01*
X142642285Y-95210125D01*
X142641054Y-95201256D01*
X142641563Y-95199737D01*
X142708919Y-95037119D01*
X142715250Y-95030788D01*
X142723077Y-95030387D01*
X142738834Y-95035094D01*
X142738836Y-95035094D01*
X142738848Y-95035098D01*
X142764736Y-95038948D01*
X142764738Y-95038947D01*
X142764739Y-95038948D01*
X142764841Y-95038947D01*
X142790623Y-95038914D01*
X142790629Y-95038913D01*
X142790631Y-95038913D01*
X142797301Y-95037903D01*
X142816511Y-95034998D01*
X142839532Y-95028062D01*
X142845329Y-95027821D01*
X143614071Y-95191058D01*
G37*
%TD.AperFunction*%
%TD*%
M02*
