%TF.GenerationSoftware,KiCad,Pcbnew,8.0.6*%
%TF.CreationDate,2024-11-06T22:11:39-05:00*%
%TF.ProjectId,CPLD Replacement,43504c44-2052-4657-906c-6163656d656e,rev?*%
%TF.SameCoordinates,Original*%
%TF.FileFunction,Drillmap*%
%TF.FilePolarity,Positive*%
%FSLAX45Y45*%
G04 Gerber Fmt 4.5, Leading zero omitted, Abs format (unit mm)*
G04 Created by KiCad (PCBNEW 8.0.6) date 2024-11-06 22:11:39*
%MOMM*%
%LPD*%
G01*
G04 APERTURE LIST*
%ADD10C,0.150000*%
%ADD11C,0.200000*%
%ADD12C,0.100000*%
G04 APERTURE END LIST*
D10*
X13842454Y-10301000D02*
X13842454Y-8821000D01*
X13917986Y-8745465D02*
X13842452Y-8821000D01*
X13918000Y-8745449D02*
X15383000Y-8745449D01*
X15383009Y-8745445D02*
X15457564Y-8820000D01*
X15397000Y-10361542D02*
X13902000Y-10361542D01*
X15457550Y-8820000D02*
X15457550Y-10301000D01*
X13902465Y-10361524D02*
G75*
G02*
X13842457Y-10301516I0J60008D01*
G01*
X15457558Y-10301435D02*
G75*
G02*
X15397549Y-10361443I-60009J1D01*
G01*
D11*
D12*
X14358000Y-9231000D02*
X14378000Y-9251000D01*
X14378000Y-9231000D02*
X14358000Y-9251000D01*
X14563000Y-9416000D02*
X14583000Y-9436000D01*
X14583000Y-9416000D02*
X14563000Y-9436000D01*
X14668000Y-9705000D02*
X14688000Y-9725000D01*
X14688000Y-9705000D02*
X14668000Y-9725000D01*
X14781000Y-9704000D02*
X14801000Y-9724000D01*
X14801000Y-9704000D02*
X14781000Y-9724000D01*
X14851000Y-9204000D02*
X14871000Y-9224000D01*
X14871000Y-9204000D02*
X14851000Y-9224000D01*
X14855000Y-9912000D02*
X14875000Y-9932000D01*
X14875000Y-9912000D02*
X14855000Y-9932000D01*
X15101000Y-9716000D02*
X15121000Y-9736000D01*
X15121000Y-9716000D02*
X15101000Y-9736000D01*
X13935000Y-8918000D02*
G75*
G02*
X13915000Y-8918000I-10000J0D01*
G01*
X13915000Y-8918000D02*
G75*
G02*
X13935000Y-8918000I10000J0D01*
G01*
X13935000Y-9045000D02*
G75*
G02*
X13915000Y-9045000I-10000J0D01*
G01*
X13915000Y-9045000D02*
G75*
G02*
X13935000Y-9045000I10000J0D01*
G01*
X13935000Y-9172000D02*
G75*
G02*
X13915000Y-9172000I-10000J0D01*
G01*
X13915000Y-9172000D02*
G75*
G02*
X13935000Y-9172000I10000J0D01*
G01*
X13935000Y-9299000D02*
G75*
G02*
X13915000Y-9299000I-10000J0D01*
G01*
X13915000Y-9299000D02*
G75*
G02*
X13935000Y-9299000I10000J0D01*
G01*
X13935000Y-9426000D02*
G75*
G02*
X13915000Y-9426000I-10000J0D01*
G01*
X13915000Y-9426000D02*
G75*
G02*
X13935000Y-9426000I10000J0D01*
G01*
X13935000Y-9553000D02*
G75*
G02*
X13915000Y-9553000I-10000J0D01*
G01*
X13915000Y-9553000D02*
G75*
G02*
X13935000Y-9553000I10000J0D01*
G01*
X13935000Y-9680000D02*
G75*
G02*
X13915000Y-9680000I-10000J0D01*
G01*
X13915000Y-9680000D02*
G75*
G02*
X13935000Y-9680000I10000J0D01*
G01*
X13935000Y-9807000D02*
G75*
G02*
X13915000Y-9807000I-10000J0D01*
G01*
X13915000Y-9807000D02*
G75*
G02*
X13935000Y-9807000I10000J0D01*
G01*
X13935000Y-9934000D02*
G75*
G02*
X13915000Y-9934000I-10000J0D01*
G01*
X13915000Y-9934000D02*
G75*
G02*
X13935000Y-9934000I10000J0D01*
G01*
X13935000Y-10061000D02*
G75*
G02*
X13915000Y-10061000I-10000J0D01*
G01*
X13915000Y-10061000D02*
G75*
G02*
X13935000Y-10061000I10000J0D01*
G01*
X13935000Y-10188000D02*
G75*
G02*
X13915000Y-10188000I-10000J0D01*
G01*
X13915000Y-10188000D02*
G75*
G02*
X13935000Y-10188000I10000J0D01*
G01*
X14025000Y-8828000D02*
G75*
G02*
X14005000Y-8828000I-10000J0D01*
G01*
X14005000Y-8828000D02*
G75*
G02*
X14025000Y-8828000I10000J0D01*
G01*
X14025000Y-10278000D02*
G75*
G02*
X14005000Y-10278000I-10000J0D01*
G01*
X14005000Y-10278000D02*
G75*
G02*
X14025000Y-10278000I10000J0D01*
G01*
X14152000Y-8828000D02*
G75*
G02*
X14132000Y-8828000I-10000J0D01*
G01*
X14132000Y-8828000D02*
G75*
G02*
X14152000Y-8828000I10000J0D01*
G01*
X14152000Y-10278000D02*
G75*
G02*
X14132000Y-10278000I-10000J0D01*
G01*
X14132000Y-10278000D02*
G75*
G02*
X14152000Y-10278000I10000J0D01*
G01*
X14279000Y-8828000D02*
G75*
G02*
X14259000Y-8828000I-10000J0D01*
G01*
X14259000Y-8828000D02*
G75*
G02*
X14279000Y-8828000I10000J0D01*
G01*
X14279000Y-10278000D02*
G75*
G02*
X14259000Y-10278000I-10000J0D01*
G01*
X14259000Y-10278000D02*
G75*
G02*
X14279000Y-10278000I10000J0D01*
G01*
X14406000Y-8828000D02*
G75*
G02*
X14386000Y-8828000I-10000J0D01*
G01*
X14386000Y-8828000D02*
G75*
G02*
X14406000Y-8828000I10000J0D01*
G01*
X14406000Y-10278000D02*
G75*
G02*
X14386000Y-10278000I-10000J0D01*
G01*
X14386000Y-10278000D02*
G75*
G02*
X14406000Y-10278000I10000J0D01*
G01*
X14533000Y-8828000D02*
G75*
G02*
X14513000Y-8828000I-10000J0D01*
G01*
X14513000Y-8828000D02*
G75*
G02*
X14533000Y-8828000I10000J0D01*
G01*
X14533000Y-10278000D02*
G75*
G02*
X14513000Y-10278000I-10000J0D01*
G01*
X14513000Y-10278000D02*
G75*
G02*
X14533000Y-10278000I10000J0D01*
G01*
X14660000Y-8828000D02*
G75*
G02*
X14640000Y-8828000I-10000J0D01*
G01*
X14640000Y-8828000D02*
G75*
G02*
X14660000Y-8828000I10000J0D01*
G01*
X14660000Y-10278000D02*
G75*
G02*
X14640000Y-10278000I-10000J0D01*
G01*
X14640000Y-10278000D02*
G75*
G02*
X14660000Y-10278000I10000J0D01*
G01*
X14787000Y-8828000D02*
G75*
G02*
X14767000Y-8828000I-10000J0D01*
G01*
X14767000Y-8828000D02*
G75*
G02*
X14787000Y-8828000I10000J0D01*
G01*
X14787000Y-10278000D02*
G75*
G02*
X14767000Y-10278000I-10000J0D01*
G01*
X14767000Y-10278000D02*
G75*
G02*
X14787000Y-10278000I10000J0D01*
G01*
X14914000Y-8828000D02*
G75*
G02*
X14894000Y-8828000I-10000J0D01*
G01*
X14894000Y-8828000D02*
G75*
G02*
X14914000Y-8828000I10000J0D01*
G01*
X14914000Y-10278000D02*
G75*
G02*
X14894000Y-10278000I-10000J0D01*
G01*
X14894000Y-10278000D02*
G75*
G02*
X14914000Y-10278000I10000J0D01*
G01*
X15041000Y-8828000D02*
G75*
G02*
X15021000Y-8828000I-10000J0D01*
G01*
X15021000Y-8828000D02*
G75*
G02*
X15041000Y-8828000I10000J0D01*
G01*
X15041000Y-10278000D02*
G75*
G02*
X15021000Y-10278000I-10000J0D01*
G01*
X15021000Y-10278000D02*
G75*
G02*
X15041000Y-10278000I10000J0D01*
G01*
X15168000Y-8828000D02*
G75*
G02*
X15148000Y-8828000I-10000J0D01*
G01*
X15148000Y-8828000D02*
G75*
G02*
X15168000Y-8828000I10000J0D01*
G01*
X15168000Y-10278000D02*
G75*
G02*
X15148000Y-10278000I-10000J0D01*
G01*
X15148000Y-10278000D02*
G75*
G02*
X15168000Y-10278000I10000J0D01*
G01*
X15295000Y-8828000D02*
G75*
G02*
X15275000Y-8828000I-10000J0D01*
G01*
X15275000Y-8828000D02*
G75*
G02*
X15295000Y-8828000I10000J0D01*
G01*
X15295000Y-10278000D02*
G75*
G02*
X15275000Y-10278000I-10000J0D01*
G01*
X15275000Y-10278000D02*
G75*
G02*
X15295000Y-10278000I10000J0D01*
G01*
X15385000Y-8918000D02*
G75*
G02*
X15365000Y-8918000I-10000J0D01*
G01*
X15365000Y-8918000D02*
G75*
G02*
X15385000Y-8918000I10000J0D01*
G01*
X15385000Y-9045000D02*
G75*
G02*
X15365000Y-9045000I-10000J0D01*
G01*
X15365000Y-9045000D02*
G75*
G02*
X15385000Y-9045000I10000J0D01*
G01*
X15385000Y-9172000D02*
G75*
G02*
X15365000Y-9172000I-10000J0D01*
G01*
X15365000Y-9172000D02*
G75*
G02*
X15385000Y-9172000I10000J0D01*
G01*
X15385000Y-9299000D02*
G75*
G02*
X15365000Y-9299000I-10000J0D01*
G01*
X15365000Y-9299000D02*
G75*
G02*
X15385000Y-9299000I10000J0D01*
G01*
X15385000Y-9426000D02*
G75*
G02*
X15365000Y-9426000I-10000J0D01*
G01*
X15365000Y-9426000D02*
G75*
G02*
X15385000Y-9426000I10000J0D01*
G01*
X15385000Y-9553000D02*
G75*
G02*
X15365000Y-9553000I-10000J0D01*
G01*
X15365000Y-9553000D02*
G75*
G02*
X15385000Y-9553000I10000J0D01*
G01*
X15385000Y-9680000D02*
G75*
G02*
X15365000Y-9680000I-10000J0D01*
G01*
X15365000Y-9680000D02*
G75*
G02*
X15385000Y-9680000I10000J0D01*
G01*
X15385000Y-9807000D02*
G75*
G02*
X15365000Y-9807000I-10000J0D01*
G01*
X15365000Y-9807000D02*
G75*
G02*
X15385000Y-9807000I10000J0D01*
G01*
X15385000Y-9934000D02*
G75*
G02*
X15365000Y-9934000I-10000J0D01*
G01*
X15365000Y-9934000D02*
G75*
G02*
X15385000Y-9934000I10000J0D01*
G01*
X15385000Y-10061000D02*
G75*
G02*
X15365000Y-10061000I-10000J0D01*
G01*
X15365000Y-10061000D02*
G75*
G02*
X15385000Y-10061000I10000J0D01*
G01*
X15385000Y-10188000D02*
G75*
G02*
X15365000Y-10188000I-10000J0D01*
G01*
X15365000Y-10188000D02*
G75*
G02*
X15385000Y-10188000I10000J0D01*
G01*
X14081000Y-9792000D02*
X14081000Y-9822000D01*
X14066000Y-9807000D02*
X14096000Y-9807000D01*
X14144000Y-8915000D02*
X14144000Y-8945000D01*
X14129000Y-8930000D02*
X14159000Y-8930000D01*
X14649000Y-9464000D02*
X14649000Y-9494000D01*
X14634000Y-9479000D02*
X14664000Y-9479000D01*
X14650000Y-10138000D02*
X14650000Y-10168000D01*
X14635000Y-10153000D02*
X14665000Y-10153000D01*
X14775000Y-9599000D02*
X14775000Y-9629000D01*
X14760000Y-9614000D02*
X14790000Y-9614000D01*
X14968000Y-8916000D02*
X14968000Y-8946000D01*
X14953000Y-8931000D02*
X14983000Y-8931000D01*
X15158000Y-10139000D02*
X15158000Y-10169000D01*
X15143000Y-10154000D02*
X15173000Y-10154000D01*
X15174000Y-9284000D02*
X15174000Y-9314000D01*
X15159000Y-9299000D02*
X15189000Y-9299000D01*
X15266000Y-8912000D02*
X15266000Y-8942000D01*
X15251000Y-8927000D02*
X15281000Y-8927000D01*
X13867678Y-8935678D02*
X13867678Y-8900322D01*
X13832322Y-8900322D01*
X13832322Y-8935678D01*
X13867678Y-8935678D01*
X13867678Y-9062678D02*
X13867678Y-9027322D01*
X13832322Y-9027322D01*
X13832322Y-9062678D01*
X13867678Y-9062678D01*
X13867678Y-9189678D02*
X13867678Y-9154322D01*
X13832322Y-9154322D01*
X13832322Y-9189678D01*
X13867678Y-9189678D01*
X13867678Y-9316678D02*
X13867678Y-9281322D01*
X13832322Y-9281322D01*
X13832322Y-9316678D01*
X13867678Y-9316678D01*
X13867678Y-9443678D02*
X13867678Y-9408322D01*
X13832322Y-9408322D01*
X13832322Y-9443678D01*
X13867678Y-9443678D01*
X13867678Y-9570678D02*
X13867678Y-9535322D01*
X13832322Y-9535322D01*
X13832322Y-9570678D01*
X13867678Y-9570678D01*
X13867678Y-9697678D02*
X13867678Y-9662322D01*
X13832322Y-9662322D01*
X13832322Y-9697678D01*
X13867678Y-9697678D01*
X13867678Y-9824678D02*
X13867678Y-9789322D01*
X13832322Y-9789322D01*
X13832322Y-9824678D01*
X13867678Y-9824678D01*
X13867678Y-9951678D02*
X13867678Y-9916322D01*
X13832322Y-9916322D01*
X13832322Y-9951678D01*
X13867678Y-9951678D01*
X13867678Y-10078678D02*
X13867678Y-10043322D01*
X13832322Y-10043322D01*
X13832322Y-10078678D01*
X13867678Y-10078678D01*
X13867678Y-10205678D02*
X13867678Y-10170322D01*
X13832322Y-10170322D01*
X13832322Y-10205678D01*
X13867678Y-10205678D01*
X14032678Y-8770678D02*
X14032678Y-8735322D01*
X13997322Y-8735322D01*
X13997322Y-8770678D01*
X14032678Y-8770678D01*
X14032678Y-10370678D02*
X14032678Y-10335322D01*
X13997322Y-10335322D01*
X13997322Y-10370678D01*
X14032678Y-10370678D01*
X14159678Y-8770678D02*
X14159678Y-8735322D01*
X14124322Y-8735322D01*
X14124322Y-8770678D01*
X14159678Y-8770678D01*
X14159678Y-10370678D02*
X14159678Y-10335322D01*
X14124322Y-10335322D01*
X14124322Y-10370678D01*
X14159678Y-10370678D01*
X14286678Y-8770678D02*
X14286678Y-8735322D01*
X14251322Y-8735322D01*
X14251322Y-8770678D01*
X14286678Y-8770678D01*
X14286678Y-10370678D02*
X14286678Y-10335322D01*
X14251322Y-10335322D01*
X14251322Y-10370678D01*
X14286678Y-10370678D01*
X14413678Y-8770678D02*
X14413678Y-8735322D01*
X14378322Y-8735322D01*
X14378322Y-8770678D01*
X14413678Y-8770678D01*
X14413678Y-10370678D02*
X14413678Y-10335322D01*
X14378322Y-10335322D01*
X14378322Y-10370678D01*
X14413678Y-10370678D01*
X14540678Y-8770678D02*
X14540678Y-8735322D01*
X14505322Y-8735322D01*
X14505322Y-8770678D01*
X14540678Y-8770678D01*
X14540678Y-10370678D02*
X14540678Y-10335322D01*
X14505322Y-10335322D01*
X14505322Y-10370678D01*
X14540678Y-10370678D01*
X14667678Y-8770678D02*
X14667678Y-8735322D01*
X14632322Y-8735322D01*
X14632322Y-8770678D01*
X14667678Y-8770678D01*
X14667678Y-10370678D02*
X14667678Y-10335322D01*
X14632322Y-10335322D01*
X14632322Y-10370678D01*
X14667678Y-10370678D01*
X14794678Y-8770678D02*
X14794678Y-8735322D01*
X14759322Y-8735322D01*
X14759322Y-8770678D01*
X14794678Y-8770678D01*
X14794678Y-10370678D02*
X14794678Y-10335322D01*
X14759322Y-10335322D01*
X14759322Y-10370678D01*
X14794678Y-10370678D01*
X14921678Y-8770678D02*
X14921678Y-8735322D01*
X14886322Y-8735322D01*
X14886322Y-8770678D01*
X14921678Y-8770678D01*
X14921678Y-10370678D02*
X14921678Y-10335322D01*
X14886322Y-10335322D01*
X14886322Y-10370678D01*
X14921678Y-10370678D01*
X15048678Y-8770678D02*
X15048678Y-8735322D01*
X15013322Y-8735322D01*
X15013322Y-8770678D01*
X15048678Y-8770678D01*
X15048678Y-10370678D02*
X15048678Y-10335322D01*
X15013322Y-10335322D01*
X15013322Y-10370678D01*
X15048678Y-10370678D01*
X15175678Y-8770678D02*
X15175678Y-8735322D01*
X15140322Y-8735322D01*
X15140322Y-8770678D01*
X15175678Y-8770678D01*
X15175678Y-10370678D02*
X15175678Y-10335322D01*
X15140322Y-10335322D01*
X15140322Y-10370678D01*
X15175678Y-10370678D01*
X15302678Y-8770678D02*
X15302678Y-8735322D01*
X15267322Y-8735322D01*
X15267322Y-8770678D01*
X15302678Y-8770678D01*
X15302678Y-10370678D02*
X15302678Y-10335322D01*
X15267322Y-10335322D01*
X15267322Y-10370678D01*
X15302678Y-10370678D01*
X15467678Y-8935678D02*
X15467678Y-8900322D01*
X15432322Y-8900322D01*
X15432322Y-8935678D01*
X15467678Y-8935678D01*
X15467678Y-9062678D02*
X15467678Y-9027322D01*
X15432322Y-9027322D01*
X15432322Y-9062678D01*
X15467678Y-9062678D01*
X15467678Y-9189678D02*
X15467678Y-9154322D01*
X15432322Y-9154322D01*
X15432322Y-9189678D01*
X15467678Y-9189678D01*
X15467678Y-9316678D02*
X15467678Y-9281322D01*
X15432322Y-9281322D01*
X15432322Y-9316678D01*
X15467678Y-9316678D01*
X15467678Y-9443678D02*
X15467678Y-9408322D01*
X15432322Y-9408322D01*
X15432322Y-9443678D01*
X15467678Y-9443678D01*
X15467678Y-9570678D02*
X15467678Y-9535322D01*
X15432322Y-9535322D01*
X15432322Y-9570678D01*
X15467678Y-9570678D01*
X15467678Y-9697678D02*
X15467678Y-9662322D01*
X15432322Y-9662322D01*
X15432322Y-9697678D01*
X15467678Y-9697678D01*
X15467678Y-9824678D02*
X15467678Y-9789322D01*
X15432322Y-9789322D01*
X15432322Y-9824678D01*
X15467678Y-9824678D01*
X15467678Y-9951678D02*
X15467678Y-9916322D01*
X15432322Y-9916322D01*
X15432322Y-9951678D01*
X15467678Y-9951678D01*
X15467678Y-10078678D02*
X15467678Y-10043322D01*
X15432322Y-10043322D01*
X15432322Y-10078678D01*
X15467678Y-10078678D01*
X15467678Y-10205678D02*
X15467678Y-10170322D01*
X15432322Y-10170322D01*
X15432322Y-10205678D01*
X15467678Y-10205678D01*
D11*
X14095728Y-10680526D02*
X14095728Y-10480526D01*
X14095728Y-10480526D02*
X14143347Y-10480526D01*
X14143347Y-10480526D02*
X14171919Y-10490050D01*
X14171919Y-10490050D02*
X14190966Y-10509098D01*
X14190966Y-10509098D02*
X14200490Y-10528145D01*
X14200490Y-10528145D02*
X14210014Y-10566240D01*
X14210014Y-10566240D02*
X14210014Y-10594812D01*
X14210014Y-10594812D02*
X14200490Y-10632907D01*
X14200490Y-10632907D02*
X14190966Y-10651955D01*
X14190966Y-10651955D02*
X14171919Y-10671002D01*
X14171919Y-10671002D02*
X14143347Y-10680526D01*
X14143347Y-10680526D02*
X14095728Y-10680526D01*
X14295728Y-10680526D02*
X14295728Y-10547193D01*
X14295728Y-10585288D02*
X14305252Y-10566240D01*
X14305252Y-10566240D02*
X14314776Y-10556717D01*
X14314776Y-10556717D02*
X14333824Y-10547193D01*
X14333824Y-10547193D02*
X14352871Y-10547193D01*
X14419538Y-10680526D02*
X14419538Y-10547193D01*
X14419538Y-10480526D02*
X14410014Y-10490050D01*
X14410014Y-10490050D02*
X14419538Y-10499574D01*
X14419538Y-10499574D02*
X14429062Y-10490050D01*
X14429062Y-10490050D02*
X14419538Y-10480526D01*
X14419538Y-10480526D02*
X14419538Y-10499574D01*
X14543347Y-10680526D02*
X14524300Y-10671002D01*
X14524300Y-10671002D02*
X14514776Y-10651955D01*
X14514776Y-10651955D02*
X14514776Y-10480526D01*
X14648109Y-10680526D02*
X14629062Y-10671002D01*
X14629062Y-10671002D02*
X14619538Y-10651955D01*
X14619538Y-10651955D02*
X14619538Y-10480526D01*
X14876681Y-10680526D02*
X14876681Y-10480526D01*
X14876681Y-10480526D02*
X14943347Y-10623383D01*
X14943347Y-10623383D02*
X15010014Y-10480526D01*
X15010014Y-10480526D02*
X15010014Y-10680526D01*
X15190966Y-10680526D02*
X15190966Y-10575764D01*
X15190966Y-10575764D02*
X15181443Y-10556717D01*
X15181443Y-10556717D02*
X15162395Y-10547193D01*
X15162395Y-10547193D02*
X15124300Y-10547193D01*
X15124300Y-10547193D02*
X15105252Y-10556717D01*
X15190966Y-10671002D02*
X15171919Y-10680526D01*
X15171919Y-10680526D02*
X15124300Y-10680526D01*
X15124300Y-10680526D02*
X15105252Y-10671002D01*
X15105252Y-10671002D02*
X15095728Y-10651955D01*
X15095728Y-10651955D02*
X15095728Y-10632907D01*
X15095728Y-10632907D02*
X15105252Y-10613859D01*
X15105252Y-10613859D02*
X15124300Y-10604336D01*
X15124300Y-10604336D02*
X15171919Y-10604336D01*
X15171919Y-10604336D02*
X15190966Y-10594812D01*
X15286205Y-10547193D02*
X15286205Y-10747193D01*
X15286205Y-10556717D02*
X15305252Y-10547193D01*
X15305252Y-10547193D02*
X15343347Y-10547193D01*
X15343347Y-10547193D02*
X15362395Y-10556717D01*
X15362395Y-10556717D02*
X15371919Y-10566240D01*
X15371919Y-10566240D02*
X15381443Y-10585288D01*
X15381443Y-10585288D02*
X15381443Y-10642431D01*
X15381443Y-10642431D02*
X15371919Y-10661478D01*
X15371919Y-10661478D02*
X15362395Y-10671002D01*
X15362395Y-10671002D02*
X15343347Y-10680526D01*
X15343347Y-10680526D02*
X15305252Y-10680526D01*
X15305252Y-10680526D02*
X15286205Y-10671002D01*
X15467157Y-10661478D02*
X15476681Y-10671002D01*
X15476681Y-10671002D02*
X15467157Y-10680526D01*
X15467157Y-10680526D02*
X15457633Y-10671002D01*
X15457633Y-10671002D02*
X15467157Y-10661478D01*
X15467157Y-10661478D02*
X15467157Y-10680526D01*
X15467157Y-10556717D02*
X15476681Y-10566240D01*
X15476681Y-10566240D02*
X15467157Y-10575764D01*
X15467157Y-10575764D02*
X15457633Y-10566240D01*
X15457633Y-10566240D02*
X15467157Y-10556717D01*
X15467157Y-10556717D02*
X15467157Y-10575764D01*
D12*
X13814952Y-10999042D02*
X13834952Y-11019042D01*
X13834952Y-10999042D02*
X13814952Y-11019042D01*
D11*
X14133824Y-10900526D02*
X14152871Y-10900526D01*
X14152871Y-10900526D02*
X14171919Y-10910050D01*
X14171919Y-10910050D02*
X14181443Y-10919574D01*
X14181443Y-10919574D02*
X14190966Y-10938621D01*
X14190966Y-10938621D02*
X14200490Y-10976717D01*
X14200490Y-10976717D02*
X14200490Y-11024336D01*
X14200490Y-11024336D02*
X14190966Y-11062431D01*
X14190966Y-11062431D02*
X14181443Y-11081478D01*
X14181443Y-11081478D02*
X14171919Y-11091002D01*
X14171919Y-11091002D02*
X14152871Y-11100526D01*
X14152871Y-11100526D02*
X14133824Y-11100526D01*
X14133824Y-11100526D02*
X14114776Y-11091002D01*
X14114776Y-11091002D02*
X14105252Y-11081478D01*
X14105252Y-11081478D02*
X14095728Y-11062431D01*
X14095728Y-11062431D02*
X14086205Y-11024336D01*
X14086205Y-11024336D02*
X14086205Y-10976717D01*
X14086205Y-10976717D02*
X14095728Y-10938621D01*
X14095728Y-10938621D02*
X14105252Y-10919574D01*
X14105252Y-10919574D02*
X14114776Y-10910050D01*
X14114776Y-10910050D02*
X14133824Y-10900526D01*
X14286205Y-11081478D02*
X14295728Y-11091002D01*
X14295728Y-11091002D02*
X14286205Y-11100526D01*
X14286205Y-11100526D02*
X14276681Y-11091002D01*
X14276681Y-11091002D02*
X14286205Y-11081478D01*
X14286205Y-11081478D02*
X14286205Y-11100526D01*
X14371919Y-10919574D02*
X14381443Y-10910050D01*
X14381443Y-10910050D02*
X14400490Y-10900526D01*
X14400490Y-10900526D02*
X14448109Y-10900526D01*
X14448109Y-10900526D02*
X14467157Y-10910050D01*
X14467157Y-10910050D02*
X14476681Y-10919574D01*
X14476681Y-10919574D02*
X14486205Y-10938621D01*
X14486205Y-10938621D02*
X14486205Y-10957669D01*
X14486205Y-10957669D02*
X14476681Y-10986240D01*
X14476681Y-10986240D02*
X14362395Y-11100526D01*
X14362395Y-11100526D02*
X14486205Y-11100526D01*
X14610014Y-10900526D02*
X14629062Y-10900526D01*
X14629062Y-10900526D02*
X14648109Y-10910050D01*
X14648109Y-10910050D02*
X14657633Y-10919574D01*
X14657633Y-10919574D02*
X14667157Y-10938621D01*
X14667157Y-10938621D02*
X14676681Y-10976717D01*
X14676681Y-10976717D02*
X14676681Y-11024336D01*
X14676681Y-11024336D02*
X14667157Y-11062431D01*
X14667157Y-11062431D02*
X14657633Y-11081478D01*
X14657633Y-11081478D02*
X14648109Y-11091002D01*
X14648109Y-11091002D02*
X14629062Y-11100526D01*
X14629062Y-11100526D02*
X14610014Y-11100526D01*
X14610014Y-11100526D02*
X14590966Y-11091002D01*
X14590966Y-11091002D02*
X14581443Y-11081478D01*
X14581443Y-11081478D02*
X14571919Y-11062431D01*
X14571919Y-11062431D02*
X14562395Y-11024336D01*
X14562395Y-11024336D02*
X14562395Y-10976717D01*
X14562395Y-10976717D02*
X14571919Y-10938621D01*
X14571919Y-10938621D02*
X14581443Y-10919574D01*
X14581443Y-10919574D02*
X14590966Y-10910050D01*
X14590966Y-10910050D02*
X14610014Y-10900526D01*
X14800490Y-10900526D02*
X14819538Y-10900526D01*
X14819538Y-10900526D02*
X14838586Y-10910050D01*
X14838586Y-10910050D02*
X14848109Y-10919574D01*
X14848109Y-10919574D02*
X14857633Y-10938621D01*
X14857633Y-10938621D02*
X14867157Y-10976717D01*
X14867157Y-10976717D02*
X14867157Y-11024336D01*
X14867157Y-11024336D02*
X14857633Y-11062431D01*
X14857633Y-11062431D02*
X14848109Y-11081478D01*
X14848109Y-11081478D02*
X14838586Y-11091002D01*
X14838586Y-11091002D02*
X14819538Y-11100526D01*
X14819538Y-11100526D02*
X14800490Y-11100526D01*
X14800490Y-11100526D02*
X14781443Y-11091002D01*
X14781443Y-11091002D02*
X14771919Y-11081478D01*
X14771919Y-11081478D02*
X14762395Y-11062431D01*
X14762395Y-11062431D02*
X14752871Y-11024336D01*
X14752871Y-11024336D02*
X14752871Y-10976717D01*
X14752871Y-10976717D02*
X14762395Y-10938621D01*
X14762395Y-10938621D02*
X14771919Y-10919574D01*
X14771919Y-10919574D02*
X14781443Y-10910050D01*
X14781443Y-10910050D02*
X14800490Y-10900526D01*
X14952871Y-11100526D02*
X14952871Y-10967193D01*
X14952871Y-10986240D02*
X14962395Y-10976717D01*
X14962395Y-10976717D02*
X14981443Y-10967193D01*
X14981443Y-10967193D02*
X15010014Y-10967193D01*
X15010014Y-10967193D02*
X15029062Y-10976717D01*
X15029062Y-10976717D02*
X15038586Y-10995764D01*
X15038586Y-10995764D02*
X15038586Y-11100526D01*
X15038586Y-10995764D02*
X15048109Y-10976717D01*
X15048109Y-10976717D02*
X15067157Y-10967193D01*
X15067157Y-10967193D02*
X15095728Y-10967193D01*
X15095728Y-10967193D02*
X15114776Y-10976717D01*
X15114776Y-10976717D02*
X15124300Y-10995764D01*
X15124300Y-10995764D02*
X15124300Y-11100526D01*
X15219538Y-11100526D02*
X15219538Y-10967193D01*
X15219538Y-10986240D02*
X15229062Y-10976717D01*
X15229062Y-10976717D02*
X15248109Y-10967193D01*
X15248109Y-10967193D02*
X15276681Y-10967193D01*
X15276681Y-10967193D02*
X15295728Y-10976717D01*
X15295728Y-10976717D02*
X15305252Y-10995764D01*
X15305252Y-10995764D02*
X15305252Y-11100526D01*
X15305252Y-10995764D02*
X15314776Y-10976717D01*
X15314776Y-10976717D02*
X15333824Y-10967193D01*
X15333824Y-10967193D02*
X15362395Y-10967193D01*
X15362395Y-10967193D02*
X15381443Y-10976717D01*
X15381443Y-10976717D02*
X15390967Y-10995764D01*
X15390967Y-10995764D02*
X15390967Y-11100526D01*
X15781443Y-10891002D02*
X15610014Y-11148145D01*
X16038586Y-10900526D02*
X16057633Y-10900526D01*
X16057633Y-10900526D02*
X16076681Y-10910050D01*
X16076681Y-10910050D02*
X16086205Y-10919574D01*
X16086205Y-10919574D02*
X16095729Y-10938621D01*
X16095729Y-10938621D02*
X16105252Y-10976717D01*
X16105252Y-10976717D02*
X16105252Y-11024336D01*
X16105252Y-11024336D02*
X16095729Y-11062431D01*
X16095729Y-11062431D02*
X16086205Y-11081478D01*
X16086205Y-11081478D02*
X16076681Y-11091002D01*
X16076681Y-11091002D02*
X16057633Y-11100526D01*
X16057633Y-11100526D02*
X16038586Y-11100526D01*
X16038586Y-11100526D02*
X16019538Y-11091002D01*
X16019538Y-11091002D02*
X16010014Y-11081478D01*
X16010014Y-11081478D02*
X16000490Y-11062431D01*
X16000490Y-11062431D02*
X15990967Y-11024336D01*
X15990967Y-11024336D02*
X15990967Y-10976717D01*
X15990967Y-10976717D02*
X16000490Y-10938621D01*
X16000490Y-10938621D02*
X16010014Y-10919574D01*
X16010014Y-10919574D02*
X16019538Y-10910050D01*
X16019538Y-10910050D02*
X16038586Y-10900526D01*
X16190967Y-11081478D02*
X16200490Y-11091002D01*
X16200490Y-11091002D02*
X16190967Y-11100526D01*
X16190967Y-11100526D02*
X16181443Y-11091002D01*
X16181443Y-11091002D02*
X16190967Y-11081478D01*
X16190967Y-11081478D02*
X16190967Y-11100526D01*
X16324300Y-10900526D02*
X16343348Y-10900526D01*
X16343348Y-10900526D02*
X16362395Y-10910050D01*
X16362395Y-10910050D02*
X16371919Y-10919574D01*
X16371919Y-10919574D02*
X16381443Y-10938621D01*
X16381443Y-10938621D02*
X16390967Y-10976717D01*
X16390967Y-10976717D02*
X16390967Y-11024336D01*
X16390967Y-11024336D02*
X16381443Y-11062431D01*
X16381443Y-11062431D02*
X16371919Y-11081478D01*
X16371919Y-11081478D02*
X16362395Y-11091002D01*
X16362395Y-11091002D02*
X16343348Y-11100526D01*
X16343348Y-11100526D02*
X16324300Y-11100526D01*
X16324300Y-11100526D02*
X16305252Y-11091002D01*
X16305252Y-11091002D02*
X16295729Y-11081478D01*
X16295729Y-11081478D02*
X16286205Y-11062431D01*
X16286205Y-11062431D02*
X16276681Y-11024336D01*
X16276681Y-11024336D02*
X16276681Y-10976717D01*
X16276681Y-10976717D02*
X16286205Y-10938621D01*
X16286205Y-10938621D02*
X16295729Y-10919574D01*
X16295729Y-10919574D02*
X16305252Y-10910050D01*
X16305252Y-10910050D02*
X16324300Y-10900526D01*
X16514776Y-10900526D02*
X16533824Y-10900526D01*
X16533824Y-10900526D02*
X16552871Y-10910050D01*
X16552871Y-10910050D02*
X16562395Y-10919574D01*
X16562395Y-10919574D02*
X16571919Y-10938621D01*
X16571919Y-10938621D02*
X16581443Y-10976717D01*
X16581443Y-10976717D02*
X16581443Y-11024336D01*
X16581443Y-11024336D02*
X16571919Y-11062431D01*
X16571919Y-11062431D02*
X16562395Y-11081478D01*
X16562395Y-11081478D02*
X16552871Y-11091002D01*
X16552871Y-11091002D02*
X16533824Y-11100526D01*
X16533824Y-11100526D02*
X16514776Y-11100526D01*
X16514776Y-11100526D02*
X16495729Y-11091002D01*
X16495729Y-11091002D02*
X16486205Y-11081478D01*
X16486205Y-11081478D02*
X16476681Y-11062431D01*
X16476681Y-11062431D02*
X16467157Y-11024336D01*
X16467157Y-11024336D02*
X16467157Y-10976717D01*
X16467157Y-10976717D02*
X16476681Y-10938621D01*
X16476681Y-10938621D02*
X16486205Y-10919574D01*
X16486205Y-10919574D02*
X16495729Y-10910050D01*
X16495729Y-10910050D02*
X16514776Y-10900526D01*
X16648110Y-10900526D02*
X16781443Y-10900526D01*
X16781443Y-10900526D02*
X16695729Y-11100526D01*
X16867157Y-11100526D02*
X16905252Y-11100526D01*
X16905252Y-11100526D02*
X16924300Y-11091002D01*
X16924300Y-11091002D02*
X16933824Y-11081478D01*
X16933824Y-11081478D02*
X16952872Y-11052907D01*
X16952872Y-11052907D02*
X16962395Y-11014812D01*
X16962395Y-11014812D02*
X16962395Y-10938621D01*
X16962395Y-10938621D02*
X16952872Y-10919574D01*
X16952872Y-10919574D02*
X16943348Y-10910050D01*
X16943348Y-10910050D02*
X16924300Y-10900526D01*
X16924300Y-10900526D02*
X16886205Y-10900526D01*
X16886205Y-10900526D02*
X16867157Y-10910050D01*
X16867157Y-10910050D02*
X16857633Y-10919574D01*
X16857633Y-10919574D02*
X16848110Y-10938621D01*
X16848110Y-10938621D02*
X16848110Y-10986240D01*
X16848110Y-10986240D02*
X16857633Y-11005288D01*
X16857633Y-11005288D02*
X16867157Y-11014812D01*
X16867157Y-11014812D02*
X16886205Y-11024336D01*
X16886205Y-11024336D02*
X16924300Y-11024336D01*
X16924300Y-11024336D02*
X16943348Y-11014812D01*
X16943348Y-11014812D02*
X16952872Y-11005288D01*
X16952872Y-11005288D02*
X16962395Y-10986240D01*
X17038586Y-10900526D02*
X17038586Y-10938621D01*
X17114776Y-10900526D02*
X17114776Y-10938621D01*
X17410015Y-11176717D02*
X17400491Y-11167193D01*
X17400491Y-11167193D02*
X17381443Y-11138621D01*
X17381443Y-11138621D02*
X17371919Y-11119574D01*
X17371919Y-11119574D02*
X17362395Y-11091002D01*
X17362395Y-11091002D02*
X17352872Y-11043383D01*
X17352872Y-11043383D02*
X17352872Y-11005288D01*
X17352872Y-11005288D02*
X17362395Y-10957669D01*
X17362395Y-10957669D02*
X17371919Y-10929098D01*
X17371919Y-10929098D02*
X17381443Y-10910050D01*
X17381443Y-10910050D02*
X17400491Y-10881478D01*
X17400491Y-10881478D02*
X17410015Y-10871955D01*
X17467157Y-10900526D02*
X17600491Y-10900526D01*
X17600491Y-10900526D02*
X17514776Y-11100526D01*
X17829062Y-11100526D02*
X17829062Y-10900526D01*
X17914776Y-11100526D02*
X17914776Y-10995764D01*
X17914776Y-10995764D02*
X17905253Y-10976717D01*
X17905253Y-10976717D02*
X17886205Y-10967193D01*
X17886205Y-10967193D02*
X17857634Y-10967193D01*
X17857634Y-10967193D02*
X17838586Y-10976717D01*
X17838586Y-10976717D02*
X17829062Y-10986240D01*
X18038586Y-11100526D02*
X18019538Y-11091002D01*
X18019538Y-11091002D02*
X18010015Y-11081478D01*
X18010015Y-11081478D02*
X18000491Y-11062431D01*
X18000491Y-11062431D02*
X18000491Y-11005288D01*
X18000491Y-11005288D02*
X18010015Y-10986240D01*
X18010015Y-10986240D02*
X18019538Y-10976717D01*
X18019538Y-10976717D02*
X18038586Y-10967193D01*
X18038586Y-10967193D02*
X18067157Y-10967193D01*
X18067157Y-10967193D02*
X18086205Y-10976717D01*
X18086205Y-10976717D02*
X18095729Y-10986240D01*
X18095729Y-10986240D02*
X18105253Y-11005288D01*
X18105253Y-11005288D02*
X18105253Y-11062431D01*
X18105253Y-11062431D02*
X18095729Y-11081478D01*
X18095729Y-11081478D02*
X18086205Y-11091002D01*
X18086205Y-11091002D02*
X18067157Y-11100526D01*
X18067157Y-11100526D02*
X18038586Y-11100526D01*
X18219538Y-11100526D02*
X18200491Y-11091002D01*
X18200491Y-11091002D02*
X18190967Y-11071955D01*
X18190967Y-11071955D02*
X18190967Y-10900526D01*
X18371919Y-11091002D02*
X18352872Y-11100526D01*
X18352872Y-11100526D02*
X18314776Y-11100526D01*
X18314776Y-11100526D02*
X18295729Y-11091002D01*
X18295729Y-11091002D02*
X18286205Y-11071955D01*
X18286205Y-11071955D02*
X18286205Y-10995764D01*
X18286205Y-10995764D02*
X18295729Y-10976717D01*
X18295729Y-10976717D02*
X18314776Y-10967193D01*
X18314776Y-10967193D02*
X18352872Y-10967193D01*
X18352872Y-10967193D02*
X18371919Y-10976717D01*
X18371919Y-10976717D02*
X18381443Y-10995764D01*
X18381443Y-10995764D02*
X18381443Y-11014812D01*
X18381443Y-11014812D02*
X18286205Y-11033859D01*
X18457634Y-11091002D02*
X18476681Y-11100526D01*
X18476681Y-11100526D02*
X18514776Y-11100526D01*
X18514776Y-11100526D02*
X18533824Y-11091002D01*
X18533824Y-11091002D02*
X18543348Y-11071955D01*
X18543348Y-11071955D02*
X18543348Y-11062431D01*
X18543348Y-11062431D02*
X18533824Y-11043383D01*
X18533824Y-11043383D02*
X18514776Y-11033859D01*
X18514776Y-11033859D02*
X18486205Y-11033859D01*
X18486205Y-11033859D02*
X18467157Y-11024336D01*
X18467157Y-11024336D02*
X18457634Y-11005288D01*
X18457634Y-11005288D02*
X18457634Y-10995764D01*
X18457634Y-10995764D02*
X18467157Y-10976717D01*
X18467157Y-10976717D02*
X18486205Y-10967193D01*
X18486205Y-10967193D02*
X18514776Y-10967193D01*
X18514776Y-10967193D02*
X18533824Y-10976717D01*
X18610015Y-11176717D02*
X18619538Y-11167193D01*
X18619538Y-11167193D02*
X18638586Y-11138621D01*
X18638586Y-11138621D02*
X18648110Y-11119574D01*
X18648110Y-11119574D02*
X18657634Y-11091002D01*
X18657634Y-11091002D02*
X18667157Y-11043383D01*
X18667157Y-11043383D02*
X18667157Y-11005288D01*
X18667157Y-11005288D02*
X18657634Y-10957669D01*
X18657634Y-10957669D02*
X18648110Y-10929098D01*
X18648110Y-10929098D02*
X18638586Y-10910050D01*
X18638586Y-10910050D02*
X18619538Y-10881478D01*
X18619538Y-10881478D02*
X18610015Y-10871955D01*
D12*
X13834952Y-11273042D02*
G75*
G02*
X13814952Y-11273042I-10000J0D01*
G01*
X13814952Y-11273042D02*
G75*
G02*
X13834952Y-11273042I10000J0D01*
G01*
D11*
X14133824Y-11164526D02*
X14152871Y-11164526D01*
X14152871Y-11164526D02*
X14171919Y-11174050D01*
X14171919Y-11174050D02*
X14181443Y-11183574D01*
X14181443Y-11183574D02*
X14190966Y-11202621D01*
X14190966Y-11202621D02*
X14200490Y-11240716D01*
X14200490Y-11240716D02*
X14200490Y-11288336D01*
X14200490Y-11288336D02*
X14190966Y-11326431D01*
X14190966Y-11326431D02*
X14181443Y-11345478D01*
X14181443Y-11345478D02*
X14171919Y-11355002D01*
X14171919Y-11355002D02*
X14152871Y-11364526D01*
X14152871Y-11364526D02*
X14133824Y-11364526D01*
X14133824Y-11364526D02*
X14114776Y-11355002D01*
X14114776Y-11355002D02*
X14105252Y-11345478D01*
X14105252Y-11345478D02*
X14095728Y-11326431D01*
X14095728Y-11326431D02*
X14086205Y-11288336D01*
X14086205Y-11288336D02*
X14086205Y-11240716D01*
X14086205Y-11240716D02*
X14095728Y-11202621D01*
X14095728Y-11202621D02*
X14105252Y-11183574D01*
X14105252Y-11183574D02*
X14114776Y-11174050D01*
X14114776Y-11174050D02*
X14133824Y-11164526D01*
X14286205Y-11345478D02*
X14295728Y-11355002D01*
X14295728Y-11355002D02*
X14286205Y-11364526D01*
X14286205Y-11364526D02*
X14276681Y-11355002D01*
X14276681Y-11355002D02*
X14286205Y-11345478D01*
X14286205Y-11345478D02*
X14286205Y-11364526D01*
X14371919Y-11183574D02*
X14381443Y-11174050D01*
X14381443Y-11174050D02*
X14400490Y-11164526D01*
X14400490Y-11164526D02*
X14448109Y-11164526D01*
X14448109Y-11164526D02*
X14467157Y-11174050D01*
X14467157Y-11174050D02*
X14476681Y-11183574D01*
X14476681Y-11183574D02*
X14486205Y-11202621D01*
X14486205Y-11202621D02*
X14486205Y-11221669D01*
X14486205Y-11221669D02*
X14476681Y-11250240D01*
X14476681Y-11250240D02*
X14362395Y-11364526D01*
X14362395Y-11364526D02*
X14486205Y-11364526D01*
X14610014Y-11164526D02*
X14629062Y-11164526D01*
X14629062Y-11164526D02*
X14648109Y-11174050D01*
X14648109Y-11174050D02*
X14657633Y-11183574D01*
X14657633Y-11183574D02*
X14667157Y-11202621D01*
X14667157Y-11202621D02*
X14676681Y-11240716D01*
X14676681Y-11240716D02*
X14676681Y-11288336D01*
X14676681Y-11288336D02*
X14667157Y-11326431D01*
X14667157Y-11326431D02*
X14657633Y-11345478D01*
X14657633Y-11345478D02*
X14648109Y-11355002D01*
X14648109Y-11355002D02*
X14629062Y-11364526D01*
X14629062Y-11364526D02*
X14610014Y-11364526D01*
X14610014Y-11364526D02*
X14590966Y-11355002D01*
X14590966Y-11355002D02*
X14581443Y-11345478D01*
X14581443Y-11345478D02*
X14571919Y-11326431D01*
X14571919Y-11326431D02*
X14562395Y-11288336D01*
X14562395Y-11288336D02*
X14562395Y-11240716D01*
X14562395Y-11240716D02*
X14571919Y-11202621D01*
X14571919Y-11202621D02*
X14581443Y-11183574D01*
X14581443Y-11183574D02*
X14590966Y-11174050D01*
X14590966Y-11174050D02*
X14610014Y-11164526D01*
X14800490Y-11164526D02*
X14819538Y-11164526D01*
X14819538Y-11164526D02*
X14838586Y-11174050D01*
X14838586Y-11174050D02*
X14848109Y-11183574D01*
X14848109Y-11183574D02*
X14857633Y-11202621D01*
X14857633Y-11202621D02*
X14867157Y-11240716D01*
X14867157Y-11240716D02*
X14867157Y-11288336D01*
X14867157Y-11288336D02*
X14857633Y-11326431D01*
X14857633Y-11326431D02*
X14848109Y-11345478D01*
X14848109Y-11345478D02*
X14838586Y-11355002D01*
X14838586Y-11355002D02*
X14819538Y-11364526D01*
X14819538Y-11364526D02*
X14800490Y-11364526D01*
X14800490Y-11364526D02*
X14781443Y-11355002D01*
X14781443Y-11355002D02*
X14771919Y-11345478D01*
X14771919Y-11345478D02*
X14762395Y-11326431D01*
X14762395Y-11326431D02*
X14752871Y-11288336D01*
X14752871Y-11288336D02*
X14752871Y-11240716D01*
X14752871Y-11240716D02*
X14762395Y-11202621D01*
X14762395Y-11202621D02*
X14771919Y-11183574D01*
X14771919Y-11183574D02*
X14781443Y-11174050D01*
X14781443Y-11174050D02*
X14800490Y-11164526D01*
X14952871Y-11364526D02*
X14952871Y-11231193D01*
X14952871Y-11250240D02*
X14962395Y-11240716D01*
X14962395Y-11240716D02*
X14981443Y-11231193D01*
X14981443Y-11231193D02*
X15010014Y-11231193D01*
X15010014Y-11231193D02*
X15029062Y-11240716D01*
X15029062Y-11240716D02*
X15038586Y-11259764D01*
X15038586Y-11259764D02*
X15038586Y-11364526D01*
X15038586Y-11259764D02*
X15048109Y-11240716D01*
X15048109Y-11240716D02*
X15067157Y-11231193D01*
X15067157Y-11231193D02*
X15095728Y-11231193D01*
X15095728Y-11231193D02*
X15114776Y-11240716D01*
X15114776Y-11240716D02*
X15124300Y-11259764D01*
X15124300Y-11259764D02*
X15124300Y-11364526D01*
X15219538Y-11364526D02*
X15219538Y-11231193D01*
X15219538Y-11250240D02*
X15229062Y-11240716D01*
X15229062Y-11240716D02*
X15248109Y-11231193D01*
X15248109Y-11231193D02*
X15276681Y-11231193D01*
X15276681Y-11231193D02*
X15295728Y-11240716D01*
X15295728Y-11240716D02*
X15305252Y-11259764D01*
X15305252Y-11259764D02*
X15305252Y-11364526D01*
X15305252Y-11259764D02*
X15314776Y-11240716D01*
X15314776Y-11240716D02*
X15333824Y-11231193D01*
X15333824Y-11231193D02*
X15362395Y-11231193D01*
X15362395Y-11231193D02*
X15381443Y-11240716D01*
X15381443Y-11240716D02*
X15390967Y-11259764D01*
X15390967Y-11259764D02*
X15390967Y-11364526D01*
X15781443Y-11155002D02*
X15610014Y-11412145D01*
X16038586Y-11164526D02*
X16057633Y-11164526D01*
X16057633Y-11164526D02*
X16076681Y-11174050D01*
X16076681Y-11174050D02*
X16086205Y-11183574D01*
X16086205Y-11183574D02*
X16095729Y-11202621D01*
X16095729Y-11202621D02*
X16105252Y-11240716D01*
X16105252Y-11240716D02*
X16105252Y-11288336D01*
X16105252Y-11288336D02*
X16095729Y-11326431D01*
X16095729Y-11326431D02*
X16086205Y-11345478D01*
X16086205Y-11345478D02*
X16076681Y-11355002D01*
X16076681Y-11355002D02*
X16057633Y-11364526D01*
X16057633Y-11364526D02*
X16038586Y-11364526D01*
X16038586Y-11364526D02*
X16019538Y-11355002D01*
X16019538Y-11355002D02*
X16010014Y-11345478D01*
X16010014Y-11345478D02*
X16000490Y-11326431D01*
X16000490Y-11326431D02*
X15990967Y-11288336D01*
X15990967Y-11288336D02*
X15990967Y-11240716D01*
X15990967Y-11240716D02*
X16000490Y-11202621D01*
X16000490Y-11202621D02*
X16010014Y-11183574D01*
X16010014Y-11183574D02*
X16019538Y-11174050D01*
X16019538Y-11174050D02*
X16038586Y-11164526D01*
X16190967Y-11345478D02*
X16200490Y-11355002D01*
X16200490Y-11355002D02*
X16190967Y-11364526D01*
X16190967Y-11364526D02*
X16181443Y-11355002D01*
X16181443Y-11355002D02*
X16190967Y-11345478D01*
X16190967Y-11345478D02*
X16190967Y-11364526D01*
X16324300Y-11164526D02*
X16343348Y-11164526D01*
X16343348Y-11164526D02*
X16362395Y-11174050D01*
X16362395Y-11174050D02*
X16371919Y-11183574D01*
X16371919Y-11183574D02*
X16381443Y-11202621D01*
X16381443Y-11202621D02*
X16390967Y-11240716D01*
X16390967Y-11240716D02*
X16390967Y-11288336D01*
X16390967Y-11288336D02*
X16381443Y-11326431D01*
X16381443Y-11326431D02*
X16371919Y-11345478D01*
X16371919Y-11345478D02*
X16362395Y-11355002D01*
X16362395Y-11355002D02*
X16343348Y-11364526D01*
X16343348Y-11364526D02*
X16324300Y-11364526D01*
X16324300Y-11364526D02*
X16305252Y-11355002D01*
X16305252Y-11355002D02*
X16295729Y-11345478D01*
X16295729Y-11345478D02*
X16286205Y-11326431D01*
X16286205Y-11326431D02*
X16276681Y-11288336D01*
X16276681Y-11288336D02*
X16276681Y-11240716D01*
X16276681Y-11240716D02*
X16286205Y-11202621D01*
X16286205Y-11202621D02*
X16295729Y-11183574D01*
X16295729Y-11183574D02*
X16305252Y-11174050D01*
X16305252Y-11174050D02*
X16324300Y-11164526D01*
X16514776Y-11164526D02*
X16533824Y-11164526D01*
X16533824Y-11164526D02*
X16552871Y-11174050D01*
X16552871Y-11174050D02*
X16562395Y-11183574D01*
X16562395Y-11183574D02*
X16571919Y-11202621D01*
X16571919Y-11202621D02*
X16581443Y-11240716D01*
X16581443Y-11240716D02*
X16581443Y-11288336D01*
X16581443Y-11288336D02*
X16571919Y-11326431D01*
X16571919Y-11326431D02*
X16562395Y-11345478D01*
X16562395Y-11345478D02*
X16552871Y-11355002D01*
X16552871Y-11355002D02*
X16533824Y-11364526D01*
X16533824Y-11364526D02*
X16514776Y-11364526D01*
X16514776Y-11364526D02*
X16495729Y-11355002D01*
X16495729Y-11355002D02*
X16486205Y-11345478D01*
X16486205Y-11345478D02*
X16476681Y-11326431D01*
X16476681Y-11326431D02*
X16467157Y-11288336D01*
X16467157Y-11288336D02*
X16467157Y-11240716D01*
X16467157Y-11240716D02*
X16476681Y-11202621D01*
X16476681Y-11202621D02*
X16486205Y-11183574D01*
X16486205Y-11183574D02*
X16495729Y-11174050D01*
X16495729Y-11174050D02*
X16514776Y-11164526D01*
X16648110Y-11164526D02*
X16781443Y-11164526D01*
X16781443Y-11164526D02*
X16695729Y-11364526D01*
X16867157Y-11364526D02*
X16905252Y-11364526D01*
X16905252Y-11364526D02*
X16924300Y-11355002D01*
X16924300Y-11355002D02*
X16933824Y-11345478D01*
X16933824Y-11345478D02*
X16952872Y-11316907D01*
X16952872Y-11316907D02*
X16962395Y-11278812D01*
X16962395Y-11278812D02*
X16962395Y-11202621D01*
X16962395Y-11202621D02*
X16952872Y-11183574D01*
X16952872Y-11183574D02*
X16943348Y-11174050D01*
X16943348Y-11174050D02*
X16924300Y-11164526D01*
X16924300Y-11164526D02*
X16886205Y-11164526D01*
X16886205Y-11164526D02*
X16867157Y-11174050D01*
X16867157Y-11174050D02*
X16857633Y-11183574D01*
X16857633Y-11183574D02*
X16848110Y-11202621D01*
X16848110Y-11202621D02*
X16848110Y-11250240D01*
X16848110Y-11250240D02*
X16857633Y-11269288D01*
X16857633Y-11269288D02*
X16867157Y-11278812D01*
X16867157Y-11278812D02*
X16886205Y-11288336D01*
X16886205Y-11288336D02*
X16924300Y-11288336D01*
X16924300Y-11288336D02*
X16943348Y-11278812D01*
X16943348Y-11278812D02*
X16952872Y-11269288D01*
X16952872Y-11269288D02*
X16962395Y-11250240D01*
X17038586Y-11164526D02*
X17038586Y-11202621D01*
X17114776Y-11164526D02*
X17114776Y-11202621D01*
X17410015Y-11440716D02*
X17400491Y-11431193D01*
X17400491Y-11431193D02*
X17381443Y-11402621D01*
X17381443Y-11402621D02*
X17371919Y-11383574D01*
X17371919Y-11383574D02*
X17362395Y-11355002D01*
X17362395Y-11355002D02*
X17352872Y-11307383D01*
X17352872Y-11307383D02*
X17352872Y-11269288D01*
X17352872Y-11269288D02*
X17362395Y-11221669D01*
X17362395Y-11221669D02*
X17371919Y-11193097D01*
X17371919Y-11193097D02*
X17381443Y-11174050D01*
X17381443Y-11174050D02*
X17400491Y-11145478D01*
X17400491Y-11145478D02*
X17410015Y-11135955D01*
X17571919Y-11231193D02*
X17571919Y-11364526D01*
X17524300Y-11155002D02*
X17476681Y-11297859D01*
X17476681Y-11297859D02*
X17600491Y-11297859D01*
X17762395Y-11231193D02*
X17762395Y-11364526D01*
X17714776Y-11155002D02*
X17667157Y-11297859D01*
X17667157Y-11297859D02*
X17790967Y-11297859D01*
X18019538Y-11364526D02*
X18019538Y-11164526D01*
X18105253Y-11364526D02*
X18105253Y-11259764D01*
X18105253Y-11259764D02*
X18095729Y-11240716D01*
X18095729Y-11240716D02*
X18076681Y-11231193D01*
X18076681Y-11231193D02*
X18048110Y-11231193D01*
X18048110Y-11231193D02*
X18029062Y-11240716D01*
X18029062Y-11240716D02*
X18019538Y-11250240D01*
X18229062Y-11364526D02*
X18210015Y-11355002D01*
X18210015Y-11355002D02*
X18200491Y-11345478D01*
X18200491Y-11345478D02*
X18190967Y-11326431D01*
X18190967Y-11326431D02*
X18190967Y-11269288D01*
X18190967Y-11269288D02*
X18200491Y-11250240D01*
X18200491Y-11250240D02*
X18210015Y-11240716D01*
X18210015Y-11240716D02*
X18229062Y-11231193D01*
X18229062Y-11231193D02*
X18257634Y-11231193D01*
X18257634Y-11231193D02*
X18276681Y-11240716D01*
X18276681Y-11240716D02*
X18286205Y-11250240D01*
X18286205Y-11250240D02*
X18295729Y-11269288D01*
X18295729Y-11269288D02*
X18295729Y-11326431D01*
X18295729Y-11326431D02*
X18286205Y-11345478D01*
X18286205Y-11345478D02*
X18276681Y-11355002D01*
X18276681Y-11355002D02*
X18257634Y-11364526D01*
X18257634Y-11364526D02*
X18229062Y-11364526D01*
X18410015Y-11364526D02*
X18390967Y-11355002D01*
X18390967Y-11355002D02*
X18381443Y-11335955D01*
X18381443Y-11335955D02*
X18381443Y-11164526D01*
X18562396Y-11355002D02*
X18543348Y-11364526D01*
X18543348Y-11364526D02*
X18505253Y-11364526D01*
X18505253Y-11364526D02*
X18486205Y-11355002D01*
X18486205Y-11355002D02*
X18476681Y-11335955D01*
X18476681Y-11335955D02*
X18476681Y-11259764D01*
X18476681Y-11259764D02*
X18486205Y-11240716D01*
X18486205Y-11240716D02*
X18505253Y-11231193D01*
X18505253Y-11231193D02*
X18543348Y-11231193D01*
X18543348Y-11231193D02*
X18562396Y-11240716D01*
X18562396Y-11240716D02*
X18571919Y-11259764D01*
X18571919Y-11259764D02*
X18571919Y-11278812D01*
X18571919Y-11278812D02*
X18476681Y-11297859D01*
X18648110Y-11355002D02*
X18667157Y-11364526D01*
X18667157Y-11364526D02*
X18705253Y-11364526D01*
X18705253Y-11364526D02*
X18724300Y-11355002D01*
X18724300Y-11355002D02*
X18733824Y-11335955D01*
X18733824Y-11335955D02*
X18733824Y-11326431D01*
X18733824Y-11326431D02*
X18724300Y-11307383D01*
X18724300Y-11307383D02*
X18705253Y-11297859D01*
X18705253Y-11297859D02*
X18676681Y-11297859D01*
X18676681Y-11297859D02*
X18657634Y-11288336D01*
X18657634Y-11288336D02*
X18648110Y-11269288D01*
X18648110Y-11269288D02*
X18648110Y-11259764D01*
X18648110Y-11259764D02*
X18657634Y-11240716D01*
X18657634Y-11240716D02*
X18676681Y-11231193D01*
X18676681Y-11231193D02*
X18705253Y-11231193D01*
X18705253Y-11231193D02*
X18724300Y-11240716D01*
X18800491Y-11440716D02*
X18810015Y-11431193D01*
X18810015Y-11431193D02*
X18829062Y-11402621D01*
X18829062Y-11402621D02*
X18838586Y-11383574D01*
X18838586Y-11383574D02*
X18848110Y-11355002D01*
X18848110Y-11355002D02*
X18857634Y-11307383D01*
X18857634Y-11307383D02*
X18857634Y-11269288D01*
X18857634Y-11269288D02*
X18848110Y-11221669D01*
X18848110Y-11221669D02*
X18838586Y-11193097D01*
X18838586Y-11193097D02*
X18829062Y-11174050D01*
X18829062Y-11174050D02*
X18810015Y-11145478D01*
X18810015Y-11145478D02*
X18800491Y-11135955D01*
D12*
X13819952Y-11522042D02*
X13819952Y-11552042D01*
X13804952Y-11537042D02*
X13834952Y-11537042D01*
D11*
X14133824Y-11428526D02*
X14152871Y-11428526D01*
X14152871Y-11428526D02*
X14171919Y-11438050D01*
X14171919Y-11438050D02*
X14181443Y-11447574D01*
X14181443Y-11447574D02*
X14190966Y-11466621D01*
X14190966Y-11466621D02*
X14200490Y-11504716D01*
X14200490Y-11504716D02*
X14200490Y-11552336D01*
X14200490Y-11552336D02*
X14190966Y-11590431D01*
X14190966Y-11590431D02*
X14181443Y-11609478D01*
X14181443Y-11609478D02*
X14171919Y-11619002D01*
X14171919Y-11619002D02*
X14152871Y-11628526D01*
X14152871Y-11628526D02*
X14133824Y-11628526D01*
X14133824Y-11628526D02*
X14114776Y-11619002D01*
X14114776Y-11619002D02*
X14105252Y-11609478D01*
X14105252Y-11609478D02*
X14095728Y-11590431D01*
X14095728Y-11590431D02*
X14086205Y-11552336D01*
X14086205Y-11552336D02*
X14086205Y-11504716D01*
X14086205Y-11504716D02*
X14095728Y-11466621D01*
X14095728Y-11466621D02*
X14105252Y-11447574D01*
X14105252Y-11447574D02*
X14114776Y-11438050D01*
X14114776Y-11438050D02*
X14133824Y-11428526D01*
X14286205Y-11609478D02*
X14295728Y-11619002D01*
X14295728Y-11619002D02*
X14286205Y-11628526D01*
X14286205Y-11628526D02*
X14276681Y-11619002D01*
X14276681Y-11619002D02*
X14286205Y-11609478D01*
X14286205Y-11609478D02*
X14286205Y-11628526D01*
X14362395Y-11428526D02*
X14486205Y-11428526D01*
X14486205Y-11428526D02*
X14419538Y-11504716D01*
X14419538Y-11504716D02*
X14448109Y-11504716D01*
X14448109Y-11504716D02*
X14467157Y-11514240D01*
X14467157Y-11514240D02*
X14476681Y-11523764D01*
X14476681Y-11523764D02*
X14486205Y-11542812D01*
X14486205Y-11542812D02*
X14486205Y-11590431D01*
X14486205Y-11590431D02*
X14476681Y-11609478D01*
X14476681Y-11609478D02*
X14467157Y-11619002D01*
X14467157Y-11619002D02*
X14448109Y-11628526D01*
X14448109Y-11628526D02*
X14390966Y-11628526D01*
X14390966Y-11628526D02*
X14371919Y-11619002D01*
X14371919Y-11619002D02*
X14362395Y-11609478D01*
X14610014Y-11428526D02*
X14629062Y-11428526D01*
X14629062Y-11428526D02*
X14648109Y-11438050D01*
X14648109Y-11438050D02*
X14657633Y-11447574D01*
X14657633Y-11447574D02*
X14667157Y-11466621D01*
X14667157Y-11466621D02*
X14676681Y-11504716D01*
X14676681Y-11504716D02*
X14676681Y-11552336D01*
X14676681Y-11552336D02*
X14667157Y-11590431D01*
X14667157Y-11590431D02*
X14657633Y-11609478D01*
X14657633Y-11609478D02*
X14648109Y-11619002D01*
X14648109Y-11619002D02*
X14629062Y-11628526D01*
X14629062Y-11628526D02*
X14610014Y-11628526D01*
X14610014Y-11628526D02*
X14590966Y-11619002D01*
X14590966Y-11619002D02*
X14581443Y-11609478D01*
X14581443Y-11609478D02*
X14571919Y-11590431D01*
X14571919Y-11590431D02*
X14562395Y-11552336D01*
X14562395Y-11552336D02*
X14562395Y-11504716D01*
X14562395Y-11504716D02*
X14571919Y-11466621D01*
X14571919Y-11466621D02*
X14581443Y-11447574D01*
X14581443Y-11447574D02*
X14590966Y-11438050D01*
X14590966Y-11438050D02*
X14610014Y-11428526D01*
X14800490Y-11428526D02*
X14819538Y-11428526D01*
X14819538Y-11428526D02*
X14838586Y-11438050D01*
X14838586Y-11438050D02*
X14848109Y-11447574D01*
X14848109Y-11447574D02*
X14857633Y-11466621D01*
X14857633Y-11466621D02*
X14867157Y-11504716D01*
X14867157Y-11504716D02*
X14867157Y-11552336D01*
X14867157Y-11552336D02*
X14857633Y-11590431D01*
X14857633Y-11590431D02*
X14848109Y-11609478D01*
X14848109Y-11609478D02*
X14838586Y-11619002D01*
X14838586Y-11619002D02*
X14819538Y-11628526D01*
X14819538Y-11628526D02*
X14800490Y-11628526D01*
X14800490Y-11628526D02*
X14781443Y-11619002D01*
X14781443Y-11619002D02*
X14771919Y-11609478D01*
X14771919Y-11609478D02*
X14762395Y-11590431D01*
X14762395Y-11590431D02*
X14752871Y-11552336D01*
X14752871Y-11552336D02*
X14752871Y-11504716D01*
X14752871Y-11504716D02*
X14762395Y-11466621D01*
X14762395Y-11466621D02*
X14771919Y-11447574D01*
X14771919Y-11447574D02*
X14781443Y-11438050D01*
X14781443Y-11438050D02*
X14800490Y-11428526D01*
X14952871Y-11628526D02*
X14952871Y-11495193D01*
X14952871Y-11514240D02*
X14962395Y-11504716D01*
X14962395Y-11504716D02*
X14981443Y-11495193D01*
X14981443Y-11495193D02*
X15010014Y-11495193D01*
X15010014Y-11495193D02*
X15029062Y-11504716D01*
X15029062Y-11504716D02*
X15038586Y-11523764D01*
X15038586Y-11523764D02*
X15038586Y-11628526D01*
X15038586Y-11523764D02*
X15048109Y-11504716D01*
X15048109Y-11504716D02*
X15067157Y-11495193D01*
X15067157Y-11495193D02*
X15095728Y-11495193D01*
X15095728Y-11495193D02*
X15114776Y-11504716D01*
X15114776Y-11504716D02*
X15124300Y-11523764D01*
X15124300Y-11523764D02*
X15124300Y-11628526D01*
X15219538Y-11628526D02*
X15219538Y-11495193D01*
X15219538Y-11514240D02*
X15229062Y-11504716D01*
X15229062Y-11504716D02*
X15248109Y-11495193D01*
X15248109Y-11495193D02*
X15276681Y-11495193D01*
X15276681Y-11495193D02*
X15295728Y-11504716D01*
X15295728Y-11504716D02*
X15305252Y-11523764D01*
X15305252Y-11523764D02*
X15305252Y-11628526D01*
X15305252Y-11523764D02*
X15314776Y-11504716D01*
X15314776Y-11504716D02*
X15333824Y-11495193D01*
X15333824Y-11495193D02*
X15362395Y-11495193D01*
X15362395Y-11495193D02*
X15381443Y-11504716D01*
X15381443Y-11504716D02*
X15390967Y-11523764D01*
X15390967Y-11523764D02*
X15390967Y-11628526D01*
X15781443Y-11419002D02*
X15610014Y-11676145D01*
X16038586Y-11428526D02*
X16057633Y-11428526D01*
X16057633Y-11428526D02*
X16076681Y-11438050D01*
X16076681Y-11438050D02*
X16086205Y-11447574D01*
X16086205Y-11447574D02*
X16095729Y-11466621D01*
X16095729Y-11466621D02*
X16105252Y-11504716D01*
X16105252Y-11504716D02*
X16105252Y-11552336D01*
X16105252Y-11552336D02*
X16095729Y-11590431D01*
X16095729Y-11590431D02*
X16086205Y-11609478D01*
X16086205Y-11609478D02*
X16076681Y-11619002D01*
X16076681Y-11619002D02*
X16057633Y-11628526D01*
X16057633Y-11628526D02*
X16038586Y-11628526D01*
X16038586Y-11628526D02*
X16019538Y-11619002D01*
X16019538Y-11619002D02*
X16010014Y-11609478D01*
X16010014Y-11609478D02*
X16000490Y-11590431D01*
X16000490Y-11590431D02*
X15990967Y-11552336D01*
X15990967Y-11552336D02*
X15990967Y-11504716D01*
X15990967Y-11504716D02*
X16000490Y-11466621D01*
X16000490Y-11466621D02*
X16010014Y-11447574D01*
X16010014Y-11447574D02*
X16019538Y-11438050D01*
X16019538Y-11438050D02*
X16038586Y-11428526D01*
X16190967Y-11609478D02*
X16200490Y-11619002D01*
X16200490Y-11619002D02*
X16190967Y-11628526D01*
X16190967Y-11628526D02*
X16181443Y-11619002D01*
X16181443Y-11619002D02*
X16190967Y-11609478D01*
X16190967Y-11609478D02*
X16190967Y-11628526D01*
X16324300Y-11428526D02*
X16343348Y-11428526D01*
X16343348Y-11428526D02*
X16362395Y-11438050D01*
X16362395Y-11438050D02*
X16371919Y-11447574D01*
X16371919Y-11447574D02*
X16381443Y-11466621D01*
X16381443Y-11466621D02*
X16390967Y-11504716D01*
X16390967Y-11504716D02*
X16390967Y-11552336D01*
X16390967Y-11552336D02*
X16381443Y-11590431D01*
X16381443Y-11590431D02*
X16371919Y-11609478D01*
X16371919Y-11609478D02*
X16362395Y-11619002D01*
X16362395Y-11619002D02*
X16343348Y-11628526D01*
X16343348Y-11628526D02*
X16324300Y-11628526D01*
X16324300Y-11628526D02*
X16305252Y-11619002D01*
X16305252Y-11619002D02*
X16295729Y-11609478D01*
X16295729Y-11609478D02*
X16286205Y-11590431D01*
X16286205Y-11590431D02*
X16276681Y-11552336D01*
X16276681Y-11552336D02*
X16276681Y-11504716D01*
X16276681Y-11504716D02*
X16286205Y-11466621D01*
X16286205Y-11466621D02*
X16295729Y-11447574D01*
X16295729Y-11447574D02*
X16305252Y-11438050D01*
X16305252Y-11438050D02*
X16324300Y-11428526D01*
X16581443Y-11628526D02*
X16467157Y-11628526D01*
X16524300Y-11628526D02*
X16524300Y-11428526D01*
X16524300Y-11428526D02*
X16505252Y-11457097D01*
X16505252Y-11457097D02*
X16486205Y-11476145D01*
X16486205Y-11476145D02*
X16467157Y-11485669D01*
X16771919Y-11628526D02*
X16657633Y-11628526D01*
X16714776Y-11628526D02*
X16714776Y-11428526D01*
X16714776Y-11428526D02*
X16695729Y-11457097D01*
X16695729Y-11457097D02*
X16676681Y-11476145D01*
X16676681Y-11476145D02*
X16657633Y-11485669D01*
X16886205Y-11514240D02*
X16867157Y-11504716D01*
X16867157Y-11504716D02*
X16857633Y-11495193D01*
X16857633Y-11495193D02*
X16848110Y-11476145D01*
X16848110Y-11476145D02*
X16848110Y-11466621D01*
X16848110Y-11466621D02*
X16857633Y-11447574D01*
X16857633Y-11447574D02*
X16867157Y-11438050D01*
X16867157Y-11438050D02*
X16886205Y-11428526D01*
X16886205Y-11428526D02*
X16924300Y-11428526D01*
X16924300Y-11428526D02*
X16943348Y-11438050D01*
X16943348Y-11438050D02*
X16952872Y-11447574D01*
X16952872Y-11447574D02*
X16962395Y-11466621D01*
X16962395Y-11466621D02*
X16962395Y-11476145D01*
X16962395Y-11476145D02*
X16952872Y-11495193D01*
X16952872Y-11495193D02*
X16943348Y-11504716D01*
X16943348Y-11504716D02*
X16924300Y-11514240D01*
X16924300Y-11514240D02*
X16886205Y-11514240D01*
X16886205Y-11514240D02*
X16867157Y-11523764D01*
X16867157Y-11523764D02*
X16857633Y-11533288D01*
X16857633Y-11533288D02*
X16848110Y-11552336D01*
X16848110Y-11552336D02*
X16848110Y-11590431D01*
X16848110Y-11590431D02*
X16857633Y-11609478D01*
X16857633Y-11609478D02*
X16867157Y-11619002D01*
X16867157Y-11619002D02*
X16886205Y-11628526D01*
X16886205Y-11628526D02*
X16924300Y-11628526D01*
X16924300Y-11628526D02*
X16943348Y-11619002D01*
X16943348Y-11619002D02*
X16952872Y-11609478D01*
X16952872Y-11609478D02*
X16962395Y-11590431D01*
X16962395Y-11590431D02*
X16962395Y-11552336D01*
X16962395Y-11552336D02*
X16952872Y-11533288D01*
X16952872Y-11533288D02*
X16943348Y-11523764D01*
X16943348Y-11523764D02*
X16924300Y-11514240D01*
X17038586Y-11428526D02*
X17038586Y-11466621D01*
X17114776Y-11428526D02*
X17114776Y-11466621D01*
X17410015Y-11704716D02*
X17400491Y-11695193D01*
X17400491Y-11695193D02*
X17381443Y-11666621D01*
X17381443Y-11666621D02*
X17371919Y-11647574D01*
X17371919Y-11647574D02*
X17362395Y-11619002D01*
X17362395Y-11619002D02*
X17352872Y-11571383D01*
X17352872Y-11571383D02*
X17352872Y-11533288D01*
X17352872Y-11533288D02*
X17362395Y-11485669D01*
X17362395Y-11485669D02*
X17371919Y-11457097D01*
X17371919Y-11457097D02*
X17381443Y-11438050D01*
X17381443Y-11438050D02*
X17400491Y-11409478D01*
X17400491Y-11409478D02*
X17410015Y-11399955D01*
X17495729Y-11628526D02*
X17533824Y-11628526D01*
X17533824Y-11628526D02*
X17552872Y-11619002D01*
X17552872Y-11619002D02*
X17562395Y-11609478D01*
X17562395Y-11609478D02*
X17581443Y-11580907D01*
X17581443Y-11580907D02*
X17590967Y-11542812D01*
X17590967Y-11542812D02*
X17590967Y-11466621D01*
X17590967Y-11466621D02*
X17581443Y-11447574D01*
X17581443Y-11447574D02*
X17571919Y-11438050D01*
X17571919Y-11438050D02*
X17552872Y-11428526D01*
X17552872Y-11428526D02*
X17514776Y-11428526D01*
X17514776Y-11428526D02*
X17495729Y-11438050D01*
X17495729Y-11438050D02*
X17486205Y-11447574D01*
X17486205Y-11447574D02*
X17476681Y-11466621D01*
X17476681Y-11466621D02*
X17476681Y-11514240D01*
X17476681Y-11514240D02*
X17486205Y-11533288D01*
X17486205Y-11533288D02*
X17495729Y-11542812D01*
X17495729Y-11542812D02*
X17514776Y-11552336D01*
X17514776Y-11552336D02*
X17552872Y-11552336D01*
X17552872Y-11552336D02*
X17571919Y-11542812D01*
X17571919Y-11542812D02*
X17581443Y-11533288D01*
X17581443Y-11533288D02*
X17590967Y-11514240D01*
X17829062Y-11628526D02*
X17829062Y-11428526D01*
X17914776Y-11628526D02*
X17914776Y-11523764D01*
X17914776Y-11523764D02*
X17905253Y-11504716D01*
X17905253Y-11504716D02*
X17886205Y-11495193D01*
X17886205Y-11495193D02*
X17857634Y-11495193D01*
X17857634Y-11495193D02*
X17838586Y-11504716D01*
X17838586Y-11504716D02*
X17829062Y-11514240D01*
X18038586Y-11628526D02*
X18019538Y-11619002D01*
X18019538Y-11619002D02*
X18010015Y-11609478D01*
X18010015Y-11609478D02*
X18000491Y-11590431D01*
X18000491Y-11590431D02*
X18000491Y-11533288D01*
X18000491Y-11533288D02*
X18010015Y-11514240D01*
X18010015Y-11514240D02*
X18019538Y-11504716D01*
X18019538Y-11504716D02*
X18038586Y-11495193D01*
X18038586Y-11495193D02*
X18067157Y-11495193D01*
X18067157Y-11495193D02*
X18086205Y-11504716D01*
X18086205Y-11504716D02*
X18095729Y-11514240D01*
X18095729Y-11514240D02*
X18105253Y-11533288D01*
X18105253Y-11533288D02*
X18105253Y-11590431D01*
X18105253Y-11590431D02*
X18095729Y-11609478D01*
X18095729Y-11609478D02*
X18086205Y-11619002D01*
X18086205Y-11619002D02*
X18067157Y-11628526D01*
X18067157Y-11628526D02*
X18038586Y-11628526D01*
X18219538Y-11628526D02*
X18200491Y-11619002D01*
X18200491Y-11619002D02*
X18190967Y-11599955D01*
X18190967Y-11599955D02*
X18190967Y-11428526D01*
X18371919Y-11619002D02*
X18352872Y-11628526D01*
X18352872Y-11628526D02*
X18314776Y-11628526D01*
X18314776Y-11628526D02*
X18295729Y-11619002D01*
X18295729Y-11619002D02*
X18286205Y-11599955D01*
X18286205Y-11599955D02*
X18286205Y-11523764D01*
X18286205Y-11523764D02*
X18295729Y-11504716D01*
X18295729Y-11504716D02*
X18314776Y-11495193D01*
X18314776Y-11495193D02*
X18352872Y-11495193D01*
X18352872Y-11495193D02*
X18371919Y-11504716D01*
X18371919Y-11504716D02*
X18381443Y-11523764D01*
X18381443Y-11523764D02*
X18381443Y-11542812D01*
X18381443Y-11542812D02*
X18286205Y-11561859D01*
X18457634Y-11619002D02*
X18476681Y-11628526D01*
X18476681Y-11628526D02*
X18514776Y-11628526D01*
X18514776Y-11628526D02*
X18533824Y-11619002D01*
X18533824Y-11619002D02*
X18543348Y-11599955D01*
X18543348Y-11599955D02*
X18543348Y-11590431D01*
X18543348Y-11590431D02*
X18533824Y-11571383D01*
X18533824Y-11571383D02*
X18514776Y-11561859D01*
X18514776Y-11561859D02*
X18486205Y-11561859D01*
X18486205Y-11561859D02*
X18467157Y-11552336D01*
X18467157Y-11552336D02*
X18457634Y-11533288D01*
X18457634Y-11533288D02*
X18457634Y-11523764D01*
X18457634Y-11523764D02*
X18467157Y-11504716D01*
X18467157Y-11504716D02*
X18486205Y-11495193D01*
X18486205Y-11495193D02*
X18514776Y-11495193D01*
X18514776Y-11495193D02*
X18533824Y-11504716D01*
X18610015Y-11704716D02*
X18619538Y-11695193D01*
X18619538Y-11695193D02*
X18638586Y-11666621D01*
X18638586Y-11666621D02*
X18648110Y-11647574D01*
X18648110Y-11647574D02*
X18657634Y-11619002D01*
X18657634Y-11619002D02*
X18667157Y-11571383D01*
X18667157Y-11571383D02*
X18667157Y-11533288D01*
X18667157Y-11533288D02*
X18657634Y-11485669D01*
X18657634Y-11485669D02*
X18648110Y-11457097D01*
X18648110Y-11457097D02*
X18638586Y-11438050D01*
X18638586Y-11438050D02*
X18619538Y-11409478D01*
X18619538Y-11409478D02*
X18610015Y-11399955D01*
D12*
X13827629Y-11818720D02*
X13827629Y-11783364D01*
X13792274Y-11783364D01*
X13792274Y-11818720D01*
X13827629Y-11818720D01*
D11*
X14133824Y-11692526D02*
X14152871Y-11692526D01*
X14152871Y-11692526D02*
X14171919Y-11702050D01*
X14171919Y-11702050D02*
X14181443Y-11711574D01*
X14181443Y-11711574D02*
X14190966Y-11730621D01*
X14190966Y-11730621D02*
X14200490Y-11768716D01*
X14200490Y-11768716D02*
X14200490Y-11816336D01*
X14200490Y-11816336D02*
X14190966Y-11854431D01*
X14190966Y-11854431D02*
X14181443Y-11873478D01*
X14181443Y-11873478D02*
X14171919Y-11883002D01*
X14171919Y-11883002D02*
X14152871Y-11892526D01*
X14152871Y-11892526D02*
X14133824Y-11892526D01*
X14133824Y-11892526D02*
X14114776Y-11883002D01*
X14114776Y-11883002D02*
X14105252Y-11873478D01*
X14105252Y-11873478D02*
X14095728Y-11854431D01*
X14095728Y-11854431D02*
X14086205Y-11816336D01*
X14086205Y-11816336D02*
X14086205Y-11768716D01*
X14086205Y-11768716D02*
X14095728Y-11730621D01*
X14095728Y-11730621D02*
X14105252Y-11711574D01*
X14105252Y-11711574D02*
X14114776Y-11702050D01*
X14114776Y-11702050D02*
X14133824Y-11692526D01*
X14286205Y-11873478D02*
X14295728Y-11883002D01*
X14295728Y-11883002D02*
X14286205Y-11892526D01*
X14286205Y-11892526D02*
X14276681Y-11883002D01*
X14276681Y-11883002D02*
X14286205Y-11873478D01*
X14286205Y-11873478D02*
X14286205Y-11892526D01*
X14476681Y-11692526D02*
X14381443Y-11692526D01*
X14381443Y-11692526D02*
X14371919Y-11787764D01*
X14371919Y-11787764D02*
X14381443Y-11778240D01*
X14381443Y-11778240D02*
X14400490Y-11768716D01*
X14400490Y-11768716D02*
X14448109Y-11768716D01*
X14448109Y-11768716D02*
X14467157Y-11778240D01*
X14467157Y-11778240D02*
X14476681Y-11787764D01*
X14476681Y-11787764D02*
X14486205Y-11806812D01*
X14486205Y-11806812D02*
X14486205Y-11854431D01*
X14486205Y-11854431D02*
X14476681Y-11873478D01*
X14476681Y-11873478D02*
X14467157Y-11883002D01*
X14467157Y-11883002D02*
X14448109Y-11892526D01*
X14448109Y-11892526D02*
X14400490Y-11892526D01*
X14400490Y-11892526D02*
X14381443Y-11883002D01*
X14381443Y-11883002D02*
X14371919Y-11873478D01*
X14610014Y-11692526D02*
X14629062Y-11692526D01*
X14629062Y-11692526D02*
X14648109Y-11702050D01*
X14648109Y-11702050D02*
X14657633Y-11711574D01*
X14657633Y-11711574D02*
X14667157Y-11730621D01*
X14667157Y-11730621D02*
X14676681Y-11768716D01*
X14676681Y-11768716D02*
X14676681Y-11816336D01*
X14676681Y-11816336D02*
X14667157Y-11854431D01*
X14667157Y-11854431D02*
X14657633Y-11873478D01*
X14657633Y-11873478D02*
X14648109Y-11883002D01*
X14648109Y-11883002D02*
X14629062Y-11892526D01*
X14629062Y-11892526D02*
X14610014Y-11892526D01*
X14610014Y-11892526D02*
X14590966Y-11883002D01*
X14590966Y-11883002D02*
X14581443Y-11873478D01*
X14581443Y-11873478D02*
X14571919Y-11854431D01*
X14571919Y-11854431D02*
X14562395Y-11816336D01*
X14562395Y-11816336D02*
X14562395Y-11768716D01*
X14562395Y-11768716D02*
X14571919Y-11730621D01*
X14571919Y-11730621D02*
X14581443Y-11711574D01*
X14581443Y-11711574D02*
X14590966Y-11702050D01*
X14590966Y-11702050D02*
X14610014Y-11692526D01*
X14800490Y-11692526D02*
X14819538Y-11692526D01*
X14819538Y-11692526D02*
X14838586Y-11702050D01*
X14838586Y-11702050D02*
X14848109Y-11711574D01*
X14848109Y-11711574D02*
X14857633Y-11730621D01*
X14857633Y-11730621D02*
X14867157Y-11768716D01*
X14867157Y-11768716D02*
X14867157Y-11816336D01*
X14867157Y-11816336D02*
X14857633Y-11854431D01*
X14857633Y-11854431D02*
X14848109Y-11873478D01*
X14848109Y-11873478D02*
X14838586Y-11883002D01*
X14838586Y-11883002D02*
X14819538Y-11892526D01*
X14819538Y-11892526D02*
X14800490Y-11892526D01*
X14800490Y-11892526D02*
X14781443Y-11883002D01*
X14781443Y-11883002D02*
X14771919Y-11873478D01*
X14771919Y-11873478D02*
X14762395Y-11854431D01*
X14762395Y-11854431D02*
X14752871Y-11816336D01*
X14752871Y-11816336D02*
X14752871Y-11768716D01*
X14752871Y-11768716D02*
X14762395Y-11730621D01*
X14762395Y-11730621D02*
X14771919Y-11711574D01*
X14771919Y-11711574D02*
X14781443Y-11702050D01*
X14781443Y-11702050D02*
X14800490Y-11692526D01*
X14952871Y-11892526D02*
X14952871Y-11759193D01*
X14952871Y-11778240D02*
X14962395Y-11768716D01*
X14962395Y-11768716D02*
X14981443Y-11759193D01*
X14981443Y-11759193D02*
X15010014Y-11759193D01*
X15010014Y-11759193D02*
X15029062Y-11768716D01*
X15029062Y-11768716D02*
X15038586Y-11787764D01*
X15038586Y-11787764D02*
X15038586Y-11892526D01*
X15038586Y-11787764D02*
X15048109Y-11768716D01*
X15048109Y-11768716D02*
X15067157Y-11759193D01*
X15067157Y-11759193D02*
X15095728Y-11759193D01*
X15095728Y-11759193D02*
X15114776Y-11768716D01*
X15114776Y-11768716D02*
X15124300Y-11787764D01*
X15124300Y-11787764D02*
X15124300Y-11892526D01*
X15219538Y-11892526D02*
X15219538Y-11759193D01*
X15219538Y-11778240D02*
X15229062Y-11768716D01*
X15229062Y-11768716D02*
X15248109Y-11759193D01*
X15248109Y-11759193D02*
X15276681Y-11759193D01*
X15276681Y-11759193D02*
X15295728Y-11768716D01*
X15295728Y-11768716D02*
X15305252Y-11787764D01*
X15305252Y-11787764D02*
X15305252Y-11892526D01*
X15305252Y-11787764D02*
X15314776Y-11768716D01*
X15314776Y-11768716D02*
X15333824Y-11759193D01*
X15333824Y-11759193D02*
X15362395Y-11759193D01*
X15362395Y-11759193D02*
X15381443Y-11768716D01*
X15381443Y-11768716D02*
X15390967Y-11787764D01*
X15390967Y-11787764D02*
X15390967Y-11892526D01*
X15781443Y-11683002D02*
X15610014Y-11940145D01*
X16038586Y-11692526D02*
X16057633Y-11692526D01*
X16057633Y-11692526D02*
X16076681Y-11702050D01*
X16076681Y-11702050D02*
X16086205Y-11711574D01*
X16086205Y-11711574D02*
X16095729Y-11730621D01*
X16095729Y-11730621D02*
X16105252Y-11768716D01*
X16105252Y-11768716D02*
X16105252Y-11816336D01*
X16105252Y-11816336D02*
X16095729Y-11854431D01*
X16095729Y-11854431D02*
X16086205Y-11873478D01*
X16086205Y-11873478D02*
X16076681Y-11883002D01*
X16076681Y-11883002D02*
X16057633Y-11892526D01*
X16057633Y-11892526D02*
X16038586Y-11892526D01*
X16038586Y-11892526D02*
X16019538Y-11883002D01*
X16019538Y-11883002D02*
X16010014Y-11873478D01*
X16010014Y-11873478D02*
X16000490Y-11854431D01*
X16000490Y-11854431D02*
X15990967Y-11816336D01*
X15990967Y-11816336D02*
X15990967Y-11768716D01*
X15990967Y-11768716D02*
X16000490Y-11730621D01*
X16000490Y-11730621D02*
X16010014Y-11711574D01*
X16010014Y-11711574D02*
X16019538Y-11702050D01*
X16019538Y-11702050D02*
X16038586Y-11692526D01*
X16190967Y-11873478D02*
X16200490Y-11883002D01*
X16200490Y-11883002D02*
X16190967Y-11892526D01*
X16190967Y-11892526D02*
X16181443Y-11883002D01*
X16181443Y-11883002D02*
X16190967Y-11873478D01*
X16190967Y-11873478D02*
X16190967Y-11892526D01*
X16324300Y-11692526D02*
X16343348Y-11692526D01*
X16343348Y-11692526D02*
X16362395Y-11702050D01*
X16362395Y-11702050D02*
X16371919Y-11711574D01*
X16371919Y-11711574D02*
X16381443Y-11730621D01*
X16381443Y-11730621D02*
X16390967Y-11768716D01*
X16390967Y-11768716D02*
X16390967Y-11816336D01*
X16390967Y-11816336D02*
X16381443Y-11854431D01*
X16381443Y-11854431D02*
X16371919Y-11873478D01*
X16371919Y-11873478D02*
X16362395Y-11883002D01*
X16362395Y-11883002D02*
X16343348Y-11892526D01*
X16343348Y-11892526D02*
X16324300Y-11892526D01*
X16324300Y-11892526D02*
X16305252Y-11883002D01*
X16305252Y-11883002D02*
X16295729Y-11873478D01*
X16295729Y-11873478D02*
X16286205Y-11854431D01*
X16286205Y-11854431D02*
X16276681Y-11816336D01*
X16276681Y-11816336D02*
X16276681Y-11768716D01*
X16276681Y-11768716D02*
X16286205Y-11730621D01*
X16286205Y-11730621D02*
X16295729Y-11711574D01*
X16295729Y-11711574D02*
X16305252Y-11702050D01*
X16305252Y-11702050D02*
X16324300Y-11692526D01*
X16581443Y-11892526D02*
X16467157Y-11892526D01*
X16524300Y-11892526D02*
X16524300Y-11692526D01*
X16524300Y-11692526D02*
X16505252Y-11721097D01*
X16505252Y-11721097D02*
X16486205Y-11740145D01*
X16486205Y-11740145D02*
X16467157Y-11749669D01*
X16676681Y-11892526D02*
X16714776Y-11892526D01*
X16714776Y-11892526D02*
X16733824Y-11883002D01*
X16733824Y-11883002D02*
X16743348Y-11873478D01*
X16743348Y-11873478D02*
X16762395Y-11844907D01*
X16762395Y-11844907D02*
X16771919Y-11806812D01*
X16771919Y-11806812D02*
X16771919Y-11730621D01*
X16771919Y-11730621D02*
X16762395Y-11711574D01*
X16762395Y-11711574D02*
X16752871Y-11702050D01*
X16752871Y-11702050D02*
X16733824Y-11692526D01*
X16733824Y-11692526D02*
X16695729Y-11692526D01*
X16695729Y-11692526D02*
X16676681Y-11702050D01*
X16676681Y-11702050D02*
X16667157Y-11711574D01*
X16667157Y-11711574D02*
X16657633Y-11730621D01*
X16657633Y-11730621D02*
X16657633Y-11778240D01*
X16657633Y-11778240D02*
X16667157Y-11797288D01*
X16667157Y-11797288D02*
X16676681Y-11806812D01*
X16676681Y-11806812D02*
X16695729Y-11816336D01*
X16695729Y-11816336D02*
X16733824Y-11816336D01*
X16733824Y-11816336D02*
X16752871Y-11806812D01*
X16752871Y-11806812D02*
X16762395Y-11797288D01*
X16762395Y-11797288D02*
X16771919Y-11778240D01*
X16838586Y-11692526D02*
X16971919Y-11692526D01*
X16971919Y-11692526D02*
X16886205Y-11892526D01*
X17038586Y-11692526D02*
X17038586Y-11730621D01*
X17114776Y-11692526D02*
X17114776Y-11730621D01*
X17410015Y-11968716D02*
X17400491Y-11959193D01*
X17400491Y-11959193D02*
X17381443Y-11930621D01*
X17381443Y-11930621D02*
X17371919Y-11911574D01*
X17371919Y-11911574D02*
X17362395Y-11883002D01*
X17362395Y-11883002D02*
X17352872Y-11835383D01*
X17352872Y-11835383D02*
X17352872Y-11797288D01*
X17352872Y-11797288D02*
X17362395Y-11749669D01*
X17362395Y-11749669D02*
X17371919Y-11721097D01*
X17371919Y-11721097D02*
X17381443Y-11702050D01*
X17381443Y-11702050D02*
X17400491Y-11673478D01*
X17400491Y-11673478D02*
X17410015Y-11663955D01*
X17571919Y-11759193D02*
X17571919Y-11892526D01*
X17524300Y-11683002D02*
X17476681Y-11825859D01*
X17476681Y-11825859D02*
X17600491Y-11825859D01*
X17762395Y-11759193D02*
X17762395Y-11892526D01*
X17714776Y-11683002D02*
X17667157Y-11825859D01*
X17667157Y-11825859D02*
X17790967Y-11825859D01*
X18019538Y-11892526D02*
X18019538Y-11692526D01*
X18105253Y-11892526D02*
X18105253Y-11787764D01*
X18105253Y-11787764D02*
X18095729Y-11768716D01*
X18095729Y-11768716D02*
X18076681Y-11759193D01*
X18076681Y-11759193D02*
X18048110Y-11759193D01*
X18048110Y-11759193D02*
X18029062Y-11768716D01*
X18029062Y-11768716D02*
X18019538Y-11778240D01*
X18229062Y-11892526D02*
X18210015Y-11883002D01*
X18210015Y-11883002D02*
X18200491Y-11873478D01*
X18200491Y-11873478D02*
X18190967Y-11854431D01*
X18190967Y-11854431D02*
X18190967Y-11797288D01*
X18190967Y-11797288D02*
X18200491Y-11778240D01*
X18200491Y-11778240D02*
X18210015Y-11768716D01*
X18210015Y-11768716D02*
X18229062Y-11759193D01*
X18229062Y-11759193D02*
X18257634Y-11759193D01*
X18257634Y-11759193D02*
X18276681Y-11768716D01*
X18276681Y-11768716D02*
X18286205Y-11778240D01*
X18286205Y-11778240D02*
X18295729Y-11797288D01*
X18295729Y-11797288D02*
X18295729Y-11854431D01*
X18295729Y-11854431D02*
X18286205Y-11873478D01*
X18286205Y-11873478D02*
X18276681Y-11883002D01*
X18276681Y-11883002D02*
X18257634Y-11892526D01*
X18257634Y-11892526D02*
X18229062Y-11892526D01*
X18410015Y-11892526D02*
X18390967Y-11883002D01*
X18390967Y-11883002D02*
X18381443Y-11863955D01*
X18381443Y-11863955D02*
X18381443Y-11692526D01*
X18562396Y-11883002D02*
X18543348Y-11892526D01*
X18543348Y-11892526D02*
X18505253Y-11892526D01*
X18505253Y-11892526D02*
X18486205Y-11883002D01*
X18486205Y-11883002D02*
X18476681Y-11863955D01*
X18476681Y-11863955D02*
X18476681Y-11787764D01*
X18476681Y-11787764D02*
X18486205Y-11768716D01*
X18486205Y-11768716D02*
X18505253Y-11759193D01*
X18505253Y-11759193D02*
X18543348Y-11759193D01*
X18543348Y-11759193D02*
X18562396Y-11768716D01*
X18562396Y-11768716D02*
X18571919Y-11787764D01*
X18571919Y-11787764D02*
X18571919Y-11806812D01*
X18571919Y-11806812D02*
X18476681Y-11825859D01*
X18648110Y-11883002D02*
X18667157Y-11892526D01*
X18667157Y-11892526D02*
X18705253Y-11892526D01*
X18705253Y-11892526D02*
X18724300Y-11883002D01*
X18724300Y-11883002D02*
X18733824Y-11863955D01*
X18733824Y-11863955D02*
X18733824Y-11854431D01*
X18733824Y-11854431D02*
X18724300Y-11835383D01*
X18724300Y-11835383D02*
X18705253Y-11825859D01*
X18705253Y-11825859D02*
X18676681Y-11825859D01*
X18676681Y-11825859D02*
X18657634Y-11816336D01*
X18657634Y-11816336D02*
X18648110Y-11797288D01*
X18648110Y-11797288D02*
X18648110Y-11787764D01*
X18648110Y-11787764D02*
X18657634Y-11768716D01*
X18657634Y-11768716D02*
X18676681Y-11759193D01*
X18676681Y-11759193D02*
X18705253Y-11759193D01*
X18705253Y-11759193D02*
X18724300Y-11768716D01*
X18800491Y-11968716D02*
X18810015Y-11959193D01*
X18810015Y-11959193D02*
X18829062Y-11930621D01*
X18829062Y-11930621D02*
X18838586Y-11911574D01*
X18838586Y-11911574D02*
X18848110Y-11883002D01*
X18848110Y-11883002D02*
X18857634Y-11835383D01*
X18857634Y-11835383D02*
X18857634Y-11797288D01*
X18857634Y-11797288D02*
X18848110Y-11749669D01*
X18848110Y-11749669D02*
X18838586Y-11721097D01*
X18838586Y-11721097D02*
X18829062Y-11702050D01*
X18829062Y-11702050D02*
X18810015Y-11673478D01*
X18810015Y-11673478D02*
X18800491Y-11663955D01*
M02*
