%TF.GenerationSoftware,KiCad,Pcbnew,8.0.6*%
%TF.CreationDate,2024-11-06T22:11:36-05:00*%
%TF.ProjectId,CPLD Replacement,43504c44-2052-4657-906c-6163656d656e,rev?*%
%TF.SameCoordinates,Original*%
%TF.FileFunction,Legend,Bot*%
%TF.FilePolarity,Positive*%
%FSLAX46Y46*%
G04 Gerber Fmt 4.6, Leading zero omitted, Abs format (unit mm)*
G04 Created by KiCad (PCBNEW 8.0.6) date 2024-11-06 22:11:36*
%MOMM*%
%LPD*%
G01*
G04 APERTURE LIST*
%ADD10C,0.152000*%
G04 APERTURE END LIST*
D10*
G36*
X149842788Y-89612992D02*
G01*
X149916088Y-89631655D01*
X149969984Y-89655668D01*
X150031859Y-89698700D01*
X150079670Y-89750357D01*
X150116856Y-89813738D01*
X150122552Y-89826905D01*
X150142628Y-89898244D01*
X150148729Y-89973107D01*
X150148729Y-90760057D01*
X150148605Y-90771721D01*
X150140761Y-90847435D01*
X150116856Y-90921257D01*
X150082042Y-90979040D01*
X150031493Y-91032266D01*
X149984018Y-91068240D01*
X149915355Y-91101509D01*
X149858334Y-91117036D01*
X149784197Y-91124223D01*
X149768065Y-91123920D01*
X149691186Y-91113301D01*
X149620604Y-91087512D01*
X149556318Y-91046554D01*
X149430289Y-91149502D01*
X149321112Y-91019077D01*
X149453370Y-90912098D01*
X149451431Y-90908023D01*
X149428786Y-90836685D01*
X149421863Y-90759324D01*
X149421863Y-89973839D01*
X149636186Y-89973839D01*
X149636186Y-90759324D01*
X149636186Y-90763721D01*
X149724846Y-90694478D01*
X149837320Y-90824171D01*
X149737669Y-90901474D01*
X149785296Y-90909900D01*
X149821503Y-90906322D01*
X149890076Y-90873264D01*
X149920380Y-90833423D01*
X149934406Y-90759324D01*
X149934406Y-89973839D01*
X149929168Y-89925290D01*
X149890076Y-89859534D01*
X149857651Y-89838675D01*
X149784930Y-89822897D01*
X149748916Y-89826475D01*
X149680516Y-89859534D01*
X149650212Y-89899445D01*
X149636186Y-89973839D01*
X149421863Y-89973839D01*
X149421863Y-89972740D01*
X149421987Y-89961558D01*
X149429831Y-89887927D01*
X149453736Y-89813738D01*
X149487804Y-89753975D01*
X149536535Y-89698700D01*
X149585511Y-89664048D01*
X149654870Y-89631655D01*
X149711571Y-89615877D01*
X149785296Y-89608574D01*
X149842788Y-89612992D01*
G37*
G36*
X148618426Y-90057370D02*
G01*
X148618426Y-91112500D01*
X148832749Y-91112500D01*
X148832749Y-91009185D01*
X148836779Y-91009185D01*
X148886374Y-91067654D01*
X148917013Y-91091983D01*
X148985649Y-91119689D01*
X149036447Y-91124223D01*
X149110636Y-91112631D01*
X149115582Y-91111034D01*
X149180377Y-91072022D01*
X149186290Y-91066338D01*
X149228671Y-91003883D01*
X149236116Y-90986104D01*
X149252593Y-90912360D01*
X149254800Y-90866303D01*
X149254800Y-90057370D01*
X149040477Y-90057370D01*
X149040477Y-90785703D01*
X149025433Y-90858724D01*
X149013733Y-90876927D01*
X148946603Y-90909610D01*
X148937529Y-90909900D01*
X148867029Y-90887315D01*
X148855463Y-90872897D01*
X148834546Y-90801956D01*
X148832749Y-90764820D01*
X148832749Y-90057370D01*
X148618426Y-90057370D01*
G37*
G36*
X148215093Y-90050205D02*
G01*
X148286500Y-90069460D01*
X148328643Y-90089742D01*
X148388349Y-90134307D01*
X148404193Y-90151057D01*
X148445753Y-90213683D01*
X148469996Y-90286755D01*
X148477009Y-90361453D01*
X148273311Y-90361453D01*
X148269400Y-90346473D01*
X148227881Y-90285982D01*
X148221288Y-90281333D01*
X148150579Y-90259970D01*
X148132495Y-90260802D01*
X148066681Y-90294042D01*
X148058713Y-90307325D01*
X148043234Y-90379771D01*
X148043234Y-90485650D01*
X148074741Y-90479422D01*
X148100020Y-90479422D01*
X148123101Y-90479422D01*
X148146549Y-90479422D01*
X148165127Y-90479615D01*
X148238414Y-90484918D01*
X148312512Y-90501404D01*
X148357660Y-90521033D01*
X148416193Y-90567716D01*
X148446116Y-90612385D01*
X148470781Y-90682388D01*
X148472555Y-90690992D01*
X148482630Y-90766005D01*
X148485435Y-90840657D01*
X148481228Y-90911673D01*
X148463454Y-90984638D01*
X148451432Y-91010833D01*
X148405202Y-91069635D01*
X148396180Y-91077197D01*
X148330463Y-91112500D01*
X148328037Y-91113221D01*
X148253527Y-91124223D01*
X148204199Y-91120543D01*
X148132627Y-91093082D01*
X148095010Y-91060645D01*
X148047264Y-91003689D01*
X148043234Y-91003689D01*
X148043234Y-91112500D01*
X147828911Y-91112500D01*
X147828911Y-90650148D01*
X148043234Y-90650148D01*
X148043234Y-90797793D01*
X148045668Y-90832717D01*
X148074008Y-90900375D01*
X148088487Y-90914507D01*
X148159371Y-90936645D01*
X148178343Y-90935292D01*
X148241803Y-90898176D01*
X148257259Y-90871651D01*
X148271112Y-90797426D01*
X148264157Y-90739432D01*
X148221653Y-90676892D01*
X148178082Y-90655307D01*
X148102218Y-90643553D01*
X148043234Y-90650148D01*
X147828911Y-90650148D01*
X147828911Y-90378672D01*
X147834546Y-90305031D01*
X147854556Y-90232859D01*
X147875937Y-90189033D01*
X147922334Y-90128811D01*
X147957693Y-90100647D01*
X148026015Y-90066530D01*
X148079560Y-90052254D01*
X148153143Y-90045647D01*
X148215093Y-90050205D01*
G37*
G36*
X147661849Y-91112500D02*
G01*
X147661849Y-90057370D01*
X147447525Y-90057370D01*
X147447525Y-90160685D01*
X147443129Y-90160685D01*
X147393691Y-90102539D01*
X147363262Y-90078253D01*
X147294626Y-90050232D01*
X147243827Y-90045647D01*
X147169638Y-90057561D01*
X147164692Y-90059202D01*
X147099897Y-90098214D01*
X147093984Y-90103899D01*
X147051603Y-90166354D01*
X147044158Y-90184132D01*
X147027682Y-90257553D01*
X147025474Y-90303567D01*
X147025474Y-91112500D01*
X147239797Y-91112500D01*
X147239797Y-90384167D01*
X147254841Y-90311352D01*
X147266542Y-90293309D01*
X147333370Y-90260263D01*
X147342379Y-90259970D01*
X147413103Y-90282778D01*
X147424811Y-90297339D01*
X147445729Y-90367943D01*
X147447525Y-90405050D01*
X147447525Y-91112500D01*
X147661849Y-91112500D01*
G37*
G36*
X146848886Y-90057370D02*
G01*
X146848886Y-89717384D01*
X146634563Y-89717384D01*
X146634563Y-90057370D01*
X146517327Y-90057370D01*
X146517327Y-90221502D01*
X146634563Y-90221502D01*
X146634563Y-90795961D01*
X146627969Y-90853480D01*
X146606719Y-90883888D01*
X146570449Y-90896345D01*
X146517327Y-90898176D01*
X146517327Y-91112500D01*
X146601957Y-91112500D01*
X146677351Y-91104492D01*
X146719560Y-91089785D01*
X146781428Y-91046118D01*
X146794664Y-91031167D01*
X146831575Y-90964677D01*
X146836064Y-90950933D01*
X146848573Y-90877237D01*
X146848886Y-90864105D01*
X146848886Y-90221502D01*
X146962826Y-90221502D01*
X146962826Y-90057370D01*
X146848886Y-90057370D01*
G37*
G36*
X145781301Y-90057370D02*
G01*
X145781301Y-91112500D01*
X145995624Y-91112500D01*
X145995624Y-91009185D01*
X145999654Y-91009185D01*
X146049249Y-91067654D01*
X146079888Y-91091983D01*
X146148524Y-91119689D01*
X146199322Y-91124223D01*
X146273511Y-91112631D01*
X146278457Y-91111034D01*
X146343252Y-91072022D01*
X146349165Y-91066338D01*
X146391546Y-91003883D01*
X146398991Y-90986104D01*
X146415468Y-90912360D01*
X146417676Y-90866303D01*
X146417676Y-90057370D01*
X146203352Y-90057370D01*
X146203352Y-90785703D01*
X146188309Y-90858724D01*
X146176608Y-90876927D01*
X146109478Y-90909610D01*
X146100404Y-90909900D01*
X146029904Y-90887315D01*
X146018338Y-90872897D01*
X145997421Y-90801956D01*
X145995624Y-90764820D01*
X145995624Y-90057370D01*
X145781301Y-90057370D01*
G37*
G36*
X145601416Y-91112500D02*
G01*
X145601416Y-90057370D01*
X145387093Y-90057370D01*
X145387093Y-90160685D01*
X145382696Y-90160685D01*
X145333259Y-90102539D01*
X145302829Y-90078253D01*
X145234193Y-90050232D01*
X145183394Y-90045647D01*
X145110046Y-90057529D01*
X145069089Y-90079352D01*
X145014085Y-90128137D01*
X144994350Y-90152259D01*
X144938947Y-90100244D01*
X144907156Y-90077154D01*
X144837295Y-90050847D01*
X144774165Y-90045647D01*
X144700644Y-90056780D01*
X144692833Y-90059202D01*
X144628613Y-90094596D01*
X144618094Y-90103899D01*
X144573605Y-90163513D01*
X144563872Y-90184132D01*
X144545457Y-90257553D01*
X144542990Y-90303567D01*
X144542990Y-91112500D01*
X144757313Y-91112500D01*
X144757313Y-90384167D01*
X144772356Y-90311352D01*
X144784057Y-90293309D01*
X144851187Y-90260263D01*
X144860261Y-90259970D01*
X144930985Y-90282778D01*
X144942693Y-90297339D01*
X144963273Y-90367943D01*
X144965041Y-90405050D01*
X144965041Y-91112500D01*
X145179364Y-91112500D01*
X145179364Y-90384167D01*
X145194408Y-90311352D01*
X145206109Y-90293309D01*
X145272938Y-90260263D01*
X145281946Y-90259970D01*
X145352670Y-90282778D01*
X145364378Y-90297339D01*
X145385296Y-90367943D01*
X145387093Y-90405050D01*
X145387093Y-91112500D01*
X145601416Y-91112500D01*
G37*
G36*
X144128632Y-90244949D02*
G01*
X144052028Y-90239958D01*
X143996740Y-90222234D01*
X143962394Y-90154365D01*
X143960104Y-90116721D01*
X143960104Y-89926212D01*
X143984898Y-89855522D01*
X143988314Y-89851840D01*
X144058231Y-89823010D01*
X144064151Y-89822897D01*
X144133955Y-89846357D01*
X144144019Y-89858435D01*
X144167833Y-89926212D01*
X144167833Y-90046379D01*
X144382156Y-90046379D01*
X144382156Y-89923647D01*
X144373373Y-89848967D01*
X144357243Y-89800549D01*
X144320637Y-89737010D01*
X144288000Y-89700532D01*
X144227321Y-89654908D01*
X144185418Y-89633853D01*
X144112838Y-89612746D01*
X144059755Y-89608574D01*
X143984005Y-89616141D01*
X143914308Y-89643012D01*
X143853114Y-89686346D01*
X143827114Y-89712622D01*
X143790844Y-89762814D01*
X143764465Y-89822897D01*
X143751693Y-89895857D01*
X143746675Y-89970990D01*
X143745781Y-90026962D01*
X143745781Y-90100539D01*
X143745781Y-90151892D01*
X143756312Y-90224677D01*
X143758604Y-90230661D01*
X143801468Y-90287081D01*
X143862085Y-90328281D01*
X143876573Y-90336540D01*
X143815185Y-90380087D01*
X143798171Y-90395891D01*
X143758604Y-90458906D01*
X143746094Y-90532853D01*
X143745781Y-90548665D01*
X143745781Y-90624084D01*
X143745781Y-90680190D01*
X143745781Y-90755151D01*
X143745781Y-90802555D01*
X143750896Y-90876367D01*
X143752009Y-90882423D01*
X143768862Y-90939209D01*
X143796339Y-90987203D01*
X143845362Y-91044473D01*
X143898921Y-91085389D01*
X143971095Y-91114515D01*
X144044303Y-91123882D01*
X144063052Y-91124223D01*
X144139137Y-91115706D01*
X144170763Y-91107737D01*
X144238054Y-91078370D01*
X144274445Y-91052782D01*
X144326451Y-90996139D01*
X144351747Y-90953497D01*
X144375474Y-90880839D01*
X144382156Y-90804021D01*
X144382156Y-90681655D01*
X144167833Y-90681655D01*
X144167833Y-90793763D01*
X144148010Y-90866560D01*
X144139989Y-90877294D01*
X144072973Y-90909613D01*
X144064151Y-90909900D01*
X143993712Y-90883121D01*
X143988314Y-90877294D01*
X143961096Y-90809201D01*
X143960104Y-90789366D01*
X143960104Y-90574310D01*
X143968439Y-90500854D01*
X143993443Y-90457807D01*
X144044368Y-90436924D01*
X144119051Y-90432566D01*
X144128632Y-90432527D01*
X144128632Y-90244949D01*
G37*
G36*
X143577620Y-91112500D02*
G01*
X143283796Y-91112500D01*
X143205474Y-91107714D01*
X143126311Y-91090523D01*
X143058184Y-91060830D01*
X142994734Y-91012482D01*
X142976794Y-90992753D01*
X142937582Y-90930603D01*
X142910918Y-90854577D01*
X142897879Y-90776671D01*
X142894350Y-90701439D01*
X142894350Y-90007545D01*
X143108673Y-90007545D01*
X143108673Y-90714628D01*
X143114659Y-90783381D01*
X143144943Y-90853846D01*
X143193945Y-90887094D01*
X143268408Y-90898176D01*
X143363297Y-90898176D01*
X143363297Y-89826195D01*
X143268408Y-89826195D01*
X143208199Y-89832892D01*
X143143112Y-89873822D01*
X143117283Y-89930883D01*
X143108673Y-90007545D01*
X142894350Y-90007545D01*
X142894350Y-89999485D01*
X142897673Y-89932930D01*
X142912442Y-89853406D01*
X142943181Y-89776531D01*
X142988872Y-89712988D01*
X143041423Y-89668750D01*
X143113625Y-89634089D01*
X143189433Y-89616710D01*
X143264745Y-89611871D01*
X143577620Y-89611871D01*
X143577620Y-91112500D01*
G37*
G36*
X149319620Y-92132992D02*
G01*
X149392920Y-92151655D01*
X149446816Y-92175668D01*
X149508691Y-92218700D01*
X149556502Y-92270357D01*
X149593688Y-92333738D01*
X149599384Y-92346905D01*
X149619460Y-92418244D01*
X149625561Y-92493107D01*
X149625561Y-93280057D01*
X149625437Y-93291721D01*
X149617593Y-93367435D01*
X149593688Y-93441257D01*
X149559137Y-93499040D01*
X149508691Y-93552266D01*
X149461287Y-93588240D01*
X149392920Y-93621509D01*
X149335969Y-93637036D01*
X149262128Y-93644223D01*
X149204706Y-93639875D01*
X149131702Y-93621509D01*
X149073404Y-93594799D01*
X149013367Y-93552266D01*
X148969811Y-93505978D01*
X148930568Y-93441257D01*
X148924872Y-93428448D01*
X148904795Y-93357254D01*
X148898695Y-93280057D01*
X148898695Y-92493839D01*
X149113018Y-92493839D01*
X149113018Y-93279324D01*
X149118256Y-93327665D01*
X149157348Y-93393264D01*
X149189686Y-93414122D01*
X149261762Y-93429900D01*
X149298162Y-93426322D01*
X149366908Y-93393264D01*
X149397212Y-93353423D01*
X149411238Y-93279324D01*
X149411238Y-92493839D01*
X149406000Y-92445290D01*
X149366908Y-92379534D01*
X149334483Y-92358675D01*
X149261762Y-92342897D01*
X149225748Y-92346475D01*
X149157348Y-92379534D01*
X149127044Y-92419445D01*
X149113018Y-92493839D01*
X148898695Y-92493839D01*
X148898695Y-92493107D01*
X148898819Y-92481922D01*
X148906663Y-92408202D01*
X148930568Y-92333738D01*
X148964636Y-92273975D01*
X149013367Y-92218700D01*
X149062343Y-92184048D01*
X149131702Y-92151655D01*
X149188403Y-92135877D01*
X149262128Y-92128574D01*
X149319620Y-92132992D01*
G37*
G36*
X148731632Y-93632500D02*
G01*
X148517309Y-93632500D01*
X148517309Y-93535413D01*
X148492365Y-93562833D01*
X148435976Y-93613082D01*
X148388771Y-93635434D01*
X148315809Y-93644223D01*
X148254901Y-93637995D01*
X148181743Y-93605297D01*
X148130429Y-93544572D01*
X148122888Y-93528253D01*
X148103684Y-93457377D01*
X148097109Y-93392358D01*
X148095258Y-93318159D01*
X148095258Y-92916990D01*
X148095281Y-92903801D01*
X148309581Y-92903801D01*
X148309581Y-93287384D01*
X148311115Y-93317884D01*
X148334127Y-93390699D01*
X148342505Y-93401992D01*
X148412163Y-93429900D01*
X148423692Y-93429339D01*
X148488367Y-93393996D01*
X148501029Y-93374533D01*
X148517309Y-93300207D01*
X148517309Y-92893176D01*
X148516840Y-92881172D01*
X148487267Y-92812210D01*
X148481503Y-92806448D01*
X148412163Y-92779970D01*
X148397915Y-92780548D01*
X148331196Y-92816973D01*
X148323850Y-92831299D01*
X148309581Y-92903801D01*
X148095281Y-92903801D01*
X148095282Y-92902980D01*
X148096626Y-92823213D01*
X148101486Y-92748463D01*
X148103790Y-92732134D01*
X148128597Y-92661268D01*
X148142977Y-92641461D01*
X148198206Y-92592758D01*
X148241984Y-92574225D01*
X148317641Y-92565647D01*
X148358901Y-92568980D01*
X148429016Y-92593857D01*
X148463654Y-92618466D01*
X148512913Y-92674823D01*
X148517309Y-92674823D01*
X148517309Y-92131871D01*
X148731632Y-92131871D01*
X148731632Y-93632500D01*
G37*
G36*
X147543513Y-92883651D02*
G01*
X147564831Y-92812885D01*
X147571357Y-92805982D01*
X147634738Y-92779970D01*
X147701050Y-92811844D01*
X147724474Y-92881828D01*
X147724497Y-92884384D01*
X147709842Y-92940437D01*
X147649696Y-92984596D01*
X147635471Y-92990263D01*
X147512006Y-93039722D01*
X147445659Y-93070877D01*
X147384935Y-93116765D01*
X147350073Y-93162088D01*
X147319769Y-93232853D01*
X147306435Y-93309229D01*
X147305743Y-93332081D01*
X147314396Y-93406115D01*
X147330289Y-93453347D01*
X147367841Y-93518434D01*
X147396967Y-93552266D01*
X147457131Y-93599006D01*
X147499549Y-93620043D01*
X147573903Y-93640233D01*
X147629242Y-93644223D01*
X147707488Y-93636102D01*
X147777362Y-93611737D01*
X147838864Y-93571129D01*
X147850160Y-93561058D01*
X147899762Y-93502211D01*
X147923066Y-93459209D01*
X147944506Y-93388516D01*
X147950544Y-93316693D01*
X147735488Y-93316693D01*
X147711624Y-93387216D01*
X147707644Y-93393996D01*
X147643090Y-93429339D01*
X147629609Y-93429900D01*
X147560165Y-93405528D01*
X147553771Y-93400225D01*
X147520889Y-93333455D01*
X147520066Y-93317426D01*
X147541383Y-93245722D01*
X147542780Y-93243787D01*
X147604361Y-93199341D01*
X147625579Y-93190664D01*
X147726329Y-93154028D01*
X147794816Y-93121501D01*
X147855522Y-93074869D01*
X147882400Y-93044851D01*
X147918930Y-92980712D01*
X147936837Y-92906174D01*
X147938820Y-92868264D01*
X147930037Y-92793746D01*
X147913907Y-92746631D01*
X147875468Y-92682259D01*
X147845397Y-92649544D01*
X147784907Y-92604374D01*
X147748311Y-92587262D01*
X147674952Y-92568686D01*
X147627777Y-92565647D01*
X147554565Y-92574042D01*
X147508342Y-92589460D01*
X147442999Y-92628763D01*
X147414187Y-92655772D01*
X147371310Y-92715965D01*
X147351905Y-92757988D01*
X147332939Y-92830745D01*
X147329190Y-92883651D01*
X147543513Y-92883651D01*
G37*
G36*
X147176782Y-93632500D02*
G01*
X147176782Y-92577370D01*
X146962459Y-92577370D01*
X146962459Y-93632500D01*
X147176782Y-93632500D01*
G37*
G36*
X147176782Y-92346195D02*
G01*
X147176782Y-92131871D01*
X146962459Y-92131871D01*
X146962459Y-92346195D01*
X147176782Y-92346195D01*
G37*
G36*
X146364919Y-92674823D02*
G01*
X146391205Y-92641454D01*
X146450282Y-92593857D01*
X146489059Y-92576666D01*
X146562390Y-92565647D01*
X146612580Y-92568850D01*
X146682191Y-92592758D01*
X146711888Y-92614083D01*
X146758469Y-92672747D01*
X146780743Y-92748463D01*
X146782202Y-92763037D01*
X146786095Y-92839882D01*
X146786971Y-92916990D01*
X146786971Y-93318159D01*
X146785580Y-93383377D01*
X146778544Y-93457377D01*
X146775670Y-93473127D01*
X146751800Y-93544572D01*
X146711378Y-93597122D01*
X146641998Y-93634492D01*
X146566786Y-93644223D01*
X146497909Y-93636163D01*
X146445886Y-93613082D01*
X146404120Y-93579377D01*
X146364919Y-93536878D01*
X146364919Y-93632500D01*
X146150596Y-93632500D01*
X146150596Y-92893909D01*
X146364919Y-92893909D01*
X146364919Y-93302772D01*
X146366304Y-93327062D01*
X146393862Y-93396927D01*
X146401298Y-93405428D01*
X146469699Y-93433197D01*
X146482625Y-93432585D01*
X146548101Y-93393996D01*
X146562077Y-93363850D01*
X146572648Y-93289949D01*
X146572648Y-92904167D01*
X146572120Y-92888910D01*
X146551032Y-92817339D01*
X146539752Y-92802778D01*
X146469699Y-92779970D01*
X146461385Y-92780253D01*
X146394961Y-92812210D01*
X146386306Y-92822705D01*
X146364919Y-92893909D01*
X146150596Y-92893909D01*
X146150596Y-92131871D01*
X146364919Y-92131871D01*
X146364919Y-92674823D01*
G37*
G36*
X145970711Y-93632500D02*
G01*
X145970711Y-92577370D01*
X145756388Y-92577370D01*
X145756388Y-93632500D01*
X145970711Y-93632500D01*
G37*
G36*
X145970711Y-92346195D02*
G01*
X145970711Y-92131871D01*
X145756388Y-92131871D01*
X145756388Y-92346195D01*
X145970711Y-92346195D01*
G37*
G36*
X145357452Y-92570205D02*
G01*
X145428859Y-92589460D01*
X145471002Y-92609742D01*
X145530708Y-92654307D01*
X145546552Y-92671057D01*
X145588112Y-92733683D01*
X145612355Y-92806755D01*
X145619368Y-92881453D01*
X145415669Y-92881453D01*
X145411759Y-92866473D01*
X145370240Y-92805982D01*
X145363647Y-92801333D01*
X145292937Y-92779970D01*
X145274854Y-92780802D01*
X145209040Y-92814042D01*
X145201072Y-92827325D01*
X145185593Y-92899771D01*
X145185593Y-93005650D01*
X145217100Y-92999422D01*
X145242379Y-92999422D01*
X145265460Y-92999422D01*
X145288907Y-92999422D01*
X145307486Y-92999615D01*
X145380773Y-93004918D01*
X145454870Y-93021404D01*
X145500019Y-93041033D01*
X145558551Y-93087716D01*
X145588475Y-93132385D01*
X145613140Y-93202388D01*
X145614914Y-93210992D01*
X145624989Y-93286005D01*
X145627794Y-93360657D01*
X145623587Y-93431673D01*
X145605812Y-93504638D01*
X145593791Y-93530833D01*
X145547561Y-93589635D01*
X145538539Y-93597197D01*
X145472822Y-93632500D01*
X145470396Y-93633221D01*
X145395886Y-93644223D01*
X145346558Y-93640543D01*
X145274986Y-93613082D01*
X145237369Y-93580645D01*
X145189623Y-93523689D01*
X145185593Y-93523689D01*
X145185593Y-93632500D01*
X144971270Y-93632500D01*
X144971270Y-93170148D01*
X145185593Y-93170148D01*
X145185593Y-93317793D01*
X145188027Y-93352717D01*
X145216367Y-93420375D01*
X145230845Y-93434507D01*
X145301730Y-93456645D01*
X145320702Y-93455292D01*
X145384162Y-93418176D01*
X145399618Y-93391651D01*
X145413471Y-93317426D01*
X145406516Y-93259432D01*
X145364012Y-93196892D01*
X145320440Y-93175307D01*
X145244577Y-93163553D01*
X145185593Y-93170148D01*
X144971270Y-93170148D01*
X144971270Y-92898672D01*
X144976905Y-92825031D01*
X144996915Y-92752859D01*
X145018296Y-92709033D01*
X145064692Y-92648811D01*
X145100052Y-92620647D01*
X145168374Y-92586530D01*
X145221919Y-92572254D01*
X145295502Y-92565647D01*
X145357452Y-92570205D01*
G37*
G36*
X144804207Y-93632500D02*
G01*
X144804207Y-92577370D01*
X144589884Y-92577370D01*
X144589884Y-92680685D01*
X144585488Y-92680685D01*
X144536050Y-92622539D01*
X144505621Y-92598253D01*
X144436985Y-92570232D01*
X144386186Y-92565647D01*
X144311997Y-92577561D01*
X144307051Y-92579202D01*
X144242256Y-92618214D01*
X144236343Y-92623899D01*
X144193962Y-92686354D01*
X144186517Y-92704132D01*
X144170041Y-92777553D01*
X144167833Y-92823567D01*
X144167833Y-93632500D01*
X144382156Y-93632500D01*
X144382156Y-92904167D01*
X144397200Y-92831352D01*
X144408900Y-92813309D01*
X144475729Y-92780263D01*
X144484738Y-92779970D01*
X144555461Y-92802778D01*
X144567170Y-92817339D01*
X144588088Y-92887943D01*
X144589884Y-92925050D01*
X144589884Y-93632500D01*
X144804207Y-93632500D01*
G37*
G36*
X144011395Y-93632500D02*
G01*
X144011395Y-93430633D01*
X143626713Y-92704865D01*
X143598692Y-92636717D01*
X143593740Y-92609977D01*
X143589554Y-92534012D01*
X143589344Y-92508494D01*
X143589344Y-92450975D01*
X143599968Y-92397486D01*
X143631475Y-92359017D01*
X143692292Y-92342897D01*
X143763396Y-92365464D01*
X143768862Y-92370375D01*
X143796824Y-92440275D01*
X143797072Y-92449876D01*
X143797072Y-92571142D01*
X144011395Y-92571142D01*
X144011395Y-92453906D01*
X144003513Y-92380850D01*
X143986482Y-92327876D01*
X143949876Y-92263304D01*
X143917240Y-92224928D01*
X143858450Y-92177158D01*
X143816856Y-92154952D01*
X143744276Y-92132928D01*
X143691193Y-92128574D01*
X143617852Y-92135256D01*
X143547578Y-92158982D01*
X143486656Y-92200147D01*
X143447927Y-92241781D01*
X143410526Y-92309160D01*
X143392972Y-92361215D01*
X143378965Y-92434725D01*
X143375020Y-92503365D01*
X143375020Y-92577353D01*
X143375020Y-92594223D01*
X143381249Y-92664565D01*
X143402498Y-92731610D01*
X143434888Y-92798660D01*
X143442431Y-92813309D01*
X143759337Y-93418176D01*
X143375020Y-93418176D01*
X143375020Y-93632500D01*
X144011395Y-93632500D01*
G37*
G36*
X150147630Y-96152500D02*
G01*
X149845379Y-95366282D01*
X150124549Y-94651871D01*
X149897769Y-94651871D01*
X149736202Y-95096638D01*
X149572438Y-94651871D01*
X149345658Y-94651871D01*
X149631056Y-95366282D01*
X149322577Y-96152500D01*
X149549357Y-96152500D01*
X149736202Y-95646550D01*
X149920850Y-96152500D01*
X150147630Y-96152500D01*
G37*
G36*
X149233551Y-96152500D02*
G01*
X149233551Y-95097370D01*
X149019228Y-95097370D01*
X149019228Y-96152500D01*
X149233551Y-96152500D01*
G37*
G36*
X149233551Y-94866195D02*
G01*
X149233551Y-94651871D01*
X149019228Y-94651871D01*
X149019228Y-94866195D01*
X149233551Y-94866195D01*
G37*
G36*
X148867186Y-94651871D02*
G01*
X148652863Y-94651871D01*
X148652863Y-95849883D01*
X148638836Y-95923779D01*
X148631614Y-95933414D01*
X148561444Y-95960618D01*
X148550648Y-95961990D01*
X148550648Y-96164223D01*
X148623975Y-96160914D01*
X148681806Y-96152500D01*
X148751162Y-96128126D01*
X148781824Y-96107803D01*
X148829570Y-96051525D01*
X148845205Y-96018044D01*
X148862356Y-95946097D01*
X148867165Y-95871164D01*
X148867186Y-95865270D01*
X148867186Y-94651871D01*
G37*
G36*
X148453927Y-96152500D02*
G01*
X148453927Y-95097370D01*
X148239604Y-95097370D01*
X148239604Y-96152500D01*
X148453927Y-96152500D01*
G37*
G36*
X148453927Y-94866195D02*
G01*
X148453927Y-94651871D01*
X148239604Y-94651871D01*
X148239604Y-94866195D01*
X148453927Y-94866195D01*
G37*
G36*
X148064116Y-96152500D02*
G01*
X148064116Y-95097370D01*
X147849793Y-95097370D01*
X147849793Y-95200685D01*
X147845396Y-95200685D01*
X147795959Y-95142539D01*
X147765529Y-95118253D01*
X147696893Y-95090232D01*
X147646094Y-95085647D01*
X147571906Y-95097561D01*
X147566960Y-95099202D01*
X147502164Y-95138214D01*
X147496251Y-95143899D01*
X147453870Y-95206354D01*
X147446426Y-95224132D01*
X147429949Y-95297553D01*
X147427741Y-95343567D01*
X147427741Y-96152500D01*
X147642064Y-96152500D01*
X147642064Y-95424167D01*
X147657108Y-95351352D01*
X147668809Y-95333309D01*
X147735638Y-95300263D01*
X147744646Y-95299970D01*
X147815370Y-95322778D01*
X147827078Y-95337339D01*
X147847996Y-95407943D01*
X147849793Y-95445050D01*
X147849793Y-96152500D01*
X148064116Y-96152500D01*
G37*
G36*
X147364727Y-96152500D02*
G01*
X147102410Y-95613578D01*
X147352270Y-95097370D01*
X147125491Y-95097370D01*
X146992867Y-95397056D01*
X146860609Y-95097370D01*
X146633830Y-95097370D01*
X146888087Y-95613578D01*
X146621373Y-96152500D01*
X146848153Y-96152500D01*
X146992867Y-95830099D01*
X147137947Y-96152500D01*
X147364727Y-96152500D01*
G37*
G36*
X145478683Y-95726051D02*
G01*
X145478683Y-95818375D01*
X145486914Y-95893955D01*
X145504695Y-95949534D01*
X145539806Y-96014900D01*
X145575770Y-96059809D01*
X145632158Y-96107543D01*
X145682748Y-96136013D01*
X145754181Y-96158824D01*
X145813907Y-96164223D01*
X145890042Y-96157783D01*
X145936272Y-96147737D01*
X146005535Y-96118941D01*
X146048013Y-96089118D01*
X146098503Y-96034301D01*
X146130079Y-95981407D01*
X146152957Y-95911453D01*
X146161455Y-95837672D01*
X146161953Y-95812513D01*
X146161953Y-94991857D01*
X146155025Y-94917004D01*
X146137406Y-94855936D01*
X146102888Y-94790493D01*
X146067064Y-94747126D01*
X146006306Y-94699413D01*
X145957888Y-94674952D01*
X145887109Y-94654370D01*
X145818303Y-94648574D01*
X145738833Y-94656370D01*
X145668174Y-94679757D01*
X145599996Y-94724028D01*
X145575770Y-94747126D01*
X145530922Y-94807095D01*
X145504695Y-94861432D01*
X145484399Y-94934625D01*
X145478683Y-95005047D01*
X145478683Y-95088578D01*
X145693006Y-95088578D01*
X145693006Y-95017503D01*
X145707838Y-94942535D01*
X145727445Y-94909059D01*
X145789104Y-94866549D01*
X145820135Y-94862897D01*
X145893286Y-94880204D01*
X145922350Y-94911990D01*
X145944075Y-94983660D01*
X145947630Y-95036554D01*
X145947630Y-95797126D01*
X145937039Y-95870027D01*
X145920519Y-95905936D01*
X145858687Y-95946422D01*
X145822333Y-95949900D01*
X145779102Y-95942573D01*
X145735505Y-95918393D01*
X145705096Y-95872597D01*
X145693006Y-95799324D01*
X145693006Y-95726051D01*
X145478683Y-95726051D01*
G37*
G36*
X145307591Y-96152500D02*
G01*
X145093268Y-96152500D01*
X145093268Y-95569614D01*
X144982260Y-95569614D01*
X144931146Y-95567650D01*
X144854047Y-95555148D01*
X144785522Y-95528581D01*
X144771773Y-95520529D01*
X144710947Y-95471574D01*
X144666087Y-95412810D01*
X144635900Y-95353600D01*
X144615895Y-95282018D01*
X144613148Y-95264032D01*
X144606107Y-95187814D01*
X144604172Y-95110560D01*
X144605500Y-95046469D01*
X144607887Y-95016770D01*
X144818495Y-95016770D01*
X144818495Y-95039828D01*
X144818495Y-95113124D01*
X144818495Y-95136390D01*
X144818495Y-95212042D01*
X144818511Y-95214799D01*
X144835348Y-95286781D01*
X144888470Y-95337339D01*
X144916617Y-95347560D01*
X144989587Y-95355291D01*
X145093268Y-95355291D01*
X145093268Y-94866195D01*
X144981893Y-94866195D01*
X144959431Y-94866839D01*
X144885906Y-94884513D01*
X144835348Y-94936903D01*
X144832336Y-94943457D01*
X144818495Y-95016770D01*
X144607887Y-95016770D01*
X144611663Y-94969784D01*
X144625421Y-94896236D01*
X144628166Y-94886379D01*
X144657328Y-94817557D01*
X144701625Y-94757751D01*
X144756306Y-94710079D01*
X144825089Y-94675319D01*
X144833646Y-94672479D01*
X144908178Y-94656359D01*
X144982260Y-94651871D01*
X145307591Y-94651871D01*
X145307591Y-96152500D01*
G37*
G36*
X144453230Y-96152500D02*
G01*
X144453230Y-94651871D01*
X144238907Y-94651871D01*
X144238907Y-95938176D01*
X143820152Y-95938176D01*
X143820152Y-96152500D01*
X144453230Y-96152500D01*
G37*
G36*
X143676537Y-96152500D02*
G01*
X143382713Y-96152500D01*
X143304392Y-96147714D01*
X143225228Y-96130523D01*
X143157102Y-96100830D01*
X143093652Y-96052482D01*
X143075712Y-96032753D01*
X143036500Y-95970603D01*
X143009835Y-95894577D01*
X142996797Y-95816671D01*
X142993268Y-95741439D01*
X142993268Y-95047545D01*
X143207591Y-95047545D01*
X143207591Y-95754628D01*
X143213577Y-95823381D01*
X143243861Y-95893846D01*
X143292862Y-95927094D01*
X143367326Y-95938176D01*
X143462214Y-95938176D01*
X143462214Y-94866195D01*
X143367326Y-94866195D01*
X143307116Y-94872892D01*
X143242029Y-94913822D01*
X143216201Y-94970883D01*
X143207591Y-95047545D01*
X142993268Y-95047545D01*
X142993268Y-95039485D01*
X142996591Y-94972930D01*
X143011360Y-94893406D01*
X143042098Y-94816531D01*
X143087790Y-94752988D01*
X143140340Y-94708750D01*
X143212542Y-94674089D01*
X143288351Y-94656710D01*
X143363662Y-94651871D01*
X143676537Y-94651871D01*
X143676537Y-96152500D01*
G37*
G36*
X150651380Y-98672500D02*
G01*
X150437057Y-98672500D01*
X150437057Y-98039422D01*
X150306998Y-98039422D01*
X150105131Y-98672500D01*
X149878352Y-98672500D01*
X150109527Y-97995825D01*
X150061923Y-97964798D01*
X150005028Y-97909758D01*
X149965546Y-97844516D01*
X149942185Y-97775317D01*
X149928521Y-97696681D01*
X149924606Y-97618836D01*
X150138837Y-97618836D01*
X150139152Y-97643031D01*
X150145431Y-97718853D01*
X150168512Y-97791027D01*
X150222001Y-97836090D01*
X150240503Y-97842982D01*
X150313592Y-97851844D01*
X150437057Y-97851844D01*
X150437057Y-97386195D01*
X150323851Y-97386195D01*
X150303393Y-97386713D01*
X150229329Y-97400941D01*
X150170710Y-97445179D01*
X150168379Y-97449119D01*
X150145431Y-97519551D01*
X150142243Y-97544735D01*
X150138837Y-97618836D01*
X149924606Y-97618836D01*
X149924514Y-97617004D01*
X149927856Y-97537454D01*
X149942711Y-97443559D01*
X149969450Y-97363574D01*
X150008072Y-97297500D01*
X150073063Y-97234468D01*
X150138424Y-97199692D01*
X150215670Y-97178827D01*
X150304800Y-97171871D01*
X150651380Y-97171871D01*
X150651380Y-98672500D01*
G37*
G36*
X149487521Y-97606299D02*
G01*
X149561074Y-97617434D01*
X149633620Y-97647412D01*
X149637962Y-97650026D01*
X149695444Y-97695589D01*
X149740965Y-97757322D01*
X149752789Y-97781771D01*
X149772472Y-97852943D01*
X149777607Y-97894828D01*
X149780899Y-97971278D01*
X149780899Y-98318958D01*
X149779903Y-98361659D01*
X149772472Y-98436927D01*
X149767343Y-98463260D01*
X149740965Y-98532915D01*
X149738598Y-98537170D01*
X149692058Y-98598055D01*
X149633620Y-98642824D01*
X149610905Y-98654751D01*
X149539498Y-98677391D01*
X149462895Y-98684223D01*
X149401586Y-98679455D01*
X149331003Y-98659310D01*
X149289358Y-98637998D01*
X149230253Y-98590800D01*
X149214932Y-98574321D01*
X149174747Y-98512555D01*
X149151305Y-98440269D01*
X149144524Y-98366219D01*
X149358847Y-98366219D01*
X149382661Y-98435462D01*
X149391509Y-98447165D01*
X149462895Y-98469900D01*
X149468772Y-98469797D01*
X149538732Y-98443522D01*
X149543708Y-98438311D01*
X149566576Y-98367684D01*
X149566576Y-98227001D01*
X149144524Y-98227001D01*
X149144524Y-97941603D01*
X149358847Y-97941603D01*
X149358847Y-98062869D01*
X149566576Y-98062869D01*
X149566576Y-97941603D01*
X149565597Y-97919754D01*
X149538732Y-97850378D01*
X149533272Y-97844944D01*
X149462895Y-97819970D01*
X149454073Y-97820237D01*
X149387057Y-97850378D01*
X149373420Y-97869740D01*
X149358847Y-97941603D01*
X149144524Y-97941603D01*
X149144524Y-97935375D01*
X149145261Y-97909212D01*
X149156322Y-97835786D01*
X149184179Y-97763108D01*
X149228421Y-97699802D01*
X149265319Y-97667226D01*
X149329904Y-97630926D01*
X149388868Y-97612781D01*
X149462895Y-97605647D01*
X149487521Y-97606299D01*
G37*
G36*
X148614508Y-97609370D02*
G01*
X148685103Y-97637154D01*
X148713557Y-97660504D01*
X148766436Y-97714457D01*
X148766436Y-97617370D01*
X148980759Y-97617370D01*
X148980759Y-99094551D01*
X148766436Y-99094551D01*
X148766436Y-98575047D01*
X148740359Y-98608416D01*
X148681440Y-98656013D01*
X148642439Y-98673204D01*
X148568966Y-98684223D01*
X148518724Y-98681063D01*
X148447333Y-98657479D01*
X148418370Y-98636029D01*
X148372761Y-98577183D01*
X148350613Y-98501407D01*
X148349153Y-98487400D01*
X148345260Y-98411333D01*
X148344384Y-98333246D01*
X148344384Y-97962486D01*
X148558708Y-97962486D01*
X148558708Y-98346069D01*
X148559235Y-98361326D01*
X148580323Y-98432897D01*
X148589755Y-98445472D01*
X148661290Y-98469900D01*
X148669607Y-98469620D01*
X148736394Y-98438026D01*
X148745049Y-98427540D01*
X148766436Y-98356693D01*
X148766436Y-97949663D01*
X148765051Y-97925532D01*
X148737493Y-97856240D01*
X148729971Y-97847739D01*
X148661290Y-97819970D01*
X148648369Y-97820582D01*
X148583254Y-97859171D01*
X148569279Y-97889065D01*
X148558708Y-97962486D01*
X148344384Y-97962486D01*
X148344384Y-97932077D01*
X148345775Y-97866859D01*
X148352811Y-97792859D01*
X148355686Y-97777013D01*
X148379555Y-97705664D01*
X148420800Y-97652921D01*
X148490318Y-97615414D01*
X148564936Y-97605647D01*
X148614508Y-97609370D01*
G37*
G36*
X148187947Y-97171871D02*
G01*
X147973624Y-97171871D01*
X147973624Y-98369883D01*
X147959596Y-98443779D01*
X147952375Y-98453414D01*
X147882205Y-98480618D01*
X147871408Y-98481990D01*
X147871408Y-98684223D01*
X147944735Y-98680914D01*
X148002567Y-98672500D01*
X148071922Y-98648126D01*
X148102584Y-98627803D01*
X148150330Y-98571525D01*
X148165965Y-98538044D01*
X148183117Y-98466097D01*
X148187925Y-98391164D01*
X148187947Y-98385270D01*
X148187947Y-97171871D01*
G37*
G36*
X147551240Y-97610205D02*
G01*
X147622647Y-97629460D01*
X147664790Y-97649742D01*
X147724496Y-97694307D01*
X147740341Y-97711057D01*
X147781900Y-97773683D01*
X147806143Y-97846755D01*
X147813156Y-97921453D01*
X147609458Y-97921453D01*
X147605547Y-97906473D01*
X147564029Y-97845982D01*
X147557435Y-97841333D01*
X147486726Y-97819970D01*
X147468642Y-97820802D01*
X147402828Y-97854042D01*
X147394860Y-97867325D01*
X147379381Y-97939771D01*
X147379381Y-98045650D01*
X147410888Y-98039422D01*
X147436167Y-98039422D01*
X147459248Y-98039422D01*
X147482696Y-98039422D01*
X147501274Y-98039615D01*
X147574562Y-98044918D01*
X147648659Y-98061404D01*
X147693807Y-98081033D01*
X147752340Y-98127716D01*
X147782263Y-98172385D01*
X147806928Y-98242388D01*
X147808703Y-98250992D01*
X147818778Y-98326005D01*
X147821583Y-98400657D01*
X147817375Y-98471673D01*
X147799601Y-98544638D01*
X147787579Y-98570833D01*
X147741349Y-98629635D01*
X147732327Y-98637197D01*
X147666611Y-98672500D01*
X147664184Y-98673221D01*
X147589674Y-98684223D01*
X147540346Y-98680543D01*
X147468774Y-98653082D01*
X147431157Y-98620645D01*
X147383411Y-98563689D01*
X147379381Y-98563689D01*
X147379381Y-98672500D01*
X147165058Y-98672500D01*
X147165058Y-98210148D01*
X147379381Y-98210148D01*
X147379381Y-98357793D01*
X147381815Y-98392717D01*
X147410156Y-98460375D01*
X147424634Y-98474507D01*
X147495518Y-98496645D01*
X147514491Y-98495292D01*
X147577950Y-98458176D01*
X147593406Y-98431651D01*
X147607260Y-98357426D01*
X147600304Y-98299432D01*
X147557800Y-98236892D01*
X147514229Y-98215307D01*
X147438366Y-98203553D01*
X147379381Y-98210148D01*
X147165058Y-98210148D01*
X147165058Y-97938672D01*
X147170693Y-97865031D01*
X147190703Y-97792859D01*
X147212084Y-97749033D01*
X147258481Y-97688811D01*
X147293841Y-97660647D01*
X147362162Y-97626530D01*
X147415707Y-97612254D01*
X147489290Y-97605647D01*
X147551240Y-97610205D01*
G37*
G36*
X146783673Y-98366585D02*
G01*
X146760805Y-98437938D01*
X146755829Y-98443155D01*
X146685869Y-98469796D01*
X146679992Y-98469900D01*
X146608606Y-98446682D01*
X146599758Y-98434729D01*
X146575944Y-98364754D01*
X146361621Y-98364754D01*
X146368402Y-98439158D01*
X146391844Y-98511701D01*
X146432029Y-98573582D01*
X146447350Y-98590068D01*
X146506455Y-98637895D01*
X146548100Y-98659310D01*
X146618683Y-98679455D01*
X146679992Y-98684223D01*
X146756595Y-98677391D01*
X146828002Y-98654751D01*
X146850717Y-98642824D01*
X146909155Y-98598055D01*
X146955695Y-98537170D01*
X146958062Y-98532915D01*
X146984440Y-98463260D01*
X146989569Y-98436927D01*
X146997000Y-98361659D01*
X146997996Y-98318958D01*
X146997996Y-97971278D01*
X146994704Y-97894828D01*
X146989569Y-97852943D01*
X146969886Y-97781771D01*
X146958062Y-97757322D01*
X146912541Y-97695589D01*
X146855059Y-97650026D01*
X146850717Y-97647412D01*
X146778171Y-97617434D01*
X146704618Y-97606299D01*
X146679992Y-97605647D01*
X146605965Y-97612781D01*
X146547001Y-97630926D01*
X146482416Y-97667226D01*
X146445518Y-97699802D01*
X146401276Y-97763930D01*
X146373419Y-97839078D01*
X146362358Y-97916133D01*
X146361621Y-97943801D01*
X146575944Y-97943801D01*
X146590517Y-97869428D01*
X146604154Y-97850012D01*
X146671170Y-97820234D01*
X146679992Y-97819970D01*
X146750369Y-97844643D01*
X146755829Y-97850012D01*
X146782694Y-97918309D01*
X146783673Y-97939771D01*
X146783673Y-98366585D01*
G37*
G36*
X145951373Y-97606299D02*
G01*
X146024926Y-97617434D01*
X146097472Y-97647412D01*
X146101814Y-97650026D01*
X146159296Y-97695589D01*
X146204817Y-97757322D01*
X146216641Y-97781771D01*
X146236324Y-97852943D01*
X146241459Y-97894828D01*
X146244751Y-97971278D01*
X146244751Y-98318958D01*
X146243755Y-98361659D01*
X146236324Y-98436927D01*
X146231195Y-98463260D01*
X146204817Y-98532915D01*
X146202450Y-98537170D01*
X146155910Y-98598055D01*
X146097472Y-98642824D01*
X146074757Y-98654751D01*
X146003350Y-98677391D01*
X145926747Y-98684223D01*
X145865438Y-98679455D01*
X145794855Y-98659310D01*
X145753210Y-98637998D01*
X145694105Y-98590800D01*
X145678785Y-98574321D01*
X145638599Y-98512555D01*
X145615157Y-98440269D01*
X145608376Y-98366219D01*
X145822699Y-98366219D01*
X145846513Y-98435462D01*
X145855361Y-98447165D01*
X145926747Y-98469900D01*
X145932624Y-98469797D01*
X146002584Y-98443522D01*
X146007560Y-98438311D01*
X146030428Y-98367684D01*
X146030428Y-98227001D01*
X145608376Y-98227001D01*
X145608376Y-97941603D01*
X145822699Y-97941603D01*
X145822699Y-98062869D01*
X146030428Y-98062869D01*
X146030428Y-97941603D01*
X146029449Y-97919754D01*
X146002584Y-97850378D01*
X145997124Y-97844944D01*
X145926747Y-97819970D01*
X145917925Y-97820237D01*
X145850909Y-97850378D01*
X145837273Y-97869740D01*
X145822699Y-97941603D01*
X145608376Y-97941603D01*
X145608376Y-97935375D01*
X145609113Y-97909212D01*
X145620174Y-97835786D01*
X145648031Y-97763108D01*
X145692273Y-97699802D01*
X145729171Y-97667226D01*
X145793756Y-97630926D01*
X145852720Y-97612781D01*
X145926747Y-97605647D01*
X145951373Y-97606299D01*
G37*
G36*
X145444611Y-98672500D02*
G01*
X145444611Y-97617370D01*
X145230288Y-97617370D01*
X145230288Y-97720685D01*
X145225892Y-97720685D01*
X145176454Y-97662539D01*
X145146024Y-97638253D01*
X145077388Y-97610232D01*
X145026590Y-97605647D01*
X144953242Y-97617529D01*
X144912284Y-97639352D01*
X144857281Y-97688137D01*
X144837546Y-97712259D01*
X144782142Y-97660244D01*
X144750351Y-97637154D01*
X144680490Y-97610847D01*
X144617361Y-97605647D01*
X144543840Y-97616780D01*
X144536028Y-97619202D01*
X144471808Y-97654596D01*
X144461290Y-97663899D01*
X144416800Y-97723513D01*
X144407068Y-97744132D01*
X144388652Y-97817553D01*
X144386185Y-97863567D01*
X144386185Y-98672500D01*
X144600508Y-98672500D01*
X144600508Y-97944167D01*
X144615552Y-97871352D01*
X144627253Y-97853309D01*
X144694382Y-97820263D01*
X144703456Y-97819970D01*
X144774180Y-97842778D01*
X144785888Y-97857339D01*
X144806469Y-97927943D01*
X144808236Y-97965050D01*
X144808236Y-98672500D01*
X145022560Y-98672500D01*
X145022560Y-97944167D01*
X145037603Y-97871352D01*
X145049304Y-97853309D01*
X145116133Y-97820263D01*
X145125142Y-97819970D01*
X145195865Y-97842778D01*
X145207574Y-97857339D01*
X145228491Y-97927943D01*
X145230288Y-97965050D01*
X145230288Y-98672500D01*
X145444611Y-98672500D01*
G37*
G36*
X143931973Y-97606299D02*
G01*
X144005526Y-97617434D01*
X144078073Y-97647412D01*
X144082414Y-97650026D01*
X144139896Y-97695589D01*
X144185417Y-97757322D01*
X144197241Y-97781771D01*
X144216925Y-97852943D01*
X144222059Y-97894828D01*
X144225351Y-97971278D01*
X144225351Y-98318958D01*
X144224355Y-98361659D01*
X144216925Y-98436927D01*
X144211795Y-98463260D01*
X144185417Y-98532915D01*
X144183050Y-98537170D01*
X144136510Y-98598055D01*
X144078073Y-98642824D01*
X144055357Y-98654751D01*
X143983951Y-98677391D01*
X143907347Y-98684223D01*
X143846038Y-98679455D01*
X143775456Y-98659310D01*
X143733810Y-98637998D01*
X143674705Y-98590800D01*
X143659385Y-98574321D01*
X143619199Y-98512555D01*
X143595758Y-98440269D01*
X143588976Y-98366219D01*
X143803299Y-98366219D01*
X143827113Y-98435462D01*
X143835962Y-98447165D01*
X143907347Y-98469900D01*
X143913224Y-98469797D01*
X143983184Y-98443522D01*
X143988160Y-98438311D01*
X144011028Y-98367684D01*
X144011028Y-98227001D01*
X143588976Y-98227001D01*
X143588976Y-97941603D01*
X143803299Y-97941603D01*
X143803299Y-98062869D01*
X144011028Y-98062869D01*
X144011028Y-97941603D01*
X144010049Y-97919754D01*
X143983184Y-97850378D01*
X143977724Y-97844944D01*
X143907347Y-97819970D01*
X143898525Y-97820237D01*
X143831509Y-97850378D01*
X143817873Y-97869740D01*
X143803299Y-97941603D01*
X143588976Y-97941603D01*
X143588976Y-97935375D01*
X143589714Y-97909212D01*
X143600774Y-97835786D01*
X143628631Y-97763108D01*
X143672874Y-97699802D01*
X143709771Y-97667226D01*
X143774357Y-97630926D01*
X143833320Y-97612781D01*
X143907347Y-97605647D01*
X143931973Y-97606299D01*
G37*
G36*
X143425211Y-98672500D02*
G01*
X143425211Y-97617370D01*
X143210888Y-97617370D01*
X143210888Y-97720685D01*
X143206492Y-97720685D01*
X143157054Y-97662539D01*
X143126624Y-97638253D01*
X143057988Y-97610232D01*
X143007190Y-97605647D01*
X142933001Y-97617561D01*
X142928055Y-97619202D01*
X142863260Y-97658214D01*
X142857347Y-97663899D01*
X142814966Y-97726354D01*
X142807521Y-97744132D01*
X142791044Y-97817553D01*
X142788837Y-97863567D01*
X142788837Y-98672500D01*
X143003160Y-98672500D01*
X143003160Y-97944167D01*
X143018204Y-97871352D01*
X143029904Y-97853309D01*
X143096733Y-97820263D01*
X143105742Y-97819970D01*
X143176465Y-97842778D01*
X143188174Y-97857339D01*
X143209092Y-97927943D01*
X143210888Y-97965050D01*
X143210888Y-98672500D01*
X143425211Y-98672500D01*
G37*
G36*
X142612249Y-97617370D02*
G01*
X142612249Y-97277384D01*
X142397926Y-97277384D01*
X142397926Y-97617370D01*
X142280689Y-97617370D01*
X142280689Y-97781502D01*
X142397926Y-97781502D01*
X142397926Y-98355961D01*
X142391331Y-98413480D01*
X142370082Y-98443888D01*
X142333812Y-98456345D01*
X142280689Y-98458176D01*
X142280689Y-98672500D01*
X142365320Y-98672500D01*
X142440714Y-98664492D01*
X142482922Y-98649785D01*
X142544791Y-98606118D01*
X142558027Y-98591167D01*
X142594938Y-98524677D01*
X142599426Y-98510933D01*
X142611936Y-98437237D01*
X142612249Y-98424105D01*
X142612249Y-97781502D01*
X142726188Y-97781502D01*
X142726188Y-97617370D01*
X142612249Y-97617370D01*
G37*
G36*
X150896478Y-99691871D02*
G01*
X150896478Y-100837859D01*
X150902523Y-100911613D01*
X150923775Y-100986977D01*
X150960329Y-101054284D01*
X150993199Y-101094680D01*
X151049648Y-101142687D01*
X151107871Y-101174914D01*
X151179403Y-101196896D01*
X151256613Y-101204195D01*
X151262110Y-101204223D01*
X151340011Y-101196786D01*
X151411057Y-101172142D01*
X151433202Y-101159160D01*
X151494293Y-101114281D01*
X151541280Y-101069767D01*
X151373485Y-100934945D01*
X151319629Y-100974146D01*
X151255882Y-100989900D01*
X151211552Y-100982573D01*
X151163192Y-100954363D01*
X151125456Y-100900507D01*
X151111159Y-100826125D01*
X151110801Y-100808916D01*
X151110801Y-99691871D01*
X150896478Y-99691871D01*
G37*
G36*
X150436405Y-100126299D02*
G01*
X150509958Y-100137434D01*
X150582504Y-100167412D01*
X150586846Y-100170026D01*
X150644328Y-100215589D01*
X150689849Y-100277322D01*
X150701673Y-100301771D01*
X150721356Y-100372943D01*
X150726491Y-100414828D01*
X150729783Y-100491278D01*
X150729783Y-100838958D01*
X150728787Y-100881659D01*
X150721356Y-100956927D01*
X150716227Y-100983260D01*
X150689849Y-101052915D01*
X150687482Y-101057170D01*
X150640942Y-101118055D01*
X150582504Y-101162824D01*
X150559789Y-101174751D01*
X150488382Y-101197391D01*
X150411778Y-101204223D01*
X150350470Y-101199455D01*
X150279887Y-101179310D01*
X150238242Y-101157998D01*
X150179137Y-101110800D01*
X150163816Y-101094321D01*
X150123631Y-101032555D01*
X150100189Y-100960269D01*
X150093408Y-100886219D01*
X150307731Y-100886219D01*
X150331545Y-100955462D01*
X150340393Y-100967165D01*
X150411778Y-100989900D01*
X150417656Y-100989797D01*
X150487616Y-100963522D01*
X150492592Y-100958311D01*
X150515460Y-100887684D01*
X150515460Y-100747001D01*
X150093408Y-100747001D01*
X150093408Y-100461603D01*
X150307731Y-100461603D01*
X150307731Y-100582869D01*
X150515460Y-100582869D01*
X150515460Y-100461603D01*
X150514481Y-100439754D01*
X150487616Y-100370378D01*
X150482156Y-100364944D01*
X150411778Y-100339970D01*
X150402957Y-100340237D01*
X150335941Y-100370378D01*
X150322304Y-100389740D01*
X150307731Y-100461603D01*
X150093408Y-100461603D01*
X150093408Y-100455375D01*
X150094145Y-100429212D01*
X150105206Y-100355786D01*
X150133063Y-100283108D01*
X150177305Y-100219802D01*
X150214203Y-100187226D01*
X150278788Y-100150926D01*
X150337752Y-100132781D01*
X150411778Y-100125647D01*
X150436405Y-100126299D01*
G37*
G36*
X149886046Y-101192500D02*
G01*
X149886046Y-100301502D01*
X149999985Y-100301502D01*
X149999985Y-100137370D01*
X149886046Y-100137370D01*
X149886046Y-99987527D01*
X149880550Y-99913247D01*
X149864064Y-99851606D01*
X149828428Y-99786721D01*
X149804346Y-99759282D01*
X149744309Y-99716143D01*
X149721548Y-99707259D01*
X149649558Y-99692833D01*
X149624828Y-99691871D01*
X149531039Y-99691871D01*
X149531039Y-99906195D01*
X149616402Y-99906195D01*
X149670372Y-99959141D01*
X149671723Y-99980566D01*
X149671723Y-100137370D01*
X149531039Y-100137370D01*
X149531039Y-100301502D01*
X149671723Y-100301502D01*
X149671723Y-101192500D01*
X149886046Y-101192500D01*
G37*
G36*
X149420030Y-101192500D02*
G01*
X149420030Y-100301502D01*
X149533970Y-100301502D01*
X149533970Y-100137370D01*
X149420030Y-100137370D01*
X149420030Y-99987527D01*
X149414535Y-99913247D01*
X149398049Y-99851606D01*
X149362413Y-99786721D01*
X149338331Y-99759282D01*
X149278293Y-99716143D01*
X149255533Y-99707259D01*
X149183542Y-99692833D01*
X149158813Y-99691871D01*
X149065023Y-99691871D01*
X149065023Y-99906195D01*
X149150386Y-99906195D01*
X149204357Y-99959141D01*
X149205707Y-99980566D01*
X149205707Y-100137370D01*
X149065023Y-100137370D01*
X149065023Y-100301502D01*
X149205707Y-100301502D01*
X149205707Y-101192500D01*
X149420030Y-101192500D01*
G37*
G36*
X147924531Y-100766051D02*
G01*
X147924531Y-100858375D01*
X147932762Y-100933955D01*
X147950543Y-100989534D01*
X147985654Y-101054900D01*
X148021618Y-101099809D01*
X148078007Y-101147543D01*
X148128596Y-101176013D01*
X148200029Y-101198824D01*
X148259755Y-101204223D01*
X148335890Y-101197783D01*
X148382120Y-101187737D01*
X148451383Y-101158941D01*
X148493862Y-101129118D01*
X148544351Y-101074301D01*
X148575927Y-101021407D01*
X148598805Y-100951453D01*
X148607303Y-100877672D01*
X148607801Y-100852513D01*
X148607801Y-100031857D01*
X148600873Y-99957004D01*
X148583254Y-99895936D01*
X148548736Y-99830493D01*
X148512912Y-99787126D01*
X148452154Y-99739413D01*
X148403736Y-99714952D01*
X148332957Y-99694370D01*
X148264151Y-99688574D01*
X148184682Y-99696370D01*
X148114022Y-99719757D01*
X148045844Y-99764028D01*
X148021618Y-99787126D01*
X147976770Y-99847095D01*
X147950543Y-99901432D01*
X147930247Y-99974625D01*
X147924531Y-100045047D01*
X147924531Y-100128578D01*
X148138855Y-100128578D01*
X148138855Y-100057503D01*
X148153686Y-99982535D01*
X148173293Y-99949059D01*
X148234952Y-99906549D01*
X148265983Y-99902897D01*
X148339134Y-99920204D01*
X148368199Y-99951990D01*
X148389923Y-100023660D01*
X148393478Y-100076554D01*
X148393478Y-100837126D01*
X148382887Y-100910027D01*
X148366367Y-100945936D01*
X148304535Y-100986422D01*
X148268181Y-100989900D01*
X148224950Y-100982573D01*
X148181353Y-100958393D01*
X148150945Y-100912597D01*
X148138855Y-100839324D01*
X148138855Y-100766051D01*
X147924531Y-100766051D01*
G37*
G36*
X147753439Y-101192500D02*
G01*
X147753439Y-99691871D01*
X147539116Y-99691871D01*
X147539116Y-100241051D01*
X147534720Y-100241051D01*
X147485282Y-100182583D01*
X147454852Y-100158253D01*
X147386216Y-100130232D01*
X147335418Y-100125647D01*
X147261229Y-100137561D01*
X147256283Y-100139202D01*
X147191488Y-100178214D01*
X147185575Y-100183899D01*
X147143194Y-100246354D01*
X147135749Y-100264132D01*
X147119272Y-100337553D01*
X147117065Y-100383567D01*
X147117065Y-101192500D01*
X147331388Y-101192500D01*
X147331388Y-100464167D01*
X147346432Y-100391352D01*
X147358132Y-100373309D01*
X147424961Y-100340263D01*
X147433970Y-100339970D01*
X147504693Y-100362778D01*
X147516402Y-100377339D01*
X147537319Y-100447943D01*
X147539116Y-100485050D01*
X147539116Y-101192500D01*
X147753439Y-101192500D01*
G37*
G36*
X146667249Y-100126299D02*
G01*
X146740802Y-100137434D01*
X146813349Y-100167412D01*
X146817690Y-100170026D01*
X146875173Y-100215589D01*
X146920693Y-100277322D01*
X146932517Y-100301771D01*
X146952201Y-100372943D01*
X146957335Y-100414828D01*
X146960627Y-100491278D01*
X146960627Y-100838958D01*
X146959631Y-100881659D01*
X146952201Y-100956927D01*
X146947072Y-100983260D01*
X146920693Y-101052915D01*
X146918326Y-101057170D01*
X146871786Y-101118055D01*
X146813349Y-101162824D01*
X146790633Y-101174751D01*
X146719227Y-101197391D01*
X146642623Y-101204223D01*
X146581314Y-101199455D01*
X146510732Y-101179310D01*
X146469086Y-101157998D01*
X146409982Y-101110800D01*
X146394661Y-101094321D01*
X146354475Y-101032555D01*
X146331034Y-100960269D01*
X146324252Y-100886219D01*
X146538575Y-100886219D01*
X146562389Y-100955462D01*
X146571238Y-100967165D01*
X146642623Y-100989900D01*
X146648500Y-100989797D01*
X146718460Y-100963522D01*
X146723436Y-100958311D01*
X146746304Y-100887684D01*
X146746304Y-100747001D01*
X146324252Y-100747001D01*
X146324252Y-100461603D01*
X146538575Y-100461603D01*
X146538575Y-100582869D01*
X146746304Y-100582869D01*
X146746304Y-100461603D01*
X146745325Y-100439754D01*
X146718460Y-100370378D01*
X146713000Y-100364944D01*
X146642623Y-100339970D01*
X146633801Y-100340237D01*
X146566785Y-100370378D01*
X146553149Y-100389740D01*
X146538575Y-100461603D01*
X146324252Y-100461603D01*
X146324252Y-100455375D01*
X146324990Y-100429212D01*
X146336050Y-100355786D01*
X146363907Y-100283108D01*
X146408150Y-100219802D01*
X146445047Y-100187226D01*
X146509633Y-100150926D01*
X146568596Y-100132781D01*
X146642623Y-100125647D01*
X146667249Y-100126299D01*
G37*
G36*
X146160487Y-101192500D02*
G01*
X146160487Y-100137370D01*
X145946164Y-100137370D01*
X145946164Y-100240685D01*
X145941768Y-100240685D01*
X145892330Y-100182539D01*
X145861901Y-100158253D01*
X145793265Y-100130232D01*
X145742466Y-100125647D01*
X145668277Y-100137561D01*
X145663331Y-100139202D01*
X145598536Y-100178214D01*
X145592623Y-100183899D01*
X145550242Y-100246354D01*
X145542797Y-100264132D01*
X145526321Y-100337553D01*
X145524113Y-100383567D01*
X145524113Y-101192500D01*
X145738436Y-101192500D01*
X145738436Y-100464167D01*
X145753480Y-100391352D01*
X145765180Y-100373309D01*
X145832009Y-100340263D01*
X145841018Y-100339970D01*
X145911742Y-100362778D01*
X145923450Y-100377339D01*
X145944368Y-100447943D01*
X145946164Y-100485050D01*
X145946164Y-101192500D01*
X146160487Y-101192500D01*
G37*
G36*
X145344228Y-101351502D02*
G01*
X145344228Y-100981474D01*
X145129905Y-100981474D01*
X145129905Y-101195797D01*
X145344228Y-101351502D01*
G37*
G36*
X144588052Y-101192500D02*
G01*
X144588052Y-100990633D01*
X144203370Y-100264865D01*
X144175348Y-100196717D01*
X144170397Y-100169977D01*
X144166211Y-100094012D01*
X144166000Y-100068494D01*
X144166000Y-100010975D01*
X144176625Y-99957486D01*
X144208132Y-99919017D01*
X144268949Y-99902897D01*
X144340052Y-99925464D01*
X144345519Y-99930375D01*
X144373481Y-100000275D01*
X144373729Y-100009876D01*
X144373729Y-100131142D01*
X144588052Y-100131142D01*
X144588052Y-100013906D01*
X144580169Y-99940850D01*
X144563139Y-99887876D01*
X144526533Y-99823304D01*
X144493896Y-99784928D01*
X144435106Y-99737158D01*
X144393513Y-99714952D01*
X144320933Y-99692928D01*
X144267850Y-99688574D01*
X144194509Y-99695256D01*
X144124235Y-99718982D01*
X144063312Y-99760147D01*
X144024584Y-99801781D01*
X143987182Y-99869160D01*
X143969629Y-99921215D01*
X143955622Y-99994725D01*
X143951677Y-100063365D01*
X143951677Y-100137353D01*
X143951677Y-100154223D01*
X143957905Y-100224565D01*
X143979155Y-100291610D01*
X144011545Y-100358660D01*
X144019088Y-100373309D01*
X144335993Y-100978176D01*
X143951677Y-100978176D01*
X143951677Y-101192500D01*
X144588052Y-101192500D01*
G37*
G36*
X143535081Y-99691665D02*
G01*
X143609127Y-99710556D01*
X143650360Y-99729824D01*
X143710610Y-99774303D01*
X143743428Y-99811256D01*
X143780952Y-99875054D01*
X143799622Y-99933631D01*
X143806963Y-100008777D01*
X143806963Y-100884387D01*
X143801985Y-100946948D01*
X143780952Y-101018110D01*
X143758695Y-101059532D01*
X143710610Y-101118494D01*
X143675731Y-101147036D01*
X143609127Y-101182241D01*
X143561485Y-101196474D01*
X143488593Y-101204223D01*
X143442328Y-101201132D01*
X143368425Y-101182241D01*
X143327141Y-101162973D01*
X143266576Y-101118494D01*
X143234056Y-101081601D01*
X143196967Y-101018110D01*
X143178033Y-100959533D01*
X143170589Y-100884387D01*
X143170589Y-100009509D01*
X143384912Y-100009509D01*
X143384912Y-100883654D01*
X143385169Y-100892106D01*
X143414221Y-100959858D01*
X143419796Y-100965227D01*
X143488959Y-100989900D01*
X143494618Y-100989783D01*
X143563698Y-100959858D01*
X143568870Y-100954021D01*
X143592640Y-100883654D01*
X143592640Y-100009509D01*
X143592386Y-100001058D01*
X143563698Y-99933306D01*
X143558123Y-99927871D01*
X143488959Y-99902897D01*
X143483301Y-99903016D01*
X143414221Y-99933306D01*
X143408983Y-99939142D01*
X143384912Y-100009509D01*
X143170589Y-100009509D01*
X143170589Y-100008777D01*
X143175638Y-99946216D01*
X143196967Y-99875054D01*
X143218949Y-99833408D01*
X143266576Y-99774303D01*
X143301678Y-99745761D01*
X143368425Y-99710556D01*
X143412286Y-99697161D01*
X143488593Y-99688574D01*
X143535081Y-99691665D01*
G37*
G36*
X143025875Y-101192500D02*
G01*
X143025875Y-100990633D01*
X142641192Y-100264865D01*
X142613171Y-100196717D01*
X142608219Y-100169977D01*
X142604033Y-100094012D01*
X142603823Y-100068494D01*
X142603823Y-100010975D01*
X142614448Y-99957486D01*
X142645955Y-99919017D01*
X142706771Y-99902897D01*
X142777875Y-99925464D01*
X142783342Y-99930375D01*
X142811304Y-100000275D01*
X142811552Y-100009876D01*
X142811552Y-100131142D01*
X143025875Y-100131142D01*
X143025875Y-100013906D01*
X143017992Y-99940850D01*
X143000962Y-99887876D01*
X142964356Y-99823304D01*
X142931719Y-99784928D01*
X142872929Y-99737158D01*
X142831335Y-99714952D01*
X142758755Y-99692928D01*
X142705672Y-99688574D01*
X142632332Y-99695256D01*
X142562058Y-99718982D01*
X142501135Y-99760147D01*
X142462407Y-99801781D01*
X142425005Y-99869160D01*
X142407452Y-99921215D01*
X142393445Y-99994725D01*
X142389500Y-100063365D01*
X142389500Y-100137353D01*
X142389500Y-100154223D01*
X142395728Y-100224565D01*
X142416977Y-100291610D01*
X142449367Y-100358660D01*
X142456911Y-100373309D01*
X142773816Y-100978176D01*
X142389500Y-100978176D01*
X142389500Y-101192500D01*
X143025875Y-101192500D01*
G37*
G36*
X141869629Y-101192500D02*
G01*
X141869629Y-100984771D01*
X142291681Y-100984771D01*
X142291681Y-100770448D01*
X141986133Y-99691871D01*
X141760453Y-99691871D01*
X142079556Y-100770448D01*
X141869629Y-100770448D01*
X141869629Y-100348396D01*
X141655306Y-100348396D01*
X141655306Y-100770448D01*
X141541367Y-100770448D01*
X141541367Y-100984771D01*
X141655306Y-100984771D01*
X141655306Y-101192500D01*
X141869629Y-101192500D01*
G37*
M02*
