M48
; DRILL file {KiCad 8.0.6} date 2024-11-06T22:11:39-0500
; FORMAT={-:-/ absolute / metric / decimal}
; #@! TF.CreationDate,2024-11-06T22:11:39-05:00
; #@! TF.GenerationSoftware,Kicad,Pcbnew,8.0.6
; #@! TF.FileFunction,Plated,1,2,PTH
FMAT,2
METRIC
; #@! TA.AperFunction,Plated,PTH,ViaDrill
T1C0.200
; #@! TA.AperFunction,Plated,PTH,ComponentDrill
T2C0.200
; #@! TA.AperFunction,Plated,PTH,ViaDrill
T3C0.300
; #@! TA.AperFunction,Plated,PTH,ComponentDrill
T4C0.500
%
G90
G05
T1
X143.68Y-92.41
X145.73Y-94.26
X146.78Y-97.15
X147.91Y-97.14
X148.61Y-92.14
X148.65Y-99.22
X151.11Y-97.26
T2
X139.25Y-89.18
X139.25Y-90.45
X139.25Y-91.72
X139.25Y-92.99
X139.25Y-94.26
X139.25Y-95.53
X139.25Y-96.8
X139.25Y-98.07
X139.25Y-99.34
X139.25Y-100.61
X139.25Y-101.88
X140.15Y-88.28
X140.15Y-102.78
X141.42Y-88.28
X141.42Y-102.78
X142.69Y-88.28
X142.69Y-102.78
X143.96Y-88.28
X143.96Y-102.78
X145.23Y-88.28
X145.23Y-102.78
X146.5Y-88.28
X146.5Y-102.78
X147.77Y-88.28
X147.77Y-102.78
X149.04Y-88.28
X149.04Y-102.78
X150.31Y-88.28
X150.31Y-102.78
X151.58Y-88.28
X151.58Y-102.78
X152.85Y-88.28
X152.85Y-102.78
X153.75Y-89.18
X153.75Y-90.45
X153.75Y-91.72
X153.75Y-92.99
X153.75Y-94.26
X153.75Y-95.53
X153.75Y-96.8
X153.75Y-98.07
X153.75Y-99.34
X153.75Y-100.61
X153.75Y-101.88
T3
X140.81Y-98.07
X141.44Y-89.3
X146.49Y-94.79
X146.5Y-101.53
X147.75Y-96.14
X149.68Y-89.31
X151.58Y-101.54
X151.74Y-92.99
X152.66Y-89.27
T4
X138.5Y-89.18
X138.5Y-90.45
X138.5Y-91.72
X138.5Y-92.99
X138.5Y-94.26
X138.5Y-95.53
X138.5Y-96.8
X138.5Y-98.07
X138.5Y-99.34
X138.5Y-100.61
X138.5Y-101.88
X140.15Y-87.53
X140.15Y-103.53
X141.42Y-87.53
X141.42Y-103.53
X142.69Y-87.53
X142.69Y-103.53
X143.96Y-87.53
X143.96Y-103.53
X145.23Y-87.53
X145.23Y-103.53
X146.5Y-87.53
X146.5Y-103.53
X147.77Y-87.53
X147.77Y-103.53
X149.04Y-87.53
X149.04Y-103.53
X150.31Y-87.53
X150.31Y-103.53
X151.58Y-87.53
X151.58Y-103.53
X152.85Y-87.53
X152.85Y-103.53
X154.5Y-89.18
X154.5Y-90.45
X154.5Y-91.72
X154.5Y-92.99
X154.5Y-94.26
X154.5Y-95.53
X154.5Y-96.8
X154.5Y-98.07
X154.5Y-99.34
X154.5Y-100.61
X154.5Y-101.88
M30
