%TF.GenerationSoftware,KiCad,Pcbnew,8.0.6*%
%TF.CreationDate,2024-11-06T22:11:36-05:00*%
%TF.ProjectId,CPLD Replacement,43504c44-2052-4657-906c-6163656d656e,rev?*%
%TF.SameCoordinates,Original*%
%TF.FileFunction,Legend,Top*%
%TF.FilePolarity,Positive*%
%FSLAX46Y46*%
G04 Gerber Fmt 4.6, Leading zero omitted, Abs format (unit mm)*
G04 Created by KiCad (PCBNEW 8.0.6) date 2024-11-06 22:11:36*
%MOMM*%
%LPD*%
G01*
G04 APERTURE LIST*
%ADD10C,0.010000*%
%ADD11C,0.150000*%
%ADD12C,0.120000*%
%ADD13C,0.152400*%
G04 APERTURE END LIST*
D10*
X147489047Y-90051019D02*
X145480000Y-90050000D01*
X146500000Y-89030000D01*
X147489047Y-90051019D01*
G36*
X147489047Y-90051019D02*
G01*
X145480000Y-90050000D01*
X146500000Y-89030000D01*
X147489047Y-90051019D01*
G37*
D11*
G36*
X141211991Y-99188827D02*
G01*
X141289237Y-99209692D01*
X141354598Y-99244468D01*
X141419589Y-99307500D01*
X141458211Y-99373574D01*
X141484950Y-99453559D01*
X141499805Y-99547454D01*
X141503147Y-99627004D01*
X141499140Y-99706681D01*
X141485476Y-99785317D01*
X141462115Y-99854516D01*
X141422633Y-99919758D01*
X141365738Y-99974798D01*
X141318134Y-100005825D01*
X141549309Y-100682500D01*
X141322530Y-100682500D01*
X141120663Y-100049422D01*
X140990604Y-100049422D01*
X140990604Y-100682500D01*
X140776281Y-100682500D01*
X140776281Y-99861844D01*
X140990604Y-99861844D01*
X141114069Y-99861844D01*
X141187158Y-99852982D01*
X141205660Y-99846090D01*
X141259149Y-99801027D01*
X141282230Y-99728853D01*
X141288509Y-99653031D01*
X141288824Y-99628836D01*
X141285418Y-99554735D01*
X141282230Y-99529551D01*
X141259282Y-99459119D01*
X141256951Y-99455179D01*
X141198332Y-99410941D01*
X141124268Y-99396713D01*
X141103810Y-99396195D01*
X140990604Y-99396195D01*
X140990604Y-99861844D01*
X140776281Y-99861844D01*
X140776281Y-99181871D01*
X141122861Y-99181871D01*
X141211991Y-99188827D01*
G37*
G36*
X141900286Y-99814949D02*
G01*
X141976890Y-99809958D01*
X142032177Y-99792234D01*
X142066524Y-99724365D01*
X142068814Y-99686721D01*
X142068814Y-99496212D01*
X142044020Y-99425522D01*
X142040604Y-99421840D01*
X141970687Y-99393010D01*
X141964766Y-99392897D01*
X141894963Y-99416357D01*
X141884899Y-99428435D01*
X141861085Y-99496212D01*
X141861085Y-99616379D01*
X141646762Y-99616379D01*
X141646762Y-99493647D01*
X141655545Y-99418967D01*
X141671675Y-99370549D01*
X141708281Y-99307010D01*
X141740918Y-99270532D01*
X141801597Y-99224908D01*
X141843500Y-99203853D01*
X141916080Y-99182746D01*
X141969163Y-99178574D01*
X142044913Y-99186141D01*
X142114609Y-99213012D01*
X142175804Y-99256346D01*
X142201804Y-99282622D01*
X142238074Y-99332814D01*
X142264452Y-99392897D01*
X142277225Y-99465857D01*
X142282243Y-99540990D01*
X142283137Y-99596962D01*
X142283137Y-99670539D01*
X142283137Y-99721892D01*
X142272606Y-99794677D01*
X142270314Y-99800661D01*
X142227450Y-99857081D01*
X142166833Y-99898281D01*
X142152345Y-99906540D01*
X142213732Y-99950087D01*
X142230747Y-99965891D01*
X142270314Y-100028906D01*
X142282824Y-100102853D01*
X142283137Y-100118665D01*
X142283137Y-100194084D01*
X142283137Y-100250190D01*
X142283137Y-100325151D01*
X142283137Y-100372555D01*
X142278022Y-100446367D01*
X142276909Y-100452423D01*
X142260056Y-100509209D01*
X142232579Y-100557203D01*
X142183556Y-100614473D01*
X142129997Y-100655389D01*
X142057823Y-100684515D01*
X141984615Y-100693882D01*
X141965866Y-100694223D01*
X141889781Y-100685706D01*
X141858154Y-100677737D01*
X141790864Y-100648370D01*
X141754473Y-100622782D01*
X141702467Y-100566139D01*
X141677170Y-100523497D01*
X141653444Y-100450839D01*
X141646762Y-100374021D01*
X141646762Y-100251655D01*
X141861085Y-100251655D01*
X141861085Y-100363763D01*
X141880908Y-100436560D01*
X141888929Y-100447294D01*
X141955945Y-100479613D01*
X141964766Y-100479900D01*
X142035206Y-100453121D01*
X142040604Y-100447294D01*
X142067822Y-100379201D01*
X142068814Y-100359366D01*
X142068814Y-100144310D01*
X142060479Y-100070854D01*
X142035475Y-100027807D01*
X141984550Y-100006924D01*
X141909867Y-100002566D01*
X141900286Y-100002527D01*
X141900286Y-99814949D01*
G37*
G36*
X146439550Y-95081871D02*
G01*
X146439550Y-96244712D01*
X146432209Y-96319748D01*
X146413538Y-96380633D01*
X146377552Y-96445999D01*
X146340265Y-96490908D01*
X146282048Y-96539002D01*
X146230356Y-96567112D01*
X146158035Y-96589034D01*
X146098099Y-96594223D01*
X146021566Y-96585645D01*
X145966207Y-96567112D01*
X145901962Y-96529477D01*
X145857764Y-96490908D01*
X145810674Y-96432214D01*
X145783025Y-96380633D01*
X145761400Y-96306972D01*
X145756281Y-96244712D01*
X145756281Y-95081871D01*
X145970604Y-95081871D01*
X145970604Y-96224195D01*
X145980840Y-96297267D01*
X146006874Y-96342165D01*
X146071583Y-96377542D01*
X146097732Y-96379900D01*
X146169654Y-96358674D01*
X146188957Y-96342165D01*
X146220941Y-96274169D01*
X146225227Y-96224195D01*
X146225227Y-95081871D01*
X146439550Y-95081871D01*
G37*
G36*
X146884683Y-96582500D02*
G01*
X146884683Y-95309384D01*
X146673657Y-95467653D01*
X146673657Y-95239774D01*
X146884683Y-95081871D01*
X147099006Y-95081871D01*
X147099006Y-96582500D01*
X146884683Y-96582500D01*
G37*
X145150000Y-93454819D02*
X145150000Y-93692914D01*
X144911905Y-93597676D02*
X145150000Y-93692914D01*
X145150000Y-93692914D02*
X145388095Y-93597676D01*
X145007143Y-93883390D02*
X145150000Y-93692914D01*
X145150000Y-93692914D02*
X145292857Y-93883390D01*
G36*
X141401991Y-90168827D02*
G01*
X141479237Y-90189692D01*
X141544598Y-90224468D01*
X141609589Y-90287500D01*
X141648211Y-90353574D01*
X141674950Y-90433559D01*
X141689805Y-90527454D01*
X141693147Y-90607004D01*
X141689140Y-90686681D01*
X141675476Y-90765317D01*
X141652115Y-90834516D01*
X141612633Y-90899758D01*
X141555738Y-90954798D01*
X141508134Y-90985825D01*
X141739309Y-91662500D01*
X141512530Y-91662500D01*
X141310663Y-91029422D01*
X141180604Y-91029422D01*
X141180604Y-91662500D01*
X140966281Y-91662500D01*
X140966281Y-90841844D01*
X141180604Y-90841844D01*
X141304069Y-90841844D01*
X141377158Y-90832982D01*
X141395660Y-90826090D01*
X141449149Y-90781027D01*
X141472230Y-90708853D01*
X141478509Y-90633031D01*
X141478824Y-90608836D01*
X141475418Y-90534735D01*
X141472230Y-90509551D01*
X141449282Y-90439119D01*
X141446951Y-90435179D01*
X141388332Y-90390941D01*
X141314268Y-90376713D01*
X141293810Y-90376195D01*
X141180604Y-90376195D01*
X141180604Y-90841844D01*
X140966281Y-90841844D01*
X140966281Y-90161871D01*
X141312861Y-90161871D01*
X141401991Y-90168827D01*
G37*
G36*
X142094683Y-91662500D02*
G01*
X142094683Y-90389384D01*
X141883657Y-90547653D01*
X141883657Y-90319774D01*
X142094683Y-90161871D01*
X142309006Y-90161871D01*
X142309006Y-91662500D01*
X142094683Y-91662500D01*
G37*
G36*
X151206833Y-91216051D02*
G01*
X151206833Y-91308375D01*
X151198603Y-91383955D01*
X151180821Y-91439534D01*
X151145710Y-91504900D01*
X151109747Y-91549809D01*
X151053358Y-91597543D01*
X151002768Y-91626013D01*
X150931336Y-91648824D01*
X150871610Y-91654223D01*
X150795475Y-91647783D01*
X150749244Y-91637737D01*
X150679982Y-91608941D01*
X150637503Y-91579118D01*
X150587013Y-91524301D01*
X150555437Y-91471407D01*
X150532559Y-91401453D01*
X150524062Y-91327672D01*
X150523564Y-91302513D01*
X150523564Y-90481857D01*
X150530491Y-90407004D01*
X150548110Y-90345936D01*
X150582629Y-90280493D01*
X150618452Y-90237126D01*
X150679211Y-90189413D01*
X150727629Y-90164952D01*
X150798407Y-90144370D01*
X150867213Y-90138574D01*
X150946683Y-90146370D01*
X151017343Y-90169757D01*
X151085521Y-90214028D01*
X151109747Y-90237126D01*
X151154595Y-90297095D01*
X151180821Y-90351432D01*
X151201118Y-90424625D01*
X151206833Y-90495047D01*
X151206833Y-90578578D01*
X150992510Y-90578578D01*
X150992510Y-90507503D01*
X150977679Y-90432535D01*
X150958072Y-90399059D01*
X150896413Y-90356549D01*
X150865382Y-90352897D01*
X150792231Y-90370204D01*
X150763166Y-90401990D01*
X150741442Y-90473660D01*
X150737887Y-90526554D01*
X150737887Y-91287126D01*
X150748477Y-91360027D01*
X150764998Y-91395936D01*
X150826830Y-91436422D01*
X150863183Y-91439900D01*
X150906414Y-91432573D01*
X150950012Y-91408393D01*
X150980420Y-91362597D01*
X150992510Y-91289324D01*
X150992510Y-91216051D01*
X151206833Y-91216051D01*
G37*
G36*
X151612398Y-91642500D02*
G01*
X151612398Y-90369384D01*
X151401373Y-90527653D01*
X151401373Y-90299774D01*
X151612398Y-90141871D01*
X151826721Y-90141871D01*
X151826721Y-91642500D01*
X151612398Y-91642500D01*
G37*
G36*
X150961991Y-99188827D02*
G01*
X151039237Y-99209692D01*
X151104598Y-99244468D01*
X151169589Y-99307500D01*
X151208211Y-99373574D01*
X151234950Y-99453559D01*
X151249805Y-99547454D01*
X151253147Y-99627004D01*
X151249140Y-99706681D01*
X151235476Y-99785317D01*
X151212115Y-99854516D01*
X151172633Y-99919758D01*
X151115738Y-99974798D01*
X151068134Y-100005825D01*
X151299309Y-100682500D01*
X151072530Y-100682500D01*
X150870663Y-100049422D01*
X150740604Y-100049422D01*
X150740604Y-100682500D01*
X150526281Y-100682500D01*
X150526281Y-99861844D01*
X150740604Y-99861844D01*
X150864069Y-99861844D01*
X150937158Y-99852982D01*
X150955660Y-99846090D01*
X151009149Y-99801027D01*
X151032230Y-99728853D01*
X151038509Y-99653031D01*
X151038824Y-99628836D01*
X151035418Y-99554735D01*
X151032230Y-99529551D01*
X151009282Y-99459119D01*
X151006951Y-99455179D01*
X150948332Y-99410941D01*
X150874268Y-99396713D01*
X150853810Y-99396195D01*
X150740604Y-99396195D01*
X150740604Y-99861844D01*
X150526281Y-99861844D01*
X150526281Y-99181871D01*
X150872861Y-99181871D01*
X150961991Y-99188827D01*
G37*
G36*
X151396762Y-100682500D02*
G01*
X151396762Y-100480633D01*
X151781445Y-99754865D01*
X151809466Y-99686717D01*
X151814418Y-99659977D01*
X151818604Y-99584012D01*
X151818814Y-99558494D01*
X151818814Y-99500975D01*
X151808189Y-99447486D01*
X151776682Y-99409017D01*
X151715866Y-99392897D01*
X151644762Y-99415464D01*
X151639295Y-99420375D01*
X151611333Y-99490275D01*
X151611085Y-99499876D01*
X151611085Y-99621142D01*
X151396762Y-99621142D01*
X151396762Y-99503906D01*
X151404645Y-99430850D01*
X151421675Y-99377876D01*
X151458281Y-99313304D01*
X151490918Y-99274928D01*
X151549708Y-99227158D01*
X151591302Y-99204952D01*
X151663882Y-99182928D01*
X151716965Y-99178574D01*
X151790305Y-99185256D01*
X151860579Y-99208982D01*
X151921502Y-99250147D01*
X151960231Y-99291781D01*
X151997632Y-99359160D01*
X152015185Y-99411215D01*
X152029193Y-99484725D01*
X152033137Y-99553365D01*
X152033137Y-99627353D01*
X152033137Y-99644223D01*
X152026909Y-99714565D01*
X152005660Y-99781610D01*
X151973270Y-99848660D01*
X151965726Y-99863309D01*
X151648821Y-100468176D01*
X152033137Y-100468176D01*
X152033137Y-100682500D01*
X151396762Y-100682500D01*
G37*
D12*
%TO.C,R3*%
X143845276Y-99537500D02*
X144354724Y-99537500D01*
X143845276Y-100582500D02*
X144354724Y-100582500D01*
D13*
%TO.C,U1*%
X144836189Y-98082700D02*
X148163811Y-98082700D01*
X148163811Y-92977300D02*
X144836189Y-92977300D01*
X146804800Y-92977300D02*
G75*
G02*
X146195200Y-92977300I-304800J0D01*
G01*
D12*
%TO.C,R1*%
X143845276Y-90517500D02*
X144354724Y-90517500D01*
X143845276Y-91562500D02*
X144354724Y-91562500D01*
%TO.C,C1*%
X148974724Y-90507500D02*
X148465276Y-90507500D01*
X148974724Y-91552500D02*
X148465276Y-91552500D01*
%TO.C,R2*%
X148465276Y-99537500D02*
X148974724Y-99537500D01*
X148465276Y-100582500D02*
X148974724Y-100582500D01*
%TD*%
M02*
