%TF.GenerationSoftware,KiCad,Pcbnew,8.0.6*%
%TF.CreationDate,2024-11-07T15:02:59-05:00*%
%TF.ProjectId,SLI Interconnect PCB,534c4920-496e-4746-9572-636f6e6e6563,1.0*%
%TF.SameCoordinates,Original*%
%TF.FileFunction,Profile,NP*%
%FSLAX46Y46*%
G04 Gerber Fmt 4.6, Leading zero omitted, Abs format (unit mm)*
G04 Created by KiCad (PCBNEW 8.0.6) date 2024-11-07 15:02:59*
%MOMM*%
%LPD*%
G01*
G04 APERTURE LIST*
%TA.AperFunction,Profile*%
%ADD10C,0.020000*%
%TD*%
G04 APERTURE END LIST*
D10*
X171550000Y-122090000D02*
X171550000Y-79380000D01*
X156940000Y-78180000D02*
X138370000Y-78180000D01*
X119840000Y-78180000D02*
X137590000Y-78180000D01*
X137980000Y-78570000D02*
X138370000Y-78180000D01*
X157330000Y-78570000D02*
X157720000Y-78180000D01*
X137979972Y-122899753D02*
X138369972Y-123289753D01*
X156940000Y-123289753D02*
X138370000Y-123289753D01*
X157720000Y-78180000D02*
X170350000Y-78180000D01*
X119839716Y-123289716D02*
G75*
G02*
X118639909Y-122090000I-44J1199763D01*
G01*
X157330000Y-78570000D02*
X156940000Y-78180000D01*
X171549972Y-122090037D02*
G75*
G02*
X170350256Y-123289753I-1199700J-16D01*
G01*
X157329972Y-122899753D02*
X157719972Y-123289753D01*
X137980000Y-78570000D02*
X137590011Y-78180011D01*
X118640000Y-79379716D02*
G75*
G02*
X119839716Y-78180000I1199700J16D01*
G01*
X170350284Y-78180000D02*
G75*
G02*
X171550000Y-79379716I16J-1199700D01*
G01*
X157329972Y-122899753D02*
X156939972Y-123289753D01*
X119839972Y-123289753D02*
X137590000Y-123289753D01*
X118640000Y-122090000D02*
X118640000Y-79380000D01*
X157720000Y-123289753D02*
X170349972Y-123289753D01*
X137979972Y-122899753D02*
X137589972Y-123289753D01*
M02*
