M48
; DRILL file {KiCad 8.0.6} date 2024-11-07T15:03:02-0500
; FORMAT={-:-/ absolute / metric / decimal}
; #@! TF.CreationDate,2024-11-07T15:03:02-05:00
; #@! TF.GenerationSoftware,Kicad,Pcbnew,8.0.6
; #@! TF.FileFunction,Plated,1,2,PTH
FMAT,2
METRIC
; #@! TA.AperFunction,Plated,PTH,ViaDrill
T1C0.200
; #@! TA.AperFunction,Plated,PTH,ComponentDrill
T2C1.000
%
G90
G05
T1
X125.61Y-95.72
X125.61Y-99.72
X125.61Y-103.64
X131.29Y-96.73
X131.29Y-100.73
X131.29Y-104.65
X136.13Y-97.82
X136.13Y-101.82
X136.13Y-105.74
X137.98Y-81.74
X137.98Y-83.72
X137.98Y-85.7
X137.98Y-87.75
X137.98Y-89.76
X137.98Y-91.77
X137.98Y-93.75
X137.98Y-97.81
X137.98Y-101.81
X137.98Y-105.73
X137.98Y-107.76
X137.98Y-109.77
X137.98Y-111.73
X137.98Y-113.78
X137.98Y-115.76
X137.98Y-117.73
X137.98Y-119.8
X145.27Y-116.805
X145.88Y-95.79
X145.88Y-99.79
X145.88Y-103.71
X151.46Y-96.74
X151.46Y-100.74
X151.46Y-104.66
X157.33Y-81.74
X157.33Y-83.72
X157.33Y-85.7
X157.33Y-87.75
X157.33Y-89.76
X157.33Y-91.77
X157.33Y-93.75
X157.33Y-97.81
X157.33Y-101.81
X157.33Y-105.73
X157.33Y-107.76
X157.33Y-109.77
X157.33Y-111.73
X157.33Y-113.78
X157.33Y-115.76
X157.33Y-117.73
X157.33Y-119.8
X158.59Y-95.75
X164.01Y-98.73
X164.25Y-94.45
X164.5Y-80.81
X165.21Y-83.29
T2
X120.03Y-81.74
X120.03Y-83.74
X120.03Y-85.74
X120.03Y-87.74
X120.03Y-89.74
X120.03Y-91.74
X120.03Y-93.74
X120.03Y-95.74
X120.03Y-97.74
X120.03Y-99.74
X120.03Y-101.74
X120.03Y-103.74
X120.03Y-105.74
X120.03Y-107.74
X120.03Y-109.74
X120.03Y-111.74
X120.03Y-113.74
X120.03Y-115.74
X120.03Y-117.74
X120.03Y-119.74
X122.03Y-81.74
X122.03Y-83.74
X122.03Y-85.74
X122.03Y-87.74
X122.03Y-89.74
X122.03Y-91.74
X122.03Y-93.74
X122.03Y-95.74
X122.03Y-97.74
X122.03Y-99.74
X122.03Y-101.74
X122.03Y-103.74
X122.03Y-105.74
X122.03Y-107.74
X122.03Y-109.74
X122.03Y-111.74
X122.03Y-113.74
X122.03Y-115.74
X122.03Y-117.74
X122.03Y-119.74
X140.35Y-81.74
X140.35Y-83.74
X140.35Y-85.74
X140.35Y-87.74
X140.35Y-89.74
X140.35Y-91.74
X140.35Y-93.74
X140.35Y-95.74
X140.35Y-97.74
X140.35Y-99.74
X140.35Y-101.74
X140.35Y-103.74
X140.35Y-105.74
X140.35Y-107.74
X140.35Y-109.74
X140.35Y-111.74
X140.35Y-113.74
X140.35Y-115.74
X140.35Y-117.74
X140.35Y-119.74
X142.35Y-81.74
X142.35Y-83.74
X142.35Y-85.74
X142.35Y-87.74
X142.35Y-89.74
X142.35Y-91.74
X142.35Y-93.74
X142.35Y-95.74
X142.35Y-97.74
X142.35Y-99.74
X142.35Y-101.74
X142.35Y-103.74
X142.35Y-105.74
X142.35Y-107.74
X142.35Y-109.74
X142.35Y-111.74
X142.35Y-113.74
X142.35Y-115.74
X142.35Y-117.74
X142.35Y-119.74
X160.67Y-81.74
X160.67Y-83.74
X160.67Y-85.74
X160.67Y-87.74
X160.67Y-89.74
X160.67Y-91.74
X160.67Y-93.74
X160.67Y-95.74
X160.67Y-97.74
X160.67Y-99.74
X160.67Y-101.74
X160.67Y-103.74
X160.67Y-105.74
X160.67Y-107.74
X160.67Y-109.74
X160.67Y-111.74
X160.67Y-113.74
X160.67Y-115.74
X160.67Y-117.74
X160.67Y-119.74
X162.67Y-81.74
X162.67Y-83.74
X162.67Y-85.74
X162.67Y-87.74
X162.67Y-89.74
X162.67Y-91.74
X162.67Y-93.74
X162.67Y-95.74
X162.67Y-97.74
X162.67Y-99.74
X162.67Y-101.74
X162.67Y-103.74
X162.67Y-105.74
X162.67Y-107.74
X162.67Y-109.74
X162.67Y-111.74
X162.67Y-113.74
X162.67Y-115.74
X162.67Y-117.74
X162.67Y-119.74
X166.77Y-80.42
X166.77Y-82.96
X166.77Y-85.5
X166.77Y-88.04
X166.77Y-90.58
X166.77Y-93.12
X166.77Y-95.66
X166.77Y-98.2
X166.77Y-100.74
X166.77Y-103.28
X166.77Y-105.82
X166.77Y-108.36
X166.77Y-110.9
X166.77Y-113.44
X166.77Y-115.98
X166.77Y-118.52
X166.77Y-121.06
X169.31Y-80.42
X169.31Y-82.96
X169.31Y-85.5
X169.31Y-88.04
X169.31Y-90.58
X169.31Y-93.12
X169.31Y-95.66
X169.31Y-98.2
X169.31Y-100.74
X169.31Y-103.28
X169.31Y-105.82
X169.31Y-108.36
X169.31Y-110.9
X169.31Y-113.44
X169.31Y-115.98
X169.31Y-118.52
X169.31Y-121.06
M30
